<svg width="36" height="36" viewBox="0 0 36 36" fill="none" xmlns="http://www.w3.org/2000/svg">
<path d="M34.6408 14.8703L19.9567 14.8696C19.3083 14.8696 18.7827 15.3951 18.7827 16.0436V20.7345C18.7827 21.3827 19.3083 21.9084 19.9567 21.9084H28.2258C27.3203 24.2583 25.6303 26.2263 23.4741 27.4767L27.0001 33.5805C32.6561 30.3093 36.0001 24.5698 36.0001 18.1448C36.0001 17.2299 35.9326 16.576 35.7978 15.8396C35.6953 15.2801 35.2095 14.8703 34.6408 14.8703Z" fill="#167EE6"/>
<path d="M17.9999 28.9565C13.9531 28.9565 10.4204 26.7455 8.52298 23.4736L2.41943 26.9917C5.52549 32.3749 11.3441 36 17.9999 36C21.265 36 24.3459 35.1209 26.9999 33.5889V33.5805L23.4739 27.4767C21.8611 28.4121 19.9947 28.9565 17.9999 28.9565Z" fill="#12B347"/>
<path d="M27 33.5888V33.5804L23.474 27.4766C21.8612 28.4119 19.995 28.9564 18 28.9564V35.9999C21.2651 35.9999 24.3461 35.1208 27 33.5888Z" fill="#0F993E"/>
<path d="M7.04348 17.9999C7.04348 16.0052 7.58784 14.1391 8.52307 12.5263L2.41952 9.0083C0.879047 11.6539 0 14.7265 0 17.9999C0 21.2734 0.879047 24.3459 2.41952 26.9916L8.52307 23.4735C7.58784 21.8608 7.04348 19.9946 7.04348 17.9999Z" fill="#FFD500"/>
<path d="M17.9999 7.04348C20.6388 7.04348 23.0628 7.98117 24.9561 9.54091C25.4231 9.92566 26.102 9.89789 26.5299 9.47004L29.8535 6.14637C30.339 5.66093 30.3044 4.86633 29.7858 4.41647C26.6137 1.66451 22.4863 0 17.9999 0C11.3441 0 5.52549 3.6251 2.41943 9.00837L8.52298 12.5264C10.4204 9.25453 13.9531 7.04348 17.9999 7.04348Z" fill="#FF4B26"/>
<path d="M24.9562 9.54091C25.4232 9.92566 26.1022 9.89789 26.53 9.47004L29.8536 6.14637C30.339 5.66093 30.3044 4.86633 29.7859 4.41647C26.6138 1.66444 22.4864 0 18 0V7.04348C20.6388 7.04348 23.0629 7.98117 24.9562 9.54091Z" fill="white"/>
</svg>
