<svg width="92" height="92" viewBox="0 0 92 92" fill="none" xmlns="http://www.w3.org/2000/svg">
<g clip-path="url(#clip0_65_4678)">
<path d="M92.0001 45.9998C92.0001 49.1634 91.681 52.2538 91.0708 55.2392C90.5629 57.7356 89.8463 60.1851 88.9285 62.5616V62.5634C87.0285 67.4901 84.3003 72.0036 80.9208 75.9428C79.8153 77.2298 78.6401 78.4552 77.4003 79.6134C76.5249 80.4319 75.618 81.2161 74.6817 81.9641C71.0486 84.865 66.965 87.2288 62.5546 88.9299C57.4176 90.9125 51.8357 91.9996 46.0003 91.9996C35.1538 91.9996 25.184 88.2445 17.3189 81.9641C15.056 80.1559 12.9672 78.14 11.0798 75.9428C4.17247 67.8976 0.000488281 57.434 0.000488281 45.9998C0.000488281 44.5767 0.0642773 43.1685 0.192035 41.7772C0.653832 36.7078 1.93626 31.8749 3.90959 27.414C5.73137 23.298 8.14718 19.4714 11.0798 16.0567C13.3106 13.4578 15.8231 11.1147 18.5712 9.07044C26.2298 3.37202 35.7207 0 46.0003 0C51.8339 0 57.4139 1.08513 62.5508 3.06798C69.7119 5.82978 76.009 10.332 80.9208 16.0567C83.0493 18.5354 84.9079 21.2336 86.4652 24.1058C87.3073 25.6567 88.0584 27.2553 88.7145 28.8936C90.8341 34.1825 92.0001 39.956 92.0001 45.9998Z" fill="#FF525D"/>
<path d="M22.421 39.3834C22.421 40.7052 21.3507 41.7772 20.0272 41.7772H0.190918C0.652715 36.7079 1.93514 31.875 3.90847 27.4141H16.304C16.6187 27.4138 16.9303 27.4757 17.2209 27.5962C17.5115 27.7167 17.7755 27.8934 17.9976 28.1163C18.2199 28.3383 18.3962 28.602 18.5164 28.8923C18.6365 29.1825 18.6982 29.4937 18.6978 29.8079C18.6978 31.1296 17.6258 32.2017 16.304 32.2017H8.58915C7.26737 32.2017 6.19536 33.2737 6.19536 34.5955C6.19536 35.9172 7.26737 36.9892 8.58915 36.9892H20.0272C20.6898 36.9892 21.2869 37.2577 21.7207 37.6915C21.9433 37.9133 22.1198 38.177 22.24 38.4674C22.3602 38.7578 22.4217 39.0691 22.421 39.3834ZM26.0138 49.1695C26.0138 47.8474 24.942 46.7756 23.6198 46.7756H3.44596C2.12382 46.7756 1.05216 47.8474 1.05216 49.1695C1.05216 50.4917 2.124 51.5635 3.44596 51.5635H9.97149C11.2936 51.5635 12.3653 52.6354 12.3653 53.9573C12.3653 55.2795 11.2934 56.3511 9.97149 56.3511H9.30628C7.98414 56.3511 6.91249 57.423 6.91249 58.7451C6.91249 60.0672 7.98432 61.1391 9.30628 61.1391H28.6414C29.9635 61.1391 31.0354 60.0672 31.0354 58.7451C31.0354 57.423 32.1072 56.3511 33.4293 56.3511H34.0945C35.4167 56.3511 36.4885 55.2793 36.4885 53.9573C36.4885 52.6352 35.4167 51.5635 34.0945 51.5635H28.4078C27.0856 51.5633 26.0138 50.4917 26.0138 49.1695Z" fill="#FFDC8D"/>
<path d="M80.9195 4.46847V75.9428C72.4838 85.7717 59.968 91.9995 45.9991 91.9995C32.0302 91.9995 19.5144 85.7717 11.0786 75.9428V4.46847C11.0786 2.00136 13.0782 1.20976e-08 15.5471 1.20976e-08H76.4509C78.9182 -0.000179675 80.9195 2.00136 80.9195 4.46847Z" fill="#5C5E70"/>
<path d="M77.3997 15.3576V79.6145C76.2459 80.6919 75.0383 81.7102 73.7817 82.6656C66.063 88.5236 56.437 92.0008 45.9996 92.0008C35.5623 92.0008 25.9363 88.5236 18.2176 82.6656C16.9609 81.7103 15.7534 80.692 14.5996 79.6145V15.3576C14.5996 13.8856 15.7918 12.6934 17.2638 12.6934H74.7354C74.897 12.6934 75.0546 12.7085 75.2068 12.7365C76.4534 12.958 77.3997 14.0471 77.3997 15.3576Z" fill="#FFD15C"/>
<path d="M57.8272 8.18648H34.1714C33.0826 8.18648 32.2002 7.30386 32.2002 6.21531C32.2002 5.12659 33.0828 4.24414 34.1714 4.24414H57.8272C58.916 4.24414 59.7984 5.12677 59.7984 6.21531C59.7984 7.30386 58.9158 8.18648 57.8272 8.18648Z" fill="#494B5B"/>
<path d="M62.5546 12.2679V88.9299C57.4176 90.9126 51.8357 91.9997 46.0003 91.9997C35.1538 91.9997 25.1841 88.2446 17.319 81.9641C15.056 80.156 12.9672 78.1401 11.0798 75.9428C4.17247 67.8977 0.000488281 57.4341 0.000488281 45.9999V12.2679C0.000488281 10.503 1.43116 9.07031 3.19803 9.07031H59.3572C61.079 9.07031 62.4852 10.4334 62.551 12.1383C62.5546 12.1816 62.5546 12.2247 62.5546 12.2679Z" fill="white"/>
<path d="M21.9336 44.4013C28.963 44.4013 34.6615 38.7028 34.6615 31.6733C34.6615 24.6438 28.963 18.9453 21.9336 18.9453C14.9041 18.9453 9.20557 24.6438 9.20557 31.6733C9.20557 38.7028 14.9041 44.4013 21.9336 44.4013Z" fill="#FFD15C"/>
<path d="M31.5074 40.0557C29.1761 42.7182 25.7513 44.3984 21.9344 44.3984C18.1174 44.3984 14.6926 42.718 12.3613 40.0557C14.7233 37.4934 18.1063 35.8827 21.8648 35.8633C21.8898 35.8662 21.9121 35.8662 21.9371 35.8662C21.9593 35.8662 21.9843 35.8662 22.0066 35.8633C25.7653 35.8825 29.1454 37.4934 31.5074 40.0557Z" fill="#FF525D"/>
<path d="M21.9369 25.0508C25.3849 25.0508 28.18 27.8456 28.18 31.2938C28.18 34.7115 25.4345 37.4837 22.032 37.533H21.8381C18.4355 37.4835 15.6938 34.7075 15.6938 31.2938C15.694 27.8456 18.4889 25.0508 21.9369 25.0508Z" fill="#F2F2F2"/>
<path d="M40.1587 23.7637H56.0165V26.8239H40.1587V23.7637ZM40.1587 31.0354H56.0165V34.0957H40.1587V31.0354ZM40.1587 38.3072H56.0165V41.3675H40.1587V38.3072ZM7.67627 51.5833H56.0154V54.6435H7.67627V51.5833ZM7.67627 58.3368H48.5054V61.3971H7.67627V58.3368Z" fill="#5C5E70"/>
</g>
<defs>
<clipPath id="clip0_65_4678">
<rect width="92" height="92" fill="white"/>
</clipPath>
</defs>
</svg>
