<svg width="232" height="233" viewBox="0 0 232 233" fill="none" xmlns="http://www.w3.org/2000/svg">
<g id="Frame" opacity="0.8" clip-path="url(#clip0_30_1965)">
<path id="Vector" opacity="0.5" d="M203.751 200.098C161.416 244.923 96.3789 231.659 86.7637 229.526C74.6522 226.845 45.8403 220.453 24.3406 195.233C-8.57292 156.64 -5.24459 96.3011 20.1718 55.617C27.5681 43.7785 52.4633 8.60887 99.2113 0.952661C101.951 0.5142 150.767 -6.66982 190.043 26.3918C195.338 30.8523 203.886 38.9217 211.383 50.6759C234.622 87.144 245.616 155.78 203.751 200.098Z" fill="url(#paint0_linear_30_1965)"/>
<g id="Group">
<path id="Vector_2" d="M112.02 12.0409C112.499 9.68844 114.937 8.31403 117.189 9.11506C132.125 14.4525 183.621 32.1005 228.033 37.9776C230.058 38.2474 231.47 40.1278 231.151 42.1514L205.314 208.446C204.961 210.723 202.835 212.291 200.566 211.954C181.957 209.163 105.372 197.375 78.9723 188.825C77.3669 188.302 76.4088 186.65 76.745 184.997L112.02 12.0409Z" fill="#018543" fill-opacity="0.8"/>
<path id="Vector_3" opacity="0.6" d="M112.962 16.5437C113.424 14.284 115.769 12.9517 117.937 13.7275C132.31 18.871 181.865 35.8445 224.604 41.5023C226.554 41.7637 227.907 43.5681 227.604 45.5159L202.743 205.546C202.398 207.738 200.364 209.247 198.17 208.919C180.26 206.229 106.566 194.888 81.1492 186.658C79.6027 186.161 78.6865 184.567 79.0059 182.974L112.962 16.5437Z" fill="white"/>
<path id="Vector_4" opacity="0.78" d="M126.956 29.748C125.628 29.4191 124.308 30.296 124.09 31.6451L118.534 65.9042C118.349 67.0425 119.072 68.1302 120.19 68.4C126.418 69.9009 145.833 74.5047 156.978 76.2586C158.239 76.461 159.441 75.6515 159.743 74.412C161.29 68.0965 165.643 49.6727 165.82 41.6201C165.845 40.3216 164.971 39.1749 163.71 38.8629L126.956 29.748Z" fill="white"/>
<path id="Vector_5" d="M142.849 55.7353C146.953 55.7353 150.279 52.3981 150.279 48.2815C150.279 44.1648 146.953 40.8276 142.849 40.8276C138.746 40.8276 135.419 44.1648 135.419 48.2815C135.419 52.3981 138.746 55.7353 142.849 55.7353Z" fill="url(#paint1_linear_30_1965)"/>
<path id="Vector_6" d="M127.309 67.3547L150.473 72.2536C151.893 72.5572 153.078 71.1575 152.565 69.7999C151.246 66.2923 148.086 60.8874 140.908 59.5889C133.999 58.3325 129.065 61.5704 126.401 64.0747C125.258 65.1371 125.787 67.0343 127.309 67.3547Z" fill="url(#paint2_linear_30_1965)"/>
<g id="Group_2" opacity="0.6">
<path id="Vector_7" d="M216.098 54.1838C216.821 54.3356 217.51 53.9477 217.619 53.3153C217.729 52.6829 217.233 52.0337 216.51 51.865L176.066 42.5562C175.343 42.3875 174.83 42.8597 174.931 43.5933L175.007 44.1835C175.107 44.9171 175.78 45.6507 176.503 45.8025L216.098 54.1838Z" fill="white"/>
</g>
<g id="Group_3" opacity="0.6">
<path id="Vector_8" d="M174.737 48.8799C174.015 48.7113 173.502 49.1835 173.603 49.917L173.678 50.5073C173.779 51.2409 174.452 51.9744 175.174 52.1262L214.77 60.4991C215.493 60.6509 216.182 60.263 216.291 59.6306C216.4 58.9982 215.905 58.349 215.182 58.1803L174.737 48.8799Z" fill="white"/>
</g>
<g id="Group_4" opacity="0.6">
<path id="Vector_9" d="M173.393 55.2969C172.67 55.1283 172.157 55.6004 172.258 56.334L172.334 56.9243C172.435 57.6578 173.107 58.3914 173.83 58.5432L213.425 66.9161C214.148 67.0679 214.837 66.68 214.946 66.0476C215.056 65.4152 214.56 64.766 213.837 64.5973L173.393 55.2969Z" fill="white"/>
</g>
<g id="Group_5" opacity="0.6">
<path id="Vector_10" d="M210.862 98.7046C211.584 98.8564 212.257 98.4601 212.341 97.8277C212.433 97.1953 211.912 96.5461 211.189 96.3859L116.239 75.5252C115.517 75.365 115.197 75.7782 115.525 76.4443L116.097 77.5911C116.433 78.2572 117.29 78.9233 118.021 79.0751L210.862 98.7046Z" fill="white"/>
</g>
<g id="Group_6" opacity="0.6">
<path id="Vector_11" d="M114.912 81.849C114.189 81.6887 113.869 82.1019 114.197 82.768L114.769 83.9148C115.105 84.5809 115.962 85.247 116.693 85.3988L209.534 105.028C210.257 105.18 210.929 104.784 211.013 104.151C211.105 103.519 210.584 102.87 209.862 102.71L114.912 81.849Z" fill="white"/>
</g>
<path id="Vector_12" opacity="0.6" d="M112.264 92.3215C114.584 92.625 118.887 93.4514 121.249 93.9151C122.249 94.1091 122.98 94.9775 123.014 95.9978C123.073 97.9877 123.005 101.403 122.199 104.868C121.955 105.905 120.929 106.555 119.896 106.327L111.213 104.396C110.146 104.16 109.432 103.148 109.558 102.06L110.516 93.6875C110.617 92.8274 111.398 92.2034 112.264 92.3215Z" fill="white"/>
<g id="Group_7" opacity="0.6">
<path id="Vector_13" d="M127.645 99.0922C126.931 98.9067 126.3 99.362 126.258 100.104L126.174 101.554C126.132 102.296 126.687 103.03 127.418 103.182L148.548 107.651C149.271 107.802 149.985 107.33 150.128 106.605L150.195 106.242C150.338 105.509 149.867 104.767 149.153 104.581L127.645 99.0922Z" fill="white"/>
</g>
<path id="Vector_14" opacity="0.6" d="M159.651 102.339C161.97 102.642 166.274 103.468 168.636 103.932C169.636 104.126 170.367 104.995 170.401 106.015C170.459 108.005 170.392 111.42 169.585 114.885C169.342 115.922 168.316 116.572 167.282 116.344L158.6 114.413C157.533 114.177 156.818 113.165 156.944 112.077L157.902 103.705C158.003 102.844 158.793 102.221 159.651 102.339Z" fill="white"/>
<g id="Group_8" opacity="0.6">
<path id="Vector_15" d="M175.032 109.109C174.317 108.924 173.687 109.379 173.645 110.121L173.561 111.571C173.519 112.313 174.074 113.047 174.805 113.199L195.935 117.668C196.657 117.819 197.372 117.347 197.515 116.622L197.582 116.26C197.725 115.526 197.254 114.784 196.54 114.598L175.032 109.109Z" fill="white"/>
</g>
<g id="Group_9">
<path id="Vector_16" d="M117.694 127.483C117.685 127.483 117.677 127.483 117.668 127.474L109.659 125.704C108.516 125.451 107.734 124.456 107.843 123.393L108.558 116.487C108.6 116.083 108.801 115.72 109.138 115.459C109.507 115.172 110.003 115.046 110.491 115.113C111.18 115.206 112.146 115.332 113.172 115.459C115.332 115.729 118.022 116.057 119.509 116.352C120.585 116.572 121.367 117.406 121.425 118.401C121.518 120.037 120.862 122.972 120.131 126.083C119.896 127.095 118.803 127.719 117.694 127.483ZM110.407 115.737C110.087 115.695 109.759 115.771 109.524 115.956C109.331 116.108 109.205 116.319 109.188 116.555L108.474 123.461C108.398 124.203 108.969 124.902 109.802 125.088L117.811 126.859C117.82 126.859 117.82 126.859 117.828 126.859C118.61 127.027 119.366 126.606 119.526 125.931C120.249 122.87 120.896 119.987 120.804 118.435C120.761 117.735 120.173 117.137 119.391 116.968C117.921 116.673 115.248 116.344 113.096 116.083C112.071 115.956 111.096 115.838 110.407 115.737Z" fill="white"/>
<path id="Vector_17" opacity="0.6" d="M111.121 116.622C112.836 116.867 116.576 117.263 118.316 117.609C119.055 117.752 119.61 118.342 119.643 119.017C119.719 120.332 119.156 122.803 118.61 125.08C118.45 125.763 117.702 126.176 116.937 126.007L110.533 124.591C109.743 124.413 109.205 123.739 109.28 123.022L109.852 117.508C109.919 116.926 110.491 116.53 111.121 116.622Z" fill="white"/>
<g id="Group_10" opacity="0.6">
<path id="Vector_18" d="M125.687 124.489C125.737 125.425 126.401 126.201 127.317 126.386L201.717 141.454C202.558 141.623 203.373 141.075 203.533 140.223C203.684 139.397 203.163 138.604 202.348 138.427L128.149 122.381C126.838 122.103 125.62 123.148 125.687 124.489Z" fill="white"/>
</g>
<path id="Vector_19" d="M111.239 117.752C111.911 117.524 112.634 117.895 112.844 118.578L113.828 121.757C113.928 122.078 114.349 122.145 114.542 121.875L120.308 113.932C120.593 113.536 121.215 113.823 121.106 114.303C120.501 116.976 118.719 121.926 113.55 125.29C113.55 125.29 111.39 123.874 110.373 119.295C110.23 118.637 110.6 117.971 111.239 117.752Z" fill="url(#paint3_linear_30_1965)"/>
<path id="Vector_20" d="M114.071 144.743C114.063 144.743 114.054 144.743 114.046 144.734L106.036 142.964C104.893 142.711 104.111 141.716 104.221 140.653L104.935 133.748C104.977 133.343 105.179 132.98 105.515 132.719C105.885 132.432 106.381 132.306 106.868 132.373C107.557 132.466 108.524 132.592 109.549 132.719C111.709 132.989 114.399 133.318 115.887 133.613C115.895 133.613 115.912 133.621 115.92 133.621C116.979 133.84 117.752 134.684 117.803 135.67C117.895 137.306 117.24 140.24 116.509 143.352C116.273 144.355 115.181 144.979 114.071 144.743ZM106.784 132.997C106.465 132.955 106.137 133.031 105.902 133.216C105.708 133.368 105.582 133.579 105.565 133.815L104.851 140.721C104.775 141.463 105.347 142.163 106.179 142.348L114.189 144.119C114.197 144.119 114.197 144.119 114.206 144.119C114.987 144.288 115.744 143.866 115.903 143.191C116.626 140.131 117.273 137.247 117.181 135.695C117.139 134.996 116.551 134.38 115.769 134.228C114.298 133.933 111.625 133.604 109.474 133.343C108.44 133.216 107.473 133.098 106.784 132.997Z" fill="white"/>
<path id="Vector_21" opacity="0.6" d="M107.499 133.883C109.213 134.127 112.953 134.523 114.693 134.869C115.433 135.012 115.988 135.603 116.021 136.277C116.097 137.593 115.534 140.063 114.987 142.34C114.828 143.023 114.08 143.436 113.315 143.267L106.91 141.851C106.12 141.674 105.582 140.999 105.658 140.282L106.229 134.768C106.297 134.186 106.86 133.79 107.499 133.883Z" fill="white"/>
<g id="Group_11" opacity="0.6">
<path id="Vector_22" d="M122.064 141.749C122.115 142.685 122.779 143.461 123.695 143.647L198.095 158.714C198.935 158.883 199.751 158.335 199.91 157.483C200.062 156.657 199.54 155.864 198.725 155.687L124.527 139.641C123.216 139.363 121.997 140.409 122.064 141.749Z" fill="white"/>
</g>
<path id="Vector_23" d="M107.616 135.012C108.289 134.785 109.011 135.156 109.222 135.839L110.205 139.017C110.306 139.338 110.726 139.405 110.919 139.136L116.685 131.193C116.971 130.796 117.593 131.083 117.484 131.564C116.878 134.237 115.097 139.186 109.928 142.55C109.928 142.55 107.768 141.134 106.751 136.555C106.599 135.898 106.977 135.223 107.616 135.012Z" fill="url(#paint4_linear_30_1965)"/>
<path id="Vector_24" d="M110.44 162.003C110.432 162.003 110.423 162.003 110.415 161.994L102.405 160.224C101.262 159.971 100.481 158.976 100.59 157.913L101.304 151.008C101.346 150.603 101.548 150.232 101.884 149.979C102.254 149.692 102.75 149.557 103.237 149.633C103.927 149.726 104.893 149.852 105.918 149.979C108.079 150.249 110.768 150.578 112.256 150.873C112.264 150.873 112.281 150.881 112.289 150.881C113.348 151.1 114.122 151.944 114.172 152.93C114.265 154.566 113.609 157.5 112.878 160.612C112.642 161.615 111.55 162.239 110.44 162.003ZM103.153 150.257C102.834 150.215 102.506 150.291 102.271 150.476C102.077 150.628 101.951 150.839 101.935 151.075L101.22 157.981C101.144 158.723 101.716 159.423 102.548 159.608L110.558 161.379C110.566 161.379 110.566 161.379 110.575 161.379C111.356 161.547 112.113 161.126 112.273 160.451C112.995 157.391 113.643 154.507 113.55 152.955C113.508 152.255 112.92 151.64 112.138 151.488C110.667 151.193 107.994 150.864 105.843 150.603C104.817 150.476 103.842 150.358 103.153 150.257Z" fill="white"/>
<path id="Vector_25" opacity="0.6" d="M103.868 151.142C105.582 151.387 109.322 151.783 111.062 152.129C111.802 152.272 112.356 152.862 112.39 153.537C112.466 154.852 111.903 157.323 111.356 159.6C111.197 160.283 110.449 160.696 109.684 160.527L103.296 159.111C102.506 158.933 101.968 158.259 102.044 157.542L102.615 152.028C102.674 151.446 103.237 151.05 103.868 151.142Z" fill="white"/>
<g id="Group_12" opacity="0.6">
<path id="Vector_26" d="M118.433 159.01C118.484 159.946 119.148 160.721 120.064 160.907L194.464 175.975C195.304 176.143 196.12 175.595 196.279 174.744C196.431 173.917 195.91 173.125 195.094 172.948L120.896 156.902C119.585 156.623 118.366 157.669 118.433 159.01Z" fill="white"/>
</g>
<path id="Vector_27" d="M103.994 152.273C104.666 152.045 105.389 152.416 105.599 153.099L106.582 156.278C106.683 156.598 107.103 156.666 107.297 156.396L113.063 148.453C113.348 148.057 113.97 148.343 113.861 148.824C113.256 151.497 111.474 156.446 106.305 159.811C106.305 159.811 104.145 158.394 103.128 153.816C102.977 153.158 103.346 152.483 103.994 152.273Z" fill="url(#paint5_linear_30_1965)"/>
<path id="Vector_28" d="M106.818 179.263C106.809 179.263 106.801 179.263 106.793 179.255L98.7827 177.484C97.6396 177.231 96.8579 176.236 96.9672 175.174L97.6816 168.268C97.7236 167.863 97.9254 167.492 98.2616 167.239C98.6314 166.952 99.1273 166.818 99.6147 166.893C100.304 166.986 101.271 167.113 102.296 167.239C104.456 167.509 107.146 167.838 108.633 168.133C108.642 168.133 108.658 168.141 108.667 168.141C109.726 168.361 110.499 169.204 110.55 170.19C110.642 171.826 109.986 174.76 109.255 177.872C109.02 178.875 107.927 179.499 106.818 179.263ZM99.5307 167.517C99.2113 167.475 98.8835 167.551 98.6482 167.737C98.4549 167.888 98.3288 168.099 98.312 168.335L97.5976 175.241C97.5219 175.983 98.0935 176.683 98.9255 176.868L106.935 178.639C106.944 178.639 106.944 178.639 106.952 178.639C107.734 178.808 108.49 178.386 108.65 177.712C109.373 174.651 110.02 171.767 109.928 170.216C109.886 169.516 109.297 168.892 108.516 168.748C107.045 168.453 104.372 168.124 102.22 167.863C101.195 167.737 100.22 167.619 99.5307 167.517Z" fill="white"/>
<path id="Vector_29" opacity="0.6" d="M100.245 168.394C101.96 168.639 105.7 169.035 107.44 169.381C108.179 169.524 108.734 170.114 108.768 170.789C108.843 172.104 108.28 174.575 107.734 176.851C107.574 177.534 106.826 177.948 106.061 177.779L99.6569 176.362C98.8668 176.185 98.3289 175.511 98.4045 174.794L98.9761 169.279C99.0433 168.706 99.6148 168.31 100.245 168.394Z" fill="white"/>
<g id="Group_13" opacity="0.6">
<path id="Vector_30" d="M114.811 176.27C114.861 177.206 115.525 177.982 116.441 178.167L190.841 193.235C191.682 193.404 192.497 192.855 192.657 192.004C192.808 191.178 192.287 190.385 191.472 190.208L117.273 174.162C115.962 173.884 114.744 174.929 114.811 176.27Z" fill="white"/>
</g>
<path id="Vector_31" d="M100.363 169.533C101.035 169.305 101.758 169.676 101.968 170.359L102.952 173.538C103.052 173.858 103.473 173.926 103.666 173.656L109.432 165.713C109.717 165.317 110.339 165.604 110.23 166.084C109.625 168.757 107.843 173.707 102.674 177.071C102.674 177.071 100.514 175.654 99.4971 171.076C99.3542 170.418 99.724 169.744 100.363 169.533Z" fill="url(#paint6_linear_30_1965)"/>
</g>
</g>
<g id="Group_14">
<path id="Vector_32" d="M0.0840795 34.4697C-0.403404 32.1256 1.28598 29.8827 3.67297 29.7309C19.491 28.6853 73.7445 24.3766 116.828 12.0913C118.795 11.5348 120.829 12.6984 121.341 14.6799L163.408 177.602C163.988 179.836 162.66 182.121 160.432 182.712C142.244 187.552 67.2895 207.232 39.6711 209.896C37.9901 210.057 36.4604 208.927 36.1158 207.266L0.0840795 34.4697Z" fill="#018543" fill-opacity="0.8"/>
<path id="Vector_33" opacity="0.6" d="M2.73161 38.2303C2.26094 35.9705 3.89148 33.8204 6.18602 33.6686C21.4073 32.6652 73.6184 28.5167 115.08 16.6951C116.971 16.1554 118.929 17.2769 119.425 19.1825L159.911 175.966C160.466 178.116 159.189 180.309 157.045 180.882C139.546 185.545 67.4072 204.475 40.8309 207.046C39.2172 207.207 37.738 206.11 37.4102 204.517L2.73161 38.2303Z" fill="white"/>
<path id="Vector_34" opacity="0.78" d="M18.9193 47.6571L27.3747 81.3174C27.652 82.4389 28.7447 83.1472 29.8793 82.9532C36.1914 81.8486 55.8336 78.3494 66.7515 75.5247C67.9871 75.2043 68.7687 73.9901 68.5586 72.7253C67.4828 66.3086 64.188 47.6655 61.1707 40.2117C60.6832 39.0059 59.4225 38.3061 58.1449 38.5253L20.802 44.7734C19.4573 45.001 18.5916 46.3249 18.9193 47.6571Z" fill="white"/>
<path id="Vector_35" d="M50.1294 55.9675C50.4084 51.8604 47.3158 48.3039 43.2218 48.024C39.1278 47.7441 35.5828 50.8468 35.3038 54.9539C35.0248 59.0611 38.1174 62.6175 42.2114 62.8974C46.3054 63.1773 49.8504 60.0747 50.1294 55.9675Z" fill="#018543" fill-opacity="0.8"/>
<path id="Vector_36" d="M35.9981 79.159L59.1956 74.4287C60.616 74.142 61.1539 72.3881 60.1453 71.3426C57.5482 68.6528 52.5053 64.9512 45.4116 66.6038C38.57 68.2059 35.3257 73.1386 33.8717 76.5029C33.2413 77.9363 34.4768 79.471 35.9981 79.159Z" fill="#018543" fill-opacity="0.8"/>
<g id="Group_15" opacity="0.6">
<path id="Vector_37" d="M112.281 31.7123C113.004 31.5605 113.483 30.9366 113.34 30.3126C113.197 29.6886 112.483 29.2923 111.751 29.4272L70.9457 36.9823C70.2145 37.1172 69.9288 37.7496 70.3154 38.3904L70.618 38.9047C70.9962 39.5456 71.9039 39.9419 72.6267 39.7985L112.281 31.7123Z" fill="white"/>
</g>
<g id="Group_16" opacity="0.6">
<path id="Vector_38" d="M72.2316 43.3146C71.5004 43.4496 71.2146 44.082 71.6013 44.7228L71.9038 45.2371C72.2821 45.878 73.1898 46.2743 73.9126 46.1309L113.567 38.0531C114.29 37.9013 114.769 37.2774 114.626 36.6534C114.483 36.0294 113.769 35.6331 113.037 35.7681L72.2316 43.3146Z" fill="white"/>
</g>
<g id="Group_17" opacity="0.6">
<path id="Vector_39" d="M73.5261 49.7399C72.7948 49.8749 72.5091 50.5072 72.8957 51.1481L73.1983 51.6624C73.5765 52.3033 74.4842 52.6996 75.207 52.5562L114.861 44.4784C115.584 44.3266 116.063 43.7027 115.92 43.0787C115.777 42.4547 115.063 42.0584 114.332 42.1933L73.5261 49.7399Z" fill="white"/>
</g>
<g id="Group_18" opacity="0.6">
<path id="Vector_40" d="M125.09 74.6646C125.813 74.5128 126.275 73.8889 126.107 73.2733C125.939 72.6578 125.208 72.2615 124.476 72.4048L29.0725 91.0563C28.3412 91.1997 28.2152 91.7056 28.7783 92.1862L29.7533 93.0041C30.3248 93.4847 31.3838 93.7545 32.1066 93.6028L125.09 74.6646Z" fill="white"/>
</g>
<g id="Group_19" opacity="0.6">
<path id="Vector_41" d="M30.3583 97.3973C29.6271 97.5406 29.5011 98.0465 30.0642 98.5271L31.0391 99.345C31.6107 99.8257 32.6697 100.095 33.3925 99.9437L126.367 80.9971C127.09 80.8453 127.552 80.2214 127.384 79.6059C127.216 78.9903 126.485 78.594 125.754 78.7374L30.3583 97.3973Z" fill="white"/>
</g>
<path id="Vector_42" opacity="0.6" d="M32.0648 108.055C34.3173 107.415 38.5954 106.453 40.9487 105.939C41.9489 105.72 42.9575 106.226 43.3946 107.153C44.2351 108.958 45.5294 112.12 46.1514 115.619C46.3363 116.664 45.6555 117.676 44.6133 117.879L35.8806 119.565C34.8048 119.776 33.7542 119.135 33.4348 118.081L31.0058 110.012C30.7536 109.177 31.2327 108.3 32.0648 108.055Z" fill="white"/>
<g id="Group_20" opacity="0.6">
<path id="Vector_43" d="M48.866 108.148C48.1348 108.266 47.7397 108.932 48.0003 109.632L48.4962 110.998C48.7483 111.698 49.5552 112.145 50.278 112.001L71.4331 107.693C72.1559 107.541 72.6266 106.833 72.4669 106.099L72.3913 105.745C72.2316 105.02 71.5088 104.522 70.7775 104.64L48.866 108.148Z" fill="white"/>
</g>
<path id="Vector_44" opacity="0.6" d="M79.5269 98.384C81.7795 97.7432 86.0575 96.782 88.4109 96.2676C89.4111 96.0484 90.4197 96.5543 90.8567 97.4818C91.6972 99.2862 92.9916 102.448 93.6135 105.947C93.7984 106.993 93.1176 108.005 92.0754 108.207L83.3428 109.885C82.2669 110.096 81.2163 109.455 80.8969 108.401L78.4679 100.332C78.2158 99.5055 78.6949 98.6286 79.5269 98.384Z" fill="white"/>
<g id="Group_21" opacity="0.6">
<path id="Vector_45" d="M96.3284 98.4767C95.5972 98.5947 95.2021 99.2609 95.4627 99.9607L95.9586 101.327C96.2107 102.027 97.0176 102.473 97.7404 102.33L118.896 98.0214C119.618 97.8696 120.089 97.1613 119.929 96.4277L119.854 96.0736C119.694 95.3484 118.971 94.851 118.24 94.969L96.3284 98.4767Z" fill="white"/>
</g>
<g id="Group_22">
<path id="Vector_46" d="M50.9672 138.174C50.9588 138.174 50.9504 138.174 50.942 138.182L42.8901 139.742C41.7386 139.962 40.6292 139.363 40.3098 138.351L38.2338 131.732C38.1077 131.344 38.1581 130.923 38.3598 130.552C38.5868 130.138 38.9902 129.826 39.4693 129.691C40.1333 129.506 41.0746 129.228 42.0664 128.941C44.1592 128.326 46.7563 127.558 48.244 127.238C49.3198 127.01 50.3704 127.465 50.8159 128.359C51.5471 129.826 52.1102 132.778 52.665 135.923C52.8331 136.943 52.0766 137.946 50.9672 138.174ZM39.629 130.299C39.318 130.383 39.049 130.585 38.9062 130.855C38.7885 131.074 38.7633 131.319 38.8305 131.538L40.9065 138.157C41.1335 138.865 41.9319 139.287 42.764 139.118L50.8159 137.558C50.8243 137.558 50.8243 137.558 50.8327 137.558C51.6143 137.398 52.1439 136.715 52.0262 136.032C51.4799 132.929 50.9336 130.029 50.2359 128.637C49.925 128.014 49.1433 127.693 48.3617 127.853C46.8992 128.174 44.3105 128.933 42.2345 129.548C41.2427 129.835 40.3014 130.113 39.629 130.299Z" fill="white"/>
<path id="Vector_47" opacity="0.6" d="M40.6377 130.821C42.3019 130.357 45.8992 129.236 47.6306 128.865C48.3702 128.705 49.1014 129.017 49.404 129.624C49.9923 130.804 50.4546 133.292 50.858 135.602C50.9757 136.293 50.463 136.968 49.6898 137.12L43.2516 138.368C42.4616 138.519 41.6967 138.115 41.4782 137.423L39.8224 132.128C39.6543 131.58 40.0157 130.99 40.6377 130.821Z" fill="white"/>
<g id="Group_23" opacity="0.6">
<path id="Vector_48" d="M57.1197 132.246C57.5315 133.081 58.456 133.536 59.3722 133.342L133.629 117.549C134.47 117.372 134.999 116.538 134.814 115.694C134.63 114.876 133.831 114.354 133.016 114.522L58.5653 129.337C57.2289 129.599 56.5229 131.041 57.1197 132.246Z" fill="white"/>
</g>
<path id="Vector_49" d="M54.4635 155.46C54.4551 155.46 54.4467 155.46 54.4383 155.468L46.3864 157.028C45.2349 157.247 44.1255 156.648 43.8061 155.637L41.7301 149.018C41.604 148.63 41.6545 148.208 41.8562 147.837C42.0831 147.424 42.4866 147.112 42.9656 146.977C43.6296 146.791 44.571 146.513 45.5627 146.227C47.6556 145.611 50.2527 144.844 51.7403 144.523C51.7487 144.523 51.7655 144.515 51.7739 144.515C52.833 144.296 53.8752 144.759 54.3122 145.645C55.0434 147.112 55.6066 150.063 56.1613 153.208C56.3294 154.228 55.573 155.232 54.4635 155.46ZM43.1253 147.584C42.8143 147.668 42.5454 147.871 42.4025 148.141C42.2848 148.36 42.2596 148.604 42.3269 148.824L44.4029 155.443C44.6298 156.151 45.4283 156.573 46.2603 156.404L54.3122 154.844C54.3206 154.844 54.3206 154.844 54.329 154.844C55.1107 154.684 55.6402 154.001 55.5225 153.318C54.9762 150.215 54.4299 147.314 53.7323 145.923C53.4213 145.299 52.6312 144.97 51.858 145.139C50.3955 145.459 47.8068 146.218 45.7308 146.834C44.7391 147.12 43.7977 147.399 43.1253 147.584Z" fill="white"/>
<path id="Vector_50" opacity="0.6" d="M44.1339 148.107C45.7981 147.643 49.3954 146.522 51.1268 146.151C51.8664 145.99 52.5977 146.302 52.9002 146.909C53.4886 148.09 53.9509 150.577 54.3543 152.888C54.472 153.579 53.9593 154.254 53.186 154.405L46.7479 155.653C45.9578 155.805 45.193 155.4 44.9744 154.709L43.3187 149.414C43.1506 148.866 43.5204 148.275 44.1339 148.107Z" fill="white"/>
<g id="Group_24" opacity="0.6">
<path id="Vector_51" d="M60.6161 149.532C61.0279 150.367 61.9525 150.822 62.8686 150.628L137.126 134.835C137.966 134.658 138.496 133.823 138.311 132.98C138.126 132.162 137.327 131.639 136.512 131.808L62.0617 146.623C60.7338 146.884 60.0193 148.326 60.6161 149.532Z" fill="white"/>
</g>
<path id="Vector_52" d="M57.9601 172.745C57.9517 172.745 57.9433 172.745 57.9349 172.754L49.883 174.314C48.7315 174.533 47.6221 173.934 47.3027 172.922L45.2267 166.303C45.1006 165.915 45.151 165.494 45.3528 165.123C45.5797 164.71 45.9831 164.398 46.4622 164.263C47.1262 164.077 48.0675 163.799 49.0593 163.512C51.1521 162.897 53.7492 162.129 55.2369 161.809C55.2453 161.809 55.2621 161.8 55.2705 161.8C56.3295 161.581 57.3718 162.045 57.8088 162.93C58.54 164.398 59.1032 167.349 59.6579 170.494C59.826 171.514 59.0779 172.517 57.9601 172.745ZM46.6303 164.87C46.3193 164.954 46.0504 165.156 45.9075 165.426C45.7898 165.645 45.7646 165.89 45.8318 166.109L47.9079 172.728C48.1348 173.437 48.9332 173.858 49.7653 173.69L57.8172 172.13C57.8256 172.13 57.8256 172.13 57.834 172.13C58.6157 171.969 59.1452 171.286 59.0275 170.603C58.4812 167.5 57.9349 164.6 57.2373 163.209C56.9263 162.585 56.1362 162.247 55.363 162.424C53.9005 162.745 51.3118 163.504 49.2358 164.119C48.244 164.406 47.3027 164.684 46.6303 164.87Z" fill="white"/>
<path id="Vector_53" opacity="0.6" d="M47.6304 165.392C49.2945 164.929 52.8918 163.807 54.6232 163.436C55.3628 163.276 56.0941 163.588 56.3966 164.195C56.985 165.376 57.4473 167.863 57.8507 170.173C57.9684 170.865 57.4557 171.539 56.6824 171.691L50.2443 172.939C49.4542 173.091 48.6894 172.686 48.4708 171.995L46.8151 166.699C46.6554 166.151 47.0168 165.561 47.6304 165.392Z" fill="white"/>
<g id="Group_25" opacity="0.6">
<path id="Vector_54" d="M64.1123 166.817C64.5242 167.652 65.4487 168.107 66.3648 167.913L140.622 152.12C141.462 151.943 141.992 151.108 141.807 150.265C141.622 149.447 140.824 148.924 140.008 149.093L65.558 163.908C64.23 164.169 63.524 165.611 64.1123 166.817Z" fill="white"/>
</g>
<path id="Vector_55" d="M61.465 190.03C61.4566 190.03 61.4482 190.03 61.4398 190.039L53.3879 191.599C52.2364 191.818 51.127 191.219 50.8076 190.207L48.7316 183.588C48.6055 183.2 48.6559 182.779 48.8576 182.408C49.0846 181.995 49.488 181.683 49.9671 181.548C50.6311 181.362 51.5724 181.084 52.5642 180.797C54.657 180.182 57.2541 179.415 58.7418 179.094C58.7502 179.094 58.767 179.086 58.7754 179.086C59.8344 178.866 60.8766 179.33 61.3137 180.216C62.0449 181.683 62.608 184.634 63.1628 187.779C63.3309 188.799 62.5744 189.803 61.465 190.03ZM50.1268 182.155C49.8158 182.239 49.5468 182.442 49.404 182.711C49.2863 182.931 49.2611 183.175 49.3283 183.394L51.4043 190.013C51.6313 190.722 52.4297 191.143 53.2618 190.975L61.3137 189.415C61.3221 189.415 61.3221 189.415 61.3305 189.415C62.1122 189.255 62.6417 188.572 62.524 187.889C61.9777 184.786 61.4314 181.885 60.7337 180.494C60.4228 179.87 59.6327 179.533 58.8595 179.71C57.397 180.03 54.8083 180.789 52.7323 181.404C51.7405 181.691 50.7992 181.969 50.1268 182.155Z" fill="white"/>
<path id="Vector_56" opacity="0.6" d="M51.1353 182.678C52.7994 182.214 56.3967 181.092 58.1281 180.721C58.8677 180.561 59.599 180.873 59.9015 181.48C60.4899 182.661 60.9522 185.148 61.3556 187.458C61.4733 188.15 60.9606 188.824 60.1873 188.976L53.7492 190.224C52.9591 190.376 52.1943 189.971 51.9757 189.28L50.32 183.985C50.1519 183.436 50.5133 182.846 51.1353 182.678Z" fill="white"/>
<g id="Group_26" opacity="0.6">
<path id="Vector_57" d="M67.6172 184.103C68.0291 184.937 68.9536 185.393 69.8697 185.199L144.127 169.406C144.967 169.229 145.497 168.394 145.312 167.551C145.127 166.733 144.329 166.21 143.513 166.379L69.0629 181.194C67.7265 181.455 67.0205 182.897 67.6172 184.103Z" fill="white"/>
</g>
<path id="Vector_58" d="M51.6901 183.665C52.2196 183.192 53.0264 183.243 53.4887 183.783L55.6488 186.312C55.8673 186.565 56.2791 186.464 56.3464 186.135L58.498 176.548C58.6073 176.067 59.2881 176.084 59.3721 176.565C59.8764 179.263 60.1958 184.516 56.7834 189.66C56.7834 189.66 54.2367 189.221 51.4967 185.427C51.1101 184.879 51.1858 184.12 51.6901 183.665Z" fill="url(#paint7_linear_30_1965)"/>
</g>
</g>
<g id="Group_27">
<path id="Vector_59" d="M48.7651 51.1737C48.7651 44.1246 54.4636 38.4077 61.4901 38.4077H169.695C175.662 38.4077 180.587 43.1043 180.89 49.0826L188.875 206.456C189.11 211.136 185.437 215.082 180.772 215.167L56.7582 217.426C52.3708 217.502 48.7651 213.961 48.7651 209.559V51.1737Z" fill="#018543"/>
<g id="Group_28">
<path id="Vector_60" d="M57.6322 40.8277C57.6154 38.5763 59.5989 36.8225 61.8262 37.126C76.602 39.1328 127.41 45.3556 169.426 42.1178C171.342 41.9744 173.006 43.4247 173.107 45.3472L181.478 203.429C181.596 205.596 179.94 207.451 177.78 207.578C160.113 208.623 87.3519 212.679 61.3976 209.956C59.8175 209.787 58.6156 208.455 58.6072 206.861L57.6322 40.8277Z" fill="#018543" fill-opacity="0.8"/>
<path id="Vector_61" opacity="0.6" d="M59.3719 44.7906C59.3551 42.6236 61.263 40.9372 63.4063 41.2323C77.6273 43.1633 126.519 49.1499 166.946 46.0386C168.787 45.8952 170.392 47.2949 170.485 49.1499L178.545 201.279C178.654 203.362 177.066 205.149 174.99 205.276C157.986 206.288 87.9654 210.192 62.986 207.561C61.4648 207.401 60.3133 206.119 60.3049 204.584L59.3719 44.7906Z" fill="white"/>
<path id="Vector_62" opacity="0.78" d="M72.5341 56.5196L74.047 89.1343C74.0974 90.2221 74.9715 91.0821 76.0558 91.1158C82.0737 91.2845 100.842 91.7482 111.432 91.1917C112.634 91.1327 113.575 90.1546 113.617 88.9573C113.819 82.8441 114.264 65.0358 112.869 57.5989C112.642 56.3931 111.617 55.5162 110.398 55.474L74.8034 54.2092C73.5175 54.1671 72.4753 55.2295 72.5341 56.5196Z" fill="white"/>
<path id="Vector_63" d="M93.0084 75.1877C96.8658 75.1877 99.9928 72.0506 99.9928 68.1808C99.9928 64.3109 96.8658 61.1738 93.0084 61.1738C89.151 61.1738 86.0239 64.3109 86.0239 68.1808C86.0239 72.0506 89.151 75.1877 93.0084 75.1877Z" fill="url(#paint8_linear_30_1965)"/>
<path id="Vector_64" d="M82.3929 88.7632H104.657C106.019 88.7632 106.843 87.2538 106.103 86.0987C104.212 83.1306 100.253 78.7713 93.4033 78.9652C86.7971 79.1507 82.8804 83.0969 80.9137 85.9216C80.0816 87.1189 80.9389 88.7632 82.3929 88.7632Z" fill="url(#paint9_linear_30_1965)"/>
<g id="Group_29" opacity="0.6">
<path id="Vector_65" d="M161.567 59.3613C162.264 59.3613 162.819 58.8722 162.802 58.2651C162.786 57.6664 162.197 57.1605 161.5 57.1521L122.476 56.4522C121.778 56.4438 121.4 56.9666 121.627 57.6327L121.812 58.1639C122.047 58.8216 122.804 59.3613 123.501 59.3613H161.567Z" fill="white"/>
</g>
<g id="Group_30" opacity="0.6">
<path id="Vector_66" d="M122.476 62.5314C121.778 62.5229 121.4 63.0457 121.627 63.7118L121.812 64.243C122.047 64.9007 122.804 65.4404 123.501 65.4404H161.558C162.256 65.4404 162.811 64.9513 162.794 64.3442C162.777 63.7456 162.189 63.2396 161.491 63.2312L122.476 62.5314Z" fill="white"/>
</g>
<g id="Group_31" opacity="0.6">
<path id="Vector_67" d="M122.476 68.6954C121.778 68.687 121.4 69.2098 121.627 69.8759L121.812 70.4071C122.047 71.0648 122.804 71.6044 123.501 71.6044H161.558C162.256 71.6044 162.811 71.1154 162.794 70.5083C162.777 69.9096 162.189 69.4037 161.491 69.3953L122.476 68.6954Z" fill="white"/>
</g>
<g id="Group_32" opacity="0.6">
<path id="Vector_68" d="M165.358 101.352C166.055 101.352 166.593 100.863 166.551 100.256C166.509 99.6574 165.912 99.16 165.215 99.1515L73.7947 98.4264C73.0971 98.418 72.8786 98.8648 73.3156 99.4129L74.0637 100.357C74.5007 100.905 75.4253 101.352 76.1229 101.352H165.358Z" fill="white"/>
</g>
<g id="Group_33" opacity="0.6">
<path id="Vector_69" d="M73.7864 104.514C73.0888 104.506 72.8703 104.953 73.3073 105.501L74.0554 106.445C74.4924 106.993 75.417 107.44 76.1146 107.44H165.358C166.055 107.44 166.593 106.951 166.551 106.344C166.509 105.745 165.912 105.248 165.215 105.239L73.7864 104.514Z" fill="white"/>
</g>
<path id="Vector_70" d="M73.3746 114.666C75.5767 114.498 79.6866 114.422 81.956 114.388C82.9141 114.371 83.7546 115.029 83.9815 115.965C84.4186 117.786 85.0238 120.94 84.9481 124.287C84.9229 125.291 84.1076 126.092 83.1074 126.075L74.7446 125.982C73.7192 125.974 72.8619 125.181 72.7694 124.152L72.0382 116.26C71.9626 115.45 72.5593 114.725 73.3746 114.666Z" fill="url(#paint10_linear_30_1965)"/>
<g id="Group_34" opacity="0.6">
<path id="Vector_71" d="M88.8394 117.904C88.1418 117.879 87.6543 118.419 87.7636 119.11L87.9653 120.459C88.0662 121.15 88.7218 121.715 89.4194 121.715H109.726C110.423 121.715 110.986 121.142 110.978 120.442L110.969 120.096C110.961 119.397 110.381 118.798 109.684 118.773L88.8394 117.904Z" fill="white"/>
</g>
<path id="Vector_72" d="M118.929 114.666C121.131 114.498 125.241 114.422 127.51 114.388C128.468 114.371 129.309 115.029 129.536 115.965C129.973 117.786 130.578 120.94 130.502 124.287C130.477 125.291 129.662 126.092 128.662 126.075L120.299 125.982C119.273 125.974 118.416 125.181 118.324 124.152L117.593 116.26C117.508 115.45 118.114 114.725 118.929 114.666Z" fill="url(#paint11_linear_30_1965)"/>
<g id="Group_35" opacity="0.6">
<path id="Vector_73" d="M134.394 117.904C133.696 117.879 133.209 118.419 133.318 119.11L133.52 120.459C133.621 121.15 134.276 121.715 134.974 121.715H155.28C155.978 121.715 156.541 121.142 156.532 120.442L156.524 120.096C156.516 119.397 155.936 118.798 155.238 118.773L134.394 117.904Z" fill="white"/>
</g>
<g id="Group_36">
<path id="Vector_74" d="M85.175 145.974C85.1666 145.974 85.1582 145.974 85.1498 145.974L77.4341 145.898C76.3331 145.89 75.4253 145.122 75.3161 144.127L74.6353 137.635C74.5933 137.255 74.7109 136.876 74.9715 136.572C75.2572 136.235 75.6859 136.016 76.1482 135.991C76.7953 135.948 77.7115 135.864 78.6864 135.788C80.7288 135.611 83.2671 135.4 84.6959 135.375C85.7297 135.367 86.6122 135.982 86.856 136.893C87.2594 138.385 87.2258 141.21 87.1502 144.212C87.1249 145.19 86.2424 145.974 85.175 145.974ZM76.1986 136.581C75.896 136.598 75.6103 136.741 75.4338 136.952C75.2825 137.129 75.2152 137.348 75.2404 137.567L75.9212 144.06C75.9969 144.76 76.6525 145.291 77.4509 145.299L85.1666 145.375C85.175 145.375 85.175 145.375 85.1834 145.375C85.9314 145.375 86.5534 144.844 86.5702 144.195C86.6459 141.235 86.6795 138.461 86.3013 137.045C86.1332 136.412 85.4692 135.974 84.7211 135.965C83.3175 135.982 80.7877 136.201 78.7537 136.37C77.7703 136.463 76.8542 136.539 76.1986 136.581Z" fill="white"/>
<path id="Vector_75" opacity="0.6" d="M77.0223 137.255C78.6444 137.146 82.1661 136.783 83.8386 136.766C84.5447 136.758 85.1666 137.188 85.3347 137.803C85.6541 139.001 85.6121 141.387 85.5616 143.588C85.5448 144.245 84.9397 144.777 84.2085 144.768L78.0393 144.709C77.2828 144.701 76.6525 144.186 76.5768 143.512L76.0389 138.318C75.9801 137.77 76.4255 137.297 77.0223 137.255Z" fill="white"/>
<g id="Group_37" opacity="0.6">
<path id="Vector_76" d="M91.9493 141.665C92.1763 142.517 92.9411 143.107 93.8152 143.098L165.206 142.491C166.013 142.483 166.66 141.817 166.644 141.007C166.627 140.223 165.988 139.591 165.198 139.582L93.8068 139.253C92.5545 139.245 91.63 140.442 91.9493 141.665Z" fill="white"/>
</g>
<path id="Vector_77" d="M77.3584 138.275C77.9299 137.938 78.6696 138.141 78.9889 138.722L80.5102 141.463C80.6615 141.733 81.0649 141.716 81.191 141.429L84.9648 132.997C85.1497 132.576 85.7801 132.719 85.7717 133.183C85.7297 135.763 85.0489 140.662 80.9473 144.768C80.9473 144.768 78.6864 143.883 76.8625 139.869C76.5935 139.279 76.8037 138.596 77.3584 138.275Z" fill="#018543"/>
<path id="Vector_78" d="M85.175 162.568C85.1666 162.568 85.1582 162.568 85.1498 162.568L77.4341 162.492C76.3331 162.483 75.4253 161.716 75.3161 160.721L74.6353 154.229C74.5933 153.849 74.7109 153.47 74.9715 153.166C75.2572 152.829 75.6859 152.61 76.1482 152.584C76.7953 152.542 77.7115 152.458 78.6864 152.382C80.7288 152.205 83.2671 151.994 84.6959 151.969C84.7043 151.969 84.7127 151.969 84.7295 151.969C85.7465 151.969 86.6207 152.593 86.856 153.487C87.2594 154.979 87.2258 157.804 87.1502 160.805C87.1249 161.775 86.2424 162.568 85.175 162.568ZM76.1986 153.175C75.896 153.191 75.6103 153.335 75.4338 153.546C75.2825 153.723 75.2152 153.942 75.2404 154.161L75.9212 160.654C75.9969 161.354 76.6525 161.885 77.4509 161.893L85.1666 161.969C85.175 161.969 85.175 161.969 85.1834 161.969C85.9314 161.969 86.5534 161.438 86.5702 160.789C86.6459 157.829 86.6795 155.055 86.3013 153.638C86.1332 153.006 85.4608 152.551 84.7211 152.559C83.3175 152.576 80.7877 152.795 78.7537 152.964C77.7703 153.048 76.8542 153.132 76.1986 153.175Z" fill="white"/>
<path id="Vector_79" opacity="0.6" d="M77.0223 153.841C78.6444 153.731 82.1661 153.369 83.8386 153.352C84.5447 153.343 85.1666 153.773 85.3347 154.389C85.6541 155.586 85.6121 157.972 85.5616 160.173C85.5448 160.831 84.9397 161.362 84.2085 161.354L78.0393 161.295C77.2828 161.286 76.6525 160.772 76.5768 160.097L76.0389 154.903C75.9801 154.364 76.4255 153.883 77.0223 153.841Z" fill="white"/>
<g id="Group_38" opacity="0.6">
<path id="Vector_80" d="M91.9493 158.251C92.1763 159.103 92.9411 159.693 93.8152 159.684L165.206 159.077C166.013 159.069 166.66 158.403 166.644 157.593C166.627 156.809 165.988 156.177 165.198 156.168L93.8068 155.839C92.5545 155.831 91.63 157.028 91.9493 158.251Z" fill="white"/>
</g>
<path id="Vector_81" d="M77.3584 154.861C77.9299 154.524 78.6696 154.726 78.9889 155.308L80.5102 158.048C80.6615 158.318 81.0649 158.301 81.191 158.014L84.9648 149.583C85.1497 149.161 85.7801 149.304 85.7717 149.768C85.7297 152.348 85.0489 157.247 80.9473 161.354C80.9473 161.354 78.6864 160.468 76.8625 156.455C76.5935 155.873 76.8037 155.181 77.3584 154.861Z" fill="#018543"/>
<path id="Vector_82" d="M85.175 179.154C85.1666 179.154 85.1582 179.154 85.1498 179.154L77.4341 179.078C76.3331 179.069 75.4253 178.31 75.3161 177.307L74.6353 170.814C74.5933 170.435 74.7109 170.056 74.9715 169.752C75.2572 169.415 75.6859 169.196 76.1482 169.17C76.7953 169.128 77.7115 169.044 78.6864 168.968C80.7288 168.791 83.2671 168.58 84.6959 168.555C84.7043 168.555 84.7127 168.555 84.7295 168.555C85.7465 168.555 86.6207 169.179 86.856 170.072C87.2594 171.565 87.2258 174.39 87.1502 177.391C87.1249 178.369 86.2424 179.154 85.175 179.154ZM76.1986 169.76C75.896 169.777 75.6103 169.921 75.4338 170.131C75.2825 170.309 75.2152 170.528 75.2404 170.747L75.9212 177.24C75.9969 177.939 76.6525 178.471 77.4509 178.479L85.1666 178.555C85.175 178.555 85.175 178.555 85.1834 178.555C85.9314 178.555 86.5534 178.024 86.5702 177.375C86.6459 174.415 86.6795 171.641 86.3013 170.224C86.1332 169.592 85.4608 169.136 84.7211 169.145C83.3175 169.162 80.7877 169.381 78.7537 169.55C77.7703 169.642 76.8542 169.718 76.1986 169.76Z" fill="white"/>
<path id="Vector_83" opacity="0.6" d="M77.0223 170.435C78.6444 170.325 82.1661 169.963 83.8386 169.946C84.5447 169.937 85.1666 170.368 85.3347 170.983C85.6541 172.18 85.6121 174.567 85.5616 176.767C85.5448 177.425 84.9397 177.956 84.2085 177.948L78.0393 177.889C77.2828 177.88 76.6525 177.366 76.5768 176.691L76.0389 171.497C75.9801 170.949 76.4255 170.477 77.0223 170.435Z" fill="white"/>
<g id="Group_39" opacity="0.6">
<path id="Vector_84" d="M91.9493 174.845C92.1763 175.696 92.9411 176.287 93.8152 176.278L165.206 175.671C166.013 175.663 166.66 174.996 166.644 174.187C166.627 173.403 165.988 172.77 165.198 172.762L93.8068 172.433C92.5545 172.425 91.63 173.622 91.9493 174.845Z" fill="white"/>
</g>
<path id="Vector_85" d="M77.3584 171.455C77.9299 171.118 78.6696 171.32 78.9889 171.902L80.5102 174.642C80.6615 174.912 81.0649 174.895 81.191 174.609L84.9648 166.177C85.1497 165.755 85.7801 165.899 85.7717 166.362C85.7297 168.942 85.0489 173.841 80.9473 177.948C80.9473 177.948 78.6864 177.062 76.8625 173.049C76.5935 172.467 76.8037 171.776 77.3584 171.455Z" fill="#018543"/>
<path id="Vector_86" d="M85.175 195.748C85.1666 195.748 85.1582 195.748 85.1498 195.748L77.4341 195.672C76.3331 195.664 75.4253 194.905 75.3161 193.901L74.6353 187.409C74.5933 187.029 74.7109 186.65 74.9715 186.346C75.2572 186.009 75.6859 185.79 76.1482 185.764C76.7953 185.722 77.7115 185.638 78.6864 185.562C80.7288 185.385 83.2671 185.174 84.6959 185.149C84.7043 185.149 84.7127 185.149 84.7295 185.149C85.7465 185.149 86.6207 185.773 86.856 186.667C87.2594 188.159 87.2258 190.984 87.1502 193.986C87.1249 194.955 86.2424 195.748 85.175 195.748ZM76.1986 186.355C75.896 186.372 75.6103 186.515 75.4338 186.726C75.2825 186.903 75.2152 187.122 75.2404 187.341L75.9212 193.834C75.9969 194.534 76.6525 195.065 77.4509 195.073L85.1666 195.149C85.175 195.149 85.175 195.149 85.1834 195.149C85.9314 195.149 86.5534 194.618 86.5702 193.969C86.6459 191.009 86.6795 188.235 86.3013 186.818C86.1332 186.186 85.4608 185.722 84.7211 185.739C83.3175 185.756 80.7877 185.975 78.7537 186.144C77.7703 186.228 76.8542 186.313 76.1986 186.355Z" fill="white"/>
<path id="Vector_87" opacity="0.6" d="M77.0223 187.029C78.6444 186.92 82.1661 186.557 83.8386 186.54C84.5447 186.532 85.1666 186.962 85.3347 187.577C85.6541 188.775 85.6121 191.161 85.5616 193.362C85.5448 194.019 84.9397 194.551 84.2085 194.542L78.0393 194.483C77.2828 194.475 76.6525 193.96 76.5768 193.286L76.0389 188.092C75.9801 187.544 76.4255 187.063 77.0223 187.029Z" fill="white"/>
<g id="Group_40" opacity="0.6">
<path id="Vector_88" d="M91.9493 191.431C92.1763 192.282 92.9411 192.872 93.8152 192.864L165.206 192.257C166.013 192.248 166.66 191.582 166.644 190.773C166.627 189.989 165.988 189.356 165.198 189.348L93.8068 189.019C92.5545 189.019 91.63 190.208 91.9493 191.431Z" fill="white"/>
</g>
<path id="Vector_89" d="M77.3584 188.041C77.9299 187.703 78.6696 187.906 78.9889 188.488L80.5102 191.228C80.6615 191.498 81.0649 191.481 81.191 191.194L84.9648 182.762C85.1497 182.341 85.7801 182.484 85.7717 182.948C85.7297 185.528 85.0489 190.427 80.9473 194.533C80.9473 194.533 78.6864 193.648 76.8625 189.634C76.5935 189.052 76.8037 188.369 77.3584 188.041Z" fill="#018543"/>
</g>
</g>
<path id="Vector_90" d="M122.299 16.9483C118.391 14.2163 114.996 14.2753 112.6 14.9836C110.415 15.6329 109.003 17.7409 109.213 20.0175L110.247 31.3163L122.526 32.4125C122.518 32.404 129.965 22.2941 122.299 16.9483ZM116.904 26.0632C115.214 26.0632 113.844 24.6888 113.844 22.994C113.844 21.2991 115.214 19.9247 116.904 19.9247C118.593 19.9247 119.963 21.2991 119.963 22.994C119.963 24.6888 118.593 26.0632 116.904 26.0632Z" fill="url(#paint12_linear_30_1965)"/>
<path id="Vector_91" d="M111.466 26.5608C111.314 26.5608 111.188 26.4428 111.172 26.291L111.003 24.495C110.987 24.3348 111.104 24.183 111.272 24.1746C111.44 24.1577 111.583 24.2758 111.592 24.4444L111.76 26.2404C111.777 26.4006 111.659 26.5524 111.491 26.5608C111.491 26.5608 111.474 26.5608 111.466 26.5608ZM111.146 23.0363C110.995 23.0363 110.869 22.9182 110.852 22.7665L110.726 21.4005C110.524 19.2335 111.886 17.2182 113.954 16.6027C115.416 16.1727 116.929 16.1052 118.442 16.4172C118.601 16.4509 118.702 16.6111 118.669 16.7714C118.635 16.9316 118.484 17.0327 118.316 16.999C116.895 16.7123 115.483 16.7629 114.113 17.1677C112.315 17.6989 111.138 19.4527 111.306 21.3415L111.432 22.7074C111.449 22.8676 111.331 23.0194 111.163 23.0279C111.163 23.0363 111.155 23.0363 111.146 23.0363Z" fill="white"/>
<path id="Vector_92" d="M93.4875 38.6097V32.9266C93.4875 30.962 95.1097 29.3936 97.0596 29.4611L136.092 30.8018C137.823 30.8608 139.227 32.2352 139.328 33.9722L139.656 39.4276L93.4875 38.6097Z" fill="url(#paint13_linear_30_1965)"/>
<path id="Vector_93" d="M108.045 31.6112H106.364C106.204 31.6112 106.07 31.4763 106.07 31.3161C106.07 31.1559 106.204 31.021 106.364 31.021H108.045C108.204 31.021 108.339 31.1559 108.339 31.3161C108.339 31.4763 108.204 31.6112 108.045 31.6112Z" fill="white"/>
<path id="Vector_94" d="M95.5971 36.8307C95.4375 36.8307 95.303 36.6958 95.303 36.5356V34.2337C95.303 32.4546 96.7402 31.0127 98.5136 31.0127H104.683C104.843 31.0127 104.977 31.1476 104.977 31.3078C104.977 31.468 104.843 31.6029 104.683 31.6029H98.5136C97.068 31.6029 95.8997 32.7834 95.8997 34.2253V36.5272C95.8997 36.6958 95.7652 36.8307 95.5971 36.8307Z" fill="white"/>
<path id="Vector_95" d="M149.994 75.7188L140.807 68.2059L131.612 75.7188C132.343 68.6443 132.688 60.7605 132.301 52.2021C132.175 49.4785 131.99 46.8309 131.747 44.2845C131.713 43.9556 131.822 43.6352 132.041 43.3907C132.259 43.1461 132.579 43.0112 132.906 43.0112C138.235 43.0112 143.564 43.0112 148.892 43.0112C149.514 43.0112 150.019 43.5003 150.052 44.1158C150.254 48.0282 150.389 52.084 150.431 56.2662C150.506 63.0793 150.338 69.5719 149.994 75.7188Z" fill="url(#paint14_linear_30_1965)"/>
<path id="Vector_96" d="M77.5855 40.0518C77.6779 38.0871 79.3001 36.5356 81.2584 36.5356H149.514C151.969 36.5356 154.07 38.3064 154.482 40.7348L154.541 41.072C155.003 43.7281 152.96 46.1565 150.271 46.1565H80.2414C78.6361 46.1565 77.3501 44.8074 77.4258 43.1969L77.5855 40.0518Z" fill="url(#paint15_linear_30_1965)"/>
</g>
</g>
<defs>
<linearGradient id="paint0_linear_30_1965" x1="232.595" y1="253.193" x2="21.6144" y2="13.6059" gradientUnits="userSpaceOnUse">
<stop stop-color="#018543"/>
<stop offset="1" stop-color="#E9EFFD"/>
</linearGradient>
<linearGradient id="paint1_linear_30_1965" x1="154.288" y1="37.1119" x2="81.995" y2="107.214" gradientUnits="userSpaceOnUse">
<stop stop-color="#FDF53F"/>
<stop offset="1" stop-color="#D93C65"/>
</linearGradient>
<linearGradient id="paint2_linear_30_1965" x1="162.329" y1="45.4057" x2="90.0376" y2="115.507" gradientUnits="userSpaceOnUse">
<stop stop-color="#FDF53F"/>
<stop offset="1" stop-color="#D93C65"/>
</linearGradient>
<linearGradient id="paint3_linear_30_1965" x1="141.826" y1="89.3436" x2="85.8982" y2="150.683" gradientUnits="userSpaceOnUse">
<stop stop-color="#A737D5"/>
<stop offset="1" stop-color="#EF497A"/>
</linearGradient>
<linearGradient id="paint4_linear_30_1965" x1="148.403" y1="95.3406" x2="92.4752" y2="156.68" gradientUnits="userSpaceOnUse">
<stop stop-color="#A737D5"/>
<stop offset="1" stop-color="#EF497A"/>
</linearGradient>
<linearGradient id="paint5_linear_30_1965" x1="151.077" y1="113.975" x2="81.0939" y2="177.789" gradientUnits="userSpaceOnUse">
<stop stop-color="#A737D5"/>
<stop offset="1" stop-color="#EF497A"/>
</linearGradient>
<linearGradient id="paint6_linear_30_1965" x1="161.557" y1="107.335" x2="105.629" y2="168.674" gradientUnits="userSpaceOnUse">
<stop stop-color="#A737D5"/>
<stop offset="1" stop-color="#EF497A"/>
</linearGradient>
<linearGradient id="paint7_linear_30_1965" x1="83.2586" y1="102.218" x2="56.2802" y2="180.818" gradientUnits="userSpaceOnUse">
<stop stop-color="#A737D5"/>
<stop offset="1" stop-color="#EF497A"/>
</linearGradient>
<linearGradient id="paint8_linear_30_1965" x1="83.2762" y1="51.1882" x2="116.609" y2="109.001" gradientUnits="userSpaceOnUse">
<stop stop-color="#FF928E"/>
<stop offset="1" stop-color="#FE7062"/>
</linearGradient>
<linearGradient id="paint9_linear_30_1965" x1="75.5279" y1="55.6556" x2="108.861" y2="113.469" gradientUnits="userSpaceOnUse">
<stop stop-color="#FF928E"/>
<stop offset="1" stop-color="#FE7062"/>
</linearGradient>
<linearGradient id="paint10_linear_30_1965" x1="60.4304" y1="105.785" x2="164.852" y2="188.988" gradientUnits="userSpaceOnUse">
<stop stop-color="#018543"/>
<stop offset="1" stop-color="#4042E2"/>
</linearGradient>
<linearGradient id="paint11_linear_30_1965" x1="78.1902" y1="83.4958" x2="182.612" y2="166.699" gradientUnits="userSpaceOnUse">
<stop stop-color="#018543"/>
<stop offset="1" stop-color="#4042E2"/>
</linearGradient>
<linearGradient id="paint12_linear_30_1965" x1="134.371" y1="0.745863" x2="84.3991" y2="66.2715" gradientUnits="userSpaceOnUse">
<stop stop-color="#018543"/>
<stop offset="1" stop-color="#150E42"/>
</linearGradient>
<linearGradient id="paint13_linear_30_1965" x1="139.83" y1="4.90891" x2="89.8583" y2="70.4346" gradientUnits="userSpaceOnUse">
<stop stop-color="#018543"/>
<stop offset="1" stop-color="#150E42"/>
</linearGradient>
<linearGradient id="paint14_linear_30_1965" x1="125.955" y1="81.1121" x2="169.636" y2="18.9525" gradientUnits="userSpaceOnUse">
<stop stop-color="#FF928E"/>
<stop offset="1" stop-color="#FE7062"/>
</linearGradient>
<linearGradient id="paint15_linear_30_1965" x1="133.558" y1="8.92666" x2="99.0233" y2="72.1364" gradientUnits="userSpaceOnUse">
<stop stop-color="#018543"/>
<stop offset="1" stop-color="#002E17"/>
</linearGradient>
<clipPath id="clip0_30_1965">
<rect width="232" height="233" fill="white"/>
</clipPath>
</defs>
</svg>
