<svg width="135" height="135" viewBox="0 0 135 135" fill="none" xmlns="http://www.w3.org/2000/svg">
<mask id="mask0_0_2744" style="mask-type:luminance" maskUnits="userSpaceOnUse" x="0" y="0" width="135" height="135">
<path d="M0 0H135V135H0V0Z" fill="white"/>
</mask>
<g mask="url(#mask0_0_2744)">
<path d="M66.9962 68.709C64.8272 67.9273 62.9521 66.4955 61.6268 64.609C60.3014 62.7224 59.5903 60.4729 59.5905 58.1674L59.5915 35.0946C59.4333 18.7181 72.7736 5.27319 89.1211 5.27319H73.3008C56.9534 5.27319 43.6137 18.7181 43.7711 35.0946L43.7695 73.8279L44.2463 73.3511C46.2749 71.3203 48.8903 69.9782 51.723 69.5143C54.5557 69.0504 57.4626 69.4881 60.0331 70.7657L66.9962 68.709Z" fill="#F2F4F7"/>
<path d="M21.3574 103.37V31.6294C21.3574 21.7789 26.5077 13.192 34.3372 8.66853C33.9391 7.62396 33.6044 6.55632 33.335 5.47144C33.3087 5.40558 33.2846 5.33874 33.2585 5.27368H31.6406C24.6478 5.27368 17.9413 8.05153 12.9965 12.9962C8.0517 17.9408 5.27365 24.6472 5.27344 31.6401V103.359C5.27341 106.821 5.9554 110.25 7.28047 113.449C8.60553 116.648 10.5477 119.555 12.9962 122.003C15.4446 124.452 18.3513 126.394 21.5503 127.719C24.7493 129.044 28.178 129.726 31.6406 129.726H44.4858C29.9651 129.726 21.3574 117.926 21.3574 103.37Z" fill="#F2F4F7"/>
<path d="M33.2227 5.27368H31.6406C28.178 5.27366 24.7493 5.95565 21.5503 7.28071C18.3513 8.60578 15.4446 10.548 12.9961 12.9964C10.5477 15.4448 8.60553 18.3515 7.28047 21.5506C5.9554 24.7496 5.27341 28.1783 5.27344 31.6409V103.36C5.27344 106.822 5.95545 110.251 7.28052 113.45C8.6056 116.649 10.5478 119.556 12.9962 122.004C15.4446 124.453 18.3513 126.395 21.5504 127.72C24.7494 129.045 28.178 129.727 31.6406 129.727H68.291C71.7536 129.727 75.1823 129.045 78.3813 127.72C81.5803 126.395 84.487 124.453 86.9354 122.004C89.3839 119.556 91.3261 116.649 92.6511 113.45C93.9762 110.251 94.6582 106.822 94.6582 103.36V94.6587" stroke="#E31E25" stroke-width="10" stroke-miterlimit="10" stroke-linecap="round" stroke-linejoin="round"/>
<path d="M129.725 35.0947C129.775 31.1892 129.048 27.3127 127.585 23.691C126.123 20.0694 123.954 16.7749 121.206 13.9995C118.458 11.2242 115.185 9.02331 111.577 7.52518C107.97 6.02705 104.101 5.26157 100.195 5.27333H73.3008C56.9532 5.27333 43.6139 18.7183 43.7711 35.0947L43.7695 73.8281L44.2463 73.3513C46.275 71.3204 48.8904 69.9781 51.7232 69.5142C54.556 69.0502 57.4629 69.488 60.0334 70.7656C64.1149 72.7924 68.6122 73.8408 73.1691 73.8279H100.064C116.319 73.8348 129.569 60.8423 129.725 44.5869V35.0947Z" stroke="#E31E25" stroke-width="10" stroke-miterlimit="10" stroke-linecap="round" stroke-linejoin="round"/>
<path d="M105.469 30.5859H68.0273" stroke="#018543" stroke-width="10" stroke-miterlimit="10" stroke-linecap="round" stroke-linejoin="round"/>
<path d="M89.6484 49.043H68.0273" stroke="#018543" stroke-width="10" stroke-miterlimit="10" stroke-linecap="round" stroke-linejoin="round"/>
<path d="M56.9532 105.996C56.9532 107.744 56.2587 109.421 55.0225 110.657C53.7864 111.893 52.1097 112.588 50.3615 112.588C49.4958 112.588 48.6386 112.417 47.8389 112.086C47.0391 111.755 46.3124 111.269 45.7003 110.657C45.0882 110.045 44.6026 109.318 44.2713 108.519C43.94 107.719 43.7695 106.862 43.7695 105.996C43.7695 105.13 43.94 104.273 44.2713 103.473C44.6026 102.674 45.0882 101.947 45.7003 101.335C46.3124 100.723 47.0391 100.237 47.8389 99.906C48.6386 99.5748 49.4958 99.4043 50.3615 99.4043C52.1097 99.4043 53.7864 100.099 55.0225 101.335C56.2587 102.571 56.9532 104.248 56.9532 105.996Z" fill="#018543"/>
</g>
</svg>
