<svg width="131" height="131" viewBox="0 0 131 131" fill="none" xmlns="http://www.w3.org/2000/svg">
<path d="M20.5939 99.4947V73.5617C20.5939 66.8187 23.2726 60.3519 28.0406 55.5839C32.8086 50.8159 39.2754 48.1372 46.0184 48.1372H30.5095C23.7665 48.1372 17.2996 50.8159 12.5316 55.5839C7.76361 60.3519 5.08496 66.8187 5.08496 73.5617V99.4947C5.08496 106.238 7.76361 112.705 12.5316 117.473C17.2996 122.241 23.7665 124.919 30.5095 124.919H46.0184C39.2754 124.919 32.8086 122.241 28.0406 117.473C23.2726 112.705 20.5939 106.238 20.5939 99.4947Z" fill="#E4E7EC"/>
<path d="M86.47 44.158C84.548 43.6268 82.5783 43.2857 80.5896 43.1397V25.8765C79.2762 -8.63858 29.7983 -8.61239 28.4971 25.8765V43.1199C20.7741 43.6394 13.5364 47.0714 8.24657 52.7222C2.95675 58.373 0.00934266 65.8213 0 73.5616L0 99.4946C0.00915175 107.583 3.22647 115.338 8.94611 121.058C14.6657 126.778 22.4206 129.995 30.5094 130.004H56.6979C63.4375 129.754 63.4324 120.082 56.6979 119.834H30.5094C25.1169 119.828 19.947 117.683 16.1339 113.87C12.3208 110.057 10.1759 104.887 10.1698 99.4946V73.5616C10.1759 68.1691 12.3208 62.9992 16.1339 59.1861C19.947 55.3731 25.1169 53.2282 30.5094 53.222H78.3075C80.148 53.2208 81.9802 53.4689 83.7542 53.9594C85.0539 54.3193 86.4434 54.1482 87.617 53.4837C88.7906 52.8192 89.6522 51.7157 90.0122 50.4159C90.3721 49.1162 90.201 47.7267 89.5365 46.5531C88.872 45.3795 87.7685 44.5179 86.4688 44.158H86.47ZM54.5434 10.0004C58.7527 10.0051 62.7881 11.6793 65.7645 14.6557C68.7409 17.632 70.4151 21.6675 70.4198 25.8767V43.0522H38.6669V25.8767C38.6716 21.6675 40.3459 17.632 43.3223 14.6556C46.2987 11.6793 50.3342 10.0051 54.5434 10.0004ZM46.7874 80.172C48.4732 80.172 50.0899 80.8417 51.2819 82.0337C52.4739 83.2257 53.1436 84.8424 53.1436 86.5281C52.8319 94.9503 40.7418 94.948 40.4313 86.5281C40.4313 84.8424 41.101 83.2257 42.293 82.0337C43.485 80.8417 45.1017 80.172 46.7874 80.172ZM26.4478 80.172C28.1336 80.172 29.7503 80.8417 30.9423 82.0337C32.1343 83.2257 32.804 84.8424 32.804 86.5281C32.4923 94.9503 20.4022 94.948 20.0917 86.5281C20.0917 84.8424 20.7614 83.2257 21.9534 82.0337C23.1454 80.8417 24.7621 80.172 26.4478 80.172Z" fill="#E31E25"/>
<path d="M95.8573 61.3547C76.9315 61.3547 61.5342 76.7521 61.5342 95.6778C63.2597 141.15 128.462 141.137 130.18 95.6778C130.18 76.7526 114.783 61.3547 95.8573 61.3547ZM95.8573 119.831C89.4536 119.824 83.3144 117.277 78.7863 112.749C74.2583 108.221 71.7113 102.081 71.704 95.6778C72.9183 63.6793 118.801 63.6879 120.011 95.6778C120.003 102.081 117.456 108.221 112.928 112.749C108.4 117.277 102.261 119.824 95.8573 119.831ZM111.62 95.6778C111.62 97.0264 111.085 98.3198 110.131 99.2734C109.178 100.227 107.884 100.763 106.536 100.763H100.942V106.356C100.692 113.096 91.02 113.091 90.7724 106.356V100.763H85.179C78.4394 100.513 78.4445 90.8406 85.179 90.5929H90.7724V84.9995C91.0223 78.26 100.695 78.2651 100.942 84.9995V90.5929H106.536C107.884 90.5929 109.178 91.1286 110.131 92.0823C111.085 93.0359 111.62 94.3292 111.62 95.6778Z" fill="#018543"/>
</svg>
