<svg width="127" height="147" viewBox="0 0 127 147" fill="none" xmlns="http://www.w3.org/2000/svg">
<path d="M34.1697 71.5797V60.6297C34.1697 54.8215 36.491 49.2511 40.6229 45.1441C44.7549 41.037 50.359 38.7297 56.2025 38.7297H39.6779C33.8344 38.7297 28.2303 41.037 24.0983 45.1441C19.9663 49.2511 17.645 54.8215 17.645 60.6297V71.5797C17.645 77.3879 19.9663 82.9583 24.0983 87.0653C28.2303 91.1723 33.8344 93.4796 39.6779 93.4796H56.2025C50.359 93.4796 44.7549 91.1723 40.6229 87.0653C36.491 82.9583 34.1697 77.3879 34.1697 71.5797Z" fill="#E4E7EC"/>
<path d="M39.678 38.7298C33.8345 38.7298 28.2304 41.0371 24.0984 45.1442C19.9665 49.2512 17.6451 54.8216 17.6451 60.6298V71.5798C17.6451 77.388 19.9665 82.9583 24.0984 87.0654C28.2304 91.1724 33.8345 93.4797 39.678 93.4797H83.7437C89.5872 93.4797 95.1913 91.1724 99.3233 87.0654C103.455 82.9583 105.777 77.388 105.777 71.5798V60.6298C105.777 54.8216 103.455 49.2512 99.3233 45.1442C95.1913 41.0371 89.5872 38.7298 83.7437 38.7298M39.678 38.7298H83.7437M39.678 38.7298V27.7798C39.678 21.9716 41.9993 16.4013 46.1313 12.2942C50.2632 8.18719 55.8674 5.87988 61.7109 5.87988C67.5543 5.87988 73.1585 8.18719 77.2904 12.2942C81.4224 16.4013 83.7437 21.9716 83.7437 27.7798V38.7298M61.7109 126.231L51.2337 122.847M61.7109 126.231L55.2357 135.09M61.7109 126.231L68.186 135.09M61.7109 126.231L72.188 122.847M61.7109 126.231V115.281M17.6451 126.231L7.16797 122.847M17.6451 126.231L11.17 135.09M17.6451 126.231L24.1203 135.09M17.6451 126.231L28.1223 122.847M17.6451 126.231V115.281M105.777 126.231L95.2994 122.847M105.777 126.231L99.3014 135.09M105.777 126.231L112.252 135.09M105.777 126.231L116.254 122.847M105.777 126.231V115.281" stroke="#E31E25" stroke-width="10" stroke-miterlimit="10" stroke-linecap="round" stroke-linejoin="round"/>
<path d="M61.7104 60.6299V71.5799" stroke="#018543" stroke-width="10" stroke-miterlimit="10" stroke-linecap="round" stroke-linejoin="round"/>
</svg>
