<svg width="288" height="344" viewBox="0 0 288 344" fill="none" xmlns="http://www.w3.org/2000/svg">
<g clip-path="url(#clip0_32_2640)">
<path d="M284.001 293.732C284.001 297.012 281.429 299.78 278.213 299.942L74.9992 310.076C71.28 310.264 68.2319 307.549 68.2319 304.001V14.1666C68.2319 10.6182 71.252 7.9301 74.9992 8.14515L77.7117 8.01074L278.213 20.0804C281.401 20.2686 284.001 23.0643 284.001 26.3438V293.732Z" fill="url(#paint0_linear_32_2640)"/>
<path d="M288 293.598C288 296.877 285.427 299.646 282.211 299.807L78.998 309.941C75.2788 310.13 72.2307 307.415 72.2307 303.866V14.032C72.2307 10.4837 75.2508 7.79554 78.998 8.01059L282.211 19.919C285.399 20.1072 288 22.9028 288 26.1824V293.598Z" fill="url(#paint1_linear_32_2640)"/>
<path d="M131.71 35.2682C126.648 41.5047 125.949 53.3055 134.59 58.1711C153.354 69.273 177.878 65.8054 195.915 54.0045C209.198 45.0799 203.549 28.4941 199.746 15.1072L159.786 12.7686C156.346 21.9888 138.058 27.15 131.71 35.2682Z" fill="url(#paint2_linear_32_2640)"/>
<path d="M278.436 281.985C278.436 284.888 276.143 287.334 273.291 287.469L89.2887 295.748C86.0169 295.883 83.3604 293.49 83.3604 290.372V42.2843C83.3604 39.1661 86.0169 36.7737 89.2887 36.9349L273.291 45.8595C276.143 45.9939 278.436 48.467 278.436 51.3433V281.985Z" fill="white"/>
<path d="M227.99 37.9565C227.71 36.4243 226.48 35.3491 224.914 35.2684L215.238 34.7577C210.876 34.5426 207.688 31.0212 207.912 26.6126L208.387 16.3977C208.471 14.5161 207.129 12.9838 205.227 12.8763L202.095 12.6881C199.718 12.5537 198.096 10.5107 198.46 8.1183C199.131 3.89794 196.251 0.26896 192 0.000147475C187.75 -0.268666 183.751 2.93021 183.08 7.17745C182.912 8.33335 182.269 9.4086 181.318 10.1613C180.367 10.914 179.193 11.3172 178.018 11.2365L174.83 11.0484C172.901 10.9408 171.055 12.2849 170.524 14.1666L167.755 24.4084C166.553 28.8438 162.219 32.0158 157.66 31.7738L147.482 31.2362C145.832 31.1556 144.182 32.0964 143.399 33.6287L136.1 47.7413L136.716 48.5209L230.506 52.0155L227.99 37.9565ZM190.63 8.79033C189.399 8.70969 188.533 7.63444 188.728 6.3979C188.924 5.16136 190.099 4.22051 191.329 4.30116C192.559 4.3818 193.426 5.45705 193.231 6.69359C193.035 7.93013 191.888 8.87098 190.63 8.79033Z" fill="#018543"/>
<path d="M228.633 38.7094C228.353 37.1772 227.123 36.1019 225.557 36.0213L215.881 35.5105C211.519 35.2955 208.331 31.774 208.555 27.3655L209.03 17.1506C209.114 15.2689 207.772 13.7367 205.87 13.6292L202.738 13.4948C200.361 13.3604 198.739 11.3174 199.103 8.92494C199.774 4.70458 196.894 1.0756 192.643 0.806788C188.393 0.537975 184.394 3.73685 183.723 7.9841C183.555 9.13999 182.912 10.2152 181.961 10.9679C181.01 11.7206 179.836 12.1238 178.661 12.0432L175.473 11.855C173.544 11.7475 171.698 13.0915 171.167 14.9732L168.399 25.215C167.196 29.6504 162.862 32.8224 158.304 32.5805L148.125 32.0429C146.475 31.9622 144.825 32.9031 144.042 34.4353L136.743 48.548L231.177 52.8221L228.633 38.7094ZM191.273 9.57009C190.043 9.48945 189.176 8.4142 189.371 7.17766C189.567 5.94112 190.742 5.00027 191.972 5.08091C193.202 5.16156 194.069 6.23681 193.874 7.47335C193.678 8.70989 192.503 9.65074 191.273 9.57009Z" fill="url(#paint3_linear_32_2640)"/>
<path d="M226.032 74.9454L138.925 71.7465V57.0693L226.032 60.7252V74.9454Z" fill="#D8DEE8"/>
<path d="M265.237 102.364C265.237 102.929 264.79 103.359 264.259 103.332L191.441 101.423C190.853 101.396 190.406 100.939 190.406 100.375V88.0363C190.406 87.4718 190.881 87.0148 191.441 87.0417L264.259 89.3266C264.79 89.3534 265.237 89.8104 265.237 90.3481V102.364Z" fill="#D8DEE8"/>
<path d="M265.237 116.181C265.237 116.745 264.79 117.175 264.259 117.148L191.441 115.643C190.853 115.643 190.406 115.159 190.406 114.595V111.154C190.406 110.589 190.881 110.132 191.441 110.159L264.259 111.826C264.79 111.826 265.237 112.283 265.237 112.847V116.181Z" fill="#D8DEE8"/>
<path d="M265.237 128.842C265.237 129.406 264.79 129.836 264.259 129.836L191.441 128.681C190.853 128.681 190.406 128.197 190.406 127.632V124.191C190.406 123.627 190.881 123.17 191.441 123.17L264.259 124.487C264.79 124.487 265.237 124.944 265.237 125.509V128.842Z" fill="#D8DEE8"/>
<path d="M265.237 141.503C265.237 142.068 264.79 142.498 264.259 142.498L191.441 141.691C190.853 141.691 190.406 141.207 190.406 140.643V137.202C190.406 136.638 190.881 136.181 191.441 136.181L264.259 137.122C264.79 137.122 265.237 137.578 265.237 138.143V141.503Z" fill="#D8DEE8"/>
<path d="M265.237 154.164C265.237 154.729 264.79 155.159 264.259 155.159L191.441 154.702C190.853 154.702 190.406 154.245 190.406 153.681V150.267C190.406 149.702 190.881 149.245 191.441 149.245L264.259 149.837C264.79 149.837 265.237 150.293 265.237 150.831V154.164Z" fill="#D8DEE8"/>
<path d="M165.602 155.078L106.095 154.729C103.886 154.729 102.068 152.982 102.068 150.858V87.6333C102.068 85.5096 103.858 83.843 106.095 83.8968L165.602 85.7785C167.727 85.8322 169.433 87.5795 169.433 89.6494V151.342C169.433 153.412 167.727 155.105 165.602 155.078Z" fill="#F4F7FA"/>
<path d="M105.955 85.6179H106.039L165.546 87.4996C166.721 87.5264 167.671 88.521 167.671 89.6769V151.343C167.671 152.472 166.749 153.359 165.63 153.359L106.123 153.009C104.892 153.009 103.858 152.042 103.858 150.832V87.634C103.858 86.5049 104.781 85.6179 105.955 85.6179ZM105.955 83.8975C103.802 83.8975 102.068 85.5372 102.068 87.634V150.859C102.068 152.982 103.858 154.73 106.095 154.73L165.602 155.079H165.63C167.727 155.079 169.433 153.412 169.433 151.343V89.6769C169.433 87.6071 167.727 85.8598 165.602 85.806L106.095 83.9243C106.039 83.8975 106.011 83.8975 105.955 83.8975Z" fill="#D8DEE8"/>
<path d="M263.448 267.254C263.448 268.974 262.078 270.453 260.372 270.506L193.063 273.087C191.273 273.168 189.819 271.77 189.819 269.996V220.884C189.819 219.109 191.273 217.631 193.063 217.604L260.372 216.421C262.078 216.394 263.448 217.765 263.448 219.513V267.254Z" fill="#F4F7FA"/>
<path d="M263.448 252.335L189.763 254.647V256.045L263.448 253.706V252.335Z" fill="white"/>
<path d="M225.109 217.04V254.539L226.508 254.485V217.013L225.109 217.04Z" fill="white"/>
<path d="M218.817 239.728L197.956 240.265V222.255L218.817 221.852V239.728Z" fill="#D8DEE8"/>
<path d="M218.817 249.486L197.956 250.104V243.733L218.817 243.168V249.486Z" fill="#D8DEE8"/>
<path d="M208.275 262.576L198.012 262.926C197.9 262.926 197.789 262.845 197.789 262.711V260.318C197.789 260.211 197.9 260.103 198.012 260.103L208.275 259.754C208.387 259.754 208.499 259.835 208.499 259.969V262.361C208.499 262.469 208.387 262.576 208.275 262.576Z" fill="#D8DEE8"/>
<path d="M238.923 266.823L198.012 268.329C197.9 268.329 197.789 268.248 197.789 268.114V265.721C197.789 265.614 197.9 265.506 198.012 265.506L238.923 264.055C239.035 264.055 239.147 264.135 239.147 264.27V266.635C239.147 266.716 239.035 266.823 238.923 266.823Z" fill="#D8DEE8"/>
<path d="M238.28 248.464L232.408 248.625V221.61L238.28 221.475V248.464Z" fill="white"/>
<path d="M248.068 248.168L242.223 248.329V221.421L248.068 221.287V248.168Z" fill="white"/>
<path d="M257.771 247.872L251.983 248.034V221.233L257.771 221.125V247.872Z" fill="white"/>
<mask id="mask0_32_2640" style="mask-type:luminance" maskUnits="userSpaceOnUse" x="230" y="229" width="30" height="21">
<path d="M230.087 237.147C230.087 241.287 230.087 245.453 230.087 249.593C239.958 249.297 249.773 249.002 259.505 248.706C259.505 243.41 259.505 238.088 259.505 232.792C251.703 229.082 247.313 229.62 244.74 230.857C241.832 232.228 240.182 234.996 235.344 236.394C233.191 237.039 231.289 237.147 230.087 237.147Z" fill="white"/>
</mask>
<g mask="url(#mask0_32_2640)">
<path d="M238.28 248.464L232.408 248.625V234.593L238.28 234.459V248.464Z" fill="#D8DEE8"/>
<path d="M248.068 248.168L242.223 248.33V227.658L248.068 227.523V248.168Z" fill="#D8DEE8"/>
<path d="M257.771 247.872L251.983 248.034V229.808L257.771 229.701V247.872Z" fill="#D8DEE8"/>
</g>
<path d="M177.207 273.329L105.452 276.071C103.522 276.152 101.984 274.7 101.984 272.872V222.147C101.984 220.319 103.55 218.787 105.452 218.76L177.207 217.524C179.025 217.497 180.507 218.922 180.507 220.696V269.942C180.479 271.743 179.025 273.249 177.207 273.329Z" fill="#F4F7FA"/>
<path d="M101.984 256.179V257.658L180.479 255.184V253.76L101.984 256.179Z" fill="white"/>
<path d="M124.523 264.27L111.101 264.727C110.961 264.727 110.877 264.647 110.877 264.512V262.039C110.877 261.905 110.989 261.797 111.101 261.797L124.523 261.367C124.663 261.367 124.747 261.448 124.747 261.582V264.055C124.775 264.163 124.663 264.27 124.523 264.27Z" fill="#D8DEE8"/>
<path d="M138.617 269.324L111.101 270.319C110.961 270.319 110.877 270.238 110.877 270.104V267.631C110.877 267.496 110.989 267.389 111.101 267.389L138.617 266.421C138.757 266.421 138.841 266.502 138.841 266.636V269.082C138.841 269.217 138.757 269.324 138.617 269.324Z" fill="#D8DEE8"/>
<path d="M113.589 250.642L109.451 250.749V225.266L113.589 225.185V250.642Z" fill="white"/>
<path d="M119.741 250.454L115.603 250.588V225.158L119.741 225.078V250.454Z" fill="white"/>
<path d="M125.866 250.292L121.755 250.4V225.024L125.866 224.943V250.292Z" fill="white"/>
<path d="M131.934 250.104L127.851 250.212V224.917L131.934 224.836V250.104Z" fill="white"/>
<path d="M138.002 249.916L133.947 250.05V224.809L138.002 224.728V249.916Z" fill="white"/>
<path d="M144.042 249.755L139.987 249.862V224.674L144.042 224.594V249.755Z" fill="white"/>
<path d="M150.054 249.567L146.028 249.701V224.567L150.054 224.486V249.567Z" fill="white"/>
<path d="M156.039 249.405L152.012 249.513V224.433L156.039 224.352V249.405Z" fill="white"/>
<path d="M161.995 249.244L157.996 249.351V224.325L161.995 224.244V249.244Z" fill="white"/>
<path d="M167.923 249.056L163.952 249.163V224.217L167.923 224.137V249.056Z" fill="white"/>
<path d="M173.851 248.895L169.881 249.002V224.083L173.851 224.002V248.895Z" fill="white"/>
<mask id="mask1_32_2640" style="mask-type:luminance" maskUnits="userSpaceOnUse" x="106" y="233" width="70" height="20">
<path d="M106.123 242.255C109.674 239.916 112.499 239.432 114.484 239.459C117.001 239.513 117.812 240.346 120.552 239.997C123.349 239.647 123.545 238.626 126.676 238.142C127.18 238.061 129.669 237.685 132.689 238.303C136.268 239.029 136.408 240.266 138.589 240.158C140.63 240.078 140.77 239.002 144.797 237.309C146.699 236.502 148.46 235.75 150.809 235.535C153.354 235.293 153.55 235.992 156.794 235.938C159.366 235.884 161.408 235.4 162.666 235.104C166.134 234.271 166.581 233.545 168.902 233.196C170.3 232.981 172.397 232.9 175.11 233.734C175.11 239.271 175.11 244.836 175.11 250.373C152.515 251.045 129.529 251.717 106.179 252.416C106.179 249.029 106.151 245.642 106.123 242.255Z" fill="white"/>
</mask>
<g mask="url(#mask1_32_2640)">
<path d="M113.589 250.642L109.451 250.75V237.524L113.589 237.417V250.642Z" fill="#D8DEE8"/>
<path d="M119.741 250.454L115.603 250.588V231.045L119.741 230.965V250.454Z" fill="#D8DEE8"/>
<path d="M125.866 250.292L121.755 250.4V233.169L125.866 233.062V250.292Z" fill="#D8DEE8"/>
<path d="M131.934 250.105L127.851 250.212V232.847L131.934 232.739V250.105Z" fill="#D8DEE8"/>
<path d="M138.002 249.916L133.947 250.05V230.642L138.002 230.562V249.916Z" fill="#D8DEE8"/>
<path d="M144.042 249.755L139.987 249.862V232.739L144.042 232.658V249.755Z" fill="#D8DEE8"/>
<path d="M150.054 249.567L146.027 249.701V231.18L150.054 231.099V249.567Z" fill="#D8DEE8"/>
<path d="M156.039 249.406L152.012 249.513V232.9L156.039 232.82V249.406Z" fill="#D8DEE8"/>
<path d="M161.995 249.244L157.996 249.352V232.336L161.995 232.255V249.244Z" fill="#D8DEE8"/>
<path d="M167.923 249.056L163.952 249.164V229.997L167.923 229.917V249.056Z" fill="#D8DEE8"/>
<path d="M173.851 248.895L169.881 249.002V230.965L173.851 230.884V248.895Z" fill="#D8DEE8"/>
</g>
<path d="M162.051 148.654C161.38 147.444 160.792 146.208 160.261 144.971C154.165 130.133 147.034 128.117 147.034 128.117L154.696 148.6L162.051 148.654Z" fill="url(#paint4_linear_32_2640)"/>
<path d="M159.59 148.627C157.688 143.681 155.899 139.273 154.472 136.316C148.796 124.488 137.75 124.784 132.94 125.187C132.94 125.187 114.344 124.73 111.184 145.052C111.017 146.154 110.877 147.203 110.765 148.224L159.59 148.627Z" fill="url(#paint5_linear_32_2640)"/>
<g opacity="0.2">
<path d="M117.924 148.278C115.994 146.557 113.953 144.299 112.023 141.289C111.688 142.444 111.408 143.708 111.184 145.052C111.017 146.154 110.877 147.202 110.765 148.224L117.924 148.278Z" fill="#018543"/>
</g>
<path d="M123.992 148.332C123.936 139.488 122.538 132.929 118.427 133.44C118.427 133.44 112.219 133.278 110.178 148.224L123.992 148.332Z" fill="url(#paint6_linear_32_2640)"/>
<path d="M129.78 112.284C129.78 112.284 130.983 122.741 130.2 124.73C129.417 126.719 132.157 129.407 137.47 130.375C142.756 131.369 138.281 119.972 138.281 119.972L129.78 112.284Z" fill="url(#paint7_linear_32_2640)"/>
<path d="M147.146 104.085C150.306 98.7354 145.888 91.0473 139.036 93.6817C134.338 95.5096 131.29 94.1924 128.186 95.3214C122.594 97.3107 123.321 101.208 124.747 105.133C126.089 112.956 126.145 116.02 134.87 120.536C137.806 109.515 143.259 110.617 147.146 104.085Z" fill="url(#paint8_linear_32_2640)"/>
<path d="M130.312 117.794C130.312 117.794 133.919 123.332 140.826 122.848C147.705 122.391 145.328 107.015 143.566 106.154C141.525 105.133 138.757 106.45 134.143 105.751C132.185 105.455 130.34 103.251 129.584 105.778C128.718 108.654 129.529 113.009 129.529 113.009C129.529 113.009 127.347 111.208 126.313 113.144C125.446 114.676 126.956 116.638 130.312 117.794Z" fill="url(#paint9_linear_32_2640)"/>
<path d="M129.389 102.472C129.389 102.472 129.305 111.692 131.738 114.541C132.856 116.316 131.458 116.369 130.256 115.052C129.053 113.735 127.655 109.515 127.655 109.515L129.389 102.472Z" fill="url(#paint10_linear_32_2640)"/>
<path d="M130.619 95.5633C130.591 95.5633 130.591 95.5633 130.563 95.5633C130.452 95.5633 130.368 95.4827 130.368 95.4021C130.368 95.2945 130.424 95.2139 130.535 95.2139C130.843 95.187 136.883 94.8107 138.114 92.3914C138.17 92.3107 138.281 92.2569 138.365 92.3107C138.449 92.3645 138.505 92.472 138.449 92.5526C137.163 95.1064 131.235 95.5365 130.619 95.5633Z" fill="url(#paint11_linear_32_2640)"/>
<path d="M141.414 169.191L103.495 169.164C103.243 169.164 103.047 168.976 103.047 168.734V163.922C103.047 163.68 103.243 163.492 103.495 163.492L141.414 163.6C141.665 163.6 141.861 163.788 141.861 164.03V168.788C141.861 168.976 141.665 169.191 141.414 169.191Z" fill="#D8DEE8"/>
<path d="M168.203 180.589L103.466 180.804C103.215 180.804 103.019 180.616 103.019 180.374V175.562C103.019 175.32 103.215 175.132 103.466 175.132L168.203 175.024C168.455 175.024 168.65 175.213 168.65 175.455V180.159C168.65 180.401 168.455 180.589 168.203 180.589Z" fill="#D8DEE8"/>
<path d="M168.203 191.959L103.495 192.47C103.243 192.47 103.047 192.282 103.047 192.04V187.228C103.047 186.986 103.243 186.798 103.495 186.798L168.231 186.422C168.483 186.422 168.678 186.61 168.678 186.852V191.556C168.65 191.771 168.455 191.959 168.203 191.959Z" fill="#D8DEE8"/>
<path d="M168.203 203.357L103.466 204.137C103.215 204.137 103.019 203.949 103.019 203.707V198.895C103.019 198.653 103.215 198.465 103.466 198.465L168.203 197.82C168.455 197.82 168.65 198.008 168.65 198.25V202.954C168.65 203.169 168.455 203.357 168.203 203.357Z" fill="#D8DEE8"/>
<path d="M247.033 169.245L190.825 169.218C190.602 169.218 190.406 169.03 190.406 168.788V164.137C190.406 163.895 190.602 163.707 190.825 163.707L247.033 163.868C247.257 163.868 247.452 164.056 247.452 164.272V168.841C247.424 169.056 247.257 169.245 247.033 169.245Z" fill="#D8DEE8"/>
<path d="M263.839 180.239L190.825 180.508C190.602 180.508 190.406 180.32 190.406 180.078V175.427C190.406 175.185 190.602 174.997 190.825 174.997L263.839 174.89C264.063 174.89 264.259 175.078 264.259 175.293V179.836C264.259 180.051 264.063 180.239 263.839 180.239Z" fill="#D8DEE8"/>
<path d="M263.839 191.234L190.825 191.798C190.602 191.798 190.406 191.61 190.406 191.368V186.718C190.406 186.476 190.602 186.287 190.825 186.287L263.839 185.884C264.063 185.884 264.259 186.072 264.259 186.287V190.83C264.259 191.045 264.063 191.234 263.839 191.234Z" fill="#D8DEE8"/>
<path d="M263.839 202.201L190.825 203.088C190.602 203.088 190.406 202.9 190.406 202.658V198.007C190.406 197.766 190.602 197.577 190.825 197.577L263.839 196.852C264.063 196.852 264.259 197.04 264.259 197.255V201.798C264.259 202.013 264.063 202.201 263.839 202.201Z" fill="#D8DEE8"/>
<path d="M225.557 36.0479L215.881 35.5371C212.973 35.3758 210.624 33.7898 209.394 31.4512C200.417 33.2522 190.965 31.3705 181.514 33.1985C175.026 34.5963 175.753 44.3004 168.538 44.9993C158.192 46.3434 147.957 46.4241 137.806 46.5316L136.743 48.5746L231.177 52.8487L228.633 38.7629C228.353 37.2038 227.123 36.1285 225.557 36.0479Z" fill="url(#paint12_linear_32_2640)"/>
<path d="M48.3498 230.024C48.3498 230.024 31.2639 201.61 8.19366 249.943C-9.78712 287.577 1.84586 329.458 43.4281 340.936C85.0384 352.414 149.998 329.216 129.613 312.872C86.3527 278.168 53.4951 247.443 48.3498 230.024Z" fill="url(#paint13_linear_32_2640)"/>
<g opacity="0.35">
<path d="M26.9291 255.561C25.7267 259.002 25.447 268.813 25.9504 280.076C26.3978 290.13 25.447 295.399 42.1135 302.711C47.8181 305.211 51.761 313.167 60.5137 317.925C64.4846 320.076 79.3894 327.845 98.6844 324.699C111.436 322.63 120.944 316.608 127.319 311.017C85.1779 277.093 53.4109 247.12 48.3495 230.024C48.3495 230.024 42.1135 219.647 32.0745 222.094C34.5073 224.701 35.3463 231.744 26.9291 255.561Z" fill="url(#paint14_linear_32_2640)"/>
</g>
<g opacity="0.13">
<path d="M110.01 329.511C90.3232 339.941 57.4656 346.339 32.9973 328.839C10.3186 312.657 8.30515 285.56 7.55013 277.281C6.23583 262.819 9.17204 250.238 13.3946 240.077C11.6888 242.927 9.95502 246.206 8.16534 249.916C-9.81544 287.55 1.81754 329.431 43.3998 340.909C84.3389 352.226 147.957 329.914 130.479 313.624C125.53 319.028 118.846 324.807 110.01 329.511Z" fill="url(#paint15_linear_32_2640)"/>
</g>
<path d="M79.0258 332.602C78.4386 332.602 77.8514 332.602 77.2641 332.576C62.0797 332.253 40.7433 327.387 25.3911 306.151C12.4438 288.194 14.1776 267.926 17.8968 254.082C21.9516 239.109 29.1383 228.222 29.2222 228.115C29.3061 227.98 29.4738 227.953 29.5857 228.034C29.6976 228.115 29.7535 228.276 29.6696 228.384C29.5857 228.491 22.4269 239.324 18.4281 254.217C14.7369 267.953 13.0031 288.033 25.8385 305.829C41.0509 326.904 62.1916 331.715 77.2641 332.038C93.623 332.387 106.514 327.683 106.626 327.656C106.766 327.602 106.934 327.683 106.99 327.818C107.046 327.952 106.962 328.113 106.822 328.14C106.71 328.194 94.6297 332.602 79.0258 332.602Z" fill="#FFA6A4"/>
<path d="M160.596 329.914C159.506 328.785 157.576 323.973 161.1 322.979C164.651 321.984 166.636 320.721 171.558 316.931C176.452 313.14 177.738 316.393 170.803 322.549C163.868 328.678 162.162 331.5 160.596 329.914Z" fill="url(#paint16_linear_32_2640)"/>
<path d="M155.954 322.871L158.863 325.317C159.478 325.828 160.373 325.882 161.044 325.479C161.351 325.291 161.575 324.968 161.603 324.592C161.631 324.242 161.463 323.866 161.184 323.651L156.905 320.129L155.954 322.871Z" fill="url(#paint17_linear_32_2640)"/>
<path d="M68.5392 299.269C63.3939 303.624 74.16 317.844 91.3578 313.248C112.191 307.656 138.701 310.156 156.57 324.162C157.604 323.274 160.177 321.877 159.002 320.748C142.867 305.049 127.907 296.044 115.519 293.624C96.8107 289.968 83.2203 286.904 68.5392 299.269Z" fill="url(#paint18_linear_32_2640)"/>
<g opacity="0.24">
<path d="M128.997 305.237C132.017 306.931 132.66 303.49 134.226 301.232C127.543 297.28 121.251 294.726 115.519 293.624C96.8107 289.968 83.2203 286.904 68.5392 299.269C63.3939 303.624 74.16 317.844 91.3578 313.248C97.5657 311.581 104.305 310.64 111.156 310.506C116.665 307.173 121.167 299.538 128.997 305.237Z" fill="#552D63"/>
</g>
<path d="M65.4913 314.108L64.4286 314.485C64.4286 314.485 57.5775 308.275 56.3471 306.689C54.865 304.753 71.6154 299.834 77.0683 293.383C82.8009 286.609 78.2708 301.42 78.2708 301.42L65.4913 314.108Z" fill="url(#paint19_linear_32_2640)"/>
<path d="M59.2832 253.141C59.2832 253.141 65.3514 253.948 72.0347 265.291C77.0403 273.84 87.9182 280.909 87.9182 280.909L89.0368 287.63L80.0044 289.162L76.7606 287.119L67.952 269.109L59.2832 253.141Z" fill="#018543"/>
<path d="M47.5108 252.416C47.5108 252.416 32.5221 254.19 32.2145 270.775C31.9069 286.071 37.6675 291.985 51.7333 304.753C53.1595 306.044 55.4525 306.044 55.6203 306.232C56.5431 307.226 57.4659 308.248 58.3887 309.35C71.0004 297.711 85.2061 293.786 85.2061 293.786C85.2061 293.786 72.0631 267.63 66.2745 258.975C60.3462 249.996 51.3418 251.528 47.5108 252.416Z" fill="url(#paint20_linear_32_2640)"/>
<g opacity="0.2">
<path d="M72.3703 291.017C66.0505 294.27 57.0741 293.893 53.7743 289.888C51.2856 286.85 50.8941 285.721 47.874 280.963C45.4411 277.146 44.2666 276.528 38.9535 273.302C36.9401 272.093 34.675 270.318 32.4379 267.684C32.2981 268.652 32.2142 269.673 32.1862 270.775C31.8786 286.071 37.6392 291.985 51.705 304.753C53.1312 306.044 55.4242 306.044 55.592 306.232C56.5148 307.226 57.4376 308.248 58.3604 309.35C70.9721 297.711 85.1778 293.786 85.1778 293.786C85.1778 293.786 82.9966 289.673 80.1163 283.894C78.047 287.227 76.453 288.92 72.3703 291.017Z" fill="url(#paint21_linear_32_2640)"/>
</g>
<path d="M62.0518 291.501C62.0518 291.501 64.9041 291.635 66.9175 290.856C68.9309 290.076 68.7631 289.888 71.0841 289.619C73.3492 289.351 77.7954 288.06 75.2787 285.856C72.4823 283.41 67.6725 284.082 66.3023 285.722C64.96 287.281 62.667 288.275 62.667 288.275L62.0518 291.501Z" fill="url(#paint22_linear_32_2640)"/>
<path d="M36.7165 260.668C36.7165 260.668 28.3832 261.609 33.2489 287.361C35.7657 300.721 48.2096 298.839 63.2542 293.329C64.2609 291.286 62.9745 286.931 62.9745 286.931C62.9745 286.931 44.2947 294.323 43.8193 283.544C43.26 271.42 41.5822 259.378 36.7165 260.668Z" fill="url(#paint23_linear_32_2640)"/>
<path d="M50.9781 257.899C47.4267 257.899 43.7914 255.373 43.6236 255.238C43.5677 255.184 43.5397 255.104 43.5957 255.05C43.6516 254.996 43.7355 254.969 43.7914 255.023C43.8473 255.05 48.6012 258.383 52.4602 257.469C53.5229 257.2 54.2499 256.717 54.6414 255.991C55.3405 254.593 54.5575 252.792 54.5295 252.792C54.5016 252.738 54.5295 252.658 54.5855 252.631C54.6414 252.604 54.7253 252.631 54.7533 252.684C54.7812 252.765 55.6201 254.593 54.8651 256.098C54.4457 256.905 53.6627 257.442 52.5162 257.738C52.0128 257.846 51.5094 257.899 50.9781 257.899Z" fill="#018543"/>
<path d="M56.2913 305.667C56.2633 305.667 56.2074 305.64 56.1794 305.613C56.1235 305.56 56.1235 305.479 56.1794 305.425C56.3192 305.318 69.7419 293.759 81.8502 290.909C81.9341 290.882 81.9901 290.936 82.018 291.017C82.046 291.098 81.9901 291.151 81.9062 291.178C69.8537 294.001 56.487 305.506 56.3751 305.613C56.3472 305.667 56.3192 305.667 56.2913 305.667Z" fill="#018543"/>
<path d="M42.533 241.26C42.533 241.26 44.8819 250.399 44.4065 252.254C43.9312 254.109 46.7275 256.152 51.5933 256.367C56.459 256.582 51.0619 246.985 51.0619 246.985L42.533 241.26Z" fill="url(#paint24_linear_32_2640)"/>
<path d="M57.1859 237.711C62.6948 233.625 60.1501 218.814 56.5428 218.196C54.4734 217.846 54.2497 222.577 48.2375 226.179C43.5396 229.002 39.7924 228.464 38.4222 231.609C37.779 233.088 37.779 235.104 38.3103 236.717C38.5899 237.55 39.1772 238.598 40.4915 240.615C41.666 242.389 41.5821 242.335 41.9176 242.846C42.7845 244.082 44.4624 246.206 47.5664 248.706C47.7901 247.846 48.1256 246.743 48.6569 245.588C48.8527 245.131 49.6916 243.383 50.95 241.932C53.271 239.27 55.6199 238.894 57.1859 237.711Z" fill="url(#paint25_linear_32_2640)"/>
<path d="M43.5675 246.206C43.5675 246.206 46.6995 251.179 52.9634 250.803C58.5841 250.48 59.451 238.383 55.8716 235.803C54.6692 234.943 52.2922 234.566 50.3348 235.104C49.1883 235.4 48.7968 235.857 46.8952 236.34C45.1615 236.771 44.6581 236.582 44.1268 237.013C43.4557 237.55 42.9803 238.84 44.0709 242.389C43.0082 241.34 41.7219 240.937 40.7991 241.34C40.6593 241.394 40.2678 241.663 40.0441 242.039C39.2611 243.41 40.5754 245.184 43.5675 246.206Z" fill="url(#paint26_linear_32_2640)"/>
<path d="M64.0371 294.969C63.8973 294.996 63.7854 295.076 63.7295 295.211C63.7295 295.238 63.7854 295.883 63.7854 295.91C63.7854 296.071 63.8693 296.205 64.0091 296.259L76.7607 300.238L100.586 291.286L89.2605 292.119L64.0371 294.969Z" fill="#26264F"/>
<path d="M64.0372 294.888C63.8694 294.915 63.7576 295.022 63.7576 295.184C63.7576 295.345 63.8415 295.479 63.9813 295.533L76.7328 299.512L100.558 290.56L89.2327 291.393L64.0372 294.888Z" fill="#444B8C"/>
<path d="M76.1733 299.323L78.0749 275.453C78.1029 275.077 78.4104 274.754 78.8019 274.7L107.325 270.399C107.577 270.372 107.828 270.426 108.024 270.587C108.22 270.749 108.332 270.991 108.304 271.232L107.241 293.49C107.213 293.867 106.934 294.189 106.542 294.27L76.9004 299.565L76.1733 299.323Z" fill="url(#paint27_linear_32_2640)"/>
<path d="M76.7607 300.211L78.7182 275.802C78.7462 275.426 79.0538 275.104 79.4453 275.05L107.968 270.749C108.22 270.722 108.472 270.776 108.668 270.937C108.863 271.098 108.975 271.34 108.947 271.582L107.885 293.84C107.857 294.216 107.577 294.539 107.185 294.619L76.7607 300.211Z" fill="#26264F"/>
<path d="M76.7607 300.21L107.185 294.646C107.577 294.565 107.857 294.243 107.885 293.866L108.22 287.146C99.1598 292.092 87.8065 292.71 77.2082 294.7L76.7607 300.21Z" fill="#1F1F44"/>
<path d="M128.298 295.21C127.879 293.812 126.956 292.28 130.256 291.178C132.632 290.372 136.771 290.103 140.546 289.915C145.803 289.646 147.034 292.683 139.316 294.619C134.254 295.882 128.885 297.199 128.298 295.21Z" fill="url(#paint28_linear_32_2640)"/>
<path d="M132.409 293.087C132.465 293.867 131.933 294.485 131.262 294.566C129.696 294.781 130.004 294.001 129.948 293.221C129.892 292.442 129.277 291.904 131.094 291.743C131.766 291.689 132.353 292.308 132.409 293.087Z" fill="url(#paint29_linear_32_2640)"/>
<path d="M116.414 288.625L117.952 288.383C117.952 288.383 120.944 288.652 129.221 290.829C130.983 291.098 133.388 296.071 128.214 296.259C123.041 296.447 116.721 300.157 116.721 300.157L116.414 288.625Z" fill="url(#paint30_linear_32_2640)"/>
<path d="M62.583 311.716C62.583 311.716 63.3381 318.167 78.914 317.576C94.4898 316.984 122.314 301.447 122.146 293.275C121.978 285.13 111.604 288.383 100.894 293.087C91.8333 297.065 77.8513 299.377 74.999 299.807C71.3357 300.345 61.7162 308.624 62.583 311.716Z" fill="url(#paint31_linear_32_2640)"/>
<g opacity="0.2">
<path d="M82.9687 303.651C90.1833 302.953 91.8052 297.979 100.782 296.528C106.598 295.587 108.639 297.254 111.604 295.345C113.953 293.84 115.127 291.205 115.714 288.356C111.743 288.679 106.374 290.695 100.893 293.114C92.1128 296.985 78.6622 299.27 75.2786 299.781C75.1667 299.807 72.9017 299.028 72.9017 299.028C72.9017 299.028 71.2238 299.969 69.9934 300.694C74.7193 303.087 80.34 303.893 82.9687 303.651Z" fill="url(#paint32_linear_32_2640)"/>
</g>
</g>
<defs>
<linearGradient id="paint0_linear_32_2640" x1="-47.7614" y1="-288.753" x2="297.761" y2="469.335" gradientUnits="userSpaceOnUse">
<stop stop-color="#016834"/>
<stop offset="0.9964" stop-color="#F36F56"/>
</linearGradient>
<linearGradient id="paint1_linear_32_2640" x1="103.211" y1="9.08374" x2="448.734" y2="767.171" gradientUnits="userSpaceOnUse">
<stop stop-color="#018543"/>
<stop offset="0.9964" stop-color="#018543"/>
</linearGradient>
<linearGradient id="paint2_linear_32_2640" x1="140.803" y1="-14.3306" x2="193.253" y2="100.746" gradientUnits="userSpaceOnUse">
<stop stop-color="#016935"/>
<stop offset="0.9964" stop-color="#F36F56"/>
</linearGradient>
<linearGradient id="paint3_linear_32_2640" x1="159.685" y1="0.81883" x2="198.86" y2="79.4132" gradientUnits="userSpaceOnUse">
<stop stop-color="#D62635"/>
<stop offset="0.9964" stop-color="#C22332"/>
</linearGradient>
<linearGradient id="paint4_linear_32_2640" x1="185.354" y1="224.649" x2="162.179" y2="154.408" gradientUnits="userSpaceOnUse">
<stop stop-color="#C22332"/>
<stop offset="0.9964" stop-color="#C22332"/>
</linearGradient>
<linearGradient id="paint5_linear_32_2640" x1="143.055" y1="189.68" x2="134.426" y2="140.729" gradientUnits="userSpaceOnUse">
<stop stop-color="#E12025"/>
<stop offset="0.9964" stop-color="#D62635"/>
</linearGradient>
<linearGradient id="paint6_linear_32_2640" x1="126.604" y1="195.605" x2="117.511" y2="144.024" gradientUnits="userSpaceOnUse">
<stop offset="0.2828" stop-color="#AA3E72"/>
<stop offset="0.9964" stop-color="#C22432"/>
</linearGradient>
<linearGradient id="paint7_linear_32_2640" x1="133.051" y1="136.756" x2="136.23" y2="105.813" gradientUnits="userSpaceOnUse">
<stop stop-color="#FFC444"/>
<stop offset="0.9964" stop-color="#F36F56"/>
</linearGradient>
<linearGradient id="paint8_linear_32_2640" x1="128.714" y1="127.661" x2="137.006" y2="94.0595" gradientUnits="userSpaceOnUse">
<stop stop-color="#311944"/>
<stop offset="1" stop-color="#6B3976"/>
</linearGradient>
<linearGradient id="paint9_linear_32_2640" x1="135.252" y1="107.537" x2="139.591" y2="167.287" gradientUnits="userSpaceOnUse">
<stop stop-color="#FFC444"/>
<stop offset="0.9964" stop-color="#F36F56"/>
</linearGradient>
<linearGradient id="paint10_linear_32_2640" x1="124.207" y1="127.385" x2="135.3" y2="93.8462" gradientUnits="userSpaceOnUse">
<stop stop-color="#311944"/>
<stop offset="1" stop-color="#6B3976"/>
</linearGradient>
<linearGradient id="paint11_linear_32_2640" x1="126.002" y1="125.472" x2="133.949" y2="93.2662" gradientUnits="userSpaceOnUse">
<stop stop-color="#311944"/>
<stop offset="1" stop-color="#6B3976"/>
</linearGradient>
<linearGradient id="paint12_linear_32_2640" x1="186.313" y1="116.474" x2="182.527" y2="2.25856" gradientUnits="userSpaceOnUse">
<stop stop-color="#C22332"/>
<stop offset="0.9964" stop-color="#6165D7"/>
</linearGradient>
<linearGradient id="paint13_linear_32_2640" x1="32.6275" y1="238.46" x2="127.578" y2="449.464" gradientUnits="userSpaceOnUse">
<stop stop-color="#FF9085"/>
<stop offset="1" stop-color="#FB6FBB"/>
</linearGradient>
<linearGradient id="paint14_linear_32_2640" x1="44.2623" y1="233.224" x2="139.213" y2="444.227" gradientUnits="userSpaceOnUse">
<stop stop-color="#FF9085"/>
<stop offset="1" stop-color="#FB6FBB"/>
</linearGradient>
<linearGradient id="paint15_linear_32_2640" x1="32.6271" y1="238.46" x2="127.578" y2="449.464" gradientUnits="userSpaceOnUse">
<stop stop-color="#FF9085"/>
<stop offset="1" stop-color="#FB6FBB"/>
</linearGradient>
<linearGradient id="paint16_linear_32_2640" x1="159.854" y1="329.299" x2="173.061" y2="313.521" gradientUnits="userSpaceOnUse">
<stop stop-color="#40447E"/>
<stop offset="0.9964" stop-color="#3C3B6B"/>
</linearGradient>
<linearGradient id="paint17_linear_32_2640" x1="123.076" y1="280.035" x2="267.147" y2="469.705" gradientUnits="userSpaceOnUse">
<stop stop-color="#FFC444"/>
<stop offset="0.9964" stop-color="#F36F56"/>
</linearGradient>
<linearGradient id="paint18_linear_32_2640" x1="63.2126" y1="288.137" x2="168.982" y2="338.215" gradientUnits="userSpaceOnUse">
<stop stop-color="#311944"/>
<stop offset="1" stop-color="#6B3976"/>
</linearGradient>
<linearGradient id="paint19_linear_32_2640" x1="25.39" y1="314.214" x2="118.07" y2="290.125" gradientUnits="userSpaceOnUse">
<stop stop-color="#311944"/>
<stop offset="1" stop-color="#893976"/>
</linearGradient>
<linearGradient id="paint20_linear_32_2640" x1="64.2356" y1="302.478" x2="52.3598" y2="264.104" gradientUnits="userSpaceOnUse">
<stop stop-color="#018543"/>
<stop offset="0.9964" stop-color="#018543"/>
</linearGradient>
<linearGradient id="paint21_linear_32_2640" x1="64.2353" y1="302.478" x2="52.3596" y2="264.104" gradientUnits="userSpaceOnUse">
<stop stop-color="#018543"/>
<stop offset="0.9964" stop-color="#018543"/>
</linearGradient>
<linearGradient id="paint22_linear_32_2640" x1="60.5112" y1="290.13" x2="108.765" y2="273.473" gradientUnits="userSpaceOnUse">
<stop stop-color="#FFC444"/>
<stop offset="0.9964" stop-color="#F36F56"/>
</linearGradient>
<linearGradient id="paint23_linear_32_2640" x1="54.9778" y1="307.949" x2="42.4825" y2="267.573" gradientUnits="userSpaceOnUse">
<stop offset="0.2828" stop-color="#016131"/>
<stop offset="0.9964" stop-color="#018543"/>
</linearGradient>
<linearGradient id="paint24_linear_32_2640" x1="48.4463" y1="262.463" x2="47.8187" y2="234.824" gradientUnits="userSpaceOnUse">
<stop stop-color="#FFC444"/>
<stop offset="0.9964" stop-color="#F36F56"/>
</linearGradient>
<linearGradient id="paint25_linear_32_2640" x1="34.075" y1="269.368" x2="52.6672" y2="220.246" gradientUnits="userSpaceOnUse">
<stop stop-color="#311944"/>
<stop offset="1" stop-color="#6B3976"/>
</linearGradient>
<linearGradient id="paint26_linear_32_2640" x1="48.684" y1="237.793" x2="51.0492" y2="288.246" gradientUnits="userSpaceOnUse">
<stop stop-color="#FFC444"/>
<stop offset="0.9964" stop-color="#F36F56"/>
</linearGradient>
<linearGradient id="paint27_linear_32_2640" x1="75.311" y1="285.959" x2="109.099" y2="283.807" gradientUnits="userSpaceOnUse">
<stop stop-color="#40447E"/>
<stop offset="0.9964" stop-color="#3C3B6B"/>
</linearGradient>
<linearGradient id="paint28_linear_32_2640" x1="128.404" y1="295.48" x2="143.804" y2="288.965" gradientUnits="userSpaceOnUse">
<stop stop-color="#40447E"/>
<stop offset="0.9964" stop-color="#3C3B6B"/>
</linearGradient>
<linearGradient id="paint29_linear_32_2640" x1="125.189" y1="288.074" x2="298.503" y2="453.617" gradientUnits="userSpaceOnUse">
<stop stop-color="#FFC444"/>
<stop offset="0.9964" stop-color="#F36F56"/>
</linearGradient>
<linearGradient id="paint30_linear_32_2640" x1="55.7594" y1="303.738" x2="132.581" y2="290.979" gradientUnits="userSpaceOnUse">
<stop stop-color="#311944"/>
<stop offset="1" stop-color="#6B3976"/>
</linearGradient>
<linearGradient id="paint31_linear_32_2640" x1="26.913" y1="320.073" x2="119.593" y2="295.984" gradientUnits="userSpaceOnUse">
<stop stop-color="#311944"/>
<stop offset="1" stop-color="#893976"/>
</linearGradient>
<linearGradient id="paint32_linear_32_2640" x1="59.7608" y1="306.294" x2="115.674" y2="290.09" gradientUnits="userSpaceOnUse">
<stop stop-color="#311944"/>
<stop offset="1" stop-color="#6B3976"/>
</linearGradient>
<clipPath id="clip0_32_2640">
<rect width="288" height="344" fill="white"/>
</clipPath>
</defs>
</svg>
