<svg width="36" height="38" viewBox="0 0 36 38" fill="none" xmlns="http://www.w3.org/2000/svg">
<g id="svgexport-6 - 2022-08-17T012313.684">
<path id="Path 1018" d="M21.0571 19.003L2.17015 37.194C1.73457 36.8962 1.379 36.4958 1.13484 36.028C0.890676 35.5603 0.765426 35.0396 0.770148 34.512V3.49401C0.765426 2.96639 0.890676 2.44573 1.13484 1.97798C1.379 1.51023 1.73457 1.10979 2.17015 0.812012L21.0571 19.003Z" fill="#2196F3"/>
<path id="Path 1019" d="M27.667 12.6491L21.057 19.0031L2.16602 0.812107C2.23721 0.756836 2.31131 0.705429 2.38802 0.658107C2.87836 0.361061 3.43888 0.199787 4.01211 0.190825C4.58533 0.181863 5.15063 0.325535 5.65002 0.607107L27.667 12.6491Z" fill="#4CAF50"/>
<path id="Path 1020" d="M35.6781 19.003C35.6834 19.5959 35.5273 20.1791 35.2264 20.69C34.9255 21.2009 34.4912 21.6202 33.9701 21.903L27.6701 25.353L21.0601 18.999L27.6701 12.645L33.9701 16.095C34.4924 16.3785 34.9275 16.7991 35.2285 17.3115C35.5294 17.8239 35.6849 18.4088 35.6781 19.003Z" fill="#FFC107"/>
<path id="Path 1021" d="M27.667 25.3572L5.65002 37.3992C5.14926 37.6765 4.58456 37.8177 4.01221 37.8088C3.43987 37.7998 2.87986 37.641 2.38802 37.3482C2.31131 37.3009 2.2372 37.2495 2.16602 37.1942L21.057 19.0032L27.667 25.3572Z" fill="#F44336"/>
</g>
</svg>
