<svg width="29" height="35" viewBox="0 0 29 35" fill="none" xmlns="http://www.w3.org/2000/svg">
<rect width="29" height="35" fill="none"/>
<g id="Desktop - 4" clip-path="url(#clip0_0_1)">
<rect width="1440" height="6496" transform="translate(-967 -5877)" fill="white"/>
<g id="Group 73460">
<rect id="Rectangle 8844" x="-967" y="-328" width="1440" height="450" fill="#EBF7F1"/>
<g id="Group 261">
<g id="Group 73026">
<path id="Rectangle 57" d="M165 -17H-21C-27.6274 -17 -33 -11.6274 -33 -5V39C-33 45.6274 -27.6274 51 -21 51H165C171.627 51 177 45.6274 177 39V-5C177 -11.6274 171.627 -17 165 -17Z" fill="white"/>
<g id="Group 258">
<g id="svgexport-6 - 2022-08-17T012042.605">
<g id="Group 257">
<g id="Group 256">
<path id="Path 1016" d="M23.7159 19.1381C22.7569 14.3141 27.3379 11.484 27.3379 11.484C26.1571 9.89183 24.4708 8.74771 22.5549 8.23904C20.5284 7.74303 18.3896 8.02492 16.5609 9.02904C15.8547 9.3675 15.0944 9.57905 14.3149 9.65404C12.1529 9.65404 10.5719 7.36404 6.45189 8.40704C3.61389 9.12304 0.625893 12.4 0.0858932 16.307C-0.314 20.761 0.68916 25.2286 2.95489 29.084C5.20089 32.956 7.48889 34.411 9.11289 34.453C10.7369 34.495 12.3579 33.29 14.3129 32.996C16.2679 32.702 17.4729 33.705 19.3919 34.245C21.3109 34.785 21.9729 34.284 24.1749 32.412C26.3769 30.54 28.3799 25.169 28.3799 25.169C27.149 24.6505 26.0728 23.8228 25.2557 22.7662C24.4386 21.7096 23.9082 20.4598 23.7159 19.1381Z" fill="black"/>
<path id="Path 1017" d="M18.904 5.59017C21.028 3.42617 20.309 0.0761719 20.309 0.0761719C18.4379 0.458168 16.712 1.3592 15.329 2.67617C13.329 4.75617 13.663 8.04217 13.663 8.04217C15.6247 7.79736 17.459 6.93921 18.904 5.59017Z" fill="black"/>
</g>
</g>
</g>
</g>
</g>
</g>
</g>
</g>
<defs>
<clipPath id="clip0_0_1">
<rect width="1440" height="6496" fill="white" transform="translate(-967 -5877)"/>
</clipPath>
</defs>
</svg>
