<svg width="14" height="13" viewBox="0 0 14 13" fill="none" xmlns="http://www.w3.org/2000/svg">
<path d="M13.7641 9.07057C13.6899 8.99684 13.6009 8.93859 13.5025 8.89943C13.404 8.86027 13.2983 8.84102 13.1919 8.8429H9.59938C9.48347 9.14369 9.27675 9.40397 9.00598 9.59006C8.73704 9.78232 8.4107 9.88498 8.07611 9.88259H5.92293C5.58833 9.88504 5.26197 9.78236 4.99306 9.59006C4.72229 9.40397 4.51557 9.14369 4.39966 8.8429H0.807872C0.701442 8.84107 0.595753 8.86031 0.497331 8.89947C0.39891 8.93863 0.309846 8.99687 0.235639 9.07057C0.159287 9.14221 0.0989691 9.22821 0.058418 9.32326C0.0178668 9.41832 -0.00205505 9.5204 -0.000114898 9.62319V12.2235C-0.00205505 12.3263 0.0178668 12.4283 0.058418 12.5234C0.0989691 12.6185 0.159287 12.7045 0.235639 12.7761C0.309846 12.8498 0.39891 12.908 0.497331 12.9472C0.595753 12.9863 0.701442 13.0056 0.807872 13.0038H13.1919C13.2981 13.0043 13.4033 12.9846 13.5015 12.9456C13.5997 12.9066 13.6889 12.8492 13.764 12.7767C13.8391 12.7042 13.8985 12.618 13.9389 12.5232C13.9793 12.4283 13.9997 12.3267 13.9992 12.2242V9.6239C14.0013 9.52105 13.9815 9.41885 13.9411 9.32367C13.9007 9.22849 13.8404 9.14235 13.7641 9.07057ZM10.6096 11.8083C10.5222 11.8904 10.4081 11.9409 10.2866 11.951C10.1651 11.9612 10.0437 11.9305 9.94298 11.8641C9.84227 11.7977 9.76844 11.6997 9.73401 11.5867C9.69959 11.4737 9.70668 11.3527 9.75409 11.2442C9.8015 11.1357 9.8863 11.0464 9.99413 10.9914C10.102 10.9364 10.2262 10.9191 10.3457 10.9424C10.4652 10.9657 10.5727 11.0283 10.6499 11.1194C10.7272 11.2106 10.7694 11.3247 10.7694 11.4425C10.7696 11.5103 10.7555 11.5774 10.7281 11.6398C10.7006 11.7022 10.6603 11.7586 10.6096 11.8055V11.8083ZM12.7635 11.8083C12.6762 11.8903 12.5622 11.9405 12.4409 11.9506C12.3196 11.9607 12.1984 11.93 12.0979 11.8637C11.9974 11.7974 11.9237 11.6995 11.8893 11.5867C11.855 11.4739 11.8621 11.3531 11.9094 11.2448C11.9567 11.1365 12.0414 11.0473 12.149 10.9923C12.2567 10.9374 12.3807 10.9201 12.5 10.9434C12.6194 10.9666 12.7267 11.029 12.8039 11.12C12.881 11.211 12.9232 11.3249 12.9233 11.4425C12.9235 11.5103 12.9093 11.5775 12.8817 11.6399C12.8541 11.7023 12.8136 11.7587 12.7627 11.8055L12.7635 11.8083Z" fill="white"/>
<path d="M3.23041 4.68015H5.38431V8.32012C5.3862 8.45752 5.44356 8.58878 5.54417 8.68594C5.64478 8.7831 5.7807 8.83849 5.92297 8.84032H8.07687C8.21914 8.83849 8.35506 8.7831 8.45567 8.68594C8.55628 8.58878 8.61364 8.45752 8.61553 8.32012V4.68015H10.7694C10.8773 4.68463 10.9838 4.65545 11.0732 4.59693C11.1626 4.53841 11.2301 4.45365 11.2658 4.3552C11.315 4.26221 11.3302 4.15585 11.3088 4.05346C11.2875 3.95107 11.2309 3.85867 11.1482 3.7913L7.37764 0.154152C7.3284 0.105364 7.26955 0.0665898 7.20455 0.0401148C7.13955 0.0136397 7.06973 0 6.99919 0C6.92865 0 6.85882 0.0136397 6.79382 0.0401148C6.72883 0.0665898 6.66997 0.105364 6.62074 0.154152L2.85233 3.79412C2.76956 3.86141 2.71287 3.95381 2.69153 4.05624C2.67018 4.15867 2.68544 4.26506 2.73481 4.35802C2.77091 4.45583 2.83852 4.53988 2.92771 4.59786C3.01691 4.65583 3.12299 4.68467 3.23041 4.68015Z" fill="white"/>
</svg>
