<svg width="82" height="143" viewBox="0 0 82 143" fill="none" xmlns="http://www.w3.org/2000/svg">
<g clip-path="url(#clip0_344_15967)">
<path d="M7.59493 5.01562C1.09666 15.1239 1.5028 29.1632 8.61028 38.9104C13.3621 45.4086 20.4696 49.7407 26.115 55.4768C31.7604 61.2128 36.0655 69.6364 33.06 77.0571C30.0139 84.6383 21.1194 87.6869 14.4587 92.5003C7.18878 97.7149 2.11201 105.777 0.528061 114.522C-1.01528 123.266 0.974817 132.572 5.97036 139.913H75.1769C75.1769 139.913 87.3205 117.009 71.6841 99.6002C56.0476 82.1514 47.6405 81.8706 48.2497 70.4386C48.8183 59.0066 56.9411 55.2762 61.5712 50.9842C66.2012 46.6922 88.7827 36.7043 75.4612 5.01562H7.59493Z" fill="#FAFAFA"/>
<path d="M7.59488 5.01472C7.59488 5.01472 8.00102 5.01472 8.77269 5.01472C9.58497 5.01472 10.7222 5.01472 12.2655 5.01472C15.3522 5.01472 19.901 5.01472 25.79 5.01472C37.5275 5.01472 54.5042 4.97461 75.5424 4.97461H75.583V5.01472C76.5171 7.38134 77.4919 9.82819 78.1823 12.4355C78.8727 15.0027 79.4413 17.6902 79.6444 20.498C79.8475 23.2658 79.7663 26.1539 79.1977 29.0018C78.6291 31.8498 77.5731 34.6576 76.0704 37.2649C75.2987 38.5886 74.4052 39.792 73.4711 40.9954C72.4963 42.1987 71.4403 43.2818 70.2625 44.3648C69.1253 45.4478 67.9069 46.4506 66.6479 47.3732C65.3888 48.3359 64.0892 49.2585 62.7895 50.2212C62.1397 50.7025 61.5711 51.224 60.9619 51.7855C60.3527 52.307 59.7029 52.8285 59.053 53.3098C57.794 54.3126 56.4943 55.3154 55.2759 56.4386C52.7985 58.6046 50.7271 61.3323 49.5899 64.5011C49.0213 66.0655 48.6558 67.7502 48.4933 69.4349C48.4527 69.8762 48.4121 70.2773 48.3715 70.7185C48.3715 71.1597 48.3309 71.5609 48.3715 72.0021C48.3715 72.8445 48.4933 73.6868 48.6152 74.5292C48.9401 76.2139 49.6712 77.8184 50.6865 79.2223C51.7019 80.6262 52.9609 81.8697 54.2606 83.0731C56.9005 85.4397 59.6622 87.7261 62.3428 90.1729C65.0233 92.6198 67.6226 95.187 70.1407 97.8745C71.3997 99.2383 72.6588 100.602 73.7554 102.086C74.8926 103.57 75.8267 105.175 76.639 106.86C78.2635 110.229 79.2789 113.919 79.6038 117.69C79.9693 121.46 79.685 125.311 78.9134 129.082C78.5478 130.967 78.0198 132.852 77.4106 134.657C76.8014 136.503 76.111 138.308 75.2175 140.073L75.1769 140.113H75.0956C74.527 140.113 73.9178 140.113 73.3086 140.113C49.6712 140.113 26.8866 140.113 5.88908 140.113H5.84847L5.80785 140.073C2.51811 135.179 0.568625 129.563 2.69413e-05 123.947C-0.568571 118.332 0.284326 112.676 2.39626 107.662C4.46759 102.648 7.6761 98.2355 11.5345 94.7457C13.4839 92.9808 15.6365 91.5769 17.789 90.2532C19.9416 88.9295 22.1347 87.686 24.2061 86.3623C26.2774 84.9985 28.2269 83.5945 29.8514 81.8296C31.476 80.1048 32.6944 78.059 33.3443 75.8529C33.9941 73.6467 33.9941 71.3603 33.6286 69.1942C33.263 67.0282 32.4507 64.9825 31.476 63.0571C30.5013 61.1718 29.2828 59.4069 27.9832 57.8425C26.6835 56.238 25.2214 54.8341 23.7593 53.5104C20.8351 50.863 17.8296 48.5365 15.1491 46.1297C13.8088 44.9264 12.5092 43.723 11.3314 42.4795C10.1536 41.236 9.0976 39.9524 8.16347 38.6287C6.29522 35.9813 5.03618 33.2136 4.18329 30.5261C3.33039 27.8386 2.92425 25.2313 2.84302 22.8647C2.8024 22.263 2.8024 21.7014 2.8024 21.0997C2.8024 20.5381 2.8024 19.9766 2.84302 19.415C2.88363 18.8534 2.92425 18.332 2.96486 17.8105C3.04609 17.2891 3.12732 16.8077 3.16793 16.3264C3.77714 12.4355 4.95496 9.62762 5.88908 7.82258C6.09215 7.38134 6.29522 6.94011 6.49829 6.61921C6.70136 6.29831 6.86382 6.01753 6.98566 5.77685C7.47303 5.25539 7.59488 5.01472 7.59488 5.01472C7.55426 5.05483 7.47303 5.25539 7.18873 5.69663C7.06689 5.9373 6.90444 6.21809 6.70136 6.53899C6.49829 6.85988 6.29522 7.261 6.09215 7.74235C5.19864 9.5474 4.02083 12.3954 3.41162 16.2461C3.33039 16.7275 3.24916 17.2088 3.20855 17.7303C3.16793 18.2517 3.12732 18.7732 3.0867 19.2947C3.04609 19.8161 3.04609 20.3777 3.04609 20.9794C3.04609 21.5409 3.00548 22.1426 3.0867 22.7443C3.16793 25.1109 3.61469 27.7182 4.42697 30.4057C5.27987 33.0933 6.53891 35.861 8.36655 38.4683C9.30067 39.792 10.3566 41.0756 11.5345 42.279C12.7123 43.5224 13.9713 44.7258 15.3522 45.8891C18.0327 48.2958 21.0382 50.6223 24.003 53.2697C25.4651 54.5934 26.9272 56.0374 28.2269 57.6419C29.5265 59.2464 30.745 60.9712 31.7197 62.8966C32.6944 64.7819 33.5067 66.8677 33.8722 69.0739C34.2378 71.24 34.2378 73.5665 33.5879 75.8128C32.9381 78.0189 31.6791 80.1048 30.0545 81.8296C28.4299 83.5945 26.4398 85.0386 24.4091 86.4024C22.3378 87.7662 20.1447 88.9696 17.9921 90.2933C15.8396 91.617 13.687 93.0209 11.7781 94.7858C7.91979 98.2355 4.75188 102.608 2.68056 107.622C0.609239 112.596 -0.284272 118.211 0.32494 123.827C0.852924 129.443 2.8024 135.018 6.09215 139.872L6.01092 139.832C27.0084 139.832 49.8336 139.832 73.4304 139.832C74.0397 139.832 74.6489 139.832 75.2175 139.832L75.1362 139.872C75.9891 138.147 76.7202 136.342 77.3294 134.497C77.9386 132.652 78.426 130.807 78.7915 128.921C79.5632 125.151 79.8069 121.34 79.482 117.57C79.157 113.799 78.1417 110.149 76.5171 106.819C75.7048 105.175 74.7707 103.53 73.6335 102.086C72.5369 100.602 71.2779 99.2383 70.0595 97.8745C67.5414 95.187 64.9421 92.6198 62.2615 90.1729C59.581 87.7261 56.8192 85.4798 54.1793 83.0731C52.8797 81.8697 51.6206 80.6262 50.5647 79.2223C49.5087 77.8184 48.7776 76.1738 48.4527 74.4489C48.2903 73.6066 48.209 72.7241 48.209 71.8818C48.1684 71.4405 48.209 71.0394 48.209 70.5982C48.209 70.1569 48.2903 69.7558 48.3309 69.3146C48.4527 67.5898 48.8589 65.9452 49.4275 64.3407C50.5647 61.1317 52.6766 58.4041 55.1541 56.1979C56.3725 55.0747 57.6721 54.0719 58.9718 53.0691C59.6216 52.5477 60.2308 52.0663 60.8401 51.5449C61.4493 51.0234 62.0585 50.4618 62.7083 49.9805C64.008 49.0178 65.3076 48.0952 66.5667 47.1325C67.8257 46.1698 69.0441 45.167 70.1813 44.1241C71.3185 43.0812 72.3745 41.9581 73.3492 40.7547C74.324 39.5513 75.1768 38.348 75.9485 37.0243C77.4512 34.4571 78.4666 31.6492 79.0758 28.8414C79.6444 25.9934 79.7256 23.1454 79.5226 20.3777C79.3195 17.61 78.7509 14.9224 78.0605 12.3553C77.37 9.78807 76.4359 7.34123 75.5018 4.97461L75.583 5.01472C54.5855 5.01472 37.6087 4.97461 25.8713 4.97461C19.9822 4.97461 15.4334 4.97461 12.3467 4.97461C10.8034 4.97461 9.62558 4.97461 8.8133 4.97461C8.04163 5.01472 7.59488 5.01472 7.59488 5.01472Z" fill="#263238"/>
<path d="M72.7806 23.5869C82.9748 25.2315 66.8916 43.0815 57.794 50.1011C52.5141 54.1925 46.8688 58.6049 44.3507 64.742C41.5077 71.6815 43.6196 79.5033 42.2388 86.523C41.9951 87.6862 40.2893 87.4857 40.2893 86.3224C40.3705 81.7496 40.2487 77.1367 39.477 72.604C38.3804 66.1861 35.9029 59.8484 31.3542 55.1552C27.6583 51.3045 22.7846 48.7774 18.8044 45.1673C13.0372 39.9527 7.1075 33.1737 6.49829 25.4722C6.49829 25.4722 17.586 16.6475 23.7593 17.7707C30.948 19.0543 38.0555 30.045 49.2244 28.8015C57.0223 27.8789 60.9619 21.6615 72.7806 23.5869Z" fill="#E31E25"/>
<path d="M73.7149 119.012C73.4712 116.485 72.7807 113.637 70.5063 112.474C69.1255 111.752 67.4603 111.832 65.9575 112.233C64.4548 112.635 63.0333 113.316 61.5712 113.718C58.647 114.56 55.4385 114.48 52.5549 113.437C49.7931 112.434 47.3969 110.629 44.8382 109.185C42.2795 107.741 39.274 106.698 36.3904 107.38C31.4761 108.583 28.8768 114.44 24.0031 115.884C21.8506 116.525 19.4949 116.164 17.3018 115.683C15.1086 115.202 12.8748 114.56 10.6411 114.64C8.85403 114.72 7.02639 115.322 5.80797 116.525L5.76735 116.566C5.56428 116.766 5.36121 116.967 5.19875 117.207C3.69603 119.213 3.45234 121.86 3.8991 124.307C4.42708 127.035 5.72674 129.562 7.10762 131.969C8.73219 134.817 10.6004 137.624 13.281 139.51C16.6113 141.836 20.7946 140.232 24.856 140.553C34.3191 141.275 44.5133 141.796 54.017 141.074C59.0125 140.673 63.7238 141.235 67.7039 138.186C70.5063 136.06 72.334 132.851 73.1869 129.442C74.0398 126.032 74.0398 122.502 73.7149 119.012Z" fill="#E31E25"/>
<g opacity="0.24">
<path d="M55.8038 114.199C55.2758 115.001 55.0321 116.084 55.5601 116.927C56.0881 117.729 56.7785 118.491 56.9816 119.454C57.3471 120.938 56.413 122.382 55.7632 123.746C54.5447 126.193 54.0168 128.961 54.4229 131.648C54.829 134.336 56.2099 136.903 58.4031 138.547C59.3778 139.269 60.5963 139.831 61.7741 139.51C62.8706 139.189 63.5611 138.066 63.8048 136.983C64.0078 135.86 63.8454 134.737 63.6829 133.614C63.0331 128.399 63.1549 123.104 64.0891 117.93C64.2515 117.047 64.3734 116.084 63.8454 115.403C63.4799 114.961 62.9113 114.761 62.3833 114.6C60.2713 113.838 57.9969 114.6 55.8038 114.199Z" fill="black"/>
</g>
<path d="M0.974763 142.999C0.974763 142.999 0.771693 139.87 4.91434 138.105H77.7355C77.7355 138.105 81.5127 139.991 82 142.919L0.974763 142.999Z" fill="#263238"/>
<path d="M76.1922 5.41515C76.1516 5.41515 76.1109 5.45526 76.0703 5.45526L7.59484 5.01403C7.59484 5.01403 7.35116 4.85358 6.98563 4.57279C5.03615 3.08864 6.13273 0 8.6102 0L75.055 0.521459C77.8167 0.561571 78.6696 4.25189 76.1922 5.41515Z" fill="#263238"/>
<g opacity="0.24">
<path d="M65.2265 31.2064C65.3483 31.447 64.8609 32.0487 63.8862 32.8911C62.9115 33.7334 61.4493 34.9368 59.6217 36.3808C57.7941 37.8249 55.5603 39.5497 52.7173 41.1943C51.2958 41.9965 49.7118 42.7587 48.0061 43.3202C47.1532 43.601 46.219 43.8818 45.2849 44.0423C44.3508 44.2428 43.376 44.3632 42.3607 44.4033C40.33 44.5236 38.2993 44.2428 36.4716 43.601C34.644 42.9592 33.1007 42.0768 31.7198 41.1943C30.3389 40.3118 29.1611 39.4294 28.0645 38.587C26.9679 37.7446 25.9526 36.9424 25.059 36.1402C21.4444 33.1317 19.5355 30.8454 19.901 30.4442C20.2666 30.003 22.8253 31.447 26.8055 33.8538C27.7802 34.4555 28.8768 35.0972 30.0546 35.8193C31.2324 36.5012 32.4508 37.3034 33.7505 37.9853C35.0501 38.7073 36.3498 39.3491 37.7307 39.7503C39.1115 40.1514 40.5737 40.3519 42.117 40.2717C45.2443 40.1113 48.2497 39.0282 50.8897 37.7848C53.5296 36.5012 55.8852 35.0571 57.9565 33.934C60.0278 32.7707 61.7743 31.9284 63.0333 31.4871C64.2923 31.0058 65.1046 30.9256 65.2265 31.2064Z" fill="black"/>
</g>
<path d="M40.3704 94.8662C41.1015 94.5854 42.0356 95.3475 41.8732 96.1097C41.7513 96.8718 40.6547 97.313 40.0049 96.7916C39.3957 96.3102 39.5582 95.147 40.2892 94.8662" fill="#E31E25"/>
<path d="M15.8802 42.3594C15.8802 42.3594 15.799 42.2791 15.6365 42.1187C15.4741 41.9583 15.271 41.7176 14.9867 41.3967C14.7024 41.0758 14.3369 40.7148 13.9713 40.2334C13.6058 39.7521 13.159 39.2306 12.6717 38.6289C12.2249 38.0273 11.7376 37.3453 11.2096 36.6233C10.9659 36.2623 10.7222 35.8612 10.4785 35.4601C10.3567 35.2595 10.2348 35.059 10.113 34.8584C9.99114 34.6578 9.8693 34.4172 9.74746 34.2166C8.7321 32.4918 7.83859 30.446 7.22938 28.2399C6.57955 26.0337 6.29525 23.8275 6.25464 21.8219C6.25464 21.3406 6.29525 20.8191 6.29525 20.3779C6.29525 20.1372 6.29525 19.8965 6.33587 19.696C6.37648 19.4553 6.37648 19.2547 6.4171 19.0141C6.45771 18.5728 6.49832 18.1316 6.57955 17.7305C6.66078 17.3294 6.74201 16.9282 6.78262 16.5672C6.90447 15.8051 7.10754 15.1633 7.22938 14.5616C7.31061 14.2808 7.35122 14 7.43245 13.7594C7.51368 13.5187 7.59491 13.278 7.63552 13.0775C7.75736 12.6763 7.87921 12.3956 7.96043 12.1549C8.04166 11.9543 8.08228 11.834 8.08228 11.834C8.08228 11.834 8.04166 11.9543 8.00105 12.1549C7.91982 12.3956 7.83859 12.7165 7.71675 13.0775C7.63552 13.278 7.59491 13.5187 7.51368 13.7594C7.43245 14 7.39184 14.2808 7.31061 14.5616C7.18876 15.1633 6.98569 15.8051 6.86385 16.5271C6.78262 16.8881 6.74201 17.2892 6.66078 17.6904C6.62017 18.0915 6.57955 18.5327 6.53894 18.974C6.49832 19.1745 6.49832 19.4152 6.45771 19.6559C6.4171 19.8965 6.45771 20.0971 6.4171 20.3378C6.4171 20.8191 6.37648 21.3005 6.37648 21.7818C6.4171 23.7874 6.70139 25.9535 7.35122 28.1597C7.96043 30.3658 8.85395 32.3714 9.82869 34.1364C9.95053 34.3369 10.0724 34.5776 10.1942 34.7782C10.3161 34.9787 10.4379 35.1793 10.5597 35.3798C10.8034 35.781 11.0471 36.1821 11.2908 36.5431C11.7782 37.2651 12.2655 37.947 12.7123 38.5487C13.159 39.1504 13.6058 39.6719 13.9713 40.1532C14.3369 40.6345 14.7024 40.9956 14.9867 41.3165C15.271 41.6374 15.4741 41.878 15.6365 42.0786C15.8396 42.2791 15.9208 42.3594 15.8802 42.3594Z" fill="#263238"/>
<path d="M12.0217 101.965C12.0217 101.965 12.0623 101.925 12.103 101.845C12.1436 101.765 12.2248 101.644 12.3466 101.484C12.4685 101.323 12.5903 101.123 12.7528 100.882C12.834 100.762 12.9152 100.642 12.9965 100.481C13.0777 100.361 13.1995 100.2 13.3214 100.08C13.5651 99.7992 13.8088 99.4783 14.1337 99.1173C14.4586 98.7964 14.8241 98.4354 15.1896 98.0744C15.9613 97.3524 16.8954 96.5501 17.992 95.7479C20.1446 94.1434 22.9469 92.5389 25.9524 90.6536C27.4551 89.6909 29.0391 88.6881 30.5012 87.4848C32.0039 86.2814 33.4254 84.8775 34.6032 83.2329C36.9182 79.8634 37.8117 75.9726 37.893 72.4828C37.9742 68.9529 37.2431 65.8242 36.3496 63.3372C35.4561 60.8503 34.4001 58.9249 33.6691 57.6413C33.3036 56.9995 32.9786 56.5181 32.7756 56.1571C33.0193 56.478 33.3036 56.9594 33.7097 57.6012C34.4814 58.8848 35.5373 60.77 36.4715 63.2971C37.4056 65.7841 38.1773 68.9529 38.096 72.4828C38.096 73.3653 38.0148 74.2878 37.8523 75.1703C37.7305 76.0929 37.5274 77.0155 37.2431 77.9381C36.7151 79.7832 35.8622 81.6284 34.725 83.3532C33.5472 85.0379 32.0851 86.4418 30.5824 87.6853C29.0797 88.9288 27.4957 89.9316 25.993 90.8542C22.9469 92.7395 20.1852 94.3038 18.0326 95.9083C16.936 96.7106 16.0019 97.4727 15.2302 98.1947C14.8647 98.5557 14.4992 98.9167 14.1743 99.2376C13.89 99.5986 13.6057 99.8794 13.362 100.2C13.2402 100.361 13.1183 100.481 13.0371 100.601C12.9559 100.722 12.8746 100.882 12.7934 101.003C12.6309 101.243 12.5091 101.444 12.3873 101.604C12.2654 101.765 12.1842 101.885 12.1436 101.965C12.0623 101.925 12.0623 101.965 12.0217 101.965Z" fill="#263238"/>
<path d="M8.24458 109.064C8.24458 109.064 8.20397 109.145 8.16336 109.265C8.08213 109.385 8.0009 109.586 7.87906 109.786C7.75721 109.987 7.59476 110.268 7.4323 110.589C7.26984 110.91 7.06677 111.271 6.90432 111.672C6.82309 111.872 6.70125 112.113 6.62002 112.314C6.53879 112.554 6.45756 112.795 6.33572 113.036C6.13265 113.517 5.97019 114.078 5.80773 114.64C5.48282 115.803 5.23914 117.087 5.11729 118.451C4.99545 119.815 4.99545 121.138 5.11729 122.342C5.19852 122.943 5.23914 123.505 5.32036 124.026C5.36098 124.307 5.40159 124.548 5.44221 124.788C5.48282 125.029 5.56405 125.27 5.60466 125.47C5.68589 125.912 5.84835 126.313 5.92958 126.634C6.01081 126.995 6.13265 127.275 6.21388 127.516C6.2951 127.757 6.33572 127.917 6.41695 128.078C6.45756 128.198 6.45756 128.278 6.45756 128.278C6.45756 128.278 6.41695 128.198 6.37633 128.078C6.2951 127.917 6.25449 127.757 6.13265 127.516C6.05142 127.275 5.92958 126.995 5.80773 126.634C5.68589 126.273 5.56405 125.912 5.44221 125.47C5.40159 125.23 5.32036 125.029 5.27975 124.788C5.23914 124.548 5.19852 124.307 5.11729 124.026C4.99545 123.505 4.95484 122.943 4.87361 122.342C4.75177 121.138 4.75177 119.815 4.87361 118.411C4.99545 117.007 5.27975 115.723 5.60466 114.56C5.76712 113.998 5.92958 113.437 6.17326 112.955C6.25449 112.715 6.37633 112.474 6.45756 112.233C6.5794 111.993 6.66063 111.792 6.74186 111.592C6.90432 111.19 7.148 110.829 7.31046 110.508C7.47292 110.188 7.63537 109.907 7.79783 109.706C7.91967 109.506 8.04151 109.345 8.12274 109.225C8.20397 109.105 8.24458 109.064 8.24458 109.064Z" fill="#263238"/>
<path d="M58.4845 118.691C58.4845 118.691 58.4439 118.732 58.4033 118.732C58.3221 118.772 58.2408 118.812 58.1596 118.892C57.9159 119.052 57.591 119.213 57.1849 119.494C56.9818 119.614 56.7381 119.774 56.4538 119.895C56.1695 120.055 55.8852 120.176 55.5603 120.336C54.9105 120.657 54.22 121.018 53.3671 121.339C52.961 121.499 52.5143 121.7 52.0675 121.86C51.6207 122.021 51.1334 122.181 50.646 122.342C49.6713 122.703 48.5747 122.943 47.4375 123.264C45.1225 123.786 42.5638 124.147 39.802 124.227C37.0809 124.267 34.4816 124.026 32.1259 123.665C30.9481 123.425 29.8516 123.224 28.8362 122.943C28.3488 122.783 27.8208 122.703 27.3741 122.542C26.9273 122.382 26.4806 122.221 26.0338 122.101C25.1809 121.82 24.4499 121.499 23.8 121.218C23.4751 121.058 23.1502 120.938 22.9065 120.817C22.6222 120.697 22.3785 120.537 22.1755 120.456C21.7287 120.216 21.4038 120.055 21.1601 119.935C21.0383 119.895 20.957 119.815 20.9164 119.774C20.9977 119.815 21.0789 119.855 21.2007 119.895C21.4444 120.015 21.8099 120.176 22.2161 120.376C22.4598 120.496 22.7035 120.617 22.9471 120.737C23.2314 120.857 23.5157 120.978 23.8407 121.098C24.4905 121.339 25.2215 121.7 26.0744 121.94C26.4806 122.101 26.9273 122.221 27.4147 122.382C27.8615 122.542 28.3894 122.622 28.8768 122.783C29.8922 123.064 30.9887 123.264 32.1259 123.505C34.441 123.866 37.0403 124.107 39.7614 124.066C42.4826 123.986 45.0413 123.625 47.3563 123.104C48.4935 122.823 49.59 122.582 50.5648 122.221C51.0521 122.061 51.5395 121.94 51.9863 121.74C52.433 121.579 52.8798 121.379 53.2859 121.218C54.1388 120.898 54.8293 120.537 55.4791 120.256C55.804 120.095 56.0883 119.975 56.3726 119.815C56.6163 119.654 56.86 119.534 57.1037 119.413C57.5098 119.173 57.8753 119.012 58.119 118.852C58.2409 118.812 58.3221 118.732 58.3627 118.732C58.4439 118.691 58.4845 118.691 58.4845 118.691Z" fill="#263238"/>
<path d="M62.7083 33.8145C62.7083 33.8145 62.6677 33.8546 62.6271 33.8947C62.5459 33.9348 62.4646 34.015 62.3428 34.0952C62.0991 34.2958 61.7336 34.5766 61.2868 34.8975C60.3933 35.6195 59.0937 36.6223 57.4285 37.8257C55.7633 39.029 53.7732 40.433 51.377 41.7567C50.1586 42.3985 48.8995 43.0403 47.478 43.5216C46.0565 44.003 44.5538 44.4041 42.9698 44.5244C39.8019 44.725 36.7965 43.9227 34.3596 42.7595C33.1412 42.1578 32.0446 41.4759 31.0293 40.794C30.0545 40.1121 29.1204 39.4302 28.3487 38.7884C26.7242 37.5048 25.4651 36.4217 24.6122 35.6997C24.1655 35.3387 23.8406 35.0579 23.5969 34.8574C23.475 34.7771 23.3938 34.6969 23.3532 34.6167C23.3126 34.5766 23.272 34.5365 23.272 34.5365C23.272 34.5365 23.3126 34.5365 23.3532 34.6167C23.4344 34.6568 23.5157 34.737 23.6375 34.8173C23.8812 35.0178 24.2467 35.2986 24.6529 35.6596C25.5464 36.3816 26.8054 37.4245 28.43 38.7081C29.2423 39.3499 30.1358 39.9917 31.1511 40.6736C32.1665 41.3555 33.2631 41.9973 34.4815 42.599C36.9183 43.7623 39.8832 44.5645 43.0105 44.3238C44.5538 44.2035 46.0565 43.8425 47.4374 43.3612C48.8183 42.8798 50.1179 42.238 51.2957 41.6363C53.6514 40.3527 55.6821 38.9488 57.3473 37.7454C59.0124 36.5421 60.3121 35.5393 61.2462 34.8574C61.693 34.5365 62.0585 34.2557 62.3022 34.0551C62.424 33.9749 62.5053 33.8947 62.5865 33.8546C62.6677 33.8145 62.7083 33.8145 62.7083 33.8145Z" fill="#263238"/>
<g opacity="0.24">
<path d="M26.0742 122.062C27.9831 120.578 30.7042 120.939 33.1005 121.461C35.4967 121.942 37.8929 122.744 40.2892 122.423C42.1168 122.183 43.782 121.3 45.569 120.899C47.356 120.498 49.5492 120.819 50.5239 122.303C42.6448 124.83 33.9128 124.75 26.0742 122.062Z" fill="black"/>
</g>
</g>
<defs>
<clipPath id="clip0_344_15967">
<rect width="82" height="143" fill="white"/>
</clipPath>
</defs>
</svg>
