<svg width="246" height="257" viewBox="0 0 246 257" fill="none" xmlns="http://www.w3.org/2000/svg">
<path opacity="0.95" d="M114.325 121.412H52.2177C47.311 121.412 43.328 117.429 43.328 112.522V50.4151C43.328 45.5084 47.311 41.5254 52.2177 41.5254H114.325C119.231 41.5254 123.214 45.5084 123.214 50.4151V112.522C123.214 117.429 119.231 121.412 114.325 121.412Z" fill="url(#paint0_linear_61_6667)"/>
<path d="M101.77 103.225H64.7875V105.057H101.77V103.225Z" fill="#96BFE6"/>
<path d="M96.5301 108.979H70.0275V110.811H96.5301V108.979Z" fill="#96BFE6"/>
<path opacity="0.95" d="M235.222 197.558H146.824C141.039 197.558 136.36 192.879 136.36 187.094V79.705C136.36 73.9198 141.039 69.2402 146.824 69.2402H235.222C241.007 69.2402 245.687 73.9198 245.687 79.705V187.094C245.687 192.864 240.992 197.558 235.222 197.558Z" fill="url(#paint1_linear_61_6667)"/>
<path d="M194.605 144.932H185.927V146.537H194.605V144.932Z" fill="#204567"/>
<path d="M203.464 159.65H153.003V162.755H203.464V159.65Z" fill="#96BFE6"/>
<path d="M193.802 174.582H153.003V177.687H193.802V174.582Z" fill="#96BFE6"/>
<path d="M176.916 167.117H153.003V170.222H176.916V167.117Z" fill="#96BFE6"/>
<path d="M216.655 82.0405V83.6004H225.908V92.2781H227.483V82.0254H216.655V82.0405ZM153.882 92.2781H155.457V83.6004H164.71V82.0254H153.897V92.2781H153.882ZM225.908 137.06V145.738H216.655V147.313H227.468V137.06H225.908ZM155.442 137.06H153.867V147.313H164.68V145.738H155.426V137.06H155.442Z" fill="#204567"/>
<path d="M222.576 177.917C217.473 177.917 213.323 173.767 213.323 168.663C213.323 163.56 217.473 159.41 222.576 159.41C227.68 159.41 231.83 163.56 231.83 168.663C231.83 173.767 227.68 177.917 222.576 177.917ZM222.576 161.212C218.457 161.212 215.125 164.559 215.125 168.663C215.125 172.783 218.472 176.114 222.576 176.114C226.696 176.114 230.028 172.767 230.028 168.663C230.043 164.559 226.696 161.212 222.576 161.212Z" fill="#204567"/>
<path d="M221.986 172.312L217.791 168.102L219.063 166.845L221.986 169.783L226.105 165.664L227.377 166.921L221.986 172.312Z" fill="#204567"/>
<path d="M228.225 250.033C228.225 253.876 177.132 256.999 114.118 256.999C51.093 256.984 0 253.876 0 250.033C0 246.189 51.093 243.066 114.107 243.066C177.132 243.066 228.225 246.189 228.225 250.033Z" fill="url(#paint2_linear_61_6667)"/>
<path opacity="0.95" d="M110.19 44.5078H56.3521V90.6981H110.19V44.5078Z" fill="url(#paint3_linear_61_6667)"/>
<path opacity="0.95" d="M182.444 64.803H138.359C134.33 64.803 131.059 61.5318 131.059 57.5034V19.2488C131.059 15.2204 134.33 11.9492 138.359 11.9492H182.444C186.472 11.9492 189.744 15.2204 189.744 19.2488V57.5034C189.744 61.5318 186.488 64.803 182.444 64.803Z" fill="url(#paint4_linear_61_6667)"/>
<path d="M162.499 54.8086H157.85V55.6718H162.499V54.8086Z" fill="#204567"/>
<path d="M174.357 21.5059V22.3539H179.324V27.0184H180.172V21.5059H174.357ZM140.646 27.0184H141.494V22.3539H146.461V21.5059H140.661V27.0184H140.646ZM179.324 51.0525V55.7169H174.357V56.565H180.157V51.0676H179.324V51.0525ZM141.494 51.0525H140.646V56.5499H146.446V55.7018H141.479V51.0525H141.494Z" fill="#204567"/>
<path d="M86.3833 94.3027H80.159V95.4537H86.3833V94.3027Z" fill="#204567"/>
<path d="M101.906 49.8242V50.9449H108.54V57.1692H109.66V49.8242H101.906ZM56.8822 57.1692H58.0029V50.9449H64.6361V49.8242H56.8822V57.1692ZM108.54 89.2752V95.4996H101.906V96.6203H109.66V89.2752H108.54ZM58.018 89.2752H56.8974V96.6203H64.6513V95.4996H58.018V89.2752Z" fill="#204567"/>
<path d="M224.03 130.592H213.656C212.975 125.625 212.142 119.961 212.142 119.961C212.142 119.961 211.718 124.641 211.218 130.592H169.723C169.344 125.231 168.89 121.233 168.723 121.142C168.481 121.021 167.012 125.776 165.77 130.592H154.533C157.426 118.144 162.817 98.1683 165.922 96.9719C170.359 95.2606 188.441 89.6875 188.441 89.6875H198.77C198.77 89.6875 217.109 94.9274 218.821 100.607C220.169 105.165 223.167 120.112 224.03 130.592Z" fill="#E65353"/>
<path d="M194.09 56.2168C194.09 56.2168 203.722 57.7313 202.268 72.815C200.799 87.8988 192.288 86.657 191.727 86.6418C191.152 86.6267 183.186 86.9144 182.565 68.4989C182.55 68.4989 182.277 54.8841 194.09 56.2168Z" fill="#EEA987"/>
<path d="M198.588 82.2047C198.588 82.2047 198.33 88.4139 198.921 89.7466C199.512 91.0793 190.97 95.3954 185.745 90.5947C185.745 90.5947 187.002 83.8554 186.654 81.4626C186.306 79.0698 198.588 82.2047 198.588 82.2047Z" fill="#EEA987"/>
<path d="M202.404 68.56C202.404 68.56 203.464 67.4393 203.843 68.5752C204.237 69.711 202.207 74.8146 202.344 75.0418C202.344 75.0418 202.147 75.481 201.904 75.2387C201.647 74.9964 202.404 68.56 202.404 68.56Z" fill="#EEA987"/>
<path d="M182.656 68.3637C182.656 68.3637 181.626 67.2127 181.217 68.3486C180.808 69.4844 182.732 74.6183 182.595 74.8455C182.595 74.8455 182.777 75.2847 183.035 75.0575C183.292 74.8152 182.656 68.3637 182.656 68.3637Z" fill="#EEA987"/>
<path d="M202.404 70.8612L201.026 72.7088C201.026 72.7088 201.072 68.6653 200.844 68.0292C200.617 67.3931 200.284 65.4547 200.102 65.0003C199.921 64.546 191.818 62.2744 184.685 65.6667C184.685 65.6667 185.003 68.5744 184.322 68.8319C183.64 69.0893 183.974 73.572 183.974 73.572L182.838 72.2848C182.838 72.2848 181.096 60.6842 181.535 59.4726C181.959 58.2611 183.337 50.9918 197.997 55.308C197.997 55.308 202.571 54.3387 203.479 57.4887C204.373 60.6539 202.404 70.8612 202.404 70.8612Z" fill="#D98B52"/>
<path d="M198.921 89.7464C198.921 89.7464 201.102 90.2159 192 98.9239C192 98.9239 185.549 91.7909 185.761 90.5945C185.957 89.3981 198.921 89.7464 198.921 89.7464Z" fill="#EEA987"/>
<path d="M192 98.9233L194.484 103.179L201.844 90.6696L198.648 88.4434L192 98.9233Z" fill="#B84343"/>
<path d="M192 98.9243L185.973 89.3379L182.55 91.5338L188.668 103.18L192 98.9243Z" fill="#B84343"/>
<path d="M190.122 125.502C190.198 126.91 190.228 128.652 190.228 130.605H189.88C189.88 128.667 189.85 126.94 189.774 125.532C189.213 114.901 191.788 101.952 191.803 98.9082L192.136 98.9688C192.136 101.998 189.562 114.901 190.122 125.502Z" fill="#B84343"/>
<path d="M187.548 84.8679C187.548 84.8679 189.834 87.2909 193.075 86.6397C196.316 85.9885 197.74 84.5195 197.74 84.5195C197.74 84.5195 196.468 87.715 192.727 88.0179C188.986 88.3056 187.548 84.8679 187.548 84.8679Z" fill="#C78D71"/>
<path d="M75.8731 50.2503H75.8579C75.6459 50.2049 75.2976 49.1599 75.2219 48.9479C75.2067 48.8873 75.1764 48.7813 75.131 48.645C74.8584 47.8121 74.2223 45.8585 74.4798 45.1012C74.5555 44.8589 74.6767 44.7226 74.8433 44.6924C75.1916 44.6166 75.5853 45.0558 75.6005 45.0861L75.6156 45.1012V45.1164C75.7065 45.9342 76.1457 50.0535 75.9488 50.2352C75.9185 50.2503 75.9034 50.2503 75.8731 50.2503ZM74.919 44.7681C74.9038 44.7681 74.8736 44.7681 74.8584 44.7681C74.7221 44.7984 74.6312 44.9195 74.5555 45.1164C74.3132 45.8433 74.9644 47.8424 75.2067 48.5996C75.2522 48.751 75.2825 48.857 75.2976 48.9025C75.4642 49.4022 75.7368 50.114 75.8731 50.1443C75.8731 50.1443 75.8731 50.1443 75.8882 50.1443C76.0094 49.9777 75.7368 46.964 75.5248 45.1012C75.4642 45.071 75.1764 44.7681 74.919 44.7681Z" fill="#EEA886"/>
<path d="M83.0364 33.8637C83.0364 33.8637 88.3369 33.3034 90.2602 38.4373C92.1684 43.5561 93.9706 45.2371 94.1978 47.9328C95.1064 58.8216 100.195 56.3531 98.7562 62.638C97.3327 68.9077 96.3331 69.8618 96.3331 69.8618L84.1722 67.4841L71.8599 67.5296C71.8599 67.5296 76.6758 65.1216 75.6005 60.0028C74.5253 54.884 71.8599 46.4789 73.3592 40.7695C74.8887 35.0147 79.8712 34.3029 83.0364 33.8637Z" fill="#16202E"/>
<path d="M89.5182 50.2488C89.4879 50.2488 89.4728 50.2336 89.4576 50.2185C89.2759 50.0368 89.7 45.9175 89.7908 45.0997V45.0846L89.806 45.0694C89.8211 45.0543 90.2149 44.6151 90.5632 44.6757C90.7298 44.7059 90.8509 44.8422 90.9266 45.0846C91.169 45.8266 90.548 47.7802 90.2754 48.6283C90.23 48.7798 90.1997 48.8858 90.1846 48.9312C90.124 49.1432 89.7757 50.1882 89.5485 50.2336C89.5334 50.2488 89.5334 50.2488 89.5182 50.2488ZM89.8817 45.13C89.6848 46.9927 89.3971 50.0065 89.5182 50.173C89.5182 50.173 89.5182 50.173 89.5334 50.173C89.6545 50.1428 89.9423 49.4158 90.1088 48.9161C90.124 48.8555 90.1543 48.7495 90.1997 48.6132C90.442 47.856 91.0932 45.8418 90.8509 45.13C90.7752 44.918 90.6843 44.7968 90.548 44.7817C90.2754 44.7211 89.9271 45.0694 89.8817 45.13Z" fill="#EEA886"/>
<path d="M107.994 82.808H100.422C98.8471 79.9457 97.575 77.7043 97.575 77.7043C97.575 77.7043 96.5603 79.5671 95.7576 82.808H70.2546C69.8608 80.7938 69.8457 78.8553 69.9214 77.4771C69.9214 77.4771 68.5584 79.9457 66.9834 82.808H58.4117C60.6833 78.5524 64.9389 70.7985 65.9081 69.7838C67.1197 68.5117 74.1618 63.6352 79.2049 62.0451C84.2328 60.4549 87.0951 61.9845 87.0951 61.9845C87.0951 61.9845 92.2593 62.9083 97.0449 64.8165C98.9228 65.5737 104.117 75.1601 107.994 82.808Z" fill="#018543"/>
<path d="M83.7481 36.8629C83.7481 36.8629 90.7751 37.8775 89.7453 48.2514C88.7155 58.6253 82.5214 57.8075 82.0974 57.7924C81.6885 57.7772 75.8731 58.0044 75.3733 45.3437C75.3733 45.3437 75.131 35.9845 83.7481 36.8629Z" fill="#8E4F3A"/>
<path d="M86.868 55.9433C86.868 55.9433 86.4288 61.3347 87.4738 62.9551C88.5187 64.5756 86.5803 66.7715 82.6124 66.0143C78.6446 65.2571 78.8718 63.0157 78.8718 63.0157C78.8718 63.0157 79.9773 59.684 79.6593 57.0186C79.3261 54.3532 86.868 55.9433 86.868 55.9433Z" fill="#8E4F3A"/>
<path d="M82.9455 40.6194C82.9455 40.6194 86.2319 44.0723 87.7463 45.8139C89.2759 47.5555 89.4425 50.9327 89.4425 50.9327C89.4425 50.9327 92.017 47.7978 90.9417 44.1481C89.8665 40.4983 87.3222 33.3804 80.8859 35.5764C74.4496 37.7571 74.2072 47.3738 74.9645 52.1443C74.9796 52.1291 77.857 41.619 82.9455 40.6194Z" fill="#16202E"/>
<path d="M89.3364 62.4885C89.3364 62.4885 84.4599 74.8311 81.5068 76.9816C81.5068 76.9816 77.6147 64.3967 77.8873 62.5491C77.8721 62.5491 83.7481 60.2471 89.3364 62.4885Z" fill="#8E4F3A"/>
<path d="M79.0383 59.5039C79.0383 59.5039 70.3455 67.2275 72.602 72.0586C74.5253 76.1778 81.3554 73.6487 80.2196 69.3326C79.0989 65.0164 79.0383 59.5039 79.0383 59.5039Z" fill="#16202E"/>
<path d="M80.1741 57.3202C80.1741 57.3202 83.1727 58.7286 86.0804 56.6387C86.0804 56.6387 85.2778 58.3046 83.1273 58.5469C80.9768 58.7892 80.1741 57.3202 80.1741 57.3202Z" fill="#633029"/>
<path d="M157.274 28.7734C157.274 28.7734 154.397 39.6168 153.791 42.055C153.609 42.7971 153.034 44.0692 152.307 45.5079C152.307 45.5231 152.292 45.5231 152.292 45.5382C152.14 45.8563 152.064 46.144 152.019 46.4166C151.898 47.3253 152.246 48.037 151.656 49.1123L151.549 49.5666H145.84C146.506 47.5827 147.355 45.0688 148.021 43.0546C148.581 41.3432 149.036 39.9803 149.157 39.5865C149.505 38.4052 150.807 34.604 151.898 32.0749C152.276 31.1965 153.761 30.3182 155.063 29.6972C156.229 29.1369 157.274 28.7734 157.274 28.7734Z" fill="#323657"/>
<path d="M153.458 13.2831C153.458 13.2831 151.64 1.53105 161.378 1.74307C171.116 1.95509 170.995 7.77052 170.813 13.5405C170.631 19.3105 166.906 18.8713 171.116 26.913C175.326 34.9395 167.466 34.9395 167.466 34.9395L161.378 26.5647L153.458 13.2831Z" fill="#FCCCA2"/>
<path d="M160.318 2.86189C160.318 2.86189 153.715 3.90685 153.458 13.2812C153.2 22.6556 155.23 24.6546 161.015 22.701C166.785 20.7474 168.602 10.949 168.738 9.4194C168.859 7.90496 169.208 1.74121 160.318 2.86189Z" fill="#EEA886"/>
<path d="M171.888 35.4674C171.919 38.6931 168.208 46.4016 167.633 48.7944C167.572 49.067 167.497 49.3244 167.421 49.5667H149.414C149.323 48.4612 149.232 47.5071 149.187 46.9619C149.051 45.2052 147.264 41.4039 147.324 39.632C147.385 37.8299 148.263 36.27 149.505 34.3618C149.884 33.7712 150.293 33.1654 150.701 32.5748C152.019 30.6515 153.321 28.9098 153.958 28.3041C154.442 27.8649 154.881 27.5166 155.275 27.2591C156.078 26.7139 156.623 26.5473 156.623 26.5473L162.287 25.6387C162.287 25.6387 165.816 26.9259 167.86 27.3954C167.875 27.3954 171.828 27.9709 171.888 35.4674Z" fill="#E55353"/>
<path d="M155.275 27.2617L151.989 32.4411L148.96 37.2267C148.96 37.1964 149.172 36.4846 149.505 34.3796C149.566 33.9858 149.641 33.5315 149.717 33.0317C149.732 32.8803 149.778 32.7288 149.808 32.5925C151.11 29.5939 155.124 27.3374 155.275 27.2617Z" fill="#E55353"/>
<path d="M164.71 18.4773C164.134 19.5525 163.529 26.2614 163.529 26.2614C163.529 26.2614 155.457 29.3055 156.29 27.579C156.668 26.7915 156.774 25.7768 156.774 24.8985C156.774 24.2018 156.729 23.6112 156.683 23.2629C156.668 23.0811 156.653 22.9903 156.653 22.9903C156.653 22.9903 165.285 17.402 164.71 18.4773Z" fill="#EEA886"/>
<path d="M157.622 9.58612C157.622 9.58612 161 15.0987 164.089 17.2643C167.163 19.4299 165.604 21.1715 165.604 21.1715C165.604 21.1715 173.645 4.25531 165.997 3.07405C158.349 1.90794 153.67 1.81707 153.458 13.2662C153.458 13.2813 156.926 9.5104 157.622 9.58612Z" fill="#FCCCA2"/>
<path d="M161.302 22.5938C160.061 24.4262 156.789 24.9108 156.789 24.9108C156.789 24.2142 156.744 23.6236 156.699 23.2752C158.804 23.6841 161.302 22.5938 161.302 22.5938Z" fill="#A77860"/>
<path d="M149.838 32.5451C149.838 32.5451 149.657 32.9086 149.52 34.3625L150.702 32.5754C150.702 32.5754 152.822 29.5314 153.549 28.7439C154.276 27.9564 155.275 27.2598 155.275 27.2598C155.275 27.2598 151.095 29.2588 149.838 32.5451Z" fill="#EBEEFF"/>
<path d="M165.891 37.0869C165.891 37.0869 171.071 35.0576 172.6 34.9364C172.6 34.9364 171.555 26.6222 166.467 27.5005C161.378 28.3789 165.891 37.0869 165.891 37.0869Z" fill="#E55353"/>
<path d="M156.638 26.5484C156.638 26.5484 152.837 32.3941 154.124 32.909C155.411 33.4239 162.378 32.2275 165.331 26.6695C165.331 26.6695 160.909 24.3979 156.638 26.5484Z" fill="#EEA886"/>
<path d="M172.6 34.9396C172.343 39.5283 171.04 43.8747 169.965 47.8577C169.814 48.4332 169.662 49.0086 169.526 49.569H158.985C158.955 47.994 158.97 46.6007 159.016 45.4346C159.546 32.7133 163.574 26.0195 163.574 26.0195C163.574 26.0195 164.861 26.4587 168.572 27.5037C171.116 28.2155 172.07 31.4564 172.418 33.41C172.418 33.41 172.418 33.4251 172.418 33.4403C172.57 34.3186 172.6 34.9396 172.6 34.9396Z" fill="#323657"/>
<path d="M156.623 26.5488C156.577 26.6245 155.881 27.7907 155.063 29.6989C153.821 32.5611 152.261 37.0893 152.125 42.0869C152.08 43.6922 151.762 46.2819 151.277 49.5682H149.172C148.96 46.8271 148.46 44.6312 148.021 43.0562C147.733 42.0264 147.476 41.2691 147.324 40.7845C146.658 38.4977 148.793 35.4688 149.52 34.3785C150.232 33.2881 151.958 28.2904 156.623 26.5488Z" fill="#323657"/>
<path d="M175.947 49.5658H170.283C170.283 49.2024 170.162 48.5966 169.95 47.8545C168.92 44.2047 165.876 37.0869 165.876 37.0869C165.876 37.0869 161.318 29.651 165.634 27.7428C169.95 25.8498 171.813 31.1503 172.388 33.4068C172.388 33.4068 172.388 33.4219 172.388 33.4371C172.555 33.9671 175.114 43.7655 175.947 49.5658Z" fill="#323657"/>
<path d="M83.6271 155.703C83.6271 155.703 85.611 155.673 86.3076 154.916C87.0194 154.158 88.2613 153.477 88.655 153.28C89.1851 153.022 90.6692 151.584 90.851 152.28C91.0327 152.977 88.5036 154.764 88.0189 155.234C87.5343 155.718 90.124 155.915 90.5026 156.384C90.8812 156.854 89.5637 161.746 87.8372 161.367C86.1108 160.988 84.7023 159.247 84.3692 159.247C84.036 159.247 83.097 159.035 83.097 159.035L83.6271 155.703Z" fill="#EEA886"/>
<path d="M90.1391 156.189C90.1391 156.189 95.2882 157.764 95.5002 158.204C95.7122 158.643 95.576 158.976 95.0762 158.855C94.5916 158.734 90.0331 157.507 90.0331 157.507C90.0331 157.507 95.6668 160.581 95.9091 160.884C96.0606 161.066 95.8031 161.702 95.5305 161.672C95.2579 161.641 89.4576 158.976 89.4576 158.976C89.4576 158.976 94.7127 161.853 94.8339 162.202C94.955 162.505 94.5916 163.05 94.1827 162.868C93.7738 162.686 88.7156 160.354 88.7156 160.354C88.7156 160.354 92.3653 162.747 92.3199 163.141C92.2896 163.383 92.0928 163.943 91.1689 163.292C90.2451 162.641 87.8826 161.384 87.8826 161.384L90.1391 156.189Z" fill="#EEA886"/>
<path d="M72.7989 242.554C72.7989 242.554 74.4496 245.023 76.7667 245.553C79.0838 246.083 81.3706 246.931 81.3857 248.4C81.4009 249.869 74.6919 250.732 72.0417 249.263C68.089 247.067 67.6801 247.734 67.2409 246.628C66.8017 245.523 67.771 242.585 67.7407 242.236C67.6952 241.812 72.7989 242.554 72.7989 242.554Z" fill="#353A3D"/>
<path d="M72.5414 241.342C72.5414 241.342 72.8443 242.539 72.7989 242.554C72.7535 242.584 67.5741 243.19 67.7407 242.236C67.8618 241.463 68.0436 240.615 68.0436 240.615L72.5414 241.342Z" fill="#81807E"/>
<path d="M40.2991 242.402C40.2991 242.402 41.4803 244.765 43.4945 245.567C45.645 246.431 47.3715 247.415 47.3261 248.838C47.2806 250.262 42.071 251.701 38.2697 248.975C35.8769 247.248 35.1046 247.233 34.726 246.158C34.3473 245.068 35.3923 242.236 35.3772 241.902C35.3469 241.478 40.2991 242.402 40.2991 242.402Z" fill="#353A3D"/>
<path d="M40.3445 241.176C40.3445 241.176 40.3294 242.387 40.2839 242.402C40.2385 242.433 35.2409 242.842 35.362 241.903C35.468 241.161 35.8467 240.252 35.8467 240.252L40.3445 241.176Z" fill="#81807E"/>
<path d="M58.6996 168.952C58.6996 168.952 65.2722 194.122 67.771 199.953C70.0881 205.344 70.8605 212.886 71.1785 216.672C71.5874 221.443 73.9651 239.995 74.2528 241.388C74.5406 242.781 66.5292 242.16 66.5292 242.16C66.5292 242.16 61.0015 210.084 58.7147 205.405C57.1851 202.285 48.3105 179.872 47.2807 181.174C46.2661 182.461 45.0091 204.905 44.2519 208.631C43.4946 212.356 41.1927 241.797 41.1927 241.797C41.1927 241.797 36.0285 242.554 34.6503 241.388C34.6503 241.388 34.0294 216.248 34.4989 209.267C34.6806 206.601 31.3792 177.342 35.6196 165.56C37.8307 159.321 58.6996 168.952 58.6996 168.952Z" fill="#2D3133"/>
<path d="M22.0957 150.901C22.0957 151.188 22.6409 152.339 23.5041 153.99C24.7762 151.446 25.7757 149.371 26.0938 148.599C27.169 146.07 32.6815 140.284 32.6815 140.284C32.6815 140.284 32.6815 140.284 32.6815 140.3C32.6815 140.315 32.6815 140.315 32.6815 140.33C32.6815 140.345 32.6967 140.36 32.6967 140.375C32.6967 140.39 32.6967 140.39 32.7118 140.406C32.7118 140.421 32.7118 140.421 32.7118 140.436C33.0147 141.557 34.8623 148.538 34.9229 151.991C34.9986 155.732 35.983 162.668 35.983 162.668L37.134 162.834L39.6782 163.198L39.9811 163.243L40.7232 163.349L47.4776 164.303L49.8704 164.637L50.1884 164.682L51.5514 164.879L55.3375 165.409L56.3067 165.545H56.3219L57.0488 165.651L58.0483 165.788C58.0786 165.757 59.0176 164.455 58.8813 161.593C58.7904 159.745 58.5632 156.262 58.6541 153.036C58.6541 153.021 58.6541 153.006 58.6541 152.991C58.6541 152.945 58.6541 152.915 58.6541 152.869C58.6541 152.854 58.6541 152.839 58.6541 152.824C58.7147 151.052 58.8661 149.371 59.1993 148.084C59.4265 147.221 59.5779 146.357 59.6688 145.555C59.6688 145.509 59.6839 145.479 59.6839 145.434C59.6991 145.282 59.7142 145.131 59.7294 144.994C59.9414 142.753 59.7748 141.057 59.7596 140.951V140.966C59.8354 141.117 60.32 142.92 60.9712 145.146C62.0616 148.917 63.5912 153.899 64.2424 154.142C65.1965 154.49 80.5377 159.033 83.8392 159.503C84.2178 159.563 84.4449 159.548 84.4601 159.487C84.4752 159.442 84.4904 159.397 84.5055 159.336C84.9144 158.003 85.4596 155.747 85.5505 155.383C85.5656 155.353 85.5656 155.338 85.5656 155.338L84.975 155.156L68.2859 150.159L60.6532 128.124C60.4866 128.002 58.6238 127.094 57.2457 126.443C55.8524 125.776 54.1714 124.807 52.6418 123.974C51.8694 123.55 51.1274 123.156 50.4913 122.868L50.4004 122.823C49.3555 122.338 48.6588 122.02 48.6588 122.02C48.6285 122.02 48.462 122.005 48.2045 121.975C46.7355 121.839 42.1771 121.415 40.6626 121.324C40.5415 121.309 40.4355 121.309 40.3446 121.309C40.2689 121.309 40.2234 121.309 40.1932 121.309C39.9963 121.324 39.0573 121.642 37.8306 122.111C37.7852 122.126 37.7398 122.142 37.6943 122.172C37.6338 122.187 37.5732 122.217 37.5126 122.232C37.4066 122.278 37.3006 122.308 37.1794 122.354C36.9523 122.444 36.7251 122.535 36.4979 122.626C36.4222 122.656 36.3313 122.687 36.2556 122.717C33.7871 123.701 30.9551 124.913 30.2887 125.398C29.8496 125.716 28.4563 128.32 26.851 131.546C24.7913 138.164 22.1714 148.296 22.0805 150.795C22.0956 150.825 22.0957 150.855 22.0957 150.901Z" fill="#DECBC4"/>
<path d="M58.0482 165.773C58.0482 165.773 58.5631 166.379 58.6994 168.954C58.6994 168.954 37.8154 166.515 35.6043 165.561C35.6043 165.561 35.5134 162.729 35.9829 162.669C36.4978 162.608 58.0482 165.773 58.0482 165.773Z" fill="#495055"/>
<path d="M40.2234 120.597C40.284 123.868 46.6295 125.67 46.6295 125.67C46.6295 125.67 49.2798 122.338 48.6437 122.02C48.4014 121.899 48.2954 121.399 48.2651 120.839C48.2348 120.309 48.2651 119.718 48.2954 119.355C48.3105 119.128 48.3257 118.976 48.3257 118.976C48.3257 118.976 47.417 118.022 46.266 116.886C44.2519 114.887 41.4804 112.343 41.4804 113.358C41.4804 113.418 41.4804 113.479 41.5107 113.554C42.0105 115.826 40.2234 120.597 40.2234 120.597Z" fill="#EEA886"/>
<path d="M40.7535 163.168C40.7535 163.168 40.2992 166.045 40.2537 166.787L39.2845 166.59C39.2845 166.59 39.5571 163.546 39.7085 163.031L40.7535 163.168Z" fill="#353A3D"/>
<path d="M56.2915 165.439C56.2915 165.439 56.655 168.059 56.6701 169.043L55.6403 168.907C55.6403 168.907 55.4283 165.636 55.3071 165.303L56.2915 165.439Z" fill="#353A3D"/>
<path d="M42.6768 115.797C42.6919 115.812 42.9645 116.221 43.4188 116.796C44.3881 118.023 46.2205 120.037 48.2802 120.84C48.2499 120.31 48.2802 119.719 48.3105 119.356C48.5225 119.356 48.7345 119.326 48.9465 119.28C48.3862 118.296 47.5684 117.266 47.5684 117.266L46.2963 116.887L42.6768 115.797Z" fill="#A77860"/>
<path d="M41.4501 113.387C41.9953 114.584 42.5253 115.447 42.6616 115.795C42.7525 116.022 43.0251 116.386 43.4037 116.795C44.4487 117.915 46.3872 119.415 48.3105 119.354C48.5225 119.354 48.7345 119.324 48.9466 119.278C49.7189 119.112 50.6276 118.748 51.1273 117.764C55.08 110.01 52.2177 103.664 52.2177 103.664C52.2177 103.664 41.3895 100.605 39.6933 103.861C38.5121 106.148 40.1628 110.57 41.4501 113.387Z" fill="#EEA886"/>
<path d="M52.2177 103.666C52.2177 103.666 53.2172 103.605 53.4747 101.697C53.717 99.8194 53.2172 99.2893 53.2172 99.2893C53.2172 99.2893 48.7497 97.4114 47.1443 97.1691C45.539 96.9268 41.5864 96.6996 40.6626 97.7446C40.6626 97.7446 38.4212 97.2297 37.8003 100.955C36.831 106.877 41.1169 112.631 41.1169 112.631C41.1169 112.631 41.0866 108.77 41.9347 108.255C42.7828 107.74 43.5249 108.967 43.5249 108.967L45.2665 109.285C45.2665 109.285 42.6162 103.56 45.7965 103.348C48.9768 103.136 50.4004 103.999 52.2177 103.666Z" fill="#252E3B"/>
<path d="M43.4793 107.437C43.3128 105.726 40.2385 105.09 40.4353 106.862C40.6474 108.649 42.1618 110.36 42.8584 110.3C43.5702 110.254 43.6005 108.74 43.4793 107.437Z" fill="#EEA886"/>
<path d="M23.5041 153.99C24.8519 156.55 26.957 160.321 29.0621 163.97C28.7895 164.485 28.5169 165 28.2594 165.5C27.6233 166.727 27.0781 167.923 26.6692 169.029C26.1998 170.361 25.5334 173.784 26.8055 174.42L33.4842 178.115C33.4842 178.115 33.5296 177.979 33.6205 177.737C33.8477 177.131 34.3171 175.859 34.9835 174.193C34.9986 174.132 35.0744 173.981 35.1652 173.754C35.3015 173.436 35.4833 172.996 35.7104 172.481C35.8013 172.254 35.9073 172.012 36.0133 171.77C36.1345 171.482 36.2556 171.194 36.3919 170.906C36.5737 170.482 36.7554 170.058 36.922 169.665C37.3763 168.604 37.7398 167.772 37.7398 167.772C37.7549 167.726 37.7852 167.681 37.8003 167.62C38.0124 167.151 38.2395 166.681 38.4667 166.212C38.815 165.485 39.1785 164.758 39.5419 164.046C39.5722 163.97 39.6177 163.895 39.648 163.834C39.7085 163.713 39.7843 163.592 39.8448 163.455C39.8903 163.38 39.9206 163.304 39.966 163.228C39.9811 163.213 39.9811 163.198 39.9963 163.183C40.0114 163.153 40.0266 163.122 40.0417 163.092C41.9802 159.563 44.1458 156.625 44.8425 152.294C44.903 151.87 44.9788 151.461 45.0393 151.052C45.1454 150.371 45.2362 149.689 45.3119 149.023C45.3422 148.765 45.3725 148.523 45.4028 148.281C45.7511 145.403 45.9631 142.829 46.1297 141.042C46.6598 135.469 43.2372 129.426 40.6172 125.701C39.2088 123.701 38.0427 122.369 37.8155 122.126L37.8003 122.111C37.7549 122.126 37.7095 122.142 37.664 122.172C37.6035 122.187 37.5429 122.217 37.4823 122.232C37.3763 122.278 37.2703 122.308 37.1491 122.354C36.922 122.445 36.6948 122.535 36.4676 122.626C36.3919 122.657 36.3011 122.687 36.2253 122.717C33.6811 123.717 28.3351 125.186 27.6688 125.67C27.275 125.943 26.4118 128.487 25.4123 131.698C23.3526 138.316 22.1259 148.296 22.0654 150.78C22.0654 150.825 22.0654 150.855 22.0654 150.886C22.0957 151.188 22.6409 152.339 23.5041 153.99ZM33.6508 152.748C33.6508 153.99 33.2419 155.414 32.621 156.928C32.6058 156.974 32.5907 157.004 32.5755 157.049C32.1515 156.141 31.7426 155.262 31.3791 154.445C30.3796 152.218 29.6981 150.477 29.6678 149.795C29.4255 145.388 32.6664 140.3 32.6664 140.3C32.6664 140.315 32.6664 140.315 32.6664 140.33C32.6664 140.345 32.6816 140.36 32.6816 140.375C32.6816 140.391 32.6816 140.391 32.6967 140.406C32.6967 140.421 32.6967 140.421 32.6967 140.436C33.3782 143.071 33.6508 152.748 33.6508 152.748Z" fill="#3C4145"/>
<path d="M46.3569 169.376L27.3053 177.857C26.23 178.342 24.9579 177.857 24.4884 176.782L19.2788 165.06C18.7941 163.985 19.2788 162.728 20.354 162.243L39.4056 153.762C40.4809 153.278 41.753 153.762 42.2225 154.838L47.4321 166.559C47.9167 167.635 47.4321 168.892 46.3569 169.376Z" fill="#B3A5A0"/>
<path d="M50.461 122.899C50.461 122.899 51.3545 125.867 52.5055 133.303C52.5509 133.545 52.5812 133.803 52.6266 134.06C52.6266 134.091 52.6418 134.121 52.6418 134.151C52.6721 134.318 52.6872 134.5 52.7175 134.666C52.7175 134.681 52.7175 134.712 52.7327 134.727C52.7478 134.848 52.7629 134.969 52.7781 135.09C52.8235 135.378 52.869 135.681 52.9144 135.984C53.4293 139.603 54.1562 145.752 54.8529 151.961C55.3981 156.853 56.655 161.88 57.0488 165.621C57.1245 166.348 57.3214 167.332 57.5637 168.438C57.594 168.559 57.6243 168.695 57.6546 168.817C58.7752 173.542 60.9409 180.235 60.9409 180.235L61.5769 179.645L63.4548 177.918C63.894 177.525 64.0455 176.904 63.8789 176.343C62.8339 172.996 59.3053 161.123 58.6541 152.779C58.9721 149.841 59.7899 145.918 59.6688 145.343C59.6839 145.358 59.6839 145.388 59.6839 145.403C60.0625 146.433 60.4714 147.569 60.8803 148.659C62.001 151.597 63.1368 154.323 63.6063 154.505C64.6664 154.899 83.6574 160.502 83.7937 159.715C83.8089 159.639 83.824 159.548 83.8391 159.457C83.8543 159.367 83.8694 159.276 83.8997 159.185C84.1269 158.11 84.5661 156.58 84.8538 155.55C84.8993 155.399 84.9447 155.247 84.975 155.126C85.0961 154.702 85.187 154.429 85.187 154.429L69.134 149.159L61.0318 127.972C60.8652 127.851 58.8055 126.73 57.4425 126.079C56.019 125.398 54.2168 124.565 52.6115 123.823C51.8543 123.474 51.1273 123.141 50.5216 122.854L50.461 122.899Z" fill="#3C4145"/>
<path d="M39.5874 130.244L42.6768 131.985L41.3593 133.333L44.8727 152.294C45.5845 147.842 45.9177 143.631 46.16 141.042C46.9627 132.425 38.3607 122.702 37.8306 122.111C37.4217 122.263 36.9674 122.445 36.5131 122.626L39.5874 130.244Z" fill="#51565C"/>
<path d="M50.4155 122.807C50.4155 122.807 51.5665 126.578 52.9143 135.982C53.4293 139.602 54.1562 145.75 54.8528 151.96L55.5646 134.195L54.0956 132.605L55.398 130.969L52.5963 123.821C51.8391 123.473 51.1122 123.14 50.5064 122.852L50.4155 122.807Z" fill="#51565C"/>
<path d="M37.6489 122.173L40.2234 120.598C40.2234 120.598 40.2991 122.006 46.6295 125.671L44.8273 130.744L37.6489 122.173Z" fill="#F5E2D9"/>
<path d="M48.3256 121.293C48.3256 121.293 48.2196 122.807 46.6446 125.655L50.1581 130.243L50.4155 122.807L48.3256 121.293Z" fill="#F5E2D9"/>
<path d="M46.6294 125.672C46.6294 125.672 45.9479 128.398 46.1902 129.155C46.1902 129.155 47.6895 129.7 48.7648 129.019C48.7648 129.019 48.0076 127.111 46.6294 125.672Z" fill="#FAA146"/>
<path d="M50.1581 164.952C50.5367 163.028 50.1733 157.274 50.1581 157.031L49.825 157.046C49.825 157.107 50.2036 163.013 49.825 164.891L50.1581 164.952Z" fill="#AD9F99"/>
<path d="M47.4775 164.061C47.4775 164.061 50.5518 164.424 51.5665 164.681L51.4302 168.119L47.4018 167.695L47.4775 164.061Z" fill="#69737A"/>
<path d="M48.1591 128.775C48.1591 128.775 51.5817 137.437 51.0214 147.114C50.4459 157.155 49.4918 160.805 49.4918 160.805L47.3716 163.455L46.4326 160.199C46.4326 160.199 49.2646 147.387 47.4321 134.923C47.099 132.667 46.6144 128.381 46.6144 128.381L48.1591 128.775Z" fill="#FAA146"/>
<path d="M37.8609 169.65C37.8609 169.65 38.603 171.119 39.3299 171.362C40.072 171.604 41.1321 172.801 41.1321 172.801L35.9527 175.526C35.9527 175.526 34.5746 172.831 34.514 171.119C34.4534 169.408 37.8609 169.65 37.8609 169.65Z" fill="#EEA886"/>
<path d="M38.3455 169.785L38.6938 170.482C38.6938 170.482 35.4075 172.89 34.5139 173.041L34.2111 172.117L38.3455 169.785Z" fill="#DECBC4"/>
<path d="M38.6938 169.818C38.6938 169.818 36.2253 171.862 34.1505 172.801L24.8367 156.491L30.7733 153.25C30.7885 153.235 38.5272 168.591 38.6938 169.818Z" fill="#3C4145"/>
<path d="M59.5628 140.967C59.6839 143.299 59.6537 145.359 59.6537 145.359C59.6537 145.374 59.6536 145.435 59.6688 145.541C59.6688 145.495 59.6839 145.465 59.6839 145.42C60.0625 146.45 60.4714 147.585 60.8803 148.676C60.9712 147.404 61.0015 146.222 60.9712 145.132C60.8046 138.62 58.7601 135.197 58.7601 135.197C59.2296 136.333 59.4568 138.756 59.5628 140.967Z" fill="#2D3133"/>
<path d="M140.434 119.475C140.434 119.475 140.343 118.279 140.479 117.718C140.721 116.749 140.358 115.189 141.585 114.432C142.796 113.675 146.294 116.855 146.567 117.733C146.84 118.627 145.537 120.126 142.811 121.398C140.085 122.67 140.434 119.475 140.434 119.475Z" fill="#EEA886"/>
<path d="M141.206 114.752C141.206 114.752 142.387 112.98 143.947 111.163C145.31 109.573 147.233 107.785 147.627 108.134C148.248 108.649 146.507 109.936 145.25 111.602C144.099 113.131 144.583 113.025 144.583 113.025C144.583 113.025 144.447 113.056 146.022 111.617C147.718 110.087 149.611 108.497 149.944 108.77C150.368 109.103 150.383 109.179 149.853 109.845C150.232 109.527 150.383 109.588 150.52 109.739C151.277 110.511 149.142 113.162 148.294 114.207C148.945 113.404 149.52 112.889 149.687 113.662C149.869 114.54 146.673 118.144 145.658 119.553C144.568 121.067 141.206 114.752 141.206 114.752Z" fill="#EEA886"/>
<path d="M100.362 242.111C100.362 242.111 103.678 244.08 105.193 244.807C106.692 245.534 112.538 245.746 113.113 246.291C113.689 246.836 113.477 248.593 112.507 248.76C111.538 248.941 104.435 249.577 102.058 249.032C99.6802 248.472 95.258 249.411 94.2736 249.078C93.2892 248.744 93.9253 243.459 94.3039 242.263C94.6977 241.081 100.362 242.111 100.362 242.111Z" fill="#181929"/>
<path d="M100.634 239.947L100.362 242.113C100.362 242.113 95.9243 242.946 94.5764 242.264L94.9096 240.023L100.634 239.947Z" fill="#22243B"/>
<path d="M118.459 166.029C118.414 167.528 118.141 170.784 117.823 174.192C117.747 174.949 117.672 175.721 117.611 176.478C117.172 181.067 116.717 185.323 116.717 185.323C116.157 188.988 115.006 195.333 113.704 200.134C113.325 201.512 112.947 202.769 112.568 203.799C112.189 204.798 111.811 205.571 111.447 206.04C108.691 209.554 102.391 240.721 102.391 240.721L93.7738 240.66C93.7738 240.66 95.6669 219.549 97.5751 214.203C99.6953 208.221 103.39 200.179 102.467 194.409C101.891 190.79 101.149 179.28 101.149 179.28C101.149 179.28 100.422 166.347 103.815 156.867C104.663 154.519 118.459 166.029 118.459 166.029Z" fill="#292C47"/>
<path d="M124.577 242.912C124.577 242.912 127.879 244.911 129.378 245.668C130.877 246.41 136.708 246.698 137.283 247.258C137.859 247.819 137.617 249.56 136.647 249.727C135.678 249.893 128.56 250.454 126.198 249.863C123.835 249.288 119.398 250.166 118.414 249.818C117.429 249.469 118.126 244.184 118.52 243.003C118.913 241.822 124.577 242.912 124.577 242.912Z" fill="#181929"/>
<path d="M124.88 240.764L124.577 242.929C124.577 242.929 120.125 243.702 118.792 243.005L119.156 240.764H124.88Z" fill="#22243B"/>
<path d="M114.582 209.856C114.355 202.966 113.749 198.377 111.977 194.394C110.493 191.047 109.206 180.552 109.206 180.552C109.206 180.552 105.162 168.24 105.98 158.214C106.192 155.715 121.791 162 121.791 162C122.139 163.454 123.169 168.058 123.548 171.465C125.668 190.941 124.865 203.617 124.865 203.617C123.654 207.918 126.713 241.735 126.713 241.735H117.929C117.929 241.735 115.627 229.696 115.385 222.214C115.385 222.229 114.491 211.038 114.582 209.856Z" fill="#292C47"/>
<path d="M114.385 120.64C114.385 120.64 118.474 127.349 119.671 131.09C120.867 134.83 119.898 145.719 120.11 147.9C120.761 154.685 121.715 162.166 121.715 162.166L107.994 170.934C107.994 170.934 105.526 165.18 103.39 158.016C101.24 150.853 101.073 144.401 101.089 140.1C101.149 126.592 108.464 118.959 108.464 118.959L114.385 120.64Z" fill="#CFBEB6"/>
<path d="M119.428 102.647C119.428 102.647 122.245 105.661 121.443 106.448C120.791 107.099 123.366 110.098 123.744 110.613C124.108 111.112 122.594 111.945 122.351 112.4C122.109 112.854 122.245 117.579 120.943 118.064C119.64 118.548 113.068 118.033 110.978 116.761C108.888 115.489 105.526 108.129 105.768 104.6C105.995 101.057 114.476 97.3917 119.428 102.647Z" fill="#EEA886"/>
<path d="M116.763 117.036C116.763 117.036 116.718 117.429 116.657 118.065C116.627 118.323 116.596 118.626 116.566 118.944C116.551 119.141 116.536 119.338 116.521 119.55C116.521 119.61 116.506 119.656 116.506 119.716C116.49 119.807 116.49 119.913 116.475 120.004C116.445 120.458 116.415 120.928 116.384 121.397C116.324 122.594 116.309 123.745 116.445 124.381C116.793 126.137 109.251 118.747 109.251 118.747C109.251 118.747 109.888 113.022 109.585 106.586C109.267 100.15 116.763 117.036 116.763 117.036Z" fill="#EEA886"/>
<path d="M120.004 103.32C120.004 103.32 121.337 100.185 117.232 98.0041C112.401 95.4447 107.283 101.881 106.601 102.26C105.92 102.638 102.83 106.121 105.859 110.725C109.675 116.541 109.478 116.344 109.478 116.344C109.478 116.344 109.857 112.058 109.842 111.225C109.797 109.711 113.764 109.529 113.764 109.529C113.764 109.529 112.129 107.363 113.946 106.394C115.733 105.41 117.853 103.108 120.004 103.32Z" fill="#3A3F47"/>
<path d="M111.659 108.966C111.372 108.557 110.311 106.77 108.948 108.345C107.585 109.92 111.235 112.858 111.538 112.828C111.841 112.812 114.082 112.388 111.659 108.966Z" fill="#EEA886"/>
<path d="M122.472 165.06C122.472 165.06 121.791 161.85 121.655 161.365L101.588 164.697L101.8 167.287C101.8 167.317 116.263 166.439 122.472 165.06Z" fill="#23263D"/>
<path d="M99.8164 150.93C99.8164 150.93 102.906 164.242 98.0748 179.765C97.4842 181.658 111.432 179.477 111.432 179.477L99.8164 150.93Z" fill="#D80027"/>
<path d="M117.535 178.491C117.535 178.491 107.631 180.672 104.844 179.688C104.844 179.688 100.801 164.952 99.3772 150.005C99.2712 148.854 99.1803 147.688 99.1046 146.537C98.3171 134.376 101.407 122.033 108.464 118.959C108.661 119.095 118.595 127.849 118.414 135.875C118.399 136.42 118.399 136.966 118.383 137.511C118.383 138.495 118.383 139.48 118.399 140.464C118.459 143.508 118.656 146.552 118.913 149.505C118.944 149.808 118.974 150.126 119.004 150.429C119.05 150.929 119.11 151.413 119.156 151.913C119.231 152.564 119.307 153.216 119.383 153.852C120.988 167.239 117.535 178.491 117.535 178.491Z" fill="#D80027"/>
<path d="M117.126 126.501C117.126 126.501 118.989 133.891 119.701 143.19C120.292 150.974 121.094 156.472 121.094 156.472L122.291 160.318L122.775 156.608C122.775 156.608 122.336 146.567 121.761 142.478C121.17 138.359 120.912 133.134 117.626 126.35L117.126 126.501Z" fill="#D44040"/>
<path d="M116.914 126.504C116.914 126.504 117.141 126.716 117.46 126.761C117.778 126.807 118.232 126.307 116.611 124.156L116.914 126.504Z" fill="#D44040"/>
<path d="M109.342 117.855C109.342 117.855 113.961 122.202 116.702 123.156L117.232 127.321L108.464 118.961L109.342 117.855Z" fill="#EDDAD3"/>
<path d="M112.447 134.683C110.63 134.032 103.073 130.367 105.087 126.081C107.101 121.796 112.28 124.082 116.187 125.824C120.276 127.641 129.908 133.245 130.666 132.73C131.423 132.215 134.754 127.444 135.36 126.369C135.966 125.309 139.601 118.509 139.949 117.994C140.282 117.495 145.568 121.932 145.568 121.932C145.568 121.932 136.072 138.788 133.528 141.468C130.953 144.149 112.447 134.683 112.447 134.683Z" fill="#D80027"/>
<path d="M113.704 200.134C113.325 201.527 112.947 202.784 112.568 203.799L109.569 185.883C110.311 187.579 113.704 200.134 113.704 200.134Z" fill="#181929"/>
<path d="M118.414 140.464L109.721 133.361C112.023 134.588 117.687 137.178 118.399 137.496C118.383 138.495 118.383 139.48 118.414 140.464Z" fill="#8F5C28"/>
<path d="M116.657 118.067C116.627 118.324 116.596 118.627 116.566 118.945C116.551 119.142 116.536 119.339 116.521 119.551C113.643 119.354 111.417 117.067 111.281 116.916C112.447 117.855 116.657 118.067 116.657 118.067Z" fill="#A77860"/>
<g opacity="0.95">
<path d="M229.558 52.019H234.132L232.723 49.1113H228.165L229.558 52.019Z" fill="url(#paint5_linear_61_6667)"/>
<path d="M227.423 52.019H228.513L227.12 49.1113H226.029L227.423 52.019Z" fill="url(#paint6_linear_61_6667)"/>
<path d="M211.657 48.5671H230.133L229.528 47.1133H211.036L211.657 48.5671Z" fill="url(#paint7_linear_61_6667)"/>
</g>
<path d="M112.386 2.36252H105.405C105.162 2.36252 104.981 2.16564 104.981 1.93848V0.424042C104.981 0.181732 105.177 0 105.405 0H112.386C112.628 0 112.81 0.196876 112.81 0.424042V1.93848C112.81 2.16564 112.628 2.36252 112.386 2.36252Z" fill="url(#paint8_linear_61_6667)"/>
<path d="M112.386 8.02853H105.405C105.162 8.02853 104.981 7.83166 104.981 7.60449V6.09006C104.981 5.84775 105.177 5.66602 105.405 5.66602H112.386C112.628 5.66602 112.81 5.86289 112.81 6.09006V7.60449C112.81 7.83166 112.628 8.02853 112.386 8.02853Z" fill="url(#paint9_linear_61_6667)"/>
<path d="M112.386 13.677H105.405C105.162 13.677 104.981 13.4801 104.981 13.2529V11.7385C104.981 11.4962 105.177 11.3145 105.405 11.3145H112.386C112.628 11.3145 112.81 11.5113 112.81 11.7385V13.2529C112.81 13.4952 112.628 13.677 112.386 13.677Z" fill="url(#paint10_linear_61_6667)"/>
<path d="M117.853 2.36252H116.475C116.233 2.36252 116.051 2.16564 116.051 1.93848V0.424042C116.051 0.181732 116.248 0 116.475 0H117.853C118.096 0 118.277 0.196876 118.277 0.424042V1.93848C118.277 2.16564 118.08 2.36252 117.853 2.36252Z" fill="url(#paint11_linear_61_6667)"/>
<path d="M117.853 8.02853H116.475C116.233 8.02853 116.051 7.83166 116.051 7.60449V6.09006C116.051 5.84775 116.248 5.66602 116.475 5.66602H117.853C118.096 5.66602 118.277 5.86289 118.277 6.09006V7.60449C118.277 7.83166 118.08 8.02853 117.853 8.02853Z" fill="url(#paint12_linear_61_6667)"/>
<path d="M117.853 13.677H116.475C116.233 13.677 116.051 13.4801 116.051 13.2529V11.7385C116.051 11.4962 116.248 11.3145 116.475 11.3145H117.853C118.096 11.3145 118.277 11.5113 118.277 11.7385V13.2529C118.277 13.4952 118.08 13.677 117.853 13.677Z" fill="url(#paint13_linear_61_6667)"/>
<path d="M82.673 136.223H90.8661L88.3522 131.014H80.1591L82.673 136.223Z" fill="url(#paint14_linear_61_6667)"/>
<path d="M78.8415 136.223H80.7951L78.2811 131.014H76.3275L78.8415 136.223Z" fill="url(#paint15_linear_61_6667)"/>
<defs>
<linearGradient id="paint0_linear_61_6667" x1="88.9801" y1="184.877" x2="82.7423" y2="71.8148" gradientUnits="userSpaceOnUse">
<stop stop-color="#D1D7E0"/>
<stop offset="1" stop-color="#EBEBFF"/>
</linearGradient>
<linearGradient id="paint1_linear_61_6667" x1="191.02" y1="216.398" x2="191.02" y2="99.9988" gradientUnits="userSpaceOnUse">
<stop stop-color="#D1D7E0"/>
<stop offset="1" stop-color="#EBEBFF"/>
</linearGradient>
<linearGradient id="paint2_linear_61_6667" x1="0" y1="250.029" x2="228.221" y2="250.029" gradientUnits="userSpaceOnUse">
<stop offset="0.00520833" stop-color="#E7E7E7"/>
<stop offset="1" stop-color="#DEDEDE"/>
</linearGradient>
<linearGradient id="paint3_linear_61_6667" x1="83.2748" y1="144.517" x2="83.2748" y2="59.4054" gradientUnits="userSpaceOnUse">
<stop stop-color="#D1D7E0"/>
<stop offset="1" stop-color="#EBEBFF"/>
</linearGradient>
<linearGradient id="paint4_linear_61_6667" x1="160.406" y1="72.5638" x2="160.406" y2="24.6193" gradientUnits="userSpaceOnUse">
<stop stop-color="#D1D7E0"/>
<stop offset="1" stop-color="#EBEBFF"/>
</linearGradient>
<linearGradient id="paint5_linear_61_6667" x1="228.163" y1="50.5655" x2="234.126" y2="50.5655" gradientUnits="userSpaceOnUse">
<stop stop-color="#D1D7E0"/>
<stop offset="1" stop-color="#EBEBFF"/>
</linearGradient>
<linearGradient id="paint6_linear_61_6667" x1="226.028" y1="50.5655" x2="228.512" y2="50.5655" gradientUnits="userSpaceOnUse">
<stop stop-color="#D1D7E0"/>
<stop offset="1" stop-color="#EBEBFF"/>
</linearGradient>
<linearGradient id="paint7_linear_61_6667" x1="211.04" y1="47.8397" x2="230.137" y2="47.8397" gradientUnits="userSpaceOnUse">
<stop stop-color="#D1D7E0"/>
<stop offset="1" stop-color="#EBEBFF"/>
</linearGradient>
<linearGradient id="paint8_linear_61_6667" x1="104.979" y1="1.1803" x2="112.812" y2="1.1803" gradientUnits="userSpaceOnUse">
<stop stop-color="#D1D7E0"/>
<stop offset="1" stop-color="#EBEBFF"/>
</linearGradient>
<linearGradient id="paint9_linear_61_6667" x1="104.979" y1="6.84267" x2="112.812" y2="6.84267" gradientUnits="userSpaceOnUse">
<stop stop-color="#D1D7E0"/>
<stop offset="1" stop-color="#EBEBFF"/>
</linearGradient>
<linearGradient id="paint10_linear_61_6667" x1="104.979" y1="12.5026" x2="112.812" y2="12.5026" gradientUnits="userSpaceOnUse">
<stop stop-color="#D1D7E0"/>
<stop offset="1" stop-color="#EBEBFF"/>
</linearGradient>
<linearGradient id="paint11_linear_61_6667" x1="116.046" y1="1.1803" x2="118.275" y2="1.1803" gradientUnits="userSpaceOnUse">
<stop stop-color="#D1D7E0"/>
<stop offset="1" stop-color="#EBEBFF"/>
</linearGradient>
<linearGradient id="paint12_linear_61_6667" x1="116.046" y1="6.84267" x2="118.275" y2="6.84267" gradientUnits="userSpaceOnUse">
<stop stop-color="#D1D7E0"/>
<stop offset="1" stop-color="#EBEBFF"/>
</linearGradient>
<linearGradient id="paint13_linear_61_6667" x1="116.046" y1="12.5026" x2="118.275" y2="12.5026" gradientUnits="userSpaceOnUse">
<stop stop-color="#D1D7E0"/>
<stop offset="1" stop-color="#EBEBFF"/>
</linearGradient>
<linearGradient id="paint14_linear_61_6667" x1="80.1635" y1="133.616" x2="90.8655" y2="133.616" gradientUnits="userSpaceOnUse">
<stop stop-color="#D1D7E0"/>
<stop offset="1" stop-color="#EBEBFF"/>
</linearGradient>
<linearGradient id="paint15_linear_61_6667" x1="76.3293" y1="133.616" x2="80.7898" y2="133.616" gradientUnits="userSpaceOnUse">
<stop stop-color="#D1D7E0"/>
<stop offset="1" stop-color="#EBEBFF"/>
</linearGradient>
</defs>
</svg>
