<svg width="134" height="134" viewBox="0 0 134 134" fill="none" xmlns="http://www.w3.org/2000/svg">
<g id="Frame" clip-path="url(#clip0_426_11763)">
<g id="Group">
<path id="Vector" opacity="0.5" d="M53.4789 133.226C53.4789 133.226 7.89065 131.244 5.3029 91.1653C2.7198 51.0863 -9.24623 12.9475 19.852 10.6723C48.9503 8.39706 117.172 3.97226 126.871 27.8503C136.571 51.733 141.421 141.634 53.4789 133.226Z" fill="url(#paint0_linear_426_11763)"/>
<g id="Group_2">
<g id="Group_3">
<path id="Vector_2" d="M144.521 117.274L20.9606 116.209V119.368C20.9606 120.224 21.5005 120.955 22.2312 121.085L57.1706 127.301C57.5848 127.376 58.0037 127.394 58.4225 127.362L143.176 120.271C143.935 120.206 144.517 119.475 144.517 118.596V117.274H144.521Z" fill="#BFC8D6"/>
<g id="Group_4">
<path id="Vector_3" d="M99.054 112.213L20.5232 117.991C19.1176 118.094 17.9773 116.996 17.9773 115.535V57.0725C17.9773 55.6115 19.1176 54.4297 20.5232 54.4297H99.054C100.213 54.4297 101.148 55.4998 101.148 56.8166V109.667C101.148 110.989 100.213 112.124 99.054 112.213Z" fill="#BFC8D6"/>
<path id="Vector_4" d="M100.306 112.213L21.7752 117.991C20.3696 118.094 19.2293 116.996 19.2293 115.535V57.0725C19.2293 55.6115 20.3696 54.4297 21.7752 54.4297H100.306C101.465 54.4297 102.4 55.4998 102.4 56.8166V109.667C102.4 110.989 101.465 112.124 100.306 112.213Z" fill="white"/>
<path id="Vector_5" d="M97.8579 108.486L24.7166 113.507C23.5717 113.586 22.6455 112.683 22.6455 111.492V60.3069C22.6455 59.1158 23.5764 58.148 24.7166 58.1387L97.8625 57.8223C98.8167 57.8176 99.5893 58.6924 99.5893 59.7811V106.402C99.5846 107.486 98.812 108.421 97.8579 108.486Z" fill="#D8DEE8"/>
<path id="Vector_6" d="M63.8122 56.0306C63.8122 56.5749 63.4073 57.017 62.9093 57.017C62.4113 57.017 62.0017 56.5796 62.0017 56.0352C62.0017 55.4908 62.4066 55.0488 62.9093 55.0488C63.4073 55.0488 63.8122 55.4862 63.8122 56.0306Z" fill="white"/>
<path id="Vector_7" opacity="0.48" d="M21.7751 117.991L99.9104 112.24L100.306 112.213C100.837 112.175 101.321 111.91 101.688 111.515C96.066 111.208 92.5753 109.211 90.3227 107.15C85.7987 103.009 86.5853 98.9288 81.703 96.207C75.6199 92.8104 70.8354 97.1143 66.2137 92.8709C63.4165 90.2979 64.7895 88.381 61.3454 84.5332C57.5289 80.2759 55.0482 81.7043 51.2131 77.875C46.3634 73.0268 48.7883 69.2581 44.6134 65.7778C39.545 61.5577 34.0856 65.4614 29.2591 61.4135C27.1787 59.6687 26.0384 57.1283 25.4427 54.4297H21.7751C20.3695 54.4297 19.2293 55.6115 19.2293 57.0725V115.535C19.2246 116.996 20.3695 118.094 21.7751 117.991Z" fill="white"/>
</g>
<path id="Vector_8" d="M104.006 111.892L20.9653 117.973L57.1706 124.422C57.5848 124.496 58.0037 124.515 58.4226 124.483L144.521 117.275L105.323 111.934C104.886 111.873 104.444 111.86 104.006 111.892Z" fill="url(#paint1_linear_426_11763)"/>
<path id="Vector_9" d="M33.0803 118.023L102.214 112.887L123.61 115.776L55.0715 121.271L33.0803 118.023Z" fill="#D8DEE8"/>
</g>
</g>
<g id="Group_5">
<path id="Vector_10" d="M109.33 21.1428C109.33 21.4127 109.339 21.6826 109.311 21.9478C109.297 22.0641 109.297 22.1758 109.279 22.2874C109.242 22.5108 109.204 22.7341 109.148 22.9528C109.121 23.0598 109.093 23.1715 109.065 23.2785C109.041 23.3483 109.023 23.4227 109 23.4925C108.446 25.1535 107.315 26.5959 105.807 27.6707C105.774 27.694 105.742 27.7172 105.709 27.7405C105.192 28.1034 104.629 28.4198 104.033 28.6897C103.996 28.7083 103.959 28.7222 103.922 28.7408C103.661 28.8572 103.391 28.9642 103.112 29.0572C102.996 29.0991 102.875 29.1363 102.754 29.1735C102.674 29.2015 102.595 29.2247 102.512 29.248C102.39 29.2852 102.269 29.3178 102.144 29.3457C102.06 29.3643 101.981 29.3876 101.897 29.4062C100.859 29.6435 99.7562 29.7505 98.6206 29.6993C98.5368 29.6947 98.453 29.69 98.3692 29.6853C98.346 29.6853 98.318 29.6807 98.2994 29.6807C98.2948 29.6807 98.2855 29.6807 98.2808 29.6807C98.2296 29.676 98.1738 29.676 98.1226 29.6667C98.0946 29.6621 98.0714 29.6621 98.0434 29.6621C97.9876 29.6574 97.9271 29.6528 97.8712 29.6435C97.848 29.6388 97.82 29.6388 97.7968 29.6342C97.7363 29.6295 97.6804 29.6202 97.6199 29.6156C97.5966 29.6109 97.578 29.6109 97.5548 29.6063C97.4942 29.5969 97.4291 29.5876 97.3639 29.5783C97.35 29.5737 97.3313 29.5737 97.3174 29.569C97.2476 29.5597 97.1778 29.5504 97.1126 29.5365C97.1033 29.5365 97.094 29.4388 97.0847 29.4388C97.0055 29.4248 96.9311 29.3038 96.852 29.3038C96.205 29.3038 95.5814 29.0991 94.9903 28.8804C94.9903 28.8804 94.9903 28.9269 94.9949 28.9269C94.8088 28.8572 94.6272 28.8106 94.4457 28.7315C94.2875 28.6617 94.1292 28.6012 93.9756 28.5268C93.9012 28.5873 93.8127 28.6571 93.715 28.7222C92.477 28.1918 91.3879 27.4613 90.5036 26.5819C90.606 26.4424 90.7084 26.2981 90.7968 26.1446C89.5215 24.6929 88.7722 22.9063 88.7722 21.0033C88.7722 16.4389 93.0774 12.6097 98.6159 12.4422C98.7974 12.4375 98.9278 12.4375 99.1046 12.4375C104.536 12.5073 109.097 16.1132 109.265 20.7567V20.7613C109.265 20.8218 109.265 20.8776 109.265 20.9381V20.966C109.274 21.0219 109.33 21.0824 109.33 21.1428Z" fill="url(#paint2_linear_426_11763)"/>
<g id="Group_6">
<path id="Vector_11" d="M108.646 21.1101C108.646 25.9815 103.931 29.7456 98.2855 29.6758C98.1552 29.6758 98.0248 29.6712 97.8899 29.6665C97.7689 29.6619 97.6525 29.6526 97.5315 29.6433C97.4105 29.634 97.2895 29.6247 97.1685 29.6107C97.1452 29.606 97.1173 29.606 97.094 29.6014C97.0149 29.5921 96.9404 29.5828 96.8613 29.5735C96.7868 29.5642 96.7124 29.5549 96.6332 29.5409C96.5262 29.5269 96.4145 29.5083 96.3074 29.4897C96.2423 29.4758 96.1771 29.4665 96.112 29.4525C95.465 29.3269 94.8414 29.1547 94.2503 28.9314C94.0687 28.8616 93.8919 28.7918 93.715 28.7174C92.477 28.1869 91.3879 27.4518 90.5036 26.5771C88.9584 25.0463 88.0369 23.0782 88.0369 20.9658C88.0369 16.4015 92.342 12.5722 97.8806 12.4047C98.3134 12.3908 98.7369 12.4001 99.1558 12.4326C103.661 12.7583 107.417 15.5221 108.39 19.2164C108.413 19.3094 108.436 19.4025 108.46 19.4956C108.464 19.5281 108.474 19.556 108.478 19.5886C108.492 19.6631 108.511 19.7375 108.525 19.8119C108.543 19.9236 108.562 20.0353 108.576 20.1469V20.1516C108.581 20.1935 108.585 20.2353 108.59 20.2772C108.595 20.3284 108.604 20.3842 108.609 20.4354C108.613 20.4959 108.618 20.5517 108.623 20.6122C108.623 20.6308 108.627 20.6494 108.627 20.6681C108.632 20.7378 108.632 20.803 108.637 20.8728C108.641 20.9565 108.646 21.0356 108.646 21.1101Z" fill="url(#paint3_linear_426_11763)"/>
<path id="Vector_12" d="M108.646 21.1101C108.646 25.9815 103.931 29.7456 98.2855 29.6758C98.1552 29.6758 98.0248 29.6712 97.8899 29.6665C97.7689 29.6619 97.6525 29.6526 97.5315 29.6433C97.4105 29.634 97.2895 29.6247 97.1685 29.6107C97.1452 29.606 97.1173 29.606 97.094 29.6014C97.0149 29.5921 96.9404 29.5828 96.8613 29.5735C96.7868 29.5642 96.7124 29.5549 96.6332 29.5409C96.5262 29.5269 96.4145 29.5083 96.3074 29.4897C96.2423 29.4758 96.1771 29.4665 96.112 29.4525C95.465 29.3269 94.8414 29.1547 94.2503 28.9314C94.0687 28.8616 93.8919 28.7918 93.715 28.7174C92.477 28.1869 91.3879 27.4518 90.5036 26.5771C88.9584 25.0463 88.0369 23.0782 88.0369 20.9658C88.0369 16.4015 92.342 12.5722 97.8806 12.4047C98.3134 12.3908 98.7369 12.4001 99.1558 12.4326C103.661 12.7583 107.417 15.5221 108.39 19.2164C108.413 19.3094 108.436 19.4025 108.46 19.4956C108.464 19.5281 108.474 19.556 108.478 19.5886C108.492 19.6631 108.511 19.7375 108.525 19.8119C108.543 19.9236 108.562 20.0353 108.576 20.1469V20.1516C108.581 20.1935 108.585 20.2353 108.59 20.2772C108.595 20.3284 108.604 20.3842 108.609 20.4354C108.613 20.4959 108.618 20.5517 108.623 20.6122C108.623 20.6308 108.627 20.6494 108.627 20.6681C108.632 20.7378 108.632 20.803 108.637 20.8728C108.641 20.9565 108.646 21.0356 108.646 21.1101Z" fill="url(#paint4_linear_426_11763)"/>
<g id="Group_7">
<path id="Vector_13" d="M92.2396 18.7288C92.6585 17.5423 93.6964 16.6862 94.9251 16.6723C96.5494 16.6537 97.8806 18.1007 97.8806 19.9013C97.8806 18.096 99.2303 16.6211 100.915 16.5978C102.223 16.5839 103.354 17.4493 103.815 18.6869C105.574 23.1675 97.8806 27.0945 97.8806 27.0945C97.8806 27.0945 90.6712 22.9396 92.2396 18.7288Z" fill="white"/>
</g>
<g id="Group_8" opacity="0.3">
<path id="Vector_14" d="M95.4185 27.3829C96.6379 24.889 95.4045 22.5068 97.0567 20.8876C98.7602 19.2173 101.013 20.7946 103.484 19.4127C104.452 18.873 105.541 17.8261 106.356 15.6719C107.785 17.1654 108.641 19.0544 108.641 21.111C108.641 26.0988 103.703 29.9233 97.8852 29.6628C96.5913 29.6069 95.3673 29.351 94.2502 28.9369C94.8041 28.4298 95.1671 27.8901 95.4185 27.3829Z" fill="url(#paint5_linear_426_11763)"/>
</g>
</g>
</g>
<g id="Group_9">
<path id="Vector_15" d="M115.748 41.4844C115.753 41.5169 115.753 41.5495 115.757 41.5821C115.757 41.61 115.762 41.6332 115.762 41.6612C115.767 41.6984 115.767 41.7356 115.767 41.7775C115.767 41.8007 115.767 41.8194 115.771 41.8426C115.771 41.9031 115.776 41.9636 115.776 42.0241C115.776 42.2893 115.757 42.5498 115.725 42.8057C115.664 43.2571 115.557 43.6944 115.399 44.1225C115.376 44.183 115.352 44.2435 115.329 44.3039C115.231 44.5459 115.12 44.7785 114.994 45.0112C114.71 45.5276 114.356 46.0208 113.942 46.4721C113.849 46.5745 113.756 46.6722 113.658 46.7699C113.561 46.8676 113.458 46.9653 113.356 47.0584C112.942 47.4353 112.481 47.7796 111.983 48.0866C111.922 48.1239 111.857 48.1611 111.797 48.203C111.671 48.2774 111.541 48.3519 111.41 48.4216C110.95 48.6682 110.466 48.8869 109.958 49.073C109.814 49.1242 109.665 49.1754 109.516 49.2219C109.367 49.2685 109.218 49.315 109.065 49.3569C108.911 49.3987 108.757 49.4406 108.604 49.4732C107.752 49.6732 106.854 49.7849 105.928 49.7989C105.849 49.7989 105.769 49.7989 105.69 49.7989C105.667 49.7989 105.639 49.7989 105.616 49.7989C105.56 49.7989 105.509 49.7989 105.453 49.7942C105.425 49.7942 105.397 49.7942 105.365 49.7896C105.313 49.7896 105.267 49.7849 105.216 49.7849C105.188 49.7849 105.155 49.7803 105.127 49.7803C105.076 49.7756 105.029 49.7756 104.978 49.7709C104.95 49.7709 104.922 49.7663 104.894 49.7663C104.843 49.7616 104.797 49.757 104.746 49.757C104.718 49.757 104.694 49.7523 104.666 49.7523C104.615 49.7477 104.564 49.743 104.513 49.7384C104.49 49.7337 104.466 49.7337 104.438 49.7291C104.382 49.7244 104.327 49.7151 104.275 49.7105C104.257 49.7058 104.234 49.7058 104.215 49.7012C104.154 49.6919 104.094 49.6872 104.033 49.6779C104.019 49.6779 104.005 49.6732 103.992 49.6732C103.922 49.6639 103.852 49.6546 103.782 49.6407C103.777 49.6407 103.773 49.6407 103.768 49.6407C103.326 49.5662 102.898 49.4732 102.484 49.3522C98.9417 48.3379 96.4703 45.7137 96.4703 42.5964C96.4703 38.5485 100.654 35.0728 105.923 34.8355C111.01 34.6029 115.269 37.4551 115.729 41.3262C115.734 41.3494 115.734 41.3773 115.739 41.4006C115.743 41.4239 115.743 41.4518 115.748 41.4844Z" fill="url(#paint6_linear_426_11763)"/>
<g id="Group_10">
<path id="Vector_16" d="M95.842 42.5925C95.842 46.6404 99.933 49.8648 105.09 49.795C110.363 49.7205 114.724 46.2403 114.724 42.0202C114.724 37.8001 110.363 34.5851 105.09 34.8316C99.933 35.0689 95.842 38.5399 95.842 42.5925Z" fill="url(#paint7_linear_426_11763)"/>
<path id="Vector_17" d="M102.339 38.373V45.5336C102.339 45.9942 102.73 46.2827 103.065 46.0687L109.065 42.3046C109.437 42.0719 109.437 41.4066 109.065 41.1926L103.065 37.7914C102.73 37.6006 102.339 37.9124 102.339 38.373Z" fill="white"/>
<g id="Group_11" opacity="0.3">
<path id="Vector_18" d="M102.809 47.9289C103.94 45.7049 102.795 43.6763 104.327 42.206C105.89 40.7032 107.938 41.992 110.163 40.7311C111.029 40.2379 111.997 39.3213 112.718 37.4648C113.975 38.6978 114.724 40.2751 114.724 42.0199C114.724 46.24 110.363 49.7203 105.09 49.7947C103.898 49.8133 102.767 49.6505 101.725 49.348C102.237 48.8688 102.577 48.3849 102.809 47.9289Z" fill="url(#paint8_linear_426_11763)"/>
</g>
</g>
</g>
<g id="Group_12">
<path id="Vector_19" d="M74.5954 11.7778C78.3747 11.8942 81.5489 14.2019 82.1679 17.1192C82.1679 17.1239 82.1679 17.1285 82.1725 17.1285C82.2051 17.2867 82.233 17.4496 82.2517 17.6124C82.2517 17.6217 82.2563 17.6357 82.2563 17.645C82.2656 17.7194 82.2703 17.7985 82.2749 17.873C82.2749 17.8869 82.2749 17.9009 82.2749 17.9149C82.2796 17.994 82.2796 18.073 82.2796 18.1521C82.2796 21.544 78.8168 24.117 74.5954 23.8983C74.4837 23.8937 74.372 23.8844 74.2603 23.8751C74.251 23.8751 74.2371 23.8751 74.2278 23.8704C74.1207 23.8611 74.0183 23.8518 73.9159 23.8378C73.902 23.8378 73.8833 23.8332 73.8694 23.8332C73.767 23.8192 73.6693 23.8053 73.5715 23.7913C73.5529 23.7867 73.5343 23.7867 73.5157 23.782C73.4179 23.768 73.3202 23.7494 73.2271 23.7308C73.2085 23.7262 73.1899 23.7215 73.1666 23.7169C73.0689 23.6983 72.9758 23.675 72.8827 23.6517C72.8641 23.6471 72.8455 23.6424 72.8268 23.6378C72.7337 23.6145 72.6407 23.5912 72.5476 23.5633C72.529 23.5587 72.515 23.554 72.4964 23.5494C72.4126 23.5261 72.3335 23.5028 72.2497 23.4749C72.2311 23.4703 72.2078 23.461 72.1892 23.4563C72.1054 23.4284 72.0263 23.4005 71.9425 23.3726C71.9239 23.3679 71.9053 23.3586 71.8913 23.354C69.0895 22.3443 67.1161 20.0691 67.1161 17.524C67.1114 14.2299 70.4392 11.6522 74.5954 11.7778Z" fill="url(#paint9_linear_426_11763)"/>
<g id="Group_13">
<path id="Vector_20" d="M66.3109 17.5329C66.3109 20.8364 69.6387 23.6885 73.7949 23.9072C78.0117 24.1259 81.4791 21.5529 81.4791 18.161C81.4791 14.7692 78.0163 11.9077 73.7949 11.7821C69.6387 11.6518 66.3109 14.2294 66.3109 17.5329Z" fill="url(#paint10_linear_426_11763)"/>
<path id="Vector_21" d="M71.0955 16.4957C71.0955 17.4681 72.2264 19.7759 73.0223 21.2834C73.3528 21.9115 74.2324 21.9534 74.5629 21.3578C75.368 19.9155 76.513 17.6868 76.513 16.7097C76.513 15.1976 75.2889 13.932 73.7903 13.8808C72.3009 13.825 71.0955 14.9975 71.0955 16.4957ZM72.3428 16.5422C72.3428 15.7373 72.9944 15.1045 73.7949 15.1371C74.6001 15.165 75.2563 15.8489 75.2563 16.6585C75.2563 17.4681 74.6001 18.0962 73.7949 18.0637C72.9944 18.0311 72.3428 17.3471 72.3428 16.5422Z" fill="white"/>
<g id="Group_14" opacity="0.3">
<path id="Vector_22" d="M71.9611 22.2735C72.8734 20.5287 71.9518 18.8211 73.1805 17.7137C74.4372 16.5878 76.0755 17.751 77.8534 16.8576C78.5422 16.5133 79.3102 15.8247 79.8826 14.373C80.8786 15.4385 81.4744 16.7553 81.4744 18.1558C81.4744 21.5476 78.0116 24.1206 73.7902 23.9019C72.8315 23.8508 71.9192 23.6646 71.0815 23.3622C71.5004 23.0086 71.775 22.6317 71.9611 22.2735Z" fill="url(#paint11_linear_426_11763)"/>
</g>
</g>
</g>
<g id="Group_15">
<path id="Vector_23" d="M74.582 39.1521L100.036 65.4682C99.6358 65.9195 98.9842 65.9288 98.3465 65.8869L38.2604 61.8809C37.6972 61.8437 37.176 61.5692 36.7711 61.1504L70.2257 38.5053C71.5568 37.612 73.3347 37.8726 74.582 39.1521Z" fill="url(#paint12_linear_426_11763)"/>
<g id="Group_16">
<path id="Vector_24" d="M75.0242 88.2074L100.138 65.5995C99.7475 65.1063 99.189 64.7806 98.556 64.7388L38.4466 61.1049C37.8741 61.0724 37.3435 61.2771 36.934 61.6447L70.6771 88.3237C72.0083 89.3752 73.7815 89.324 75.0242 88.2074Z" fill="url(#paint13_linear_426_11763)"/>
<path id="Vector_25" d="M75.0242 88.2065C73.7815 89.3232 72.0082 89.3743 70.6818 88.3275L36.9386 61.6484C36.4406 62.0951 36.1194 62.7837 36.1194 63.5607V106.818C36.1194 108.274 37.2365 109.446 38.5443 109.363L98.6537 105.464C99.8219 105.389 100.72 104.319 100.72 103.016V67.2829C100.72 66.6409 100.501 66.05 100.143 65.6033L75.0242 88.2065Z" fill="url(#paint14_linear_426_11763)"/>
</g>
<g id="Group_17">
<path id="Vector_26" d="M97.532 64.7159L37.4133 61.0821C36.1381 61.003 35.0815 62.115 35.0815 63.5341V106.796C35.0815 108.252 36.1986 109.424 37.5064 109.341L97.6205 105.442C98.7887 105.367 99.6869 104.297 99.6869 102.994V67.2563C99.6916 65.9117 98.7375 64.7857 97.532 64.7159Z" fill="url(#paint15_linear_426_11763)"/>
</g>
<path id="Vector_27" d="M97.8951 105.087V37.1242C97.8951 34.8211 97.2435 32.6064 96.038 30.6522L36.9479 25.4551L36.0682 26.2926C37.3249 28.2421 38.0696 30.5033 38.0696 32.867V106.399L97.8951 105.087Z" fill="#D8DEE8"/>
<path id="Vector_28" d="M99.04 104.306V36.2867C99.04 32.2388 98.272 31.7642 97.0619 29.8147L36.9479 25.4551C38.2045 27.4046 38.884 29.6705 38.884 32.0341V105.618L99.04 104.306Z" fill="url(#paint16_linear_426_11763)"/>
<g id="Group_18">
<path id="Vector_29" d="M100.711 67.2786V103.012C100.711 104.319 99.8126 105.385 98.6491 105.459L94.8838 105.701L38.5908 109.354C37.283 109.437 36.2125 108.265 36.2125 106.809V63.5564C36.2125 63.5052 36.1706 63.4587 36.1706 63.4121C36.1753 63.3516 36.1567 63.2912 36.1613 63.2307C36.166 63.1981 36.1567 63.1655 36.166 63.133C36.166 63.1283 36.1613 63.1237 36.1613 63.119C36.1706 63.0725 36.1753 63.0306 36.1846 62.9887C36.1939 62.9515 36.1986 62.9096 36.2079 62.8724C36.2218 62.8119 36.2405 62.7514 36.2591 62.6909C36.2963 62.5746 36.3429 62.4676 36.394 62.3606C36.4173 62.3094 36.4452 62.2629 36.4732 62.2164C36.4918 62.1838 36.5104 62.1559 36.529 62.1233C36.5523 62.0861 36.5756 62.0535 36.6035 62.0163C36.6268 61.9791 36.6547 61.9465 36.6826 61.9139C36.7105 61.8814 36.7385 61.8488 36.7664 61.8162C36.799 61.779 36.8315 61.7464 36.8641 61.7092C36.8874 61.6813 36.9153 61.658 36.9432 61.6348L70.6864 88.3184C72.0129 89.3653 73.7861 89.3188 75.0288 88.1975L100.143 65.5896C100.325 65.813 100.469 66.0735 100.567 66.362C100.595 66.4318 100.613 66.5062 100.632 66.5807C100.641 66.6179 100.65 66.6551 100.66 66.6877C100.669 66.7203 100.674 66.7528 100.678 66.7854C100.688 66.8226 100.692 66.8645 100.697 66.9017C100.702 66.9436 100.706 66.9808 100.706 67.0227C100.711 67.1111 100.711 67.1948 100.711 67.2786Z" fill="url(#paint17_linear_426_11763)"/>
</g>
<path id="Vector_30" opacity="0.37" d="M100.711 67.2786V103.012C100.711 104.319 99.8126 105.385 98.6491 105.459L94.8838 105.701C94.2927 103.961 93.3758 102.356 91.9423 101.323C87.1997 97.9032 81.4936 104.096 75.8992 100.686C71.9059 98.2475 73.4557 94.26 68.6107 90.7612C64.0169 87.4437 61.2477 90.0214 58.0316 86.569C54.9412 83.2469 56.4864 79.776 52.9585 76.6725C51.1294 75.058 50.6919 75.9746 46.5403 73.7134C42.0955 71.2939 41.5835 69.6701 39.2611 69.4049C38.4187 69.3072 37.2132 69.3956 36.2079 69.94V63.5564C36.2079 63.5052 36.166 63.4587 36.166 63.4121C36.1707 63.3516 36.152 63.2912 36.1567 63.2307C36.1614 63.1981 36.152 63.1655 36.1614 63.133C36.1614 63.1283 36.1567 63.1237 36.1567 63.119C36.166 63.0725 36.1707 63.0306 36.18 62.9887C36.1893 62.9515 36.1939 62.9096 36.2032 62.8724C36.2172 62.8119 36.2358 62.7514 36.2544 62.6909C36.2917 62.5746 36.3382 62.4676 36.3894 62.3606C36.4127 62.3094 36.4406 62.2629 36.4685 62.2164C36.4871 62.1838 36.5058 62.1559 36.5244 62.1233C36.5477 62.0861 36.5709 62.0535 36.5989 62.0163C36.6221 61.9791 36.65 61.9465 36.678 61.9139C36.7059 61.8814 36.7338 61.8488 36.7617 61.8162C36.7943 61.779 36.8269 61.7464 36.8595 61.7092C36.8828 61.6813 36.9107 61.658 36.9386 61.6348L70.6818 88.3184C72.0082 89.3653 73.7815 89.3188 75.0242 88.1975L100.138 65.5896C100.315 65.8176 100.46 66.0782 100.562 66.362C100.585 66.4318 100.609 66.5062 100.627 66.5807C100.636 66.6179 100.646 66.6551 100.655 66.6877C100.664 66.7203 100.669 66.7528 100.674 66.7854C100.683 66.8226 100.688 66.8645 100.692 66.9017C100.697 66.9436 100.702 66.9808 100.702 67.0227C100.711 67.1111 100.711 67.1948 100.711 67.2786Z" fill="url(#paint18_linear_426_11763)"/>
<g id="Group_19">
<path id="Vector_31" d="M89.7641 54.2137C89.7641 56.6146 89.3964 58.8014 88.661 60.7742C87.921 62.7516 86.8785 64.2917 85.5241 65.399C84.165 66.511 82.5826 67.0508 80.7768 67.0135C79.5667 66.9903 78.4915 66.6692 77.556 66.0504C76.6159 65.4316 75.941 64.622 75.5268 63.631L75.1312 63.6217C73.3393 65.7712 71.0494 66.8228 68.2522 66.7669C65.2689 66.7064 62.8999 65.7433 61.1592 63.8729C59.4138 61.9932 58.5388 59.4528 58.5388 56.2517C58.5388 52.6039 59.6884 49.7099 61.9783 47.5789C64.2589 45.4572 67.2143 44.4848 70.84 44.6523C72.2735 44.7174 73.8513 44.9314 75.564 45.2851C77.2721 45.6433 78.673 46.0388 79.7668 46.4762L79.2036 58.8339C79.2036 61.1789 79.8273 62.3701 81.0653 62.4026C82.1079 62.4305 82.9363 61.6628 83.5553 60.1088C84.1697 58.5548 84.4769 56.5169 84.4769 53.9811C84.4769 51.2778 83.9323 48.8724 82.8479 46.7507C81.7588 44.6244 80.2183 42.9633 78.2309 41.7676C76.2296 40.5671 73.935 39.8971 71.3426 39.7669C67.959 39.5947 64.9989 40.153 62.467 41.4558C59.9211 42.7633 57.9617 44.7453 56.5887 47.3928C55.2157 50.0495 54.5269 53.1669 54.5269 56.7262C54.5269 61.5186 55.8022 65.2269 58.348 67.8324C60.8753 70.424 64.5149 71.7454 69.2343 71.8105C71.0075 71.8338 72.9483 71.6617 75.0567 71.2941C77.1511 70.9265 79.2036 70.3821 81.2143 69.6563V74.5045C77.7096 76.0027 73.7861 76.7425 69.4344 76.7053C63.0162 76.6494 57.9478 74.8767 54.2756 71.3639C50.5708 67.8231 48.7091 62.9284 48.7091 56.703C48.7091 52.3852 49.6632 48.5001 51.5622 45.0664C53.4518 41.6466 56.1326 39.0364 59.5814 37.2358C63.0069 35.4491 66.9118 34.686 71.2914 34.9373C74.945 35.1467 78.1844 36.0912 81.0188 37.7662C83.8299 39.4319 85.9895 41.6885 87.5021 44.536C89.0148 47.3695 89.7641 50.5985 89.7641 54.2137ZM64.4823 56.5401C64.4823 60.1646 65.9391 62.0118 68.834 62.0862C70.342 62.1235 71.4869 61.6117 72.2688 60.5508C73.0507 59.4946 73.5255 57.7499 73.6884 55.3258L74.0142 49.7052C73.1671 49.4865 72.213 49.3516 71.1425 49.3097C69.0528 49.226 67.4145 49.8262 66.2462 51.1196C65.0734 52.4178 64.4823 54.223 64.4823 56.5401Z" fill="url(#paint19_linear_426_11763)"/>
</g>
</g>
</g>
</g>
<defs>
<linearGradient id="paint0_linear_426_11763" x1="66.3124" y1="133.779" x2="66.3124" y2="8.79875" gradientUnits="userSpaceOnUse">
<stop stop-color="#018543"/>
<stop offset="1" stop-color="#018543" stop-opacity="0"/>
</linearGradient>
<linearGradient id="paint1_linear_426_11763" x1="20.9643" y1="118.185" x2="144.523" y2="118.185" gradientUnits="userSpaceOnUse">
<stop offset="0.494" stop-color="#EBEFF2"/>
<stop offset="1" stop-color="white"/>
</linearGradient>
<linearGradient id="paint2_linear_426_11763" x1="113.894" y1="-15.9351" x2="83.0552" y2="61.1848" gradientUnits="userSpaceOnUse">
<stop stop-color="#311944"/>
<stop offset="1" stop-color="#893976"/>
</linearGradient>
<linearGradient id="paint3_linear_426_11763" x1="94.5115" y1="13.9205" x2="108.701" y2="40.2467" gradientUnits="userSpaceOnUse">
<stop stop-color="#FF9085"/>
<stop offset="1" stop-color="#FB6FBB"/>
</linearGradient>
<linearGradient id="paint4_linear_426_11763" x1="94.5115" y1="13.9205" x2="108.701" y2="40.2467" gradientUnits="userSpaceOnUse">
<stop stop-color="#FF9085"/>
<stop offset="1" stop-color="#FB6FBB"/>
</linearGradient>
<linearGradient id="paint5_linear_426_11763" x1="105.975" y1="15.4244" x2="92.066" y2="43.3445" gradientUnits="userSpaceOnUse">
<stop stop-color="#FF9085"/>
<stop offset="1" stop-color="#FB6FBB"/>
</linearGradient>
<linearGradient id="paint6_linear_426_11763" x1="99.5449" y1="34.772" x2="106.044" y2="42.2124" gradientUnits="userSpaceOnUse">
<stop stop-color="#FFC444"/>
<stop offset="0.9964" stop-color="#F36F56"/>
</linearGradient>
<linearGradient id="paint7_linear_426_11763" x1="108.718" y1="35.9388" x2="96.0332" y2="59.473" gradientUnits="userSpaceOnUse">
<stop stop-color="#FFC444"/>
<stop offset="0.9964" stop-color="#F36F56"/>
</linearGradient>
<linearGradient id="paint8_linear_426_11763" x1="112.253" y1="37.1856" x2="99.7455" y2="62.2936" gradientUnits="userSpaceOnUse">
<stop stop-color="#FFC444"/>
<stop offset="0.9964" stop-color="#F36F56"/>
</linearGradient>
<linearGradient id="paint9_linear_426_11763" x1="66.993" y1="16.0277" x2="78.4701" y2="18.7397" gradientUnits="userSpaceOnUse">
<stop stop-color="#311944"/>
<stop offset="1" stop-color="#893976"/>
</linearGradient>
<linearGradient id="paint10_linear_426_11763" x1="76.559" y1="12.912" x2="66.724" y2="31.1587" gradientUnits="userSpaceOnUse">
<stop offset="0.00359712" stop-color="#E38DDD"/>
<stop offset="1" stop-color="#9571F6"/>
</linearGradient>
<linearGradient id="paint11_linear_426_11763" x1="79.443" y1="14.1168" x2="69.8054" y2="33.4633" gradientUnits="userSpaceOnUse">
<stop stop-color="#FF9085"/>
<stop offset="1" stop-color="#FB6FBB"/>
</linearGradient>
<linearGradient id="paint12_linear_426_11763" x1="61.2062" y1="52.1425" x2="100.679" y2="113.433" gradientUnits="userSpaceOnUse">
<stop stop-color="#FFC444"/>
<stop offset="0.9964" stop-color="#F36F56"/>
</linearGradient>
<linearGradient id="paint13_linear_426_11763" x1="67.7942" y1="79.9169" x2="70.2414" y2="26.4341" gradientUnits="userSpaceOnUse">
<stop stop-color="#FFC444"/>
<stop offset="0.9964" stop-color="#F36F56"/>
</linearGradient>
<linearGradient id="paint14_linear_426_11763" x1="62.0282" y1="72.8957" x2="86.0835" y2="126.189" gradientUnits="userSpaceOnUse">
<stop stop-color="#FFC444"/>
<stop offset="0.9964" stop-color="#F36F56"/>
</linearGradient>
<linearGradient id="paint15_linear_426_11763" x1="48.224" y1="85.2945" x2="21.4499" y2="88.1373" gradientUnits="userSpaceOnUse">
<stop stop-color="#FFC444"/>
<stop offset="0.9964" stop-color="#F36F56"/>
</linearGradient>
<linearGradient id="paint16_linear_426_11763" x1="80.1902" y1="39.6676" x2="43.5965" y2="115.368" gradientUnits="userSpaceOnUse">
<stop stop-color="white"/>
<stop offset="0.9964" stop-color="#EBEFF2"/>
</linearGradient>
<linearGradient id="paint17_linear_426_11763" x1="62.0865" y1="72.9352" x2="86.1091" y2="126.156" gradientUnits="userSpaceOnUse">
<stop stop-color="#FFC444"/>
<stop offset="0.9964" stop-color="#F36F56"/>
</linearGradient>
<linearGradient id="paint18_linear_426_11763" x1="69.0949" y1="69.7063" x2="93.1495" y2="122.998" gradientUnits="userSpaceOnUse">
<stop stop-color="#FFC444"/>
<stop offset="0.9964" stop-color="#F36F56"/>
</linearGradient>
<linearGradient id="paint19_linear_426_11763" x1="48.7159" y1="55.7941" x2="89.7656" y2="55.7941" gradientUnits="userSpaceOnUse">
<stop stop-color="#018543"/>
<stop offset="0.9964" stop-color="#015C2E"/>
</linearGradient>
<clipPath id="clip0_426_11763">
<rect width="134" height="134" fill="white"/>
</clipPath>
</defs>
</svg>
