<svg width="28" height="28" viewBox="0 0 28 28" fill="none" xmlns="http://www.w3.org/2000/svg">
<path d="M14.0009 28.0003C21.7325 28.0003 28.0003 21.7325 28.0003 14.0009C28.0003 6.26921 21.7325 0.00146484 14.0009 0.00146484C6.26921 0.00146484 0.00146484 6.26921 0.00146484 14.0009C0.00146484 21.7325 6.26921 28.0003 14.0009 28.0003Z" fill="white"/>
<path d="M27.1996 9.33209H18.5737C18.9484 12.3227 18.9506 15.618 18.581 18.6123H27.218C27.7359 17.1298 28 15.5705 27.9994 14.0001C27.9996 12.3625 27.716 10.7921 27.1996 9.33209Z" fill="#EFECEC"/>
<path d="M18.5738 9.33211H27.1995C27.1983 9.32796 27.1968 9.32389 27.195 9.31993C25.4034 4.26784 20.7944 0.550839 15.2568 0.0574341C17.4 1.2321 18.026 4.95377 18.5738 9.33211Z" fill="#429945"/>
<path d="M15.2573 27.9418C20.8048 27.4475 25.4202 23.7177 27.205 18.6521C27.2096 18.6386 27.2136 18.6253 27.2184 18.6123H18.5813C18.0377 23.0143 17.409 26.7623 15.2573 27.9418Z" fill="#0B0B0B"/>
<path d="M0 14C0 15.6166 0.277647 17.1677 0.781397 18.6123H19.3018C19.6719 15.6177 19.6692 12.3227 19.295 9.33203H0.800017C0.283618 10.7921 0 12.3625 0 14Z" fill="#EFEFEF"/>
<path d="M0.804238 9.31995C0.802894 9.32406 0.801415 9.32812 0.799805 9.33213H19.2948C18.7466 4.95373 17.3999 1.23212 15.2571 0.0574565C14.8426 0.0207482 14.4235 6.73746e-10 13.9996 6.73746e-10C7.90934 -5.9111e-05 2.73027 3.88955 0.804238 9.31995Z" fill="#49A948"/>
<path d="M19.3017 18.6123H0.78125C0.78592 18.6254 0.790294 18.6386 0.794727 18.6521C2.71308 24.0964 7.89959 27.9998 13.9996 27.9998C14.4236 27.9998 14.8427 27.979 15.2571 27.9418C17.4091 26.7623 18.7581 23.0144 19.3017 18.6123Z" fill="#151515"/>
<path d="M0 14C0 19.8276 3.56224 24.8225 8.62746 26.9298V1.06982C3.56224 3.17668 0 8.17162 0 14Z" fill="#E73B36"/>
</svg>
