<svg width="44" height="44" viewBox="0 0 44 44" fill="none" xmlns="http://www.w3.org/2000/svg">
<g id="Frame" clip-path="url(#clip0_251_15341)">
<g id="Group">
<g id="Group_2">
<path id="Vector" d="M37.5563 37.5552C46.1477 28.9638 46.1477 15.0343 37.5563 6.44282C28.9648 -2.14863 15.0353 -2.14863 6.44389 6.44282C-2.14756 15.0343 -2.14756 28.9638 6.44389 37.5552C15.0353 46.1467 28.9648 46.1467 37.5563 37.5552Z" fill="white"/>
<path id="Vector_2" d="M22.0003 43.2701C33.7473 43.2701 43.2701 33.7473 43.2701 22.0003C43.2701 10.2533 33.7473 0.730469 22.0003 0.730469C10.2533 0.730469 0.730469 10.2533 0.730469 22.0003C0.730469 33.7473 10.2533 43.2701 22.0003 43.2701Z" fill="url(#paint0_linear_251_15341)"/>
<path id="Vector_3" d="M39.5329 13.387C39.5643 13.387 39.6035 13.3791 39.6349 13.3634C39.7449 13.3084 39.792 13.175 39.737 13.065C36.3373 6.32842 29.5379 2.14355 22.0004 2.14355C20.7991 2.14355 19.59 2.25348 18.4201 2.46547C18.2945 2.48902 18.216 2.6068 18.2395 2.72457C18.2631 2.85019 18.3808 2.92871 18.4986 2.90515C19.6449 2.69316 20.8227 2.59109 22.0004 2.59109C29.373 2.59109 36.0154 6.68174 39.3366 13.2692C39.3758 13.3477 39.4544 13.387 39.5329 13.387Z" fill="white"/>
<path id="Vector_4" d="M34.2671 35.1927C41.2979 28.162 41.2979 16.7628 34.2671 9.73208C27.2364 2.70132 15.8373 2.70132 8.80649 9.73208C1.77573 16.7628 1.77573 28.162 8.80649 35.1927C15.8373 42.2235 27.2364 42.2235 34.2671 35.1927Z" fill="white"/>
</g>
<g id="Group_3">
<path id="Vector_5" d="M22.6515 25.965L20.6179 25.9179C20.0526 25.9022 19.5815 25.4154 19.5501 24.8501L18.8042 10.4975C18.7885 10.1992 18.8984 9.95576 19.0947 9.75947C19.2989 9.56319 19.5815 9.49252 19.872 9.51608L23.3817 9.75947C23.6722 9.78303 23.947 9.87725 24.1433 10.0971C24.3395 10.3248 24.4416 10.5917 24.4259 10.8822L23.6957 24.9679C23.6722 25.5254 23.2089 25.9729 22.6515 25.965Z" fill="url(#paint1_linear_251_15341)"/>
<path id="Vector_6" d="M19.5028 29.4667C20.0132 28.9799 20.7277 28.7443 21.6463 28.76C22.5964 28.7757 23.3108 29.027 23.8055 29.5059C24.3001 29.9849 24.5435 30.6915 24.5435 31.6258C24.5435 32.5209 24.2923 33.2118 23.7898 33.7065C23.2873 34.2011 22.5728 34.4445 21.6463 34.4445C20.7355 34.4445 20.021 34.1933 19.5107 33.6751C18.9925 33.1647 18.7334 32.4659 18.7334 31.5709C18.7412 30.6601 18.9925 29.9534 19.5028 29.4667Z" fill="url(#paint2_linear_251_15341)"/>
</g>
</g>
</g>
<defs>
<linearGradient id="paint0_linear_251_15341" x1="35.7419" y1="-31.47" x2="15.7953" y2="46.1376" gradientUnits="userSpaceOnUse">
<stop stop-color="#FDF53F"/>
<stop offset="1" stop-color="#D93C65"/>
</linearGradient>
<linearGradient id="paint1_linear_251_15341" x1="92.4931" y1="-68.4331" x2="61.3728" y2="-30.81" gradientUnits="userSpaceOnUse">
<stop stop-color="#FDF53F"/>
<stop offset="1" stop-color="#D93C65"/>
</linearGradient>
<linearGradient id="paint2_linear_251_15341" x1="99.5521" y1="-62.5939" x2="68.4317" y2="-24.9708" gradientUnits="userSpaceOnUse">
<stop stop-color="#FDF53F"/>
<stop offset="1" stop-color="#D93C65"/>
</linearGradient>
<clipPath id="clip0_251_15341">
<rect width="44" height="44" fill="white"/>
</clipPath>
</defs>
</svg>
