<svg width="243" height="240" viewBox="0 0 243 240" fill="none" xmlns="http://www.w3.org/2000/svg">
<g clip-path="url(#clip0_352_11052)">
<path opacity="0.3" d="M213.694 206.109C169.766 252.274 102.29 238.62 92.3149 236.426C79.7492 233.657 49.8497 227.083 27.5413 201.103C-6.61849 161.34 -3.16723 99.1887 23.2121 57.283C30.8893 45.0945 56.7178 8.85446 105.225 0.977317C108.056 0.51446 158.715 -6.88268 199.468 27.1802C204.959 31.7745 213.832 40.0887 221.604 52.1916C245.72 89.7602 257.132 160.457 213.694 206.109Z" fill="url(#paint0_linear_352_11052)"/>
<path d="M118.514 12.403C119.013 9.98585 121.543 8.56299 123.876 9.38585C139.367 14.8887 192.806 33.0601 238.886 39.1116C240.986 39.3858 242.449 41.323 242.122 43.4144L215.313 214.697C214.942 217.046 212.748 218.657 210.381 218.306C191.068 215.426 111.611 203.289 84.2161 194.486C82.5464 193.946 81.5566 192.249 81.9095 190.543L118.514 12.403Z" fill="url(#paint1_linear_352_11052)"/>
<path opacity="0.6" d="M119.495 17.04C119.976 14.7085 122.404 13.3457 124.658 14.1428C139.565 19.44 190.99 36.9257 235.34 42.7543C237.363 43.02 238.774 44.88 238.456 46.8943L212.661 211.731C212.309 213.994 210.191 215.546 207.919 215.203C189.337 212.434 112.867 200.751 86.5052 192.274C84.9044 191.76 83.9491 190.123 84.2847 188.477L119.495 17.04Z" fill="white"/>
<path opacity="0.78" d="M134.014 30.6341C132.637 30.2912 131.269 31.1998 131.036 32.5884L125.27 67.877C125.081 69.0512 125.829 70.1741 126.983 70.4484C133.446 71.9912 153.586 76.7398 165.153 78.5398C166.461 78.7455 167.701 77.9141 168.019 76.637C169.62 70.1312 174.138 51.1541 174.328 42.8655C174.362 41.5284 173.45 40.3455 172.142 40.0284L134.014 30.6341Z" fill="white"/>
<path d="M150.496 57.4118C154.755 57.4118 158.207 53.9733 158.207 49.7318C158.207 45.4902 154.755 42.0518 150.496 42.0518C146.237 42.0518 142.784 45.4902 142.784 49.7318C142.784 53.9733 146.237 57.4118 150.496 57.4118Z" fill="url(#paint2_linear_352_11052)"/>
<path d="M134.376 69.3773L158.405 74.4258C159.877 74.7344 161.108 73.303 160.574 71.8972C159.206 68.2887 155.927 62.7172 148.482 61.3801C141.313 60.0858 136.192 63.4201 133.429 66.0001C132.25 67.0972 132.801 69.0515 134.376 69.3773Z" fill="url(#paint3_linear_352_11052)"/>
<g opacity="0.6">
<path d="M226.501 55.8088C227.25 55.9631 227.964 55.5688 228.085 54.9174C228.205 54.266 227.689 53.5974 226.931 53.426L184.965 43.8345C184.217 43.6631 183.683 44.1431 183.786 44.906L183.864 45.5145C183.967 46.2774 184.664 47.0231 185.413 47.186L226.501 55.8088Z" fill="white"/>
</g>
<g opacity="0.6">
<path d="M183.588 50.3492C182.84 50.1777 182.306 50.6577 182.409 51.4206L182.487 52.0292C182.59 52.792 183.287 53.5377 184.036 53.7006L225.115 62.3235C225.864 62.4777 226.579 62.0835 226.699 61.432C226.82 60.7806 226.303 60.112 225.546 59.9406L183.588 50.3492Z" fill="white"/>
</g>
<g opacity="0.6">
<path d="M182.194 56.9576C181.446 56.7861 180.912 57.2661 181.015 58.029L181.093 58.6376C181.196 59.4004 181.893 60.1461 182.642 60.309L223.721 68.9319C224.47 69.0861 225.185 68.6919 225.305 68.0404C225.426 67.389 224.909 66.7204 224.152 66.549L182.194 56.9576Z" fill="white"/>
</g>
<g opacity="0.6">
<path d="M221.07 101.666C221.819 101.82 222.516 101.417 222.611 100.766C222.705 100.114 222.163 99.4458 221.414 99.2829L122.894 77.7944C122.145 77.6315 121.81 78.0601 122.154 78.7372L122.748 79.9115C123.092 80.5972 123.987 81.2829 124.745 81.4458L221.07 101.666Z" fill="white"/>
</g>
<g opacity="0.6">
<path d="M121.517 84.309C120.768 84.1461 120.433 84.5747 120.777 85.2519L121.371 86.4261C121.715 87.1119 122.61 87.7976 123.368 87.9604L219.693 108.18C220.442 108.335 221.139 107.932 221.234 107.28C221.328 106.629 220.786 105.96 220.037 105.798L121.517 84.309Z" fill="white"/>
</g>
<path opacity="0.6" d="M118.763 95.0916C121.173 95.4087 125.631 96.2573 128.084 96.7373C129.126 96.943 129.883 97.8344 129.917 98.8887C129.978 100.937 129.909 104.46 129.074 108.026C128.824 109.097 127.757 109.766 126.681 109.526L117.679 107.537C116.569 107.289 115.828 106.252 115.957 105.129L116.956 96.5059C117.059 95.6144 117.877 94.9716 118.763 95.0916Z" fill="white"/>
<g opacity="0.6">
<path d="M134.72 102.069C133.971 101.88 133.326 102.352 133.283 103.115L133.197 104.606C133.154 105.369 133.73 106.123 134.479 106.286L156.4 110.889C157.149 111.043 157.889 110.563 158.044 109.809L158.121 109.44C158.268 108.686 157.786 107.923 157.037 107.726L134.72 102.069Z" fill="white"/>
</g>
<path opacity="0.6" d="M167.941 105.412C170.351 105.729 174.81 106.578 177.262 107.058C178.304 107.263 179.061 108.155 179.096 109.209C179.156 111.258 179.087 114.78 178.252 118.346C178.003 119.418 176.935 120.086 175.86 119.846L166.857 117.858C165.747 117.609 165.007 116.572 165.136 115.449L166.134 106.826C166.229 105.935 167.046 105.292 167.941 105.412Z" fill="white"/>
<g opacity="0.6">
<path d="M183.898 112.388C183.149 112.2 182.504 112.671 182.461 113.434L182.375 114.925C182.332 115.688 182.908 116.443 183.657 116.605L205.578 121.208C206.327 121.363 207.067 120.883 207.222 120.128L207.3 119.76C207.446 119.005 206.964 118.243 206.215 118.045L183.898 112.388Z" fill="white"/>
</g>
<path d="M124.401 131.315C124.392 131.315 124.383 131.315 124.375 131.306L116.061 129.48C114.873 129.223 114.064 128.195 114.176 127.106L114.916 119.992C114.959 119.572 115.174 119.195 115.518 118.929C115.906 118.629 116.414 118.5 116.921 118.569C117.636 118.672 118.643 118.792 119.701 118.92C121.948 119.195 124.736 119.537 126.277 119.846C127.396 120.077 128.205 120.935 128.265 121.963C128.36 123.652 127.68 126.669 126.922 129.875C126.69 130.912 125.554 131.555 124.401 131.315ZM116.835 119.22C116.5 119.177 116.164 119.255 115.923 119.443C115.725 119.597 115.596 119.82 115.57 120.06L114.83 127.175C114.752 127.937 115.338 128.657 116.207 128.846L124.521 130.672C124.53 130.672 124.53 130.672 124.538 130.672C125.347 130.843 126.13 130.415 126.303 129.712C127.051 126.557 127.723 123.592 127.637 121.989C127.594 121.269 126.983 120.652 126.174 120.48C124.65 120.18 121.87 119.837 119.641 119.563C118.565 119.443 117.558 119.315 116.835 119.22Z" fill="white"/>
<path opacity="0.6" d="M117.584 120.121C119.357 120.369 123.247 120.781 125.055 121.141C125.821 121.295 126.397 121.895 126.432 122.589C126.509 123.944 125.924 126.489 125.365 128.838C125.201 129.541 124.426 129.969 123.635 129.789L116.99 128.332C116.173 128.152 115.613 127.458 115.691 126.712L116.285 121.029C116.336 120.438 116.921 120.035 117.584 120.121Z" fill="white"/>
<g opacity="0.6">
<path d="M132.698 128.229C132.749 129.189 133.446 129.995 134.393 130.183L211.595 145.706C212.464 145.877 213.316 145.312 213.479 144.437C213.643 143.589 213.092 142.766 212.249 142.586L135.262 126.06C133.894 125.777 132.629 126.849 132.698 128.229Z" fill="white"/>
</g>
<path d="M117.705 121.286C118.402 121.055 119.15 121.44 119.366 122.135L120.39 125.409C120.493 125.735 120.923 125.812 121.13 125.529L127.12 117.352C127.421 116.94 128.058 117.24 127.946 117.729C127.318 120.48 125.476 125.58 120.106 129.052C120.106 129.052 117.859 127.595 116.809 122.88C116.654 122.203 117.042 121.509 117.705 121.286Z" fill="url(#paint4_linear_352_11052)"/>
<path d="M120.639 149.092C120.631 149.092 120.622 149.092 120.613 149.083L112.299 147.258C111.112 147 110.303 145.972 110.415 144.883L111.155 137.769C111.198 137.349 111.413 136.972 111.757 136.706C112.145 136.406 112.652 136.278 113.16 136.346C113.874 136.449 114.881 136.569 115.94 136.698C118.186 136.972 120.975 137.315 122.516 137.623C122.524 137.623 122.541 137.632 122.55 137.632C123.643 137.863 124.443 138.72 124.504 139.74C124.598 141.429 123.918 144.446 123.161 147.652C122.92 148.689 121.793 149.332 120.639 149.092ZM113.074 136.998C112.738 136.955 112.403 137.032 112.162 137.22C111.964 137.375 111.835 137.598 111.809 137.838L111.069 144.952C110.991 145.715 111.577 146.435 112.446 146.623L120.76 148.449C120.768 148.449 120.768 148.449 120.777 148.449C121.586 148.62 122.369 148.192 122.541 147.498C123.29 144.343 123.961 141.378 123.875 139.775C123.832 139.055 123.221 138.42 122.412 138.266C120.889 137.966 118.109 137.623 115.88 137.349C114.804 137.22 113.797 137.092 113.074 136.998Z" fill="white"/>
<path opacity="0.6" d="M113.823 137.897C115.596 138.146 119.486 138.557 121.294 138.917C122.06 139.072 122.636 139.672 122.671 140.366C122.748 141.72 122.163 144.266 121.603 146.614C121.44 147.317 120.665 147.746 119.873 147.566L113.229 146.109C112.411 145.929 111.852 145.234 111.93 144.489L112.523 138.806C112.575 138.214 113.16 137.812 113.823 137.897Z" fill="white"/>
<g opacity="0.6">
<path d="M128.936 146.006C128.988 146.966 129.685 147.772 130.632 147.96L207.834 163.483C208.703 163.655 209.555 163.089 209.718 162.215C209.882 161.366 209.331 160.543 208.488 160.363L131.501 143.838C130.133 143.555 128.859 144.626 128.936 146.006Z" fill="white"/>
</g>
<path d="M113.944 139.064C114.641 138.832 115.39 139.218 115.605 139.912L116.629 143.186C116.732 143.512 117.163 143.589 117.369 143.306L123.359 135.129C123.661 134.718 124.298 135.018 124.186 135.506C123.557 138.258 121.716 143.358 116.345 146.829C116.345 146.829 114.099 145.372 113.049 140.658C112.894 139.981 113.281 139.286 113.944 139.064Z" fill="url(#paint5_linear_352_11052)"/>
<path d="M116.879 166.869C116.87 166.869 116.861 166.869 116.853 166.861L108.539 165.035C107.351 164.778 106.542 163.749 106.654 162.661L107.394 155.546C107.437 155.126 107.652 154.749 107.997 154.484C108.384 154.184 108.892 154.055 109.399 154.123C110.114 154.226 111.121 154.346 112.179 154.475C114.426 154.749 117.214 155.092 118.755 155.401C118.763 155.401 118.781 155.409 118.789 155.409C119.882 155.641 120.683 156.498 120.743 157.518C120.838 159.206 120.158 162.223 119.4 165.429C119.159 166.466 118.032 167.109 116.879 166.869ZM109.313 154.775C108.978 154.732 108.642 154.809 108.401 154.998C108.203 155.152 108.074 155.375 108.048 155.615L107.308 162.729C107.231 163.492 107.816 164.212 108.685 164.401L116.999 166.226C117.008 166.226 117.008 166.226 117.016 166.226C117.825 166.398 118.609 165.969 118.781 165.266C119.529 162.112 120.201 159.146 120.115 157.543C120.072 156.823 119.461 156.181 118.652 156.035C117.128 155.735 114.348 155.392 112.119 155.118C111.043 154.998 110.036 154.869 109.313 154.775Z" fill="white"/>
<path opacity="0.6" d="M110.062 155.675C111.835 155.923 115.725 156.335 117.532 156.695C118.298 156.849 118.875 157.449 118.909 158.143C118.987 159.497 118.402 162.043 117.842 164.392C117.679 165.095 116.904 165.523 116.112 165.343L109.468 163.886C108.65 163.706 108.091 163.012 108.168 162.266L108.762 156.583C108.814 155.992 109.399 155.589 110.062 155.675Z" fill="white"/>
<g opacity="0.6">
<path d="M125.167 163.783C125.218 164.743 125.916 165.549 126.862 165.738L204.064 181.26C204.933 181.432 205.785 180.866 205.949 179.992C206.112 179.143 205.561 178.32 204.718 178.14L127.723 161.623C126.372 161.332 125.098 162.403 125.167 163.783Z" fill="white"/>
</g>
<path d="M110.183 156.841C110.88 156.609 111.628 156.995 111.844 157.689L112.868 160.964C112.971 161.289 113.401 161.367 113.608 161.084L119.598 152.907C119.899 152.495 120.536 152.795 120.424 153.284C119.796 156.035 117.954 161.135 112.584 164.607C112.584 164.607 110.337 163.149 109.287 158.435C109.133 157.758 109.52 157.064 110.183 156.841Z" fill="url(#paint6_linear_352_11052)"/>
<path d="M113.117 184.647C113.109 184.647 113.1 184.647 113.092 184.638L104.778 182.812C103.59 182.555 102.781 181.527 102.893 180.438L103.633 173.324C103.676 172.904 103.891 172.527 104.235 172.261C104.623 171.961 105.13 171.832 105.638 171.901C106.353 172.004 107.359 172.124 108.418 172.252C110.664 172.527 113.453 172.869 114.994 173.178C115.002 173.178 115.019 173.187 115.028 173.187C116.121 173.418 116.921 174.275 116.982 175.295C117.076 176.984 116.396 180.001 115.639 183.207C115.398 184.244 114.271 184.887 113.117 184.647ZM105.552 172.552C105.216 172.509 104.881 172.587 104.64 172.775C104.442 172.929 104.313 173.152 104.287 173.392L103.547 180.507C103.469 181.269 104.055 181.989 104.924 182.178L113.238 184.004C113.246 184.004 113.246 184.004 113.255 184.004C114.064 184.175 114.847 183.747 115.019 183.052C115.768 179.898 116.44 176.932 116.353 175.329C116.31 174.609 115.699 173.967 114.89 173.821C113.367 173.521 110.587 173.178 108.358 172.904C107.282 172.775 106.266 172.647 105.552 172.552Z" fill="white"/>
<path opacity="0.6" d="M106.301 173.461C108.074 173.71 111.964 174.121 113.772 174.481C114.538 174.635 115.114 175.235 115.149 175.93C115.226 177.284 114.641 179.83 114.081 182.178C113.918 182.881 113.143 183.31 112.351 183.13L105.707 181.672C104.89 181.492 104.33 180.798 104.408 180.052L105.001 174.37C105.053 173.77 105.638 173.367 106.301 173.461Z" fill="white"/>
<g opacity="0.6">
<path d="M121.406 181.561C121.457 182.521 122.154 183.326 123.101 183.515L200.303 199.038C201.172 199.209 202.024 198.644 202.187 197.769C202.351 196.921 201.8 196.098 200.957 195.918L123.962 179.401C122.602 179.109 121.337 180.181 121.406 181.561Z" fill="white"/>
</g>
<path d="M106.421 174.626C107.118 174.395 107.867 174.78 108.082 175.475L109.107 178.749C109.21 179.075 109.64 179.152 109.847 178.869L115.837 170.692C116.138 170.28 116.775 170.58 116.663 171.069C116.035 173.82 114.193 178.92 108.823 182.392C108.823 182.392 106.576 180.935 105.526 176.22C105.371 175.535 105.759 174.84 106.421 174.626Z" fill="url(#paint7_linear_352_11052)"/>
<path d="M2.36706 35.5113C1.85926 33.0942 3.61502 30.7885 6.08513 30.6256C22.498 29.5542 78.7854 25.1142 123.497 12.4542C125.537 11.8799 127.654 13.0799 128.188 15.1199L171.84 182.931C172.443 185.228 171.057 187.586 168.751 188.194C149.876 193.183 72.1067 213.446 43.4466 216.197C41.6994 216.368 40.1158 215.194 39.7543 213.488L2.36706 35.5113Z" fill="url(#paint8_linear_352_11052)"/>
<path opacity="0.6" d="M5.12127 39.3775C4.6307 37.0547 6.3176 34.8347 8.70164 34.6804C24.4948 33.6432 78.6651 29.3747 121.69 17.1947C123.652 16.6375 125.692 17.7947 126.2 19.7575L168.209 181.252C168.785 183.463 167.46 185.726 165.239 186.318C147.079 191.118 72.2359 210.618 44.6602 213.266C42.9819 213.429 41.4499 212.298 41.1057 210.66L5.12127 39.3775Z" fill="white"/>
<path opacity="0.78" d="M21.9127 49.0884L30.6829 83.7598C30.9755 84.917 32.1116 85.6455 33.2821 85.4398C39.8317 84.3084 60.2123 80.6998 71.5386 77.7855C72.821 77.4598 73.63 76.2084 73.4149 74.9055C72.296 68.297 68.8792 49.0969 65.7463 41.4169C65.2386 40.1741 63.9303 39.4541 62.6049 39.6769L23.8664 46.1141C22.4721 46.3455 21.5684 47.717 21.9127 49.0884Z" fill="white"/>
<path d="M46.6051 64.7995C50.8641 64.7995 54.3167 61.361 54.3167 57.1195C54.3167 52.8779 50.8641 49.4395 46.6051 49.4395C42.3461 49.4395 38.8936 52.8779 38.8936 57.1195C38.8936 61.361 42.3461 64.7995 46.6051 64.7995Z" fill="url(#paint9_linear_352_11052)"/>
<path d="M39.634 81.5311L63.7067 76.6625C65.1785 76.3625 65.7379 74.5625 64.6879 73.4825C61.994 70.714 56.7612 66.8911 49.3939 68.6054C42.2934 70.2511 38.9282 75.334 37.4134 78.7968C36.7765 80.2711 38.0589 81.8568 39.634 81.5311Z" fill="url(#paint10_linear_352_11052)"/>
<g opacity="0.6">
<path d="M118.789 32.6655C119.546 32.5112 120.037 31.8598 119.882 31.217C119.727 30.5741 118.987 30.1627 118.23 30.2998L75.8936 38.0827C75.1362 38.2198 74.8435 38.8712 75.2395 39.5312L75.5579 40.0627C75.9538 40.7227 76.8919 41.1341 77.6493 40.9798L118.789 32.6655Z" fill="white"/>
</g>
<g opacity="0.6">
<path d="M77.2275 44.6147C76.4702 44.7518 76.1775 45.4032 76.5734 46.0632L76.8919 46.5947C77.2878 47.2547 78.2259 47.6661 78.9833 47.5118L120.123 39.189C120.88 39.0347 121.371 38.3832 121.216 37.7404C121.061 37.0975 120.321 36.6861 119.564 36.8232L77.2275 44.6147Z" fill="white"/>
</g>
<g opacity="0.6">
<path d="M78.5791 51.2397C77.8217 51.3768 77.5291 52.0282 77.925 52.6882L78.2434 53.2197C78.6393 53.8797 79.5775 54.2911 80.3349 54.1368L121.475 45.814C122.232 45.6597 122.723 45.0082 122.568 44.3654C122.413 43.7225 121.673 43.3111 120.915 43.4482L78.5791 51.2397Z" fill="white"/>
</g>
<g opacity="0.6">
<path d="M132.078 76.9025C132.835 76.7482 133.309 76.1053 133.128 75.4711C132.956 74.8368 132.19 74.4339 131.441 74.5796L32.4473 93.7968C31.6899 93.9425 31.5608 94.4653 32.146 94.9625L33.1616 95.8111C33.7469 96.2996 34.8485 96.5825 35.6059 96.4282L132.078 76.9025Z" fill="white"/>
</g>
<g opacity="0.6">
<path d="M33.7812 100.319C33.0239 100.465 32.8948 100.988 33.48 101.485L34.4956 102.334C35.0809 102.822 36.1825 103.105 36.9399 102.951L133.412 83.4337C134.169 83.2794 134.643 82.6366 134.462 82.0023C134.29 81.368 133.524 80.9652 132.775 81.1109L33.7812 100.319Z" fill="white"/>
</g>
<path opacity="0.6" d="M35.5542 111.3C37.8953 110.64 42.3277 109.654 44.772 109.123C45.8048 108.9 46.8634 109.414 47.3109 110.374C48.1802 112.234 49.5228 115.491 50.1769 119.091C50.3749 120.171 49.6605 121.209 48.5761 121.414L39.5133 123.146C38.403 123.36 37.3014 122.7 36.9743 121.62L34.4526 113.314C34.1944 112.457 34.685 111.549 35.5542 111.3Z" fill="white"/>
<g opacity="0.6">
<path d="M52.9826 111.403C52.2252 111.523 51.8207 112.209 52.0789 112.929L52.5953 114.334C52.8621 115.054 53.6883 115.517 54.4457 115.363L76.4013 110.923C77.1587 110.769 77.6406 110.031 77.4771 109.286L77.3996 108.917C77.2361 108.171 76.4787 107.657 75.7213 107.777L52.9826 111.403Z" fill="white"/>
</g>
<path opacity="0.6" d="M84.8013 101.34C87.1423 100.68 91.5747 99.6943 94.019 99.1629C95.0518 98.9401 96.1104 99.4543 96.558 100.414C97.4273 102.274 98.7699 105.531 99.424 109.131C99.622 110.211 98.9076 111.249 97.8232 111.454L88.7604 113.186C87.6501 113.4 86.5485 112.74 86.2214 111.66L83.6997 103.354C83.4415 102.497 83.932 101.589 84.8013 101.34Z" fill="white"/>
<g opacity="0.6">
<path d="M102.23 101.434C101.473 101.554 101.068 102.24 101.326 102.96L101.843 104.366C102.11 105.086 102.936 105.548 103.693 105.394L125.649 100.954C126.406 100.8 126.888 100.063 126.725 99.317L126.647 98.9484C126.484 98.2027 125.726 97.6884 124.969 97.8084L102.23 101.434Z" fill="white"/>
</g>
<path d="M55.16 142.328C55.1514 142.328 55.1428 142.328 55.1342 142.337L46.7771 143.948C45.5808 144.179 44.4361 143.562 44.1005 142.508L41.9488 135.685C41.8197 135.282 41.8713 134.854 42.0779 134.477C42.3103 134.048 42.732 133.731 43.2226 133.594C43.9197 133.405 44.8923 133.122 45.9165 132.822C48.0853 132.188 50.7792 131.399 52.3198 131.065C53.4387 130.834 54.5231 131.305 54.9879 132.222C55.7453 133.731 56.3305 136.774 56.9072 140.014C57.0965 141.051 56.3133 142.088 55.16 142.328ZM43.4033 134.211C43.0763 134.297 42.8009 134.511 42.6545 134.777C42.5341 134.999 42.5082 135.248 42.5771 135.479L44.7287 142.302C44.9611 143.031 45.7874 143.459 46.6566 143.297L55.0137 141.685C55.0223 141.685 55.0223 141.685 55.0309 141.685C55.8399 141.522 56.3908 140.819 56.2703 140.108C55.7022 136.911 55.1342 133.928 54.4112 132.497C54.0842 131.854 53.2838 131.528 52.4661 131.691C50.9514 132.017 48.2661 132.805 46.1058 133.431C45.073 133.731 44.1005 134.022 43.4033 134.211Z" fill="white"/>
<path opacity="0.6" d="M44.4449 134.751C46.1749 134.28 49.9016 133.123 51.7089 132.737C52.4749 132.574 53.2409 132.9 53.5508 133.526C54.1618 134.743 54.6352 137.306 55.0569 139.68C55.186 140.391 54.6438 141.086 53.852 141.24L47.1732 142.526C46.3556 142.68 45.5552 142.268 45.3314 141.557L43.6101 136.106C43.4294 135.531 43.8081 134.923 44.4449 134.751Z" fill="white"/>
<g opacity="0.6">
<path d="M61.5461 136.217C61.9764 137.082 62.9317 137.545 63.8785 137.348L140.925 121.079C141.794 120.899 142.345 120.034 142.156 119.168C141.967 118.328 141.132 117.788 140.288 117.959L63.035 133.217C61.6666 133.491 60.9264 134.974 61.5461 136.217Z" fill="white"/>
</g>
<path d="M58.7918 160.131C58.7832 160.131 58.7746 160.131 58.766 160.139L50.409 161.751C49.2126 161.982 48.068 161.365 47.7323 160.311L45.5806 153.488C45.4515 153.085 45.5032 152.657 45.7097 152.279C45.9421 151.851 46.3638 151.534 46.8544 151.397C47.5516 151.208 48.5241 150.925 49.5483 150.625C51.7172 149.991 54.4111 149.202 55.9516 148.868C55.9603 148.868 55.9775 148.859 55.9861 148.859C57.0791 148.637 58.1636 149.108 58.6197 150.025C59.3771 151.534 59.9623 154.577 60.539 157.817C60.7283 158.862 59.9451 159.899 58.7918 160.131ZM47.0352 152.014C46.7081 152.099 46.4327 152.314 46.2864 152.579C46.1659 152.802 46.1401 153.051 46.2089 153.282L48.3606 160.105C48.593 160.834 49.4192 161.262 50.2885 161.099L58.6455 159.488C58.6541 159.488 58.6541 159.488 58.6627 159.488C59.4718 159.325 60.0226 158.622 59.9021 157.911C59.3341 154.714 58.766 151.731 58.0431 150.299C57.716 149.657 56.8984 149.314 56.098 149.494C54.5832 149.819 51.8979 150.608 49.7377 151.234C48.7049 151.534 47.7323 151.825 47.0352 152.014Z" fill="white"/>
<path opacity="0.6" d="M48.0769 152.554C49.8068 152.083 53.5335 150.925 55.3409 150.54C56.1069 150.377 56.8729 150.703 57.1827 151.328C57.7938 152.545 58.2672 155.108 58.6889 157.483C58.818 158.194 58.2758 158.888 57.484 159.043L50.8052 160.328C49.9876 160.483 49.1872 160.071 48.9634 159.36L47.2421 153.908C47.0613 153.334 47.4314 152.725 48.0769 152.554Z" fill="white"/>
<g opacity="0.6">
<path d="M65.1779 154.019C65.6082 154.885 66.5636 155.348 67.5103 155.151L144.557 138.882C145.426 138.702 145.977 137.836 145.788 136.971C145.598 136.131 144.764 135.591 143.92 135.762L66.6668 151.019C65.2984 151.294 64.5582 152.776 65.1779 154.019Z" fill="white"/>
</g>
<path d="M62.4242 177.934C62.4156 177.934 62.407 177.934 62.3983 177.942L54.0413 179.554C52.845 179.785 51.7003 179.168 51.3646 178.114L49.213 171.291C49.0839 170.888 49.1355 170.459 49.3421 170.082C49.5744 169.654 49.9962 169.336 50.4867 169.199C51.1839 169.011 52.1564 168.728 53.1806 168.428C55.3495 167.794 58.0434 167.005 59.584 166.671C59.5926 166.671 59.6098 166.662 59.6184 166.662C60.7114 166.439 61.7959 166.911 62.252 167.828C63.0094 169.336 63.5947 172.379 64.1713 175.619C64.3607 176.665 63.5775 177.702 62.4242 177.934ZM50.6589 169.816C50.3318 169.902 50.0564 170.116 49.9101 170.382C49.7896 170.605 49.7638 170.854 49.8326 171.085L51.9843 177.908C52.2167 178.636 53.0429 179.065 53.9122 178.902L62.2692 177.291C62.2779 177.291 62.2779 177.291 62.2865 177.291C63.0955 177.128 63.6463 176.425 63.5258 175.714C62.9578 172.516 62.3897 169.534 61.6668 168.102C61.3397 167.459 60.5221 167.116 59.7217 167.296C58.2069 167.622 55.5216 168.411 53.3614 169.036C52.3372 169.345 51.3646 169.628 50.6589 169.816Z" fill="white"/>
<path opacity="0.6" d="M51.7087 170.357C53.4387 169.885 57.1654 168.728 58.9728 168.342C59.7387 168.18 60.5047 168.505 60.8146 169.131C61.4256 170.348 61.899 172.911 62.3207 175.285C62.4498 175.997 61.9076 176.691 61.1158 176.845L54.4371 178.131C53.6194 178.285 52.819 177.874 52.5952 177.162L50.8739 171.711C50.6932 171.137 51.0632 170.537 51.7087 170.357Z" fill="white"/>
<g opacity="0.6">
<path d="M68.8102 171.822C69.2406 172.688 70.1959 173.151 71.1426 172.954L148.189 156.685C149.059 156.505 149.609 155.639 149.42 154.774C149.231 153.934 148.396 153.394 147.552 153.565L70.2992 168.822C68.9307 169.096 68.1905 170.579 68.8102 171.822Z" fill="white"/>
</g>
<path d="M66.056 195.736C66.0474 195.736 66.0388 195.736 66.0302 195.745L57.6731 197.356C56.4768 197.588 55.3321 196.971 54.9965 195.916L52.8448 189.093C52.7157 188.691 52.7673 188.262 52.9739 187.885C53.2063 187.456 53.628 187.139 54.1186 187.002C54.8157 186.813 55.7883 186.531 56.8125 186.231C58.9813 185.596 61.6752 184.808 63.2158 184.473C63.2244 184.473 63.2416 184.465 63.2502 184.465C64.3433 184.242 65.4277 184.713 65.8839 185.631C66.6413 187.139 67.2265 190.182 67.8031 193.422C67.9925 194.468 67.2093 195.505 66.056 195.736ZM54.2907 187.619C53.9637 187.705 53.6882 187.919 53.5419 188.185C53.4214 188.408 53.3956 188.656 53.4645 188.888L55.6161 195.711C55.8485 196.439 56.6748 196.868 57.544 196.705L65.9011 195.093C65.9097 195.093 65.9097 195.093 65.9183 195.093C66.7273 194.931 67.2781 194.228 67.1576 193.516C66.5896 190.319 66.0216 187.336 65.2986 185.905C64.9716 185.262 64.1539 184.919 63.3535 185.099C61.8387 185.425 59.1535 186.213 56.9932 186.839C55.969 187.148 54.9879 187.431 54.2907 187.619Z" fill="white"/>
<path opacity="0.6" d="M55.3407 188.159C57.0706 187.688 60.7973 186.531 62.6047 186.145C63.3707 185.982 64.1367 186.308 64.4465 186.934C65.0576 188.151 65.531 190.714 65.9527 193.088C66.0818 193.799 65.5396 194.494 64.7478 194.648L58.069 195.934C57.2514 196.088 56.451 195.677 56.2272 194.965L54.5059 189.514C54.3165 188.948 54.6952 188.339 55.3407 188.159Z" fill="white"/>
<g opacity="0.6">
<path d="M72.4421 189.625C72.8724 190.491 73.8277 190.953 74.7745 190.756L151.821 174.488C152.69 174.308 153.241 173.442 153.052 172.576C152.863 171.736 152.028 171.196 151.184 171.368L73.931 186.625C72.5625 186.899 71.8224 188.391 72.4421 189.625Z" fill="white"/>
</g>
<path d="M55.9173 189.18C56.4595 188.691 57.303 188.751 57.785 189.3L60.0313 191.906C60.2551 192.163 60.6854 192.06 60.7629 191.726L63.0006 181.851C63.1125 181.363 63.8182 181.371 63.9129 181.869C64.4379 184.646 64.7736 190.054 61.2276 195.36C61.2276 195.36 58.5854 194.906 55.7366 190.997C55.3148 190.431 55.3923 189.651 55.9173 189.18Z" fill="url(#paint11_linear_352_11052)"/>
<path d="M52.8794 52.7062C52.8794 45.4462 58.7922 39.5576 66.082 39.5576H178.347C184.544 39.5576 189.648 44.3919 189.966 50.5548L198.254 212.658C198.504 217.475 194.691 221.546 189.846 221.632L61.1676 223.963C56.6147 224.049 52.8794 220.389 52.8794 215.855V52.7062Z" fill="url(#paint12_linear_352_11052)"/>
<path d="M79.9732 221.203L65.5743 221.015C60.7632 220.955 56.8472 217.003 56.8472 212.203V190.552C56.8472 190.38 56.9849 190.243 57.157 190.243C57.3291 190.243 57.4668 190.38 57.4668 190.552V212.203C57.4668 216.669 61.1075 220.337 65.5915 220.397L79.9904 220.586C80.1626 220.586 80.3003 220.723 80.2917 220.895C80.2831 221.075 80.1454 221.203 79.9732 221.203Z" fill="url(#paint13_linear_352_11052)"/>
<path d="M57.1482 184.166C56.9761 184.166 56.8384 184.029 56.8384 183.857V180.352C56.8384 180.18 56.9761 180.043 57.1482 180.043C57.3203 180.043 57.4581 180.18 57.4581 180.352V183.857C57.4581 184.029 57.3203 184.166 57.1482 184.166Z" fill="url(#paint14_linear_352_11052)"/>
<path d="M62.0797 42.052C62.0625 39.7291 64.1195 37.9291 66.4261 38.2463C81.7545 40.3206 134.479 46.7234 178.063 43.3891C180.051 43.2349 181.772 44.7349 181.884 46.7234L190.577 209.546C190.697 211.775 188.985 213.686 186.747 213.823C168.415 214.903 92.9173 219.078 65.9871 216.275C64.3519 216.103 63.1039 214.732 63.0953 213.086L62.0797 42.052Z" fill="url(#paint15_linear_352_11052)"/>
<path opacity="0.6" d="M63.8873 46.1321C63.8701 43.895 65.8496 42.1636 68.0702 42.4636C82.8219 44.4521 133.558 50.615 175.507 47.4093C177.418 47.2636 179.079 48.7036 179.182 50.615L187.548 207.309C187.659 209.461 186.016 211.295 183.855 211.424C166.212 212.461 93.5544 216.481 67.6398 213.781C66.0648 213.618 64.8685 212.298 64.8599 210.712L63.8873 46.1321Z" fill="white"/>
<path opacity="0.78" d="M77.537 58.2178L79.1034 91.8092C79.1551 92.9235 80.0588 93.815 81.1863 93.8492C87.4347 94.0207 106.903 94.5007 117.894 93.9264C119.133 93.8578 120.123 92.8635 120.166 91.6207C120.372 85.3207 120.837 66.9864 119.391 59.315C119.159 58.0807 118.092 57.1721 116.826 57.1292L79.9039 55.8435C78.5698 55.7921 77.4768 56.8892 77.537 58.2178Z" fill="white"/>
<path d="M98.7871 77.4524C102.794 77.4524 106.043 74.2173 106.043 70.2267C106.043 66.236 102.794 63.001 98.7871 63.001C94.7801 63.001 91.5317 66.236 91.5317 70.2267C91.5317 74.2173 94.7801 77.4524 98.7871 77.4524Z" fill="url(#paint16_linear_352_11052)"/>
<path d="M87.7707 91.4323H110.871C112.291 91.4323 113.134 89.8723 112.377 88.6894C110.415 85.6294 106.309 81.138 99.2003 81.3437C92.3494 81.5409 88.2871 85.5952 86.2473 88.5094C85.378 89.7352 86.2645 91.4323 87.7707 91.4323Z" fill="url(#paint17_linear_352_11052)"/>
<g opacity="0.6">
<path d="M169.921 61.1409C170.644 61.1409 171.22 60.6352 171.203 60.0181C171.186 59.4009 170.575 58.8781 169.852 58.8695L129.358 58.1495C128.635 58.1409 128.239 58.6809 128.48 59.3581L128.678 59.9067C128.919 60.5838 129.711 61.1409 130.434 61.1409H169.921Z" fill="white"/>
</g>
<g opacity="0.6">
<path d="M129.366 64.4064C128.644 64.3978 128.248 64.9378 128.489 65.6149L128.687 66.1635C128.928 66.8406 129.719 67.3978 130.442 67.3978H169.93C170.653 67.3978 171.229 66.8921 171.212 66.2749C171.195 65.6578 170.584 65.1349 169.861 65.1263L129.366 64.4064Z" fill="white"/>
</g>
<g opacity="0.6">
<path d="M129.366 70.7579C128.644 70.7493 128.248 71.2893 128.489 71.9665L128.687 72.5151C128.928 73.1922 129.719 73.7493 130.442 73.7493H169.93C170.653 73.7493 171.229 73.2436 171.212 72.6265C171.195 72.0093 170.584 71.4865 169.861 71.4779L129.366 70.7579Z" fill="white"/>
</g>
<g opacity="0.6">
<path d="M173.854 104.4C174.577 104.4 175.136 103.895 175.093 103.277C175.05 102.66 174.431 102.146 173.699 102.137L78.8367 101.392C78.1138 101.383 77.89 101.846 78.3375 102.403L79.1121 103.372C79.5597 103.937 80.5236 104.4 81.2466 104.4H173.854Z" fill="white"/>
</g>
<g opacity="0.6">
<path d="M78.8455 107.65C78.1225 107.641 77.8988 108.104 78.3463 108.661L79.1209 109.63C79.5685 110.195 80.5324 110.658 81.2554 110.658H173.854C174.577 110.658 175.137 110.152 175.094 109.535C175.051 108.918 174.431 108.404 173.699 108.395L78.8455 107.65Z" fill="white"/>
</g>
<path d="M78.4149 118.106C80.6956 117.935 84.9645 117.849 87.3142 117.815C88.3125 117.798 89.1818 118.475 89.4142 119.435C89.8703 121.312 90.49 124.56 90.4125 128.006C90.3867 129.035 89.5433 129.866 88.5019 129.849L79.8264 129.755C78.7591 129.746 77.8727 128.932 77.778 127.869L77.012 119.743C76.9431 118.92 77.5714 118.175 78.4149 118.106Z" fill="url(#paint18_linear_352_11052)"/>
<g opacity="0.6">
<path d="M94.4664 121.449C93.7434 121.414 93.2442 121.98 93.3475 122.692L93.5541 124.089C93.6574 124.8 94.3373 125.383 95.0688 125.383H116.138C116.861 125.383 117.446 124.792 117.438 124.072L117.429 123.72C117.42 123 116.818 122.383 116.095 122.357L94.4664 121.449Z" fill="white"/>
</g>
<path d="M125.683 118.106C127.964 117.935 132.233 117.849 134.582 117.815C135.581 117.798 136.45 118.475 136.682 119.435C137.138 121.312 137.758 124.56 137.681 128.006C137.655 129.035 136.811 129.866 135.77 129.849L127.094 129.755C126.027 129.746 125.141 128.932 125.046 127.869L124.28 119.743C124.211 118.92 124.839 118.175 125.683 118.106Z" fill="url(#paint19_linear_352_11052)"/>
<g opacity="0.6">
<path d="M141.726 121.449C141.003 121.414 140.504 121.98 140.607 122.692L140.813 124.089C140.917 124.8 141.597 125.383 142.328 125.383H163.397C164.12 125.383 164.705 124.792 164.697 124.072L164.688 123.72C164.68 123 164.077 122.383 163.354 122.357L141.726 121.449Z" fill="white"/>
</g>
<path d="M90.6626 150.361C90.654 150.361 90.6454 150.361 90.6368 150.361L82.6326 150.283C81.4879 150.275 80.5412 149.486 80.4379 148.458L79.7322 141.772C79.6891 141.378 79.8096 140.992 80.0764 140.675C80.3691 140.323 80.8166 140.109 81.2986 140.075C81.9699 140.032 82.9252 139.946 83.9322 139.861C86.0494 139.681 88.6831 139.458 90.172 139.441C91.2479 139.432 92.1602 140.066 92.4097 141.001C92.8229 142.535 92.7884 145.441 92.711 148.543C92.6852 149.546 91.7643 150.361 90.6626 150.361ZM81.3416 140.683C81.0232 140.709 80.7305 140.846 80.5412 141.069C80.3863 141.249 80.3174 141.481 80.3346 141.703L81.0404 148.389C81.1178 149.109 81.7978 149.658 82.6326 149.666L90.6368 149.743C90.6454 149.743 90.6454 149.743 90.654 149.743C91.4286 149.743 92.0741 149.195 92.0913 148.526C92.1688 145.475 92.2032 142.621 91.8073 141.163C91.6265 140.512 90.9466 140.058 90.1634 140.058C88.7003 140.075 86.0839 140.298 83.9752 140.478C82.9769 140.555 82.0215 140.641 81.3416 140.683Z" fill="white"/>
<path opacity="0.6" d="M82.2023 141.377C83.8806 141.266 87.5384 140.897 89.277 140.871C90.0085 140.863 90.654 141.308 90.8262 141.943C91.1618 143.177 91.1188 145.628 91.0585 147.9C91.0413 148.577 90.413 149.117 89.647 149.117L83.2523 149.057C82.4691 149.048 81.815 148.517 81.7375 147.823L81.1781 142.474C81.1179 141.908 81.5826 141.42 82.2023 141.377Z" fill="white"/>
<g opacity="0.6">
<path d="M97.6941 145.921C97.9265 146.795 98.7269 147.404 99.6306 147.395L173.708 146.769C174.543 146.761 175.214 146.075 175.197 145.244C175.18 144.429 174.517 143.786 173.699 143.778L99.622 143.444C98.3138 143.426 97.3585 144.661 97.6941 145.921Z" fill="white"/>
</g>
<path d="M82.5466 142.423C83.1405 142.072 83.9065 142.286 84.2421 142.886L85.8172 145.706C85.9721 145.989 86.3852 145.972 86.5229 145.672L90.4389 136.989C90.6369 136.552 91.2824 136.706 91.2738 137.177C91.2307 139.835 90.525 144.883 86.2647 149.109C86.2647 149.109 83.9151 148.2 82.0216 144.06C81.7548 143.469 81.9786 142.757 82.5466 142.423Z" fill="url(#paint20_linear_352_11052)"/>
<path d="M90.6626 167.451C90.654 167.451 90.6454 167.451 90.6368 167.451L82.6326 167.374C81.4879 167.366 80.5412 166.577 80.4379 165.548L79.7322 158.863C79.6891 158.468 79.8096 158.083 80.0764 157.766C80.3691 157.414 80.8166 157.2 81.2986 157.166C81.9699 157.123 82.9252 157.037 83.9322 156.951C86.0494 156.771 88.6831 156.548 90.172 156.531C90.1806 156.531 90.1978 156.531 90.2064 156.531C91.2565 156.531 92.1688 157.166 92.4184 158.091C92.8315 159.626 92.7971 162.531 92.7196 165.634C92.6852 166.637 91.7643 167.451 90.6626 167.451ZM81.3416 157.774C81.0232 157.8 80.7305 157.937 80.5412 158.16C80.3863 158.34 80.3174 158.571 80.3346 158.794L81.0404 165.48C81.1178 166.2 81.7978 166.748 82.6326 166.757L90.6368 166.834C90.6454 166.834 90.6454 166.834 90.654 166.834C91.4286 166.834 92.0741 166.286 92.0913 165.617C92.1688 162.566 92.2032 159.711 91.8073 158.254C91.6265 157.603 90.938 157.131 90.1634 157.148C88.7003 157.166 86.0839 157.388 83.9752 157.568C82.9769 157.646 82.0215 157.731 81.3416 157.774Z" fill="white"/>
<path opacity="0.6" d="M82.2023 158.469C83.8806 158.357 87.5384 157.989 89.277 157.963C90.0085 157.954 90.654 158.4 90.8262 159.034C91.1618 160.269 91.1188 162.72 91.0585 164.992C91.0413 165.669 90.413 166.209 89.647 166.209L83.2523 166.149C82.4691 166.14 81.815 165.609 81.7375 164.914L81.1781 159.566C81.1179 159 81.5826 158.503 82.2023 158.469Z" fill="white"/>
<g opacity="0.6">
<path d="M97.6941 163.004C97.9265 163.878 98.7269 164.486 99.6306 164.478L173.708 163.852C174.543 163.844 175.214 163.158 175.197 162.326C175.18 161.512 174.517 160.869 173.699 160.861L99.622 160.526C98.3138 160.518 97.3585 161.744 97.6941 163.004Z" fill="white"/>
</g>
<path d="M82.5466 159.515C83.1405 159.163 83.9065 159.378 84.2421 159.978L85.8172 162.798C85.9721 163.081 86.3852 163.063 86.5229 162.763L90.4389 154.081C90.6369 153.643 91.2824 153.798 91.2738 154.269C91.2307 156.926 90.525 161.975 86.2647 166.201C86.2647 166.201 83.9151 165.292 82.0216 161.152C81.7548 160.552 81.9786 159.849 82.5466 159.515Z" fill="url(#paint21_linear_352_11052)"/>
<path d="M90.6626 184.534C90.654 184.534 90.6454 184.534 90.6368 184.534L82.6326 184.457C81.4879 184.449 80.5412 183.66 80.4379 182.631L79.7322 175.946C79.6891 175.551 79.8096 175.166 80.0764 174.849C80.3691 174.497 80.8166 174.283 81.2986 174.249C81.9699 174.206 82.9252 174.12 83.9322 174.034C86.0494 173.854 88.6831 173.631 90.172 173.614C90.1806 173.614 90.1978 173.614 90.2064 173.614C91.2565 173.614 92.1688 174.249 92.4184 175.174C92.8315 176.709 92.7971 179.614 92.7196 182.717C92.6852 183.729 91.7643 184.534 90.6626 184.534ZM81.3416 174.866C81.0232 174.891 80.7305 175.029 80.5412 175.251C80.3863 175.431 80.3174 175.663 80.3346 175.886L81.0404 182.571C81.1178 183.291 81.7978 183.84 82.6326 183.849L90.6368 183.926C90.6454 183.926 90.6454 183.926 90.654 183.926C91.4286 183.926 92.0741 183.377 92.0913 182.709C92.1688 179.657 92.2032 176.803 91.8073 175.346C91.6265 174.694 90.938 174.223 90.1634 174.24C88.7003 174.257 86.0839 174.48 83.9752 174.66C82.9769 174.737 82.0215 174.814 81.3416 174.866Z" fill="white"/>
<path opacity="0.6" d="M82.2023 175.552C83.8806 175.44 87.5384 175.072 89.277 175.046C90.0085 175.037 90.654 175.483 90.8262 176.117C91.1618 177.352 91.1188 179.803 91.0585 182.075C91.0413 182.752 90.413 183.292 89.647 183.292L83.2523 183.232C82.4691 183.223 81.815 182.692 81.7375 181.997L81.1781 176.649C81.1179 176.083 81.5826 175.595 82.2023 175.552Z" fill="white"/>
<g opacity="0.6">
<path d="M97.6941 180.095C97.9265 180.969 98.7269 181.577 99.6306 181.569L173.708 180.943C174.543 180.935 175.214 180.249 175.197 179.417C175.18 178.603 174.517 177.96 173.699 177.952L99.622 177.617C98.3138 177.6 97.3585 178.835 97.6941 180.095Z" fill="white"/>
</g>
<path d="M82.5466 176.606C83.1405 176.254 83.9065 176.469 84.2421 177.069L85.8172 179.889C85.9721 180.171 86.3852 180.154 86.5229 179.854L90.4389 171.171C90.6369 170.734 91.2824 170.889 91.2738 171.36C91.2307 174.017 90.525 179.066 86.2647 183.291C86.2647 183.291 83.9151 182.383 82.0216 178.243C81.7548 177.643 81.9786 176.931 82.5466 176.606Z" fill="url(#paint22_linear_352_11052)"/>
<path d="M90.6626 201.626C90.654 201.626 90.6454 201.626 90.6368 201.626L82.6326 201.549C81.4879 201.54 80.5412 200.752 80.4379 199.723L79.7322 193.037C79.6891 192.643 79.8096 192.257 80.0764 191.94C80.3691 191.589 80.8166 191.375 81.2986 191.34C81.9699 191.297 82.9252 191.212 83.9322 191.126C86.0494 190.946 88.6831 190.723 90.172 190.706C90.1806 190.706 90.1978 190.706 90.2064 190.706C91.2565 190.706 92.1688 191.34 92.4184 192.266C92.8315 193.8 92.7971 196.706 92.7196 199.809C92.6852 200.812 91.7643 201.626 90.6626 201.626ZM81.3416 191.949C81.0232 191.975 80.7305 192.112 80.5412 192.335C80.3863 192.515 80.3174 192.746 80.3346 192.969L81.0404 199.655C81.1178 200.375 81.7978 200.923 82.6326 200.932L90.6368 201.009C90.6454 201.009 90.6454 201.009 90.654 201.009C91.4286 201.009 92.0741 200.46 92.0913 199.792C92.1688 196.74 92.2032 193.886 91.8073 192.429C91.6265 191.777 90.938 191.306 90.1634 191.323C88.7003 191.34 86.0839 191.563 83.9752 191.743C82.9769 191.829 82.0215 191.906 81.3416 191.949Z" fill="white"/>
<path opacity="0.6" d="M82.2023 192.644C83.8806 192.532 87.5384 192.164 89.277 192.138C90.0085 192.129 90.654 192.575 90.8262 193.209C91.1618 194.444 91.1188 196.895 91.0585 199.166C91.0413 199.844 90.413 200.384 89.647 200.384L83.2523 200.324C82.4691 200.315 81.815 199.784 81.7375 199.089L81.1781 193.741C81.1179 193.175 81.5826 192.686 82.2023 192.644Z" fill="white"/>
<g opacity="0.6">
<path d="M97.6941 197.186C97.9265 198.061 98.7269 198.669 99.6306 198.661L173.708 198.035C174.543 198.026 175.214 197.341 175.197 196.509C175.18 195.695 174.517 195.052 173.699 195.043L99.622 194.709C98.3138 194.692 97.3585 195.926 97.6941 197.186Z" fill="white"/>
</g>
<path d="M82.5466 193.689C83.1405 193.337 83.9065 193.552 84.2421 194.152L85.8172 196.972C85.9721 197.254 86.3852 197.237 86.5229 196.937L90.4389 188.254C90.6369 187.817 91.2824 187.972 91.2738 188.443C91.2307 191.1 90.525 196.149 86.2647 200.374C86.2647 200.374 83.9151 199.466 82.0216 195.326C81.7548 194.734 81.9786 194.023 82.5466 193.689Z" fill="url(#paint23_linear_352_11052)"/>
<path d="M129.177 17.4604C125.124 14.649 121.595 14.709 119.116 15.4376C116.853 16.1062 115.381 18.2833 115.596 20.6233L116.663 32.2633L129.401 33.3862C129.41 33.3776 137.13 22.9719 129.177 17.4604ZM123.574 26.8462C121.819 26.8462 120.399 25.4319 120.399 23.6833C120.399 21.9347 121.819 20.5204 123.574 20.5204C125.33 20.5204 126.75 21.9347 126.75 23.6833C126.75 25.4319 125.33 26.8462 123.574 26.8462Z" fill="url(#paint24_linear_352_11052)"/>
<path d="M117.945 27.3608C117.791 27.3608 117.653 27.2408 117.636 27.0865L117.464 25.2351C117.446 25.0637 117.575 24.9179 117.739 24.9008C117.911 24.8837 118.057 25.0122 118.075 25.1751L118.247 27.0265C118.264 27.1979 118.135 27.3437 117.971 27.3608C117.963 27.3608 117.954 27.3608 117.945 27.3608ZM117.61 23.7265C117.455 23.7265 117.317 23.6065 117.3 23.4522L117.171 22.0465C116.964 19.8179 118.376 17.7351 120.519 17.1094C122.042 16.6637 123.609 16.5951 125.175 16.9208C125.339 16.9551 125.45 17.1179 125.416 17.2808C125.382 17.4437 125.218 17.5551 125.055 17.5208C123.583 17.2208 122.12 17.2808 120.7 17.7008C118.832 18.2494 117.61 20.0579 117.791 21.9951L117.92 23.4008C117.937 23.5722 117.808 23.7179 117.644 23.7351C117.627 23.7265 117.618 23.7265 117.61 23.7265Z" fill="white"/>
<path d="M99.2866 39.7717V33.9174C99.2866 31.8946 100.965 30.2831 102.996 30.3517L143.499 31.7317C145.298 31.7917 146.752 33.206 146.856 34.9974L147.191 40.6203L99.2866 39.7717Z" fill="url(#paint25_linear_352_11052)"/>
<path d="M114.382 32.5634H112.644C112.472 32.5634 112.334 32.4263 112.334 32.2549C112.334 32.0834 112.472 31.9463 112.644 31.9463H114.382C114.555 31.9463 114.692 32.0834 114.692 32.2549C114.692 32.4263 114.555 32.5634 114.382 32.5634Z" fill="white"/>
<path d="M101.472 37.9377C101.3 37.9377 101.163 37.8006 101.163 37.6291V35.2634C101.163 33.4377 102.66 31.9463 104.493 31.9463H110.897C111.069 31.9463 111.207 32.0834 111.207 32.2549C111.207 32.4263 111.069 32.5634 110.897 32.5634H104.493C102.996 32.5634 101.782 33.7806 101.782 35.2634V37.6291C101.782 37.8006 101.645 37.9377 101.472 37.9377Z" fill="white"/>
<path d="M82.779 41.2548C82.8737 39.232 84.5519 37.6377 86.5917 37.6377H157.416C159.963 37.6377 162.141 39.4634 162.571 41.9577L162.631 42.3006C163.105 45.0348 160.988 47.5377 158.199 47.5377H85.5417C83.872 47.5377 82.538 46.1491 82.6241 44.4863L82.779 41.2548Z" fill="url(#paint26_linear_352_11052)"/>
<path d="M185.017 89.52L170.283 77.5543L155.548 89.52C156.727 78.2657 157.27 65.7 156.65 52.0714C156.452 47.7343 156.142 43.5257 155.755 39.4629C155.703 38.94 155.875 38.4257 156.228 38.0314C156.581 37.6457 157.08 37.4229 157.614 37.4229C166.16 37.4229 174.707 37.4229 183.262 37.4229C184.251 37.4229 185.069 38.1943 185.121 39.18C185.448 45.4114 185.663 51.8657 185.732 58.5257C185.844 69.3943 185.568 79.74 185.017 89.52Z" fill="url(#paint27_linear_352_11052)"/>
<path d="M197.239 236.511C193.529 236.682 189.94 236.571 187.539 236.451C189.725 234.9 194.751 231.54 198.96 230.194L201.852 230.022C201.852 230.022 202.833 231.505 203.177 234.9C202.704 235.5 201.301 236.331 197.239 236.511Z" fill="url(#paint28_linear_352_11052)"/>
<path d="M187.513 236.477C187.522 236.468 187.53 236.46 187.539 236.46C189.94 236.58 193.529 236.691 197.239 236.52C201.301 236.331 202.704 235.5 203.177 234.908C203.194 235.062 203.212 235.217 203.22 235.388C203.28 236.134 202.721 236.785 201.981 236.845C198.943 237.077 191.412 237.591 187.771 237.402C187.298 237.368 187.117 236.751 187.513 236.477Z" fill="url(#paint29_linear_352_11052)"/>
<path d="M223.773 235.526C224.049 233.794 224.479 231.283 224.815 230.64C225.34 229.637 227.147 230.64 227.147 230.64C227.147 230.64 228.412 231.231 228.997 232.209C229.367 232.834 230.4 234.617 231.097 235.826C231.175 235.963 231.209 236.117 231.209 236.254L223.971 236.503C223.799 236.229 223.721 235.886 223.773 235.526Z" fill="url(#paint30_linear_352_11052)"/>
<path d="M231.218 236.263C231.209 236.674 230.882 237.051 230.417 237.06L225.262 237.197C224.72 237.214 224.246 236.931 223.979 236.511L231.218 236.263Z" fill="url(#paint31_linear_352_11052)"/>
<path d="M223.222 224.88C223.282 225.085 224.221 229.602 224.634 231.582C224.746 232.131 225.245 232.517 225.804 232.491C226.114 232.474 226.467 232.448 226.837 232.397C227.5 232.311 228.007 231.762 228.033 231.094C228.102 229.354 228.137 226.028 227.491 224.734C226.605 222.951 223.222 224.88 223.222 224.88Z" fill="url(#paint32_linear_352_11052)"/>
<path d="M202.42 226.166C202.015 226.157 202.583 228.232 201.972 230.272C201.835 230.734 201.49 231.094 201.008 231.103C200.698 231.103 200.328 231.103 199.95 231.069C199.382 231.026 198.934 230.589 198.874 230.023L198.383 224.734L202.42 226.166Z" fill="url(#paint33_linear_352_11052)"/>
<path d="M191.197 169.92C191.378 170.786 197.695 207.506 198.082 226.5C198.091 226.817 198.323 227.083 198.642 227.126C199.442 227.237 201.008 227.383 202.523 227.1C202.73 227.066 202.885 226.894 202.902 226.68C203.126 223.14 204.899 193.209 202.721 179.117C202.721 179.117 220.692 216.789 223.42 227.169C223.489 227.417 223.721 227.589 223.979 227.58C224.745 227.537 226.346 227.4 227.62 226.937C228.076 226.774 228.334 226.294 228.223 225.823C226.699 219.609 216.036 176.777 208.789 167.349L191.197 169.92Z" fill="url(#paint34_linear_352_11052)"/>
<path d="M202.721 179.357C202.781 179.357 202.841 179.331 202.884 179.288C202.979 179.194 202.979 179.048 202.884 178.954L200.475 176.502C200.38 176.408 200.234 176.408 200.139 176.502C200.044 176.597 200.044 176.742 200.139 176.837L202.549 179.288C202.592 179.331 202.652 179.357 202.721 179.357Z" fill="url(#paint35_linear_352_11052)"/>
<path d="M185.121 122.537C190.5 121.731 201.051 120.582 207.937 122.588L207.188 143.777L182.255 141.102L180.137 138.111C180.129 138.102 181.11 123.137 185.121 122.537Z" fill="url(#paint36_linear_352_11052)"/>
<path d="M197.54 111.197C197.54 111.197 198.039 119.623 197.944 122.246C197.944 122.246 191.016 123.377 189.372 122.194L190.672 112.209L197.54 111.197Z" fill="url(#paint37_linear_352_11052)"/>
<path d="M190.801 102.754C190.801 102.754 188.012 107.631 187.573 110.297C187.134 112.962 186.36 114.642 189.424 115.517C192.479 116.391 195.276 115.122 196.989 112.602C196.989 112.602 199.666 108.72 199.347 106.98C199.029 105.248 190.801 102.754 190.801 102.754Z" fill="url(#paint38_linear_352_11052)"/>
<path d="M196.128 110.571L195.732 110.528C195.732 110.528 197.712 107.383 196.352 106.645C194.992 105.908 189.458 104.16 188.46 102.025C187.496 99.9769 188.813 97.6026 190.457 97.0712C190.56 97.0369 190.672 97.0969 190.715 97.1998L190.818 97.4569C190.887 97.6369 191.137 97.6369 191.214 97.4569C191.283 97.2855 191.524 97.2769 191.601 97.4398C191.911 98.0741 192.815 99.1541 195.474 99.9426C199.244 101.065 201.619 102.883 201.396 105.54C201.378 105.711 201.551 105.823 201.706 105.745C202.007 105.6 202.471 105.574 203.022 106.148C203.986 107.143 203.306 109.397 200.785 111.034C200.664 111.111 200.647 111.283 200.759 111.377C201.146 111.694 201.706 112.405 199.993 113.1C198.237 113.803 197.264 113.605 196.912 113.468C196.817 113.434 196.757 113.331 196.774 113.237L197.17 110.905C197.187 110.785 197.101 110.674 196.98 110.657L196.128 110.571Z" fill="url(#paint39_linear_352_11052)"/>
<path d="M195.982 111.06C195.982 111.06 197.187 107.88 198.564 108.96C199.932 110.032 197.402 112.543 196.206 112.534L195.982 111.06Z" fill="url(#paint40_linear_352_11052)"/>
<path d="M166.108 139.115L166.771 136.526C167.098 135.249 168.381 134.443 169.68 134.709L231.958 147.36C233.378 147.652 234.29 149.032 233.989 150.446L230.193 168.369L166.108 139.115Z" fill="url(#paint41_linear_352_11052)"/>
<path d="M160.204 170.554L164.886 137.023C164.981 136.329 165.652 135.866 166.341 136.02L230.305 150.163C231.674 150.463 232.526 151.817 232.216 153.171L226.845 176.349L160.204 170.554Z" fill="white"/>
<path d="M161.9 169.037L163.69 139.115C163.733 138.343 164.456 137.795 165.213 137.957L229.849 151.577C230.762 151.766 231.364 152.64 231.218 153.557L227.775 175.175L161.9 169.037Z" fill="white"/>
<path d="M157.218 176.109L161.289 143.691C161.495 142.08 163.019 140.966 164.628 141.266L230.908 153.729C232.25 153.977 233.137 155.271 232.879 156.609L227.284 186.146C227.018 187.543 225.709 188.486 224.298 188.297L160.041 179.751C158.25 179.52 156.994 177.891 157.218 176.109Z" fill="url(#paint42_linear_352_11052)"/>
<path d="M187.943 145.655C187.685 147.026 186.351 147.935 184.974 147.678L170.196 144.9C168.819 144.643 167.907 143.315 168.165 141.943C168.423 140.572 169.758 139.663 171.135 139.92L185.912 142.698C187.298 142.955 188.202 144.283 187.943 145.655Z" fill="url(#paint43_linear_352_11052)"/>
<path d="M200.974 131.828L207.928 122.588C207.928 122.588 219.108 134.416 221.251 149.425L214.28 152.811C212.12 147.754 208.135 140.914 200.974 131.828Z" fill="url(#paint44_linear_352_11052)"/>
<path d="M210.94 173.443C211.767 172.071 213.376 169.457 214.159 168.643C214.159 168.643 213.445 168.189 212.068 168.36C210.699 168.531 209.624 167.863 209.658 167.117L216.208 165.12C216.5 164.511 217.8 161.031 214.28 152.811L221.251 149.426C222.052 155.049 221.595 161.109 218.807 167.169C218.807 167.169 216.638 173.863 214.151 175.354C207.661 179.229 210.622 173.974 210.94 173.443Z" fill="url(#paint45_linear_352_11052)"/>
<path d="M53.6371 86.5458L52.26 88.2772L52.2514 88.2858C52.1481 88.4143 51.9674 88.4315 51.8383 88.3372C51.7092 88.2343 51.692 88.0543 51.7866 87.9258C51.7866 87.9258 51.7866 87.9258 51.7952 87.9172L53.224 86.2029C53.3186 86.0915 53.4822 86.0743 53.594 86.1686C53.7145 86.2629 53.7231 86.4258 53.6371 86.5458Z" fill="white"/>
<path d="M48.9895 92.8544L46.6571 96.5573L46.6485 96.5744C46.528 96.763 46.2784 96.8144 46.0977 96.703C45.9083 96.583 45.8481 96.3344 45.9686 96.1544V96.1458L48.387 92.4601C48.4989 92.2973 48.7227 92.2459 48.8862 92.3573C49.0497 92.4601 49.1014 92.683 48.9981 92.8458L48.9895 92.8544Z" fill="white"/>
<path d="M43.9546 101.477L42.087 105.42L42.0784 105.446C41.9665 105.694 41.6653 105.797 41.4243 105.677C41.1747 105.566 41.0714 105.266 41.1919 105.026V105.017L43.1542 101.057C43.2661 100.834 43.5329 100.74 43.7567 100.852C43.9804 100.963 44.0751 101.229 43.9632 101.452L43.9546 101.477Z" fill="white"/>
<path d="M40.0041 110.632L38.6443 114.772L38.6356 114.806C38.5324 115.106 38.2053 115.278 37.9041 115.175C37.6029 115.072 37.4307 114.746 37.534 114.446V114.438L38.9799 110.263C39.0746 109.98 39.3844 109.835 39.6684 109.929C39.9439 110.023 40.0988 110.323 40.0041 110.606V110.632Z" fill="white"/>
<path d="M37.2583 120.188L36.4493 124.465L36.4407 124.5C36.3718 124.851 36.0361 125.083 35.6833 125.014C35.3304 124.945 35.098 124.611 35.1669 124.26V124.251L36.0361 119.914C36.105 119.58 36.4321 119.357 36.7677 119.425C37.1034 119.494 37.3185 119.811 37.2583 120.145V120.188Z" fill="white"/>
<path d="M35.7868 130.012L35.5716 134.349V134.392C35.5544 134.778 35.2273 135.078 34.84 135.052C34.4527 135.035 34.1515 134.709 34.1773 134.323V134.315L34.4441 129.892C34.47 129.523 34.7884 129.24 35.1585 129.258C35.5286 129.283 35.8126 129.592 35.7954 129.96L35.7868 130.012Z" fill="white"/>
<path d="M35.6836 139.937L36.0709 144.266V144.308C36.1053 144.72 35.8041 145.088 35.3824 145.123C34.9692 145.157 34.5991 144.857 34.5647 144.437V144.428L34.2205 140.014C34.186 139.611 34.4873 139.26 34.8918 139.234C35.2963 139.2 35.6405 139.5 35.675 139.894L35.6836 139.937Z" fill="white"/>
<path d="M36.9486 149.768L37.9212 153.994L37.9298 154.037C38.0331 154.474 37.7577 154.903 37.3187 155.005C36.8798 155.108 36.4494 154.834 36.3462 154.397V154.388L35.3994 150.06C35.3048 149.64 35.5716 149.22 36.0019 149.125C36.4236 149.031 36.8367 149.297 36.94 149.717L36.9486 149.768Z" fill="white"/>
<path d="M39.5478 159.343L41.0712 163.406L41.0884 163.449C41.2519 163.886 41.0281 164.375 40.5892 164.538C40.1503 164.7 39.6597 164.478 39.4962 164.04L37.9642 159.875C37.8006 159.438 38.0244 158.958 38.4634 158.803C38.9023 158.64 39.3843 158.863 39.5392 159.3L39.5478 159.343Z" fill="white"/>
<path d="M43.3605 168.489L45.3916 172.329L45.4175 172.371C45.6412 172.791 45.4777 173.323 45.056 173.546C44.6342 173.769 44.1006 173.606 43.8769 173.186L41.8113 169.26C41.5875 168.84 41.751 168.317 42.1727 168.103C42.5945 167.88 43.1195 168.043 43.3346 168.463L43.3605 168.489Z" fill="white"/>
<path d="M48.3182 177.086L50.8227 180.635L50.8485 180.677C51.1325 181.08 51.0293 181.629 50.6334 181.912C50.2288 182.195 49.678 182.092 49.394 181.697L46.8464 178.055C46.571 177.66 46.6657 177.112 47.0616 176.837C47.4575 176.563 48.0083 176.657 48.2837 177.052L48.3182 177.086Z" fill="white"/>
<path d="M54.3169 184.989L57.2432 188.195L57.2776 188.229C57.6132 188.598 57.5874 189.172 57.2173 189.506C56.8472 189.84 56.2706 189.815 55.9349 189.446L52.9484 186.155C52.6128 185.786 52.6472 185.22 53.0173 184.895C53.3874 184.56 53.9554 184.595 54.2825 184.963L54.3169 184.989Z" fill="white"/>
<path d="M61.2712 192.077L64.5934 194.88L64.6364 194.914C65.0237 195.24 65.0754 195.823 64.7483 196.208C64.4212 196.594 63.836 196.645 63.4487 196.32L60.0577 193.44C59.6704 193.114 59.6273 192.54 59.9544 192.154C60.2815 191.768 60.8581 191.725 61.2454 192.051L61.2712 192.077Z" fill="white"/>
<path d="M69.0947 198.163L70.9365 199.303L71.8574 199.877C72.1672 200.066 72.4685 200.263 72.7783 200.443C73.2345 200.691 73.398 201.266 73.1484 201.72C72.8988 202.174 72.3222 202.337 71.866 202.089L71.8402 202.071C71.5131 201.891 71.2033 201.686 70.8849 201.489L69.9381 200.897L68.0447 199.714C67.6057 199.44 67.4766 198.866 67.752 198.429C68.0274 197.991 68.6041 197.863 69.043 198.137L69.0947 198.163Z" fill="white"/>
<path d="M77.744 202.963C79.0608 203.563 80.3948 204.12 81.7461 204.626C82.2366 204.806 82.4862 205.355 82.2969 205.843C82.1162 206.332 81.5653 206.58 81.0747 206.392C79.6805 205.869 78.3034 205.303 76.9436 204.686C76.4616 204.472 76.255 203.906 76.4702 203.426C76.7026 202.963 77.2706 202.749 77.744 202.963Z" fill="white"/>
<path d="M87.0479 206.357L91.2651 207.403L91.3254 207.42C91.8246 207.54 92.1344 208.046 92.0053 208.551C91.8848 209.049 91.377 209.357 90.8778 209.229L86.5401 208.166C86.0323 208.046 85.7225 207.531 85.8516 207.034C85.9721 206.529 86.4885 206.22 86.9876 206.349L87.0479 206.357Z" fill="white"/>
<path d="M96.7737 208.363L101.103 208.817L101.154 208.826C101.662 208.877 102.024 209.332 101.972 209.837C101.92 210.343 101.464 210.703 100.965 210.652L96.5327 210.197C96.0249 210.146 95.6548 209.692 95.7065 209.186C95.7581 208.68 96.2143 208.312 96.7221 208.363H96.7737Z" fill="white"/>
<path d="M106.697 209.066L111.052 208.997H111.095C111.586 208.989 111.982 209.374 111.99 209.863C111.999 210.343 111.611 210.746 111.129 210.754L106.68 210.857C106.181 210.866 105.768 210.48 105.759 209.983C105.75 209.486 106.138 209.074 106.637 209.066H106.645H106.697Z" fill="white"/>
<path d="M116.646 208.586L120.975 208.028L121.018 208.02C121.483 207.96 121.905 208.286 121.965 208.748C122.025 209.203 121.698 209.623 121.242 209.691L116.836 210.291C116.362 210.36 115.932 210.026 115.863 209.554C115.794 209.083 116.13 208.654 116.603 208.586H116.612H116.646Z" fill="white"/>
<path d="M126.501 207.034L130.753 206.049L130.787 206.04C131.2 205.946 131.613 206.203 131.708 206.614C131.803 207.026 131.553 207.429 131.14 207.531L126.837 208.594C126.406 208.697 125.967 208.44 125.864 208.011C125.761 207.583 126.019 207.146 126.449 207.043H126.458L126.501 207.034Z" fill="white"/>
<path d="M136.166 204.514L140.314 203.126L140.34 203.117C140.702 202.997 141.097 203.194 141.227 203.554C141.347 203.914 141.158 204.3 140.796 204.429L136.613 205.903C136.235 206.04 135.822 205.834 135.684 205.457C135.546 205.08 135.753 204.669 136.131 204.531H136.14L136.166 204.514Z" fill="white"/>
<path d="M145.556 201.085L149.567 199.328L149.592 199.32C149.911 199.182 150.272 199.32 150.41 199.637C150.548 199.945 150.41 200.305 150.1 200.451L146.072 202.285C145.745 202.44 145.358 202.294 145.203 201.968C145.048 201.642 145.194 201.257 145.522 201.102C145.522 201.102 145.522 201.102 145.53 201.102L145.556 201.085Z" fill="white"/>
<path d="M154.627 196.869L158.483 194.794L158.5 194.786C158.75 194.649 159.06 194.743 159.189 194.991C159.318 195.231 159.232 195.54 158.991 195.669L155.152 197.854C154.885 198.009 154.541 197.914 154.386 197.649C154.231 197.383 154.326 197.04 154.593 196.886C154.593 196.886 154.601 196.886 154.601 196.877L154.627 196.869Z" fill="white"/>
<path d="M163.337 191.914L167.021 189.532L167.029 189.523C167.21 189.403 167.451 189.454 167.563 189.634C167.675 189.814 167.632 190.046 167.46 190.166L163.81 192.652C163.613 192.789 163.337 192.737 163.199 192.54C163.062 192.343 163.113 192.069 163.311 191.932C163.311 191.932 163.32 191.932 163.32 191.923L163.337 191.914Z" fill="white"/>
<path d="M171.651 186.283L173.433 184.954C173.554 184.869 173.717 184.894 173.803 185.006C173.889 185.117 173.872 185.28 173.76 185.374L172.022 186.763C171.892 186.866 171.703 186.849 171.6 186.72C171.497 186.591 171.514 186.403 171.643 186.3C171.643 186.291 171.643 186.291 171.651 186.283Z" fill="white"/>
</g>
<defs>
<linearGradient id="paint0_linear_352_11052" x1="243.622" y1="260.798" x2="26.5115" y2="12.4394" gradientUnits="userSpaceOnUse">
<stop stop-color="#018543"/>
<stop offset="1" stop-color="#F895E7"/>
</linearGradient>
<linearGradient id="paint1_linear_352_11052" x1="46.4096" y1="229.441" x2="224.269" y2="57.1559" gradientUnits="userSpaceOnUse">
<stop stop-color="#018543"/>
<stop offset="1" stop-color="#EF497A"/>
</linearGradient>
<linearGradient id="paint2_linear_352_11052" x1="162.371" y1="38.2267" x2="87.8921" y2="110.979" gradientUnits="userSpaceOnUse">
<stop stop-color="#FDF53F"/>
<stop offset="1" stop-color="#D93C65"/>
</linearGradient>
<linearGradient id="paint3_linear_352_11052" x1="170.714" y1="46.7692" x2="96.2372" y2="119.52" gradientUnits="userSpaceOnUse">
<stop stop-color="#FDF53F"/>
<stop offset="1" stop-color="#D93C65"/>
</linearGradient>
<linearGradient id="paint4_linear_352_11052" x1="149.44" y1="92.0275" x2="91.8733" y2="155.628" gradientUnits="userSpaceOnUse">
<stop stop-color="#018543"/>
<stop offset="1" stop-color="#EF497A"/>
</linearGradient>
<linearGradient id="paint5_linear_352_11052" x1="156.265" y1="98.2048" x2="98.6978" y2="161.806" gradientUnits="userSpaceOnUse">
<stop stop-color="#018543"/>
<stop offset="1" stop-color="#EF497A"/>
</linearGradient>
<linearGradient id="paint6_linear_352_11052" x1="159.04" y1="117.399" x2="86.908" y2="183.655" gradientUnits="userSpaceOnUse">
<stop stop-color="#018543"/>
<stop offset="1" stop-color="#EF497A"/>
</linearGradient>
<linearGradient id="paint7_linear_352_11052" x1="169.913" y1="110.559" x2="112.346" y2="174.159" gradientUnits="userSpaceOnUse">
<stop stop-color="#018543"/>
<stop offset="1" stop-color="#EF497A"/>
</linearGradient>
<linearGradient id="paint8_linear_352_11052" x1="22.668" y1="263.215" x2="117.555" y2="34.9005" gradientUnits="userSpaceOnUse">
<stop stop-color="#018543"/>
<stop offset="1" stop-color="#EF497A"/>
</linearGradient>
<linearGradient id="paint9_linear_352_11052" x1="32.8795" y1="41.5857" x2="116.475" y2="136.992" gradientUnits="userSpaceOnUse">
<stop stop-color="#018543"/>
<stop offset="1" stop-color="#7A1DBC"/>
</linearGradient>
<linearGradient id="paint10_linear_352_11052" x1="25.4844" y1="48.0656" x2="109.08" y2="143.471" gradientUnits="userSpaceOnUse">
<stop stop-color="#018543"/>
<stop offset="1" stop-color="#7A1DBC"/>
</linearGradient>
<linearGradient id="paint11_linear_352_11052" x1="88.6711" y1="105.288" x2="61.0428" y2="186.373" gradientUnits="userSpaceOnUse">
<stop stop-color="#018543"/>
<stop offset="1" stop-color="#EF497A"/>
</linearGradient>
<linearGradient id="paint12_linear_352_11052" x1="125.525" y1="213.073" x2="115.284" y2="-91.3225" gradientUnits="userSpaceOnUse">
<stop stop-color="#2B3582"/>
<stop offset="1" stop-color="#150E42"/>
</linearGradient>
<linearGradient id="paint13_linear_352_11052" x1="28.1597" y1="185.376" x2="144.909" y2="259.851" gradientUnits="userSpaceOnUse">
<stop stop-color="#018543"/>
<stop offset="1" stop-color="#EF497A"/>
</linearGradient>
<linearGradient id="paint14_linear_352_11052" x1="37.9825" y1="169.977" x2="154.732" y2="244.451" gradientUnits="userSpaceOnUse">
<stop stop-color="#018543"/>
<stop offset="1" stop-color="#EF497A"/>
</linearGradient>
<linearGradient id="paint15_linear_352_11052" x1="37.987" y1="255.736" x2="168.19" y2="62.8526" gradientUnits="userSpaceOnUse">
<stop stop-color="#018543"/>
<stop offset="1" stop-color="#EF497A"/>
</linearGradient>
<linearGradient id="paint16_linear_352_11052" x1="89.5673" y1="42.8214" x2="118.267" y2="128.817" gradientUnits="userSpaceOnUse">
<stop stop-color="#FDF53F"/>
<stop offset="1" stop-color="#D93C65"/>
</linearGradient>
<linearGradient id="paint17_linear_352_11052" x1="84.1482" y1="44.6299" x2="112.848" y2="130.626" gradientUnits="userSpaceOnUse">
<stop stop-color="#FDF53F"/>
<stop offset="1" stop-color="#D93C65"/>
</linearGradient>
<linearGradient id="paint18_linear_352_11052" x1="64.9846" y1="108.962" x2="172.716" y2="195.432" gradientUnits="userSpaceOnUse">
<stop stop-color="#018543"/>
<stop offset="1" stop-color="#EF497A"/>
</linearGradient>
<linearGradient id="paint19_linear_352_11052" x1="83.4127" y1="86.0038" x2="191.144" y2="172.474" gradientUnits="userSpaceOnUse">
<stop stop-color="#018543"/>
<stop offset="1" stop-color="#EF497A"/>
</linearGradient>
<linearGradient id="paint20_linear_352_11052" x1="106.054" y1="109.363" x2="65.4211" y2="178.999" gradientUnits="userSpaceOnUse">
<stop stop-color="#018543"/>
<stop offset="1" stop-color="#EF497A"/>
</linearGradient>
<linearGradient id="paint21_linear_352_11052" x1="113.538" y1="113.731" x2="72.9053" y2="183.366" gradientUnits="userSpaceOnUse">
<stop stop-color="#018543"/>
<stop offset="1" stop-color="#EF497A"/>
</linearGradient>
<linearGradient id="paint22_linear_352_11052" x1="119.831" y1="130.86" x2="66.3301" y2="205.762" gradientUnits="userSpaceOnUse">
<stop stop-color="#018543"/>
<stop offset="1" stop-color="#EF497A"/>
</linearGradient>
<linearGradient id="paint23_linear_352_11052" x1="128.507" y1="122.465" x2="87.874" y2="192.1" gradientUnits="userSpaceOnUse">
<stop stop-color="#018543"/>
<stop offset="1" stop-color="#EF497A"/>
</linearGradient>
<linearGradient id="paint24_linear_352_11052" x1="141.705" y1="0.768666" x2="90.3335" y2="68.6247" gradientUnits="userSpaceOnUse">
<stop stop-color="#2B3582"/>
<stop offset="1" stop-color="#150E42"/>
</linearGradient>
<linearGradient id="paint25_linear_352_11052" x1="147.37" y1="5.05679" x2="95.9981" y2="72.9129" gradientUnits="userSpaceOnUse">
<stop stop-color="#2B3582"/>
<stop offset="1" stop-color="#150E42"/>
</linearGradient>
<linearGradient id="paint26_linear_352_11052" x1="140.862" y1="9.19531" x2="105.431" y2="74.5216" gradientUnits="userSpaceOnUse">
<stop stop-color="#018543"/>
<stop offset="1" stop-color="#7A1DBC"/>
</linearGradient>
<linearGradient id="paint27_linear_352_11052" x1="146.464" y1="98.1116" x2="215.837" y2="-1.3349" gradientUnits="userSpaceOnUse">
<stop stop-color="#018543"/>
<stop offset="1" stop-color="#018543"/>
</linearGradient>
<linearGradient id="paint28_linear_352_11052" x1="203.229" y1="233.315" x2="187.296" y2="233.315" gradientUnits="userSpaceOnUse">
<stop stop-color="#2B3582"/>
<stop offset="1" stop-color="#150E42"/>
</linearGradient>
<linearGradient id="paint29_linear_352_11052" x1="175.229" y1="213.125" x2="208.269" y2="251.195" gradientUnits="userSpaceOnUse">
<stop stop-color="#53D8FF"/>
<stop offset="1" stop-color="#3840F7"/>
</linearGradient>
<linearGradient id="paint30_linear_352_11052" x1="231.219" y1="233.355" x2="223.758" y2="233.355" gradientUnits="userSpaceOnUse">
<stop stop-color="#2B3582"/>
<stop offset="1" stop-color="#150E42"/>
</linearGradient>
<linearGradient id="paint31_linear_352_11052" x1="193.417" y1="197.339" x2="226.458" y2="235.408" gradientUnits="userSpaceOnUse">
<stop stop-color="#53D8FF"/>
<stop offset="1" stop-color="#3840F7"/>
</linearGradient>
<linearGradient id="paint32_linear_352_11052" x1="228.064" y1="228.232" x2="223.223" y2="228.232" gradientUnits="userSpaceOnUse">
<stop stop-color="#F9B776"/>
<stop offset="1" stop-color="#F47960"/>
</linearGradient>
<linearGradient id="paint33_linear_352_11052" x1="202.419" y1="227.917" x2="198.384" y2="227.917" gradientUnits="userSpaceOnUse">
<stop stop-color="#F9B776"/>
<stop offset="1" stop-color="#F47960"/>
</linearGradient>
<linearGradient id="paint34_linear_352_11052" x1="305.585" y1="248.369" x2="214.181" y2="202.134" gradientUnits="userSpaceOnUse">
<stop stop-color="#2B3582"/>
<stop offset="1" stop-color="#150E42"/>
</linearGradient>
<linearGradient id="paint35_linear_352_11052" x1="192.386" y1="166.142" x2="208.814" y2="187.469" gradientUnits="userSpaceOnUse">
<stop stop-color="#CB236D"/>
<stop offset="1" stop-color="#4C246D"/>
</linearGradient>
<linearGradient id="paint36_linear_352_11052" x1="176.667" y1="97.8755" x2="234.824" y2="207.534" gradientUnits="userSpaceOnUse">
<stop stop-color="#018543"/>
<stop offset="1" stop-color="#3840F7"/>
</linearGradient>
<linearGradient id="paint37_linear_352_11052" x1="193.996" y1="126.758" x2="193.37" y2="115.033" gradientUnits="userSpaceOnUse">
<stop stop-color="#F9B776"/>
<stop offset="1" stop-color="#F47960"/>
</linearGradient>
<linearGradient id="paint38_linear_352_11052" x1="189.849" y1="107.209" x2="201.534" y2="118.368" gradientUnits="userSpaceOnUse">
<stop stop-color="#F9B776"/>
<stop offset="1" stop-color="#F47960"/>
</linearGradient>
<linearGradient id="paint39_linear_352_11052" x1="186.628" y1="103.363" x2="218.734" y2="112.113" gradientUnits="userSpaceOnUse">
<stop stop-color="#CE1567"/>
<stop offset="1" stop-color="#7A1DBC"/>
</linearGradient>
<linearGradient id="paint40_linear_352_11052" x1="191.658" y1="105.315" x2="203.343" y2="116.474" gradientUnits="userSpaceOnUse">
<stop stop-color="#F9B776"/>
<stop offset="1" stop-color="#F47960"/>
</linearGradient>
<linearGradient id="paint41_linear_352_11052" x1="168.133" y1="108.694" x2="259.411" y2="210.438" gradientUnits="userSpaceOnUse">
<stop stop-color="#FDF53F"/>
<stop offset="1" stop-color="#D93C65"/>
</linearGradient>
<linearGradient id="paint42_linear_352_11052" x1="162.765" y1="123.414" x2="218.003" y2="197.673" gradientUnits="userSpaceOnUse">
<stop stop-color="#FDF53F"/>
<stop offset="1" stop-color="#D93C65"/>
</linearGradient>
<linearGradient id="paint43_linear_352_11052" x1="162.767" y1="123.413" x2="218.005" y2="197.672" gradientUnits="userSpaceOnUse">
<stop stop-color="#FDF53F"/>
<stop offset="1" stop-color="#D93C65"/>
</linearGradient>
<linearGradient id="paint44_linear_352_11052" x1="186.827" y1="92.487" x2="244.984" y2="202.145" gradientUnits="userSpaceOnUse">
<stop stop-color="#018543"/>
<stop offset="1" stop-color="#3840F7"/>
</linearGradient>
<linearGradient id="paint45_linear_352_11052" x1="210.027" y1="170.402" x2="229.309" y2="142.562" gradientUnits="userSpaceOnUse">
<stop stop-color="#F9B776"/>
<stop offset="1" stop-color="#F47960"/>
</linearGradient>
<clipPath id="clip0_352_11052">
<rect width="243" height="240" fill="white"/>
</clipPath>
</defs>
</svg>
