<svg width="104" height="87" viewBox="0 0 104 87" fill="none" xmlns="http://www.w3.org/2000/svg">
<g opacity="0.46">
<path d="M82.4974 17.0702H36.5936C36.1016 17.0702 35.7594 16.6173 35.8877 16.1429L40.1658 -0.460837C40.2514 -0.784288 40.5508 -1.02148 40.8717 -1.02148H86.754C87.246 -1.02148 87.5883 -0.568654 87.4599 -0.0942607L83.1818 16.5095C83.1177 16.8545 82.8182 17.0702 82.4974 17.0702Z" fill="#D0F1E1"/>
<path d="M42.9038 2.55811H58.861" stroke="#018543" stroke-opacity="0.65" stroke-width="3.4455" stroke-miterlimit="10" stroke-linecap="round" stroke-linejoin="round"/>
<path d="M41.6631 9.97583H57.6417" stroke="#018543" stroke-opacity="0.65" stroke-width="3.4455" stroke-miterlimit="10" stroke-linecap="round" stroke-linejoin="round"/>
<path d="M48.3796 7.17261H64.3582" stroke="#018543" stroke-opacity="0.65" stroke-width="3.4455" stroke-miterlimit="10" stroke-linecap="round" stroke-linejoin="round"/>
<path d="M42.4758 5.01636H47.2673" stroke="#018543" stroke-opacity="0.65" stroke-width="3.4455" stroke-miterlimit="10" stroke-linecap="round" stroke-linejoin="round"/>
<path d="M41.8342 7.17261H46.6257" stroke="#018543" stroke-opacity="0.65" stroke-width="3.4455" stroke-miterlimit="10" stroke-linecap="round" stroke-linejoin="round"/>
<path d="M61.4065 2.55811H67.0963" stroke="#018543" stroke-opacity="0.65" stroke-width="3.4455" stroke-miterlimit="10" stroke-linecap="round" stroke-linejoin="round"/>
<path d="M64.1873 13.4692H55.6953C55.6525 13.4692 55.6311 13.4261 55.6311 13.383L56.0161 11.9167C56.0161 11.8951 56.0589 11.8735 56.0803 11.8735H64.5723C64.6151 11.8735 64.6365 11.9167 64.6365 11.9598L64.2514 13.4261C64.2514 13.4477 64.23 13.4692 64.1873 13.4692Z" stroke="#018543" stroke-opacity="0.57" stroke-width="1.1485" stroke-miterlimit="10"/>
<path d="M53.6204 13.4692H45.1284C45.0856 13.4692 45.0642 13.4261 45.0642 13.383L45.4492 11.9167C45.4492 11.8951 45.492 11.8735 45.5134 11.8735H54.0054C54.0482 11.8735 54.0696 11.9167 54.0696 11.9598L53.6845 13.4261C53.6845 13.4477 53.6631 13.4692 53.6204 13.4692Z" stroke="#018543" stroke-opacity="0.57" stroke-width="1.1485" stroke-miterlimit="10"/>
<path d="M79.1177 11.3343C78.6899 10.7521 76.9145 10.3209 76.4225 9.73866C76.1658 9.43677 76.1658 8.87613 76.23 8.4233C76.4011 8.31548 76.5508 8.20766 76.6364 8.09985C76.7861 7.88421 76.9573 7.58233 77.107 7.25888C77.1498 7.302 77.2139 7.34513 77.3209 7.34513C77.5562 7.34513 78.4332 6.11602 78.1979 5.8357C78.0696 5.68475 77.8556 5.81413 77.7059 5.96508C77.9412 5.42599 78.1123 5.01629 78.1123 5.01629C78.1337 4.9516 78.1551 4.88691 78.1765 4.80066C78.5188 3.37748 77.6631 2.23462 76.2728 2.23462C74.861 2.23462 73.4492 3.37748 73.0856 4.80066C73.0642 4.86535 73.0642 4.93004 73.0428 5.01629C73.0428 5.01629 73 5.42599 72.9786 5.96508C72.8931 5.81413 72.7647 5.68475 72.5508 5.8357C72.1872 6.11602 72.4653 7.32357 72.7006 7.34513C72.7861 7.34513 72.8717 7.302 72.9359 7.25888C72.9359 7.58233 72.9572 7.88421 73 8.09985C73.0428 8.22923 73.1712 8.35861 73.3209 8.50955C73.1498 8.96238 72.8717 9.4799 72.5081 9.76023C71.738 10.3424 69.7487 10.7737 69.0214 11.3559C68.3797 11.8734 67.7808 13.426 67.6738 13.7279H79.3102C79.3316 13.3829 79.5241 11.8519 79.1177 11.3343Z" fill="#018543" fill-opacity="0.38"/>
</g>
<path d="M74.4974 30.2884H28.6151C28.1231 30.2884 27.7809 29.8356 27.9092 29.3612L32.1873 12.7574C32.2728 12.434 32.5723 12.1968 32.8932 12.1968H78.7755C79.2675 12.1968 79.6097 12.6496 79.4814 13.124L75.2033 29.7278C75.1392 30.0512 74.8397 30.2884 74.4974 30.2884Z" stroke="#018543" stroke-opacity="0.39" stroke-width="1.1485" stroke-miterlimit="10"/>
<path d="M73.6417 29.0594H27.7594C27.2674 29.0594 26.9252 28.6066 27.0535 28.1322L31.3316 11.5284C31.4171 11.205 31.7166 10.9678 32.0375 10.9678H77.9198C78.4118 10.9678 78.754 11.4206 78.6257 11.895L74.3476 28.4988C74.2834 28.8222 73.984 29.0594 73.6417 29.0594Z" fill="#82DBAE"/>
<path d="M42.155 29.0593H65.1283" stroke="#018543" stroke-opacity="0.39" stroke-width="1.1485" stroke-miterlimit="10"/>
<path d="M35.7593 10.9678H55.1817" stroke="#018543" stroke-opacity="0.39" stroke-width="1.1485" stroke-miterlimit="10"/>
<path d="M69.9412 26.5796H59.631C59.1604 26.5796 58.8609 26.1915 58.9893 25.7171L61.5775 15.1726C61.7059 14.6982 62.1764 14.3101 62.647 14.3101H72.9572C73.4278 14.3101 73.7273 14.6982 73.5989 15.1726L71.0107 25.6955C70.9037 26.1915 70.4117 26.5796 69.9412 26.5796Z" fill="#018543"/>
<path d="M64.8715 26.6226L65.7699 22.9784L64.294 22.353C64.294 22.353 61.5346 23.3665 61.2993 23.6253C61.1068 23.8409 60.1015 25.9541 59.802 26.6441H64.8715V26.6226Z" fill="#023F61"/>
<path d="M69.9838 26.6226C70.0052 25.9326 70.0694 23.8194 69.9838 23.6038C69.8769 23.3666 67.6095 22.3315 67.6095 22.3315L65.8127 22.9569L64.9143 26.6011H69.9838V26.6226Z" fill="#023F61"/>
<path d="M65.8126 26.6227L67.2243 23.4529L64.1869 23.6254L63.8875 26.6227H65.8126Z" fill="#BEBECF"/>
<path d="M64.8501 21.6631L64.187 22.0943L63.7592 23.1294L63.6309 24.5741L64.572 24.186L65.2993 25.0701L66.2619 24.2722L66.8608 24.8329L67.7592 22.8922L67.5881 21.7062L67.2244 21.5337L64.8501 21.6631Z" fill="#DEE0E8"/>
<path d="M65.0426 18.9029C65.0426 18.9029 64.8286 18.3854 64.3581 18.7304C63.9089 19.0754 64.4436 20.3692 64.7645 19.9811C65.1067 19.5929 65.0426 18.9029 65.0426 18.9029Z" fill="#FB8E74"/>
<path d="M68.2939 18.8815C68.2939 18.8815 68.7217 18.3424 69.064 18.6443C69.3848 18.9462 68.3153 20.3263 68.1442 19.9597C67.9517 19.5715 68.2939 18.8815 68.2939 18.8815Z" fill="#FB8E74"/>
<path d="M67.2886 22.6766L67.7592 20.1753L65.064 20.4125L64.4651 22.7629C64.4651 22.7629 64.9357 23.8626 65.449 24.3586C65.4277 24.3586 67.0105 23.0001 67.2886 22.6766Z" fill="#FB8877"/>
<path d="M69.4703 17.8679C69.3634 18.1698 69.1281 18.2561 69.1067 18.4286C69.0853 18.6011 68.9783 19.0539 68.8072 19.2264C68.6361 19.3989 68.5505 19.4636 68.5505 19.4636C68.5505 19.4636 66.2404 20.1105 65.0639 19.2049C65.0639 19.2049 64.9783 18.8599 65.0639 18.4502C65.1495 18.0405 64.957 17.9758 65.1709 17.7601C65.4062 17.5661 65.4703 17.372 65.4703 17.1564C65.4703 16.9192 65.4917 16.6604 65.727 16.4232C65.9623 16.186 66.1762 16.2723 66.3901 16.0782C66.3901 16.0782 66.7324 15.5175 67.1816 15.4313C67.6308 15.3666 68.5719 15.1294 69.1281 15.8194C69.6842 16.5095 69.4275 17.1132 69.5987 17.3289C69.7484 17.5661 69.4703 17.8679 69.4703 17.8679Z" fill="#713336"/>
<path d="M65.0424 18.4718C65.0424 18.4718 63.9515 21.5122 66.005 21.7279C67.8232 21.771 68.4649 19.5284 68.7216 18.3855C68.9783 17.2427 68.8285 16.0351 67.374 16.0783C65.9194 16.1214 65.1922 17.7818 65.0424 18.4718Z" fill="#FBA990"/>
<path d="M65.5988 17.3935C65.5988 17.3935 65.7271 17.6307 65.5988 17.8895C65.4704 18.1267 65.1282 18.2345 65.0854 18.558C65.0426 18.8814 64.8929 19.5499 64.7859 19.593C64.7004 19.6146 64.7646 18.9461 64.7646 18.7089C64.7859 18.4717 64.9571 17.5014 65.4491 16.876C65.941 16.2507 66.2405 15.9919 67.0961 15.8625C67.9517 15.7116 68.6148 16.0782 68.8501 16.6173C69.0854 17.1563 68.7004 18.4933 68.7004 18.4933C68.7004 18.4933 68.7646 17.8464 68.5507 17.6954C68.3368 17.5445 68.1656 17.4367 68.187 17.3504C68.2298 17.2642 67.5025 17.5876 66.7753 17.3504C66.048 17.1132 65.8341 17.221 65.7057 17.3073C65.6416 17.3289 65.5988 17.3935 65.5988 17.3935Z" fill="#713336"/>
<path d="M63.5666 23.1726C63.5452 23.2373 62.5613 25.6093 62.5613 25.6093L63.4383 26.0405L63.203 26.5365" stroke="#022755" stroke-width="0.4884" stroke-miterlimit="10"/>
<path d="M67.8447 23.1726C67.8233 23.2373 67.6522 25.6093 67.6522 25.6093L66.5613 26.0405V26.5365" stroke="#022755" stroke-width="0.4884" stroke-miterlimit="10"/>
<path d="M69.9412 26.5796H59.631C59.1604 26.5796 58.8609 26.1915 58.9893 25.7171L61.5775 15.1726C61.7059 14.6982 62.1764 14.3101 62.647 14.3101H72.9572C73.4278 14.3101 73.7273 14.6982 73.5989 15.1726L71.0107 25.6955C70.9037 26.1915 70.4117 26.5796 69.9412 26.5796Z" stroke="white" stroke-width="1.1485" stroke-miterlimit="10"/>
<path d="M34.0481 14.9355H50.0267" stroke="#018543" stroke-opacity="0.54" stroke-width="3.4455" stroke-miterlimit="10" stroke-linecap="round" stroke-linejoin="round"/>
<path d="M32.8289 22.3533H48.7861" stroke="#018543" stroke-opacity="0.54" stroke-width="3.4455" stroke-miterlimit="10" stroke-linecap="round" stroke-linejoin="round"/>
<path d="M39.5454 19.55H55.5026" stroke="#018543" stroke-opacity="0.54" stroke-width="3.4455" stroke-miterlimit="10" stroke-linecap="round" stroke-linejoin="round"/>
<path d="M33.6418 17.4153H38.4333" stroke="#018543" stroke-opacity="0.54" stroke-width="3.4455" stroke-miterlimit="10" stroke-linecap="round" stroke-linejoin="round"/>
<path d="M32.9785 19.55H37.77" stroke="#018543" stroke-opacity="0.54" stroke-width="3.4455" stroke-miterlimit="10" stroke-linecap="round" stroke-linejoin="round"/>
<path d="M52.5508 14.9355H58.2406" stroke="#018543" stroke-opacity="0.54" stroke-width="3.4455" stroke-miterlimit="10" stroke-linecap="round" stroke-linejoin="round"/>
<path d="M55.3529 25.8464H46.8396C46.7968 25.8464 46.7754 25.8033 46.7754 25.7602L47.1604 24.2939C47.1604 24.2723 47.2032 24.2507 47.2246 24.2507H55.7166C55.7593 24.2507 55.7807 24.2939 55.7807 24.337L55.3957 25.8033C55.3957 25.8249 55.3743 25.8464 55.3529 25.8464Z" stroke="#018543" stroke-opacity="0.39" stroke-width="1.1485" stroke-miterlimit="10"/>
<path d="M44.7861 25.8464H36.2942C36.2514 25.8464 36.23 25.8033 36.23 25.7602L36.615 24.2939C36.615 24.2723 36.6578 24.2507 36.6792 24.2507H45.1712C45.2139 24.2507 45.2353 24.2939 45.2353 24.337L44.8503 25.8033C44.8289 25.8249 44.8075 25.8464 44.7861 25.8464Z" stroke="#018543" stroke-opacity="0.39" stroke-width="1.1485" stroke-miterlimit="10"/>
<path d="M54.5615 9.11328H64.508" stroke="#018543" stroke-opacity="0.39" stroke-width="1.1485" stroke-miterlimit="10"/>
<path d="M74.1337 52.7359H28.2513C27.7593 52.7359 27.4171 52.2831 27.5454 51.8087L31.8235 35.2049C31.9091 34.8815 32.2085 34.6443 32.5294 34.6443H78.4118C78.9037 34.6443 79.246 35.0971 79.1176 35.5715L74.8396 52.1753C74.7754 52.5203 74.4759 52.7359 74.1337 52.7359Z" fill="#D0F1E1"/>
<path d="M34.54 38.2021H50.5186" stroke="#018543" stroke-opacity="0.65" stroke-width="3.4455" stroke-miterlimit="10" stroke-linecap="round" stroke-linejoin="round"/>
<path d="M33.3208 45.6416H49.278" stroke="#018543" stroke-opacity="0.65" stroke-width="3.4455" stroke-miterlimit="10" stroke-linecap="round" stroke-linejoin="round"/>
<path d="M40.0374 42.8384H55.9946" stroke="#018543" stroke-opacity="0.65" stroke-width="3.4455" stroke-miterlimit="10" stroke-linecap="round" stroke-linejoin="round"/>
<path d="M34.1335 40.6819H38.925" stroke="#018543" stroke-opacity="0.65" stroke-width="3.4455" stroke-miterlimit="10" stroke-linecap="round" stroke-linejoin="round"/>
<path d="M33.4705 42.8384H38.2619" stroke="#018543" stroke-opacity="0.65" stroke-width="3.4455" stroke-miterlimit="10" stroke-linecap="round" stroke-linejoin="round"/>
<path d="M53.0427 38.2021H58.7326" stroke="#018543" stroke-opacity="0.65" stroke-width="3.4455" stroke-miterlimit="10" stroke-linecap="round" stroke-linejoin="round"/>
<path d="M55.845 49.1347H47.353C47.3102 49.1347 47.2888 49.0916 47.2888 49.0485L47.6738 47.5822C47.6738 47.5606 47.7166 47.5391 47.738 47.5391H56.23C56.2728 47.5391 56.2942 47.5822 56.2942 47.6253L55.9091 49.0916C55.8877 49.1132 55.8664 49.1347 55.845 49.1347Z" stroke="#018543" stroke-opacity="0.57" stroke-width="1.1485" stroke-miterlimit="10"/>
<path d="M45.2781 49.1347H36.7861C36.7433 49.1347 36.7219 49.0916 36.7219 49.0485L37.107 47.5822C37.107 47.5606 37.1497 47.5391 37.1711 47.5391H45.6631C45.7059 47.5391 45.7273 47.5822 45.7273 47.6253L45.3422 49.0916C45.3209 49.1132 45.2995 49.1347 45.2781 49.1347Z" stroke="#018543" stroke-opacity="0.57" stroke-width="1.1485" stroke-miterlimit="10"/>
<path d="M70.7754 47.0001C70.3476 46.4179 68.5722 45.9866 68.0802 45.4044C67.8235 45.1025 67.8235 44.5419 67.8877 44.0891C68.0588 43.9813 68.2085 43.8734 68.2941 43.7656C68.4438 43.55 68.615 43.2481 68.7647 42.9246C68.8075 42.9678 68.8717 43.0109 68.9786 43.0109C69.2139 43.0109 70.0909 41.7818 69.8556 41.5015C69.7273 41.3505 69.5134 41.4799 69.3636 41.6308C69.5989 41.0918 69.7701 40.6821 69.7701 40.6821C69.7914 40.6174 69.8128 40.5527 69.8342 40.4664C70.1765 39.0432 69.3209 37.9004 67.9305 37.9004C66.5187 37.9004 65.1069 39.0432 64.7433 40.4664C64.7219 40.5311 64.7219 40.5958 64.7005 40.6821C64.7005 40.6821 64.6578 41.0918 64.6364 41.6308C64.5508 41.4799 64.4225 41.3505 64.2086 41.5015C63.8449 41.7818 64.123 42.9893 64.3583 43.0109C64.4438 43.0109 64.5294 42.9678 64.5936 42.9246C64.5936 43.2481 64.615 43.55 64.6577 43.7656C64.7005 43.895 64.8289 44.0244 64.9786 44.1753C64.8075 44.6282 64.5294 45.1457 64.1658 45.426C63.3957 46.0082 61.4064 46.4395 60.6791 47.0217C60.0374 47.5392 59.4385 49.0918 59.3315 49.3937H70.9679C70.9893 49.0486 71.1604 47.5176 70.7754 47.0001Z" fill="#018543" fill-opacity="0.38"/>
<g opacity="0.46">
<path d="M69.3849 74.86H23.5025C23.0106 74.86 22.6683 74.4071 22.7967 73.9327L27.0747 57.329C27.1603 57.0055 27.4598 56.7683 27.7806 56.7683H73.663C74.1549 56.7683 74.4972 57.2211 74.3689 57.6955L70.0908 74.2993C70.0266 74.6443 69.7271 74.86 69.3849 74.86Z" fill="#D0F1E1"/>
<path d="M29.7913 60.3262H45.7699" stroke="#018543" stroke-opacity="0.65" stroke-width="3.4455" stroke-miterlimit="10" stroke-linecap="round" stroke-linejoin="round"/>
<path d="M28.572 67.7656H44.5292" stroke="#018543" stroke-opacity="0.65" stroke-width="3.4455" stroke-miterlimit="10" stroke-linecap="round" stroke-linejoin="round"/>
<path d="M35.2886 64.9624H51.2458" stroke="#018543" stroke-opacity="0.65" stroke-width="3.4455" stroke-miterlimit="10" stroke-linecap="round" stroke-linejoin="round"/>
<path d="M29.3848 62.8059H34.1762" stroke="#018543" stroke-opacity="0.65" stroke-width="3.4455" stroke-miterlimit="10" stroke-linecap="round" stroke-linejoin="round"/>
<path d="M28.7217 64.9624H33.5131" stroke="#018543" stroke-opacity="0.65" stroke-width="3.4455" stroke-miterlimit="10" stroke-linecap="round" stroke-linejoin="round"/>
<path d="M48.2939 60.3262H53.9838" stroke="#018543" stroke-opacity="0.65" stroke-width="3.4455" stroke-miterlimit="10" stroke-linecap="round" stroke-linejoin="round"/>
<path d="M51.0962 71.2588H42.6042C42.5614 71.2588 42.54 71.2156 42.54 71.1725L42.9251 69.7062C42.9251 69.6846 42.9678 69.6631 42.9892 69.6631H51.4812C51.524 69.6631 51.5454 69.7062 51.5454 69.7493L51.1604 71.2156C51.139 71.2372 51.1176 71.2588 51.0962 71.2588Z" stroke="#018543" stroke-opacity="0.57" stroke-width="1.1485" stroke-miterlimit="10"/>
<path d="M40.5293 71.2588H32.0373C31.9945 71.2588 31.9731 71.2156 31.9731 71.1725L32.3582 69.7062C32.3582 69.6846 32.401 69.6631 32.4223 69.6631H40.9143C40.9571 69.6631 40.9785 69.7062 40.9785 69.7493L40.5935 71.2156C40.5721 71.2372 40.5507 71.2588 40.5293 71.2588Z" stroke="#018543" stroke-opacity="0.57" stroke-width="1.1485" stroke-miterlimit="10"/>
<path d="M66.0266 69.1241C65.5988 68.5419 63.8234 68.1107 63.3314 67.5285C63.0747 67.2266 63.0747 66.6659 63.1389 66.2131C63.31 66.1053 63.4598 65.9975 63.5453 65.8896C63.6951 65.674 63.8662 65.3721 64.0159 65.0487C64.0587 65.0918 64.1229 65.1349 64.2298 65.1349C64.4651 65.1349 65.3421 63.9058 65.1068 63.6255C64.9785 63.4746 64.7646 63.6039 64.6148 63.7549C64.8501 63.2158 65.0213 62.8061 65.0213 62.8061C65.0427 62.7414 65.064 62.6767 65.0854 62.5905C65.4277 61.1673 64.5721 60.0244 63.1817 60.0244C61.7699 60.0244 60.3582 61.1673 59.9945 62.5905C59.9731 62.6551 59.9731 62.7198 59.9517 62.8061C59.9517 62.8061 59.909 63.2158 59.8876 63.7549C59.802 63.6039 59.6737 63.4746 59.4598 63.6255C59.0961 63.9058 59.3742 65.1134 59.6095 65.1349C59.6951 65.1349 59.7806 65.0918 59.8448 65.0487C59.8448 65.3721 59.8662 65.674 59.909 65.8896C59.9517 66.019 60.0801 66.1484 60.2298 66.2993C60.0587 66.7522 59.7806 67.2697 59.417 67.55C58.6469 68.1322 56.6576 68.5635 55.9304 69.1457C55.2886 69.6632 54.6897 71.2158 54.5828 71.5177H66.2191C66.2405 71.1727 66.4116 69.6417 66.0266 69.1241Z" fill="#018543" fill-opacity="0.38"/>
</g>
<path d="M60.2085 74.9463H68.401" stroke="#018543" stroke-opacity="0.39" stroke-width="1.1485" stroke-miterlimit="10"/>
<path d="M32.3796 52.8223H51.8663" stroke="#018543" stroke-opacity="0.39" stroke-width="1.1485" stroke-miterlimit="10"/>
<path d="M56.3154 52.8223H61.0641" stroke="#018543" stroke-opacity="0.39" stroke-width="1.1485" stroke-miterlimit="10"/>
<path d="M76.8289 34.7522H78.4759C78.9679 34.7522 79.3101 35.2266 79.1604 35.701L78.4545 37.9867" stroke="#018543" stroke-opacity="0.39" stroke-width="1.1485" stroke-miterlimit="10"/>
<path d="M24.7004 5.57697H23.8662C23.6523 5.57697 23.5239 5.40446 23.5881 5.18883L23.802 4.34786C23.8448 4.13222 24.0587 3.95972 24.2726 3.95972H25.1068C25.3207 3.95972 25.4491 4.13222 25.3849 4.34786L25.171 5.18883C25.1282 5.40446 24.9143 5.57697 24.7004 5.57697Z" fill="#D0F1E1"/>
<path d="M24.0803 8.0567H23.2461C23.0322 8.0567 22.9038 7.8842 22.968 7.66856L23.1819 6.82759C23.2247 6.61196 23.4386 6.43945 23.6525 6.43945H24.4867C24.7006 6.43945 24.829 6.61196 24.7648 6.82759L24.5509 7.66856C24.5081 7.8842 24.2942 8.0567 24.0803 8.0567Z" fill="#EDF4FF"/>
<path d="M26.7541 8.0567H25.9199C25.706 8.0567 25.5776 7.8842 25.6418 7.66856L25.8557 6.82759C25.8985 6.61196 26.1124 6.43945 26.3263 6.43945H27.1605C27.3744 6.43945 27.5028 6.61196 27.4386 6.82759L27.2247 7.66856C27.1819 7.8842 26.968 8.0567 26.7541 8.0567Z" fill="#D0F1E1"/>
<path d="M29.428 8.0567H28.5937C28.3798 8.0567 28.2515 7.8842 28.3156 7.66856L28.5296 6.82759C28.5723 6.61196 28.7862 6.43945 29.0001 6.43945H29.8344C30.0483 6.43945 30.1766 6.61196 30.1124 6.82759L29.8985 7.66856C29.8558 7.8842 29.6419 8.0567 29.428 8.0567Z" fill="#EDF4FF"/>
<path d="M23.4599 10.6011H22.6257C22.4118 10.6011 22.2835 10.4286 22.3476 10.213L22.5615 9.37203C22.6043 9.15639 22.8182 8.98389 23.0321 8.98389H23.8663C24.0803 8.98389 24.2086 9.15639 24.1444 9.37203L23.9305 10.213C23.8877 10.4286 23.6738 10.6011 23.4599 10.6011Z" fill="#EDF4FF"/>
<path d="M22.7754 13.2965H21.9411C21.7272 13.2965 21.5989 13.1239 21.6631 12.9083L21.877 12.0673C21.9197 11.8517 22.1336 11.6792 22.3476 11.6792H23.1818C23.3957 11.6792 23.524 11.8517 23.4599 12.0673L23.2459 12.9083C23.2032 13.1239 22.9893 13.2965 22.7754 13.2965Z" fill="#EDF4FF"/>
<path d="M26.1338 10.6011H25.2995C25.0856 10.6011 24.9573 10.4286 25.0215 10.213L25.2354 9.37203C25.2781 9.15639 25.492 8.98389 25.7059 8.98389H26.5402C26.7541 8.98389 26.8824 9.15639 26.8182 9.37203L26.6043 10.213C26.5616 10.4286 26.3477 10.6011 26.1338 10.6011Z" fill="#EDF4FF"/>
<path d="M24.9572 15.3235H24.123C23.9091 15.3235 23.7808 15.151 23.8449 14.9354L24.0588 14.0944C24.1016 13.8788 24.3155 13.7063 24.5294 13.7063H25.3637C25.5776 13.7063 25.7059 13.8788 25.6417 14.0944L25.4278 14.9354C25.3851 15.151 25.1711 15.3235 24.9572 15.3235Z" fill="#D0F1E1"/>
<path d="M38.1766 0.638916C38.1552 0.638916 38.1552 0.638916 38.1766 0.638916C38.1552 0.638916 38.1338 0.638916 38.1338 0.638916C38.0482 0.638916 37.9627 0.638916 37.8771 0.638916C35.3958 0.638916 32.8718 2.64431 32.2087 5.14565L32.1873 5.27503C32.1873 5.2966 32.1873 5.2966 32.1873 5.31816L32.1659 5.40441C31.6097 7.92733 33.2354 9.95428 35.8236 9.84646C38.1766 9.76021 40.5509 7.86264 41.2568 5.51223C41.9627 2.92463 40.5723 0.811423 38.1766 0.638916ZM39.8878 5.40441C39.3958 7.06479 37.6846 8.42328 36.0161 8.46641C34.2194 8.5311 33.1071 7.12948 33.4707 5.36129L33.5135 5.14565C33.9841 3.39902 35.7595 1.99741 37.5135 1.99741C37.599 1.99741 37.6846 1.99741 37.7702 2.01897C39.46 2.14835 40.4226 3.61466 39.8878 5.40441Z" fill="#EBEDFC"/>
<path d="M37.9198 1.41515C37.8342 1.71703 37.9839 1.99736 38.262 2.08361C39.631 2.45019 40.3583 3.80868 39.8663 5.40436C39.3743 7.06474 37.6631 8.42323 35.9946 8.46636C34.3476 8.50949 33.2781 7.34506 33.385 5.81407C33.4064 5.49062 33.1925 5.27498 32.8503 5.27498C32.4438 5.27498 32.016 5.66312 31.9946 6.07283C31.8449 8.27229 33.385 9.93267 35.738 9.84641C38.0909 9.76016 40.4652 7.86259 41.1711 5.51218C41.8556 3.24803 40.8289 1.30733 38.8823 0.789809C38.5187 0.660429 38.0267 0.983879 37.9198 1.41515Z" fill="#82DBAE"/>
<path d="M49.5133 0.186035C49.4919 0.186035 49.4705 0.186035 49.4491 0.186035C49.3636 0.186035 49.278 0.186035 49.1924 0.186035C46.6684 0.186035 44.1229 2.23455 43.5026 4.77903C42.8823 7.3235 44.401 9.37202 46.9251 9.37202C47.0106 9.37202 47.0962 9.37202 47.1818 9.37202C47.2031 9.37202 47.2245 9.37202 47.2245 9.37202C47.2245 9.37202 47.2245 9.37202 47.2459 9.37202C49.6416 9.19951 51.9946 7.23725 52.6149 4.82215C52.6149 4.80059 52.6149 4.80059 52.6363 4.77903C53.2138 2.32081 51.8449 0.336979 49.5133 0.186035ZM47.4812 7.99197C47.417 7.99197 47.3529 7.99197 47.3101 7.99197C47.2887 7.99197 47.2673 7.99197 47.2459 7.99197C45.4705 7.99197 44.401 6.54722 44.8288 4.75746C45.2566 2.96771 47.0748 1.52296 48.8502 1.52296C48.8716 1.52296 48.893 1.52296 48.9144 1.52296C48.9572 1.52296 49.0213 1.52296 49.0641 1.52296C49.0641 1.52296 49.0641 1.52296 49.0855 1.52296C50.7326 1.63078 51.6951 3.0324 51.2673 4.75746C51.2673 4.77903 51.2673 4.77903 51.2459 4.80059C50.8181 6.50409 49.1711 7.88415 47.4812 7.99197Z" fill="white"/>
<path d="M51.0748 5.36118C50.5187 6.65498 49.2353 7.69003 47.8877 7.92722C47.5454 7.99191 47.246 8.27224 47.1604 8.59569C47.0535 9.02695 47.3529 9.3504 47.8021 9.26415C49.7273 8.91914 51.524 7.45283 52.3369 5.59838C52.508 5.18868 52.2941 4.80054 51.8663 4.80054C51.5454 4.80054 51.2032 5.03773 51.0748 5.36118Z" fill="#D0F1E1"/>
<path d="M37.4065 16.3586H28.9145C28.8717 16.3586 28.8503 16.3155 28.8503 16.2724L29.2354 14.8061C29.2354 14.7845 29.2782 14.7629 29.2995 14.7629H37.7915C37.8343 14.7629 37.8557 14.8061 37.8557 14.8492L37.4707 16.3155C37.4707 16.3371 37.4493 16.3586 37.4065 16.3586Z" fill="#EDF4FF"/>
<path d="M76.8374 23.1964C78.6085 21.6199 79.0553 19.2129 77.8355 17.8203C76.6157 16.4276 74.1911 16.5767 72.42 18.1533C70.6489 19.7298 70.202 22.1368 71.4218 23.5294C72.6417 24.922 75.0663 24.7729 76.8374 23.1964Z" fill="#018543" fill-opacity="0.54"/>
<path d="M80.2085 24.7467C80.0588 25.3289 79.4812 25.7818 78.9251 25.7818C78.3475 25.7818 78.0053 25.3074 78.155 24.7467C78.3047 24.1645 78.8823 23.7117 79.4384 23.7117C79.9946 23.7117 80.3368 24.1861 80.2085 24.7467Z" fill="#018543" fill-opacity="0.54"/>
<path d="M73.6631 22.6119C73.5348 22.6119 73.4278 22.5688 73.3636 22.4825L72.3797 21.1672C72.2513 20.9947 72.3155 20.6928 72.5508 20.4987C72.7861 20.3262 73.0642 20.3262 73.2139 20.4987L73.9412 21.4691L76.5508 19.3774C76.7861 19.2049 77.0642 19.2049 77.2139 19.3774C77.3423 19.5499 77.2781 19.8518 77.0428 20.0459L74.0054 22.461C73.8984 22.5472 73.7701 22.6119 73.6631 22.6119Z" fill="white"/>
<path d="M98.6123 42.7035L92.1289 46.4771L97.1022 55.1604L103.586 51.3868L98.6123 42.7035Z" fill="white"/>
<path d="M16.3583 87.0002C25.2421 87.0002 32.4438 86.392 32.4438 85.6417C32.4438 84.8914 25.2421 84.2832 16.3583 84.2832C7.47446 84.2832 0.272705 84.8914 0.272705 85.6417C0.272705 86.392 7.47446 87.0002 16.3583 87.0002Z" fill="#D0F1E1"/>
<path d="M9.87708 81.2642C9.87708 81.2642 10.2193 80.531 11.4814 80.7251C12.7434 80.9192 12.8931 81.1779 13.0429 81.8032C13.1926 82.4501 13.6204 83.1402 13.9199 83.2696C14.2193 83.4205 15.2888 84.1537 16.1658 84.3046C17.0429 84.4555 17.1498 84.9946 16.9359 85.2318C16.7434 85.469 13.4279 85.6847 12.7006 85.5768C12.7006 85.5768 10.2193 85.5337 9.6204 85.3396C9.06425 85.1456 9.8343 81.5014 9.87708 81.2642Z" fill="#2D2737"/>
<path d="M8.4654 63.9704C8.4654 63.9704 8.10177 61.9435 10.2194 61.2535C12.3585 60.5634 12.7649 61.5553 13.4066 63.4313C14.0483 65.2858 12.8504 81.1564 12.8504 81.1564C12.8504 81.1564 10.3905 81.5877 9.77022 81.1995C9.77022 81.1995 7.90925 70.8707 8.0376 68.0459C8.16594 65.1995 8.4654 63.9704 8.4654 63.9704Z" fill="#3D4776"/>
<path d="M9.51343 80.5742C9.51343 80.5742 12.2942 80.337 13.1712 80.186L13.1284 81.4583C13.1284 81.4583 10.9252 81.8464 9.5776 81.6523L9.51343 80.5742Z" fill="#51598D"/>
<path d="M8.82893 24.2292C8.82893 24.2292 7.07492 24.3371 6.0054 28.3694C4.93588 32.4018 4.25139 37.3182 4.63642 38.5904C5.02144 39.8627 9.21396 43.3128 10.7755 43.3128C12.337 43.3128 12.4439 42.1268 12.1444 41.1565C11.845 40.1646 8.82893 37.5123 8.82893 37.5123C8.82893 37.5123 11.2674 29.6416 11.1605 27.5716C11.0535 25.5015 9.89845 24.2292 8.82893 24.2292Z" fill="#018543"/>
<path d="M30.8183 23.0215L30.5188 23.043L31.1819 21.7492C31.1819 21.7492 32.8504 21.6414 33.107 22.353L32.337 24.0565L30.8183 23.0215Z" fill="#FF8D68"/>
<path d="M31.7595 19.3343C31.7595 19.3343 31.6954 17.9973 32.166 17.8248C32.6365 17.6523 33.1499 17.9758 33.1499 17.9758C33.1499 17.9758 33.92 17.8895 34.1553 18.2345C34.3906 18.5795 34.3692 19.0539 34.3692 19.0539C34.3692 19.0539 34.797 19.1402 34.9039 19.5715C35.0109 19.9812 34.8184 20.779 34.8184 20.779C34.8184 20.779 34.3264 21.3828 33.7488 21.2318C33.1927 21.0809 31.7595 19.3343 31.7595 19.3343Z" fill="#FF7759"/>
<path d="M30.8825 20.3908C30.8825 20.3908 30.7113 18.6442 30.8825 18.4286C31.075 18.1914 32.9787 15.5391 32.9787 15.5391C32.9787 15.5391 33.3637 15.9919 33.1498 16.5094C32.9145 17.0269 32.0161 18.6011 32.0161 18.6011V19.938C32.0161 19.938 31.4386 20.3477 30.8825 20.3908Z" fill="#FF7759"/>
<path d="M31.0322 21.7924C31.0322 21.7924 30.583 18.9892 30.8825 18.601C31.2033 18.2129 32.7221 18.4501 33.0001 18.5579C33.2996 18.6657 34.091 19.7223 34.198 20.132C34.3049 20.5417 33.5563 22.0296 33.0857 22.3531C32.6579 22.6765 31.2889 22.3315 31.0322 21.7924Z" fill="#FF8D68"/>
<path d="M29.9626 23.6469L30.5402 22.5688C30.5402 22.5688 31.9092 22.3316 32.5937 23.4097C32.7862 23.7979 32.7006 23.7979 32.7006 23.7979L32.2514 24.682L29.9626 23.6469Z" fill="#DEE0E8"/>
<path d="M16.0588 11.8087C16.0588 11.8087 17.4919 12.1753 18.3262 14.4178C19.139 16.6604 18.6042 21.4044 18.0481 21.965C17.4919 22.5257 15.8449 22.31 13.5561 21.5553C11.1176 20.7143 10.3048 18.1699 9.87697 16.5095C9.04275 13.2965 11.8021 9.99736 16.0588 11.8087Z" fill="#FF8D68"/>
<path d="M10.8823 24.1214L12.0588 19.895C12.0588 19.895 14.3903 19.2049 15.8663 20.7791L16.3583 21.4691V24.2292C16.3369 24.2292 13.8984 24.7252 10.8823 24.1214Z" fill="#FF8D68"/>
<path d="M7.60975 46.8922C7.60975 46.8922 6.73275 52.0459 7.60975 57.9542C8.48676 63.8626 10.2408 64.4448 11.845 64.4448C13.4493 64.4448 13.8985 59.7224 14.1766 57.6523C14.4761 55.5823 15.6311 48.5095 13.4493 46.8922C11.2675 45.275 8.78622 45.124 7.60975 46.8922Z" fill="#3D4776"/>
<path d="M13.77 53.8141C13.77 53.8141 12.016 49.0918 15.0962 47.0217C18.1764 44.9516 20.508 45.2535 21.2352 48.6389C21.9625 52.0244 22.1123 63.6901 21.0855 66.0406C20.0588 68.4341 16.401 64.7468 13.77 53.8141Z" fill="#3D4776"/>
<path d="M18.8825 12.0028C18.8825 12.0028 19.567 12.9084 19.1606 13.9651C18.7542 15.0217 17.2141 15.4314 17.2141 15.4314C17.2141 15.4314 17.706 16.1214 17.2141 17.1133L16.8718 17.6739C16.8718 17.6739 17.3638 18.7952 17.2141 19.0756C17.0857 19.3559 16.5937 19.2912 16.5937 19.2912C16.5937 19.2912 16.0376 17.7171 15.8237 17.868C15.6098 17.9974 15.0536 18.709 15.0536 19.3343C15.0536 19.9597 15.2675 20.4556 15.1178 20.8653C14.9895 21.275 12.829 21.275 11.9306 21.1456C11.0322 21.0163 9.64186 18.213 9.29962 16.9624C9.29962 16.9624 8.80764 15.2157 9.51352 13.7494C9.51352 13.7494 9.38518 12.4987 10.5616 11.2265C11.7381 9.97583 15.4814 10.3855 16.1018 10.8815C16.1018 10.8815 16.0376 10.1915 16.7221 10.3208C17.428 10.4718 18.4547 11.0971 18.8825 12.0028Z" fill="#C53A45"/>
<path d="M16.8075 18.3641C16.8075 18.3641 16.5936 17.4584 15.8449 17.8681C15.0748 18.2778 15.9732 20.4557 16.615 20.3048C17.2139 20.1754 16.9358 18.7091 16.8075 18.3641Z" fill="#FF7759"/>
<path d="M10.262 24.0998C10.262 24.0998 10.5828 22.9353 10.8823 22.8491C11.1817 22.7413 14.7753 22.3531 16.7432 23.5391C17.6203 24.2291 17.5133 24.7251 17.5133 24.7251C17.5133 24.7251 11.6951 23.6038 10.262 24.0998Z" fill="#DEE0E8"/>
<path d="M9.51342 23.8412C9.51342 23.8412 15.5669 23.453 19.845 25.3075C21.7915 26.2994 26.2621 30.7415 26.2621 30.7415L29.7701 23.3668C29.7701 23.3668 31.738 22.6552 32.5295 24.5312C32.5295 24.5312 30.3049 33.2428 28.4653 35.9813C27.2888 36.9733 21.7059 33.7603 21.7059 33.7603C21.7059 33.7603 22.5829 45.1673 22.2835 50.2778C21.8984 51.2698 14.2835 51.7441 12.9145 51.6579C11.5455 51.5501 6.77545 49.976 6.6685 49.6956C6.56155 49.3937 7.35299 37.5986 7.16048 36.2185C6.96796 34.8385 6.39042 28.0676 6.58294 27.0757C6.79684 26.1053 7.67384 24.2293 9.51342 23.8412Z" fill="#018543"/>
<path d="M15.9519 81.5447C15.9519 81.5447 16.2942 80.8115 17.5562 81.0056C18.8182 81.1997 18.968 81.4584 19.1177 82.0838C19.2674 82.7307 19.6953 83.4207 19.9947 83.5501C20.2942 83.701 21.3637 84.4342 22.2407 84.5851C23.1177 84.7361 23.2247 85.2751 23.0108 85.5123C22.8182 85.7495 19.5027 85.9652 18.7755 85.8574C18.7755 85.8574 16.2942 85.8142 15.6953 85.6202C15.1177 85.4261 15.9092 81.8034 15.9519 81.5447Z" fill="#3E3343"/>
<path d="M16.5509 64.294C16.5509 64.294 16.4011 62.2239 18.6043 61.7926C20.8075 61.3398 21.0856 62.3748 21.5348 64.294C21.984 66.2131 19.0535 81.8465 19.0535 81.8465C19.0535 81.8465 16.5723 81.9975 15.9733 81.5446C15.9733 81.5446 15.246 71.0648 15.6739 68.2616C16.1017 65.4799 16.5509 64.294 16.5509 64.294Z" fill="#3D4776"/>
<path d="M15.7593 81.8034C15.7593 81.8034 17.6631 82.3425 19.2674 82.0406L19.4171 80.9193L15.7166 80.6821L15.7593 81.8034Z" fill="#51598D"/>
<path d="M13.1711 52.7144C13.1711 52.7144 15.2246 59.3559 16.7647 62.5904" stroke="#018543" stroke-width="1.026" stroke-miterlimit="10"/>
<path d="M17.3423 63.9274C17.3423 63.9274 18.5829 63.1943 19.8236 63.9274" stroke="#018543" stroke-width="1.026" stroke-miterlimit="10"/>
<path d="M17.1284 64.7467C17.1284 64.7467 18.1552 64.1645 19.9092 65.4151" stroke="#018543" stroke-width="1.026" stroke-miterlimit="10"/>
<path d="M9.44922 63.0433C9.44922 63.0433 10.2621 62.3102 12.0802 63.108" stroke="#018543" stroke-width="1.026" stroke-miterlimit="10"/>
<path d="M10.0269 63.7765C10.0269 63.7765 11.2033 63.1943 12.2942 64.0784" stroke="#018543" stroke-width="1.026" stroke-miterlimit="10"/>
<path d="M12.7434 64.9624L12.2942 80.0136" stroke="#018543" stroke-width="1.026" stroke-miterlimit="10"/>
<path d="M18.7754 52.3478C18.7754 52.3478 20.4438 53.3397 21.1069 51.7656" stroke="#018543" stroke-width="1.026" stroke-miterlimit="10"/>
<path d="M20.4438 52.542C20.4438 52.542 21.2139 58.6444 21.0214 62.6768" stroke="#018543" stroke-width="1.026" stroke-miterlimit="10"/>
<path d="M6.58301 29.6416L7.37445 38.0944" stroke="#524B81" stroke-width="1.026" stroke-miterlimit="10"/>
<path d="M19.9734 32.5957C19.9734 32.5957 25.7488 36.8006 28.4654 35.9811" stroke="#524B81" stroke-width="1.026" stroke-miterlimit="10"/>
<path d="M26.8611 31.5608C26.8611 31.5608 28.0376 32.2293 27.952 33.7818" stroke="#524B81" stroke-width="1.026" stroke-miterlimit="10"/>
<path d="M26.5615 30.957C26.5615 30.957 27.8022 30.5905 28.5294 31.8411" stroke="#524B81" stroke-width="1.026" stroke-miterlimit="10"/>
<path d="M19.7595 25.8679C19.7595 25.8679 16.6793 27.4852 18.7327 31.2588" stroke="#524B81" stroke-width="1.026" stroke-miterlimit="10"/>
<path d="M15.4172 20.9731C15.4172 20.9731 15.9306 22.3101 17.6418 22.0729" stroke="#E66657" stroke-width="1.026" stroke-miterlimit="10"/>
<path d="M31.9734 18.2346L32.5509 17.717C32.5509 17.717 32.9573 17.717 33.1713 17.9758" stroke="#E66657" stroke-width="1.026" stroke-miterlimit="10"/>
<path d="M32.6365 18.3208C32.6365 18.2777 33.4493 17.8464 33.4493 17.8464C33.4493 17.8464 34.198 18.0405 34.3049 18.4286C34.4119 18.8168 34.3263 19.0324 34.3263 19.0324" stroke="#E66657" stroke-width="1.026" stroke-miterlimit="10"/>
<path d="M33.6204 19.0325C33.6631 19.0109 34.6471 19.0756 34.6471 19.0756C34.6471 19.0756 35.0107 19.3128 35.0107 19.8088C34.9893 20.2832 34.8396 20.7575 34.8396 20.7575C34.8396 20.7575 34.476 21.2751 33.877 21.2535" stroke="#E66657" stroke-width="1.026" stroke-miterlimit="10"/>
<path d="M34.1766 20.0674C34.1766 20.0674 34.3049 20.2615 34.1338 20.628C33.9841 20.9946 33.7916 21.9218 33.0857 22.3531" stroke="#E66657" stroke-width="1.026" stroke-miterlimit="10"/>
<path d="M13.4279 13.6631C11.9947 12.9731 10.1765 13.8141 10.1765 13.8141C10.1765 13.8141 10.3904 12.8653 11.4172 12.5203" stroke="#A03A45" stroke-width="1.368" stroke-miterlimit="10"/>
<path d="M10.2407 14.418C10.2407 14.418 10.6044 14.3748 11.0749 15.108" stroke="#A03A45" stroke-width="1.368" stroke-miterlimit="10"/>
<path d="M16.5508 11.0972C16.5508 11.0972 18.3476 11.3991 18.4117 13.2104" stroke="#A03A45" stroke-width="1.368" stroke-miterlimit="10"/>
</svg>
