<svg width="86" height="94" viewBox="0 0 86 94" fill="none" xmlns="http://www.w3.org/2000/svg">
<g clip-path="url(#clip0_406_12912)">
<path d="M47.6523 5.9436H0V88.1312H47.6523V5.9436Z" fill="white"/>
<path d="M47.6523 2.27258V5.94368H0V2.27258C0 1.02391 1.00657 0 2.23409 0H45.4428C46.6457 0 47.6523 1.02391 47.6523 2.27258Z" fill="#47393D"/>
<path d="M0 88.1313H47.6523V91.7525C47.6523 93.0012 46.6457 94.0251 45.4182 94.0251H2.23409C1.00657 94.0251 0 93.0012 0 91.7525V88.1313Z" fill="#47393D"/>
<path d="M0.245504 5.9436H0V88.1562H0.245504V5.9436Z" fill="#47393D"/>
<path d="M29.8286 2.99689H17.8235C17.7007 2.99689 17.6025 2.89699 17.6025 2.77212C17.6025 2.64726 17.7007 2.54736 17.8235 2.54736H29.8286C29.9514 2.54736 30.0496 2.64726 30.0496 2.77212C30.0496 2.89699 29.9514 2.99689 29.8286 2.99689Z" fill="#E8DFDE"/>
<path d="M24.5995 54.0176H5.40112V73.1722H24.5995V54.0176Z" fill="#B3C0C6"/>
<path d="M42.2268 54.0176H26.4409V56.9894H42.2268V54.0176Z" fill="#D5DCE0"/>
<path d="M42.2268 58.5627H26.4409V61.5346H42.2268V58.5627Z" fill="#D5DCE0"/>
<path d="M42.2268 63.0081H26.4409V65.9799H42.2268V63.0081Z" fill="#D5DCE0"/>
<path d="M42.2267 75.9443H5.40112V79.9401H42.2267V75.9443Z" fill="#D5DCE0"/>
<path d="M42.2267 81.813H5.40112V83.5362H42.2267V81.813Z" fill="#B3C0C6"/>
<path d="M42.2267 43.5786H5.40112V47.5744H42.2267V43.5786Z" fill="#C5D1D8"/>
<path d="M42.2267 49.4475H5.40112V51.1707H42.2267V49.4475Z" fill="#B3C0C6"/>
<path d="M24.5995 20.9028H5.40112V40.0575H24.5995V20.9028Z" fill="#B3C0C6"/>
<path d="M42.2268 20.9028H26.4409V23.8747H42.2268V20.9028Z" fill="#D5DCE0"/>
<path d="M42.2268 25.4231H26.4409V28.3949H42.2268V25.4231Z" fill="#D5DCE0"/>
<path d="M42.2268 29.8684H26.4409V32.8402H42.2268V29.8684Z" fill="#D5DCE0"/>
<path d="M42.2267 10.439H5.40112V14.4347H42.2267V10.439Z" fill="#D5DCE0"/>
<path d="M42.2267 16.3076H5.40112V18.0308H42.2267V16.3076Z" fill="#B3C0C6"/>
<path d="M75.0753 91.253L75.4927 86.3333H71.9329L72.1538 91.253H75.0753Z" fill="#FFB486"/>
<path d="M75.468 86.4081L75.2225 89.1801C73.9704 89.2551 72.7675 89.1052 72.031 88.9803L71.9082 86.1084L75.468 86.4081Z" fill="#FCA377"/>
<path d="M76.0081 93.9003H66.7771C66.7771 93.8004 66.7526 93.4508 66.8262 93.0762L75.9099 93.1261L76.0081 93.9003Z" fill="#47393D"/>
<path d="M75.8854 93.126L66.8018 93.076C66.9 92.1271 68.0784 91.6775 69.1586 91.3778C69.2322 91.3529 69.3059 91.3529 69.3795 91.3279C69.5269 91.278 69.6987 91.253 69.846 91.228C69.9197 91.203 69.9933 91.203 70.067 91.1781C70.4598 91.1031 70.7544 91.0282 70.9508 90.9283C71.1226 90.8534 71.319 90.7285 71.4909 90.6286C71.54 90.6037 71.6136 90.5537 71.6627 90.5288C71.8346 90.4289 71.9328 90.3539 71.9328 90.3539C72.522 90.5537 73.4304 91.1281 75.3944 90.2041L75.4435 90.5537L75.468 90.7535L75.8854 93.126Z" fill="#018543"/>
<path d="M69.404 91.3279C69.2567 91.6525 69.2567 92.0022 69.2567 92.0022H69.0603C69.0603 91.9772 69.0849 91.7025 69.1831 91.3778C69.2567 91.3778 69.3304 91.3529 69.404 91.3279Z" fill="#47393D"/>
<path d="M70.067 91.178C69.9197 91.5026 69.8951 91.8772 69.8951 91.8772H69.6987C69.6987 91.8523 69.7233 91.5526 69.8215 91.2279C69.9197 91.2029 69.9933 91.203 70.067 91.178Z" fill="#47393D"/>
<path d="M75.468 90.7536C74.6579 91.1531 73.9704 91.303 73.3812 91.303C72.3256 91.303 71.6627 90.8035 71.4663 90.6287C71.5154 90.6037 71.5891 90.5538 71.6382 90.5288C71.9819 90.8285 73.2585 91.6776 75.4189 90.5538L75.468 90.7536Z" fill="#47393D"/>
<path d="M54.2563 91.253L55.7784 86.3333H52.2186L51.1384 91.253H54.2563Z" fill="#FFB486"/>
<path d="M55.803 86.2833L54.9683 89.0054C53.3725 89.3051 52.145 89.0304 51.7031 88.9055L52.3169 86.1584H53.5935L55.803 86.2833Z" fill="#FCA377"/>
<path d="M73.062 29.3938C73.062 29.3938 82.6612 31.1919 81.802 40.8316C81.4337 44.8524 79.396 46.3757 79.396 46.3757L77.3829 44.203L73.553 45.5266L73.062 29.3938Z" fill="white"/>
<path d="M67.7346 30.3177L68.3975 25.0732H71.4417L72.1782 30.3177H67.7346Z" fill="#FFB587"/>
<path d="M69.2812 27.0962C71.2207 26.5468 73.4793 23.8497 72.6446 20.703C71.9818 18.2306 67.8082 18.9049 66.6789 21.0277C64.9604 24.3491 64.8622 28.3698 69.2812 27.0962Z" fill="#FFB587"/>
<path d="M84.797 44.3029L83.8886 47.3496C83.6185 48.2487 82.6856 48.7232 81.8018 48.4235L38.0776 33.3895C37.2429 33.0898 36.7764 32.1908 37.0219 31.3417C37.2674 30.4926 38.1512 29.9931 39.0105 30.2179L83.6431 42.2051C84.5515 42.4798 85.067 43.4288 84.797 44.3029Z" fill="#FE5B52"/>
<path d="M45.7291 31.9206C48.0129 22.3936 42.272 12.7873 32.9064 10.4641C23.5408 8.14097 14.0972 13.9808 11.8134 23.5078C9.5296 33.0347 15.2705 42.6411 24.6361 44.9642C34.0016 47.2874 43.4453 41.4475 45.7291 31.9206Z" fill="white"/>
<path d="M51.7032 35.5621C51.5068 35.4373 50.9176 35.0127 50.8194 34.8129C50.7212 34.6131 50.3775 33.5143 50.1565 33.6142C49.911 33.7141 50.3284 34.4383 50.132 34.4883C50.0092 34.5132 49.1991 33.1397 48.9781 33.3645C48.8308 33.5143 49.4446 34.2885 49.3464 34.3384C49.2482 34.3884 48.7081 33.2646 48.4871 33.4893C48.2661 33.7141 49.2482 34.6381 49.1254 34.738C49.0763 34.788 48.217 33.5393 48.0206 33.7141C47.7751 33.9389 48.7572 34.8129 48.659 34.9128C48.6099 34.9628 48.3152 34.6131 48.1188 34.4133C47.9961 34.3135 47.8979 34.3884 47.947 34.4883C48.2907 35.5372 49.911 36.5111 50.0338 36.661C50.1811 36.8857 50.3529 37.1105 50.5248 37.3103L51.7032 35.5621Z" fill="#FFBA8C"/>
<path d="M28.7731 43.5039C28.0611 43.5039 27.3737 43.4539 26.6618 43.354C25.9498 43.2541 25.2133 43.1043 24.5259 42.9045C17.1362 40.7568 12.3489 33.3147 13.4046 25.548C13.5764 24.3493 13.871 23.1755 14.2884 22.0517C14.7794 20.7531 15.4422 19.5294 16.2524 18.4056C16.8171 17.6064 17.4799 16.8572 18.1919 16.1829C19.1739 15.2339 20.3032 14.4348 21.4816 13.7855C24.3786 12.2122 27.6438 11.6128 30.909 12.0873C32.7257 12.337 34.4688 12.9114 36.0891 13.7855C37.2921 14.4348 38.3969 15.2339 39.3789 16.1829C40.0908 16.8572 40.7537 17.6064 41.3184 18.4056C42.1285 19.5294 42.7914 20.7531 43.2824 22.0517C43.7488 23.2754 44.068 24.574 44.2153 25.8726C44.2889 26.5219 44.3135 27.1962 44.3135 27.8705C44.3135 28.5448 44.2644 29.2191 44.1662 29.8934C44.0925 30.4927 43.9698 31.1171 43.8225 31.7164C43.6506 32.3657 43.4542 32.9901 43.2087 33.5894C42.6686 34.963 41.9321 36.2616 41.0483 37.4104C38.0777 41.2563 33.5113 43.5039 28.7731 43.5039ZM28.7486 12.1123C26.2444 12.1123 23.7894 12.7366 21.5553 13.9353C20.3769 14.5846 19.2721 15.3588 18.2901 16.3078C17.5781 16.9821 16.9398 17.7063 16.3752 18.5055C15.565 19.6293 14.9267 20.828 14.4357 22.1016C14.0183 23.2254 13.7237 24.3742 13.5519 25.548C12.4962 33.2148 17.2344 40.582 24.5259 42.6797C25.2133 42.8795 25.9253 43.0294 26.6372 43.1293C32.0383 43.9034 37.4885 41.6309 40.8519 37.2605C41.7357 36.1117 42.4477 34.8381 42.9878 33.4895C43.2333 32.8902 43.4297 32.2658 43.577 31.6415C43.7243 31.0671 43.847 30.4677 43.9207 29.8434C44.0189 29.1941 44.068 28.5198 44.068 27.8455C44.068 27.1962 44.0434 26.5219 43.9698 25.8726C43.8225 24.574 43.5033 23.3004 43.0614 22.1016C42.5704 20.828 41.9321 19.6043 41.1219 18.5055C40.5573 17.7313 39.919 16.9821 39.207 16.3078C38.225 15.3838 37.1448 14.5846 35.9664 13.9353C34.3706 13.0613 32.6521 12.5118 30.8599 12.2621C30.1725 12.1622 29.4605 12.1123 28.7486 12.1123Z" fill="white"/>
<path d="M31.3263 9.0903C21.2115 7.66681 11.8824 14.8342 10.483 25.1232C9.08363 35.4123 16.1296 44.9022 26.2443 46.3257C36.3591 47.7492 45.6883 40.5818 47.0876 30.2927C48.487 20.0037 41.441 10.5138 31.3263 9.0903ZM44.0434 29.8682C42.865 38.4341 35.107 44.4277 26.6863 43.229C18.2655 42.0303 12.3734 34.1387 13.5518 25.5728C14.7302 17.0069 22.4881 11.0133 30.9089 12.212C39.3297 13.3857 45.1972 21.2773 44.0434 29.8682Z" fill="#FE5B52"/>
<path d="M28.8222 44.3028C28.0611 44.3028 27.3 44.2529 26.539 44.153C17.6272 42.9043 11.3668 34.4882 12.6189 25.4229C13.2081 21.0276 15.4668 17.1317 18.9284 14.4595C22.4145 11.7874 26.7108 10.6386 31.0317 11.2629C35.3526 11.8623 39.1824 14.1599 41.8093 17.6811C44.4362 21.2273 45.5655 25.5977 44.9518 29.968C44.3626 34.3634 42.1039 38.2592 38.6423 40.9314C35.7699 43.154 32.3574 44.3028 28.8222 44.3028ZM28.7485 11.2879C25.2624 11.2879 21.8744 12.4367 19.0511 14.6094C15.6141 17.2566 13.4045 21.1025 12.8153 25.4479C11.5878 34.4133 17.7745 42.7045 26.5881 43.9532C30.8598 44.5525 35.1071 43.4287 38.5441 40.7815C41.9812 38.1344 44.1907 34.2885 44.7799 29.9431C45.3691 25.5977 44.2644 21.2773 41.662 17.781C39.0597 14.2847 35.2789 12.0371 31.0072 11.4378C30.2461 11.3379 29.5096 11.2879 28.7485 11.2879Z" fill="white"/>
<path d="M28.8221 46.4505C27.9629 46.4505 27.1036 46.4006 26.2443 46.2757C16.1787 44.8522 9.13273 35.3623 10.5321 25.1232C11.2195 20.1785 13.7482 15.7831 17.6763 12.7614C21.6043 9.73958 26.4408 8.46593 31.3263 9.14022C36.2118 9.83947 40.5327 12.4117 43.4787 16.4075C46.4493 20.4032 47.7014 25.323 47.0385 30.2927C46.3511 35.2624 43.8224 39.6577 39.8944 42.6795C36.6783 45.1519 32.7993 46.4505 28.8221 46.4505ZM28.7485 9.14022C24.7959 9.14022 20.9906 10.4388 17.7745 12.9112C13.8955 15.908 11.3914 20.2534 10.704 25.1482C9.32913 35.2874 16.3014 44.6774 26.2689 46.0759C31.1053 46.7502 35.8927 45.4766 39.7716 42.5047C43.6506 39.5079 46.1547 35.1625 46.8421 30.2677C47.505 25.348 46.2529 20.4782 43.3314 16.5324C40.3854 12.5865 36.1136 10.0393 31.3017 9.34C30.4425 9.21514 29.5832 9.14022 28.7485 9.14022Z" fill="#47393D"/>
<g opacity="0.44">
<path d="M24.5504 22.0767V42.8046C17.2589 40.7068 12.447 33.4146 13.5027 25.548C13.6745 24.3243 13.9691 23.1755 14.3865 22.0767H24.5504Z" fill="#B3C0C6"/>
<path d="M44.1171 25.8726H26.8582V22.0767H43.1842C43.6506 23.2754 43.9698 24.549 44.1171 25.8726Z" fill="#D5DCE0"/>
<path d="M44.2153 27.8455C44.2153 28.5197 44.1662 29.1691 44.068 29.8433C43.9943 30.4677 43.8716 31.067 43.7243 31.6414H26.8582V27.8455H44.2153Z" fill="#D5DCE0"/>
<path d="M43.1105 33.5396C42.5704 34.9131 41.8339 36.1867 40.9746 37.3355H26.8582V33.5396H43.1105Z" fill="#D5DCE0"/>
<path d="M36.04 13.8604H21.5308C24.305 12.362 27.5456 11.6877 30.909 12.1622C32.7503 12.4119 34.4934 13.0113 36.04 13.8604Z" fill="#D5DCE0"/>
<path d="M41.2446 18.4306H16.3259C16.8906 17.6314 17.5534 16.8822 18.2654 16.2329H39.3296C40.017 16.9072 40.6799 17.6564 41.2446 18.4306Z" fill="#B3C0C6"/>
</g>
<path d="M69.134 87.7316C72.4974 88.2561 75.6153 88.4808 77.9966 87.7316C77.9966 87.7316 80.0098 64.806 76.45 43.7534L69.3304 43.7784C69.3058 43.7784 66.5562 69.0765 69.134 87.7316Z" fill="#018543"/>
<path d="M49.5181 87.7318C52.7587 88.2063 55.803 88.3062 58.4299 87.7318C69.3548 67.1037 73.9457 43.7786 73.9457 43.7786H65.5004C54.6 62.9082 49.5181 87.7318 49.5181 87.7318Z" fill="#018543"/>
<path d="M56.5641 37.7848L51.7768 35.1626L50.0337 37.4851C50.0337 37.4851 52.857 44.9772 58.4054 44.3528C62.849 43.8534 65.525 35.3874 65.525 35.3874L56.5641 37.7848Z" fill="white"/>
<path d="M78.5367 50.0467C70.9015 53.568 59.8048 50.4962 59.8048 50.4962L60.1485 49.3475L60.1976 49.1726L63.07 39.408L55.4839 39.3081C55.4839 39.3081 60.5658 32.0658 63.5364 30.2927C64.2975 29.8432 65.3531 29.4936 66.507 29.2688C66.6052 29.2438 66.7034 29.2438 66.7771 29.2189C68.692 28.8942 70.9015 28.9192 72.9392 29.3687C73.0129 29.3937 73.0865 29.3937 73.1602 29.4187C74.2895 29.6684 75.3697 30.068 76.2781 30.6174C76.2781 30.6174 75.738 33.7391 76.499 35.8618C78.2421 40.6817 78.4876 46.4256 78.5121 48.873C78.5121 48.9479 78.5121 48.9978 78.5121 49.0727C78.5612 49.6971 78.5367 50.0467 78.5367 50.0467Z" fill="white"/>
<path d="M59.0275 34.5871L55.8638 38.5364L56.016 38.6626L59.1797 34.7133L59.0275 34.5871Z" fill="#47393D"/>
<path d="M68.9129 22.7258C68.9129 22.7258 66.4333 21.7768 67.0716 18.7051C67.0716 18.7051 67.3662 18.9299 68.25 18.8549C69.0602 18.78 72.0553 17.5064 73.5529 20.4283C75.0505 23.3252 72.9882 26.7965 70.9751 26.1971C69.1093 25.6477 68.8883 23.4001 68.9129 22.7258Z" fill="#47393D"/>
<path d="M69.3549 24.3492C69.8294 24.3492 70.2141 23.9579 70.2141 23.4751C70.2141 22.9924 69.8294 22.6011 69.3549 22.6011C68.8803 22.6011 68.4956 22.9924 68.4956 23.4751C68.4956 23.9579 68.8803 24.3492 69.3549 24.3492Z" fill="#FFB587"/>
<path d="M77.8739 25.3729C78.1685 25.4229 79.1259 25.6976 79.4942 26.6716C79.9852 27.9202 80.2798 28.6694 81.8265 28.8193L81.4091 29.2938C78.1194 29.4686 79.9852 25.323 77.1619 25.9973C76.2535 26.222 75.9344 24.7236 75.6643 22.501C75.3943 20.2784 73.1356 21.3522 73.1356 21.3522L73.1111 20.2034C73.1111 20.2034 74.4859 17.806 76.4254 19.0547C78.3894 20.3033 77.7757 23.1753 80.5499 21.4521C83.7905 19.4542 85.73 24.1992 85.73 24.1992L82.0229 28.5945C81.6792 28.5945 80.5744 28.5196 80.0343 27.4457C79.3714 26.1222 79.2487 25.6227 77.8739 25.3729Z" fill="#47393D"/>
<path d="M67.7101 27.4458C66.7526 27.4458 66.2125 26.9464 66.188 26.8964L66.3107 26.7466C66.3598 26.7716 67.2437 27.6456 68.8885 26.9713L68.9622 27.1462C68.4957 27.3709 68.0784 27.4458 67.7101 27.4458Z" fill="#47393D"/>
<path d="M72.0063 29.144C69.7477 30.2178 67.8818 29.0441 67.8818 29.0441L67.9309 28.6195L71.9081 28.5696L72.0063 29.144Z" fill="#FFB587"/>
<path d="M78.5613 49.0479C75.6153 50.2716 72.4728 50.6712 69.625 50.6712C65.2305 50.6712 61.4743 49.7222 60.1731 49.3476L60.2222 49.1728C62.3581 49.7971 71.1471 51.9948 78.5613 48.8481C78.5613 48.9231 78.5613 48.998 78.5613 49.0479Z" fill="#47393D"/>
<path d="M78.4384 50.0467C78.4384 49.9718 78.4139 41.6556 76.4253 35.8618L76.5971 35.7869C78.5857 41.6057 78.6103 49.9468 78.6103 50.0217H78.4384V50.0467Z" fill="#47393D"/>
<path d="M73.1847 29.4187C72.3499 30.2428 71.3679 30.5175 70.4105 30.5175C68.5692 30.5175 66.8506 29.4936 66.5315 29.2938C66.6297 29.2689 66.7279 29.2689 66.8015 29.2439C67.6854 29.7434 70.8278 31.3666 72.9637 29.3937C73.0619 29.3688 73.111 29.3937 73.1847 29.4187Z" fill="#47393D"/>
<path d="M55.2628 93.9003H46.0073C46.0073 93.8004 45.9828 93.4508 46.0564 93.0762L55.1401 93.1261L55.2628 93.9003Z" fill="#47393D"/>
<path d="M55.1156 93.126L46.032 93.076C46.1302 92.1271 47.3086 91.6775 48.3888 91.3778C48.4625 91.3529 48.5361 91.3529 48.6098 91.3279C48.7571 91.278 48.9289 91.253 49.0762 91.228C49.1499 91.203 49.2235 91.203 49.2972 91.1781C49.69 91.1031 49.9846 91.0282 50.181 90.9283C50.3528 90.8534 50.5493 90.7285 50.7211 90.6286C50.7702 90.6037 50.8439 90.5537 50.893 90.5288C51.0648 90.4289 51.163 90.3539 51.163 90.3539C51.7522 90.5537 52.6606 91.1281 54.6246 90.2041L54.6737 90.5537L54.6983 90.7535L55.1156 93.126Z" fill="#018543"/>
<path d="M48.6342 91.3279C48.4869 91.6525 48.4869 92.0022 48.4869 92.0022H48.2905C48.2905 91.9772 48.3151 91.7025 48.4133 91.3778C48.4869 91.3778 48.5606 91.3529 48.6342 91.3279Z" fill="#47393D"/>
<path d="M49.3216 91.178C49.1743 91.5026 49.1498 91.8772 49.1498 91.8772H48.9534C48.9534 91.8523 48.9779 91.5526 49.0761 91.2279C49.1743 91.2029 49.248 91.203 49.3216 91.178Z" fill="#47393D"/>
<path d="M54.7227 90.7536C53.9125 91.1531 53.2251 91.303 52.6359 91.303C51.5802 91.303 50.9174 90.8035 50.7209 90.6287C50.77 90.6037 50.8437 90.5538 50.8928 90.5288C51.2365 90.8285 52.5131 91.6776 54.6736 90.5538L54.7227 90.7536Z" fill="#47393D"/>
<path d="M85.8282 23.6748C85.8282 23.6498 84.748 21.2274 82.9803 20.7029C82.2438 20.4782 81.4828 20.628 80.7217 21.1275C79.9852 21.602 79.4451 21.7768 79.0032 21.6769C78.4876 21.552 78.193 21.0526 77.8739 20.5031C77.5302 19.9287 77.1619 19.2794 76.4499 18.8549C75.9344 18.5552 75.4434 18.4803 74.9524 18.6052C73.9212 18.9048 73.3075 20.0536 73.2829 20.0786L73.1111 19.9787C73.1356 19.9287 73.7985 18.73 74.8787 18.4303C75.4188 18.2805 75.9835 18.3554 76.5236 18.7051C77.2847 19.1546 77.6775 19.8289 78.0212 20.4282C78.3403 20.9527 78.5858 21.4272 79.0277 21.527C79.4205 21.6269 79.9115 21.4521 80.599 21.0026C81.4091 20.4782 82.2193 20.3283 83.0294 20.5531C84.8707 21.1025 85.9509 23.5499 86 23.6498L85.8282 23.6748Z" fill="#47393D"/>
<path d="M68.8884 22.8258C67.5873 22.5011 66.7771 21.9517 66.5071 21.1525C66.0897 19.9538 66.9735 18.7301 66.9981 18.6802L67.1454 18.805C67.1454 18.805 66.2861 20.0287 66.6789 21.1026C66.949 21.8268 67.71 22.3513 68.9375 22.6509L68.8884 22.8258Z" fill="#47393D"/>
<path d="M58.5281 87.7816L58.3562 87.6817C64.2237 76.5935 68.25 64.7062 70.5823 56.6897L70.7787 56.7396C68.4464 64.7811 64.4201 76.6684 58.5281 87.7816Z" fill="#47393D"/>
<path d="M65.149 37.5944L64.1047 38.8218L64.2532 38.9525L65.2975 37.7252L65.149 37.5944Z" fill="#47393D"/>
<path d="M77.6774 49.0229H77.481C77.481 47.1249 77.26 44.7274 77.26 44.7025L77.4564 44.6775C77.4319 44.7274 77.6774 47.1249 77.6774 49.0229Z" fill="#47393D"/>
<path d="M57.7426 44.4777C52.6115 44.4777 49.9601 37.585 49.9355 37.5101L50.1074 37.4352C50.132 37.5101 52.9798 44.8523 58.3809 44.2279C62.7017 43.7285 65.3777 35.4123 65.4023 35.3374L65.5741 35.3873C65.4759 35.737 62.8245 43.9033 58.3809 44.4277C58.1845 44.4527 57.9635 44.4777 57.7426 44.4777Z" fill="#47393D"/>
<g opacity="0.8">
<path d="M41.3429 33.5142C41.5147 32.1656 41.6375 30.892 41.6866 29.6183C41.7111 28.3447 41.662 27.096 41.5147 25.8474C41.3674 24.5987 41.0974 23.375 40.7782 22.1513C40.4345 20.9276 39.9926 19.7289 39.4771 18.4552L39.5507 18.4053C39.9435 18.9297 40.3118 19.5041 40.6309 20.0785C40.9501 20.6529 41.2447 21.2522 41.4656 21.8766C41.9566 23.1003 42.3003 24.3989 42.4476 25.7225C42.5949 27.0461 42.5949 28.3946 42.4231 29.6933C42.3249 30.3426 42.2021 31.0169 42.0548 31.6412C41.883 32.2905 41.662 32.9148 41.4165 33.5142H41.3429Z" fill="white"/>
</g>
<g opacity="0.8">
<path d="M30.6634 41.6556C29.9269 41.5557 29.2394 41.4309 28.552 41.256C21.2606 39.3581 16.4487 32.815 17.5044 25.7725C17.6762 24.6737 17.9708 23.6498 18.3882 22.6508C18.8792 21.4771 19.542 20.3783 20.3277 19.4043C20.8923 18.6801 21.5552 18.0308 22.2671 17.4314C23.2492 16.5823 24.3539 15.883 25.5323 15.2837C27.3 14.4096 29.2885 13.8602 31.3508 13.6854C28.2574 13.4356 25.2623 14.035 22.6845 15.2837C21.5061 15.8581 20.4013 16.5823 19.4193 17.4314C18.7073 18.0308 18.069 18.705 17.4798 19.4043C16.6942 20.4032 16.0313 21.4771 15.5403 22.6508C15.123 23.6498 14.8284 24.6737 14.6565 25.7725C13.5763 32.815 18.4127 39.3581 25.7042 41.256C26.3916 41.4309 27.1036 41.5807 27.8155 41.6556C29.0185 41.8055 30.2215 41.8304 31.3753 41.7305C31.1298 41.7056 30.9089 41.6806 30.6634 41.6556ZM30.6634 41.6556C29.9269 41.5557 29.2394 41.4309 28.552 41.256C21.2606 39.3581 16.4487 32.815 17.5044 25.7725C17.6762 24.6737 17.9708 23.6498 18.3882 22.6508C18.8792 21.4771 19.542 20.3783 20.3277 19.4043C20.8923 18.6801 21.5552 18.0308 22.2671 17.4314C23.2492 16.5823 24.3539 15.883 25.5323 15.2837C27.3 14.4096 29.2885 13.8602 31.3508 13.6854C28.2574 13.4356 25.2623 14.035 22.6845 15.2837C21.5061 15.8581 20.4013 16.5823 19.4193 17.4314C18.7073 18.0308 18.069 18.705 17.4798 19.4043C16.6942 20.4032 16.0313 21.4771 15.5403 22.6508C15.123 23.6498 14.8284 24.6737 14.6565 25.7725C13.5763 32.815 18.4127 39.3581 25.7042 41.256C26.3916 41.4309 27.1036 41.5807 27.8155 41.6556C29.0185 41.8055 30.2215 41.8304 31.3753 41.7305C31.1298 41.7056 30.9089 41.6806 30.6634 41.6556Z" fill="white"/>
</g>
<path d="M22.1689 23.2253H23.3228V29.5686C23.3228 30.4177 23.0773 31.092 22.5617 31.5665C22.0462 32.041 21.3833 32.2907 20.5486 32.2907C19.6648 32.2907 19.0019 32.0659 18.5109 31.6164C18.0199 31.1669 17.7744 30.5176 17.7744 29.6935H18.9283C18.9283 30.2179 19.0756 30.6175 19.3456 30.8922C19.6157 31.1669 20.033 31.3167 20.5486 31.3167C21.0396 31.3167 21.4079 31.1669 21.7025 30.8672C21.9971 30.5675 22.1444 30.118 22.1444 29.5686V23.2253H22.1689Z" fill="#018543"/>
<path d="M32.0628 27.9953C32.0628 28.8694 31.9155 29.6436 31.6209 30.2929C31.3263 30.9422 30.909 31.4416 30.3934 31.7913C29.8533 32.1409 29.2395 32.3157 28.5276 32.3157C27.8402 32.3157 27.2264 32.1409 26.6863 31.7913C26.1462 31.4416 25.7288 30.9422 25.4342 30.3178C25.1396 29.6685 24.9923 28.9443 24.9678 28.0952V27.4459C24.9678 26.5968 25.1151 25.8226 25.4097 25.1733C25.7043 24.524 26.1216 23.9996 26.6618 23.6499C27.2019 23.3003 27.8156 23.1255 28.503 23.1255C29.215 23.1255 29.8288 23.3003 30.3689 23.6499C30.909 23.9996 31.3263 24.499 31.6209 25.1483C31.9155 25.7976 32.0628 26.5718 32.0628 27.4459V27.9953ZM30.909 27.4209C30.909 26.372 30.688 25.5479 30.2707 24.9735C29.8533 24.3991 29.2641 24.1244 28.503 24.1244C27.7665 24.1244 27.2019 24.3991 26.76 24.9735C26.3426 25.5479 26.1216 26.3221 26.1216 27.346V27.9953C26.1216 29.0192 26.3426 29.8433 26.76 30.4177C27.1773 31.0171 27.7665 31.2918 28.5276 31.2918C29.2886 31.2918 29.8533 31.0171 30.2707 30.4677C30.688 29.9183 30.8844 29.1191 30.909 28.0702V27.4209Z" fill="#018543"/>
<path d="M33.8059 32.1908V23.2253H36.6783C37.6358 23.2253 38.3477 23.4251 38.8387 23.8247C39.3297 24.2243 39.5507 24.8236 39.5507 25.5978C39.5507 26.0224 39.4279 26.397 39.207 26.6966C38.9615 27.0213 38.6669 27.271 38.2495 27.4459C38.716 27.5707 39.1088 27.8454 39.3788 28.22C39.6489 28.5946 39.7962 29.0442 39.7962 29.5686C39.7962 30.3677 39.5507 30.9921 39.0351 31.4666C38.5196 31.9161 37.8076 32.1658 36.8747 32.1658H33.8059V32.1908ZM34.9598 27.0463H36.7029C37.2184 27.0463 37.6112 26.9214 37.9304 26.6467C38.225 26.397 38.3968 26.0473 38.3968 25.5978C38.3968 25.0983 38.2495 24.7487 37.9795 24.524C37.7094 24.2992 37.2675 24.1993 36.7029 24.1993H34.9843V27.0463H34.9598ZM34.9598 27.9953V31.2168H36.8747C37.4148 31.2168 37.8322 31.067 38.1513 30.7923C38.4705 30.5176 38.6178 30.118 38.6178 29.6185C38.6178 28.5447 38.0531 27.9953 36.8993 27.9953H34.9598Z" fill="#018543"/>
<path d="M20.5487 32.6651C19.5912 32.6651 18.8056 32.3904 18.2655 31.891C17.7009 31.3665 17.4062 30.6173 17.4062 29.6933V29.3187H19.2966V29.6933C19.2966 30.1179 19.3948 30.4175 19.6158 30.6423C19.8122 30.8671 20.1313 30.967 20.5487 30.967C20.917 30.967 21.2116 30.8421 21.4571 30.6173C21.678 30.3676 21.8008 30.0429 21.8008 29.5934V22.8506H23.7157V29.5684C23.7157 30.5174 23.4211 31.2916 22.8319 31.841C22.2427 32.3904 21.4816 32.6651 20.5487 32.6651ZM18.1673 30.0929C18.2164 30.6173 18.4128 31.0419 18.7565 31.3416C19.1739 31.7411 19.7631 31.9159 20.5487 31.9159C21.3098 31.9159 21.8744 31.7162 22.3163 31.2916C22.7582 30.8671 22.9546 30.3176 22.9546 29.5435V23.5998H22.5127V29.5934C22.5127 30.2427 22.3163 30.7672 21.9481 31.1418C21.5798 31.5164 21.1134 31.7162 20.5241 31.7162C19.9104 31.7162 19.4194 31.5413 19.0511 31.1667C18.7811 30.892 18.6092 30.5174 18.5601 30.0929H18.1673Z" fill="#018543"/>
<path d="M28.5522 32.6653C27.7911 32.6653 27.1037 32.4655 26.5145 32.0909C25.9253 31.7163 25.4588 31.1669 25.1397 30.4426C24.8205 29.7434 24.6487 28.9442 24.6487 28.0701V27.4208C24.6487 26.5218 24.796 25.6977 25.1151 24.9734C25.4343 24.2492 25.9008 23.6748 26.49 23.3002C27.0792 22.9006 27.7666 22.7258 28.5276 22.7258C29.2887 22.7258 30.0007 22.9256 30.5899 23.3002C31.1791 23.6748 31.6455 24.2492 31.9647 24.9734C32.2839 25.6727 32.4312 26.4968 32.4312 27.4208V27.9952C32.4312 28.9192 32.2839 29.7434 31.9647 30.4426C31.6455 31.1669 31.1791 31.7163 30.5899 32.0909C30.0007 32.4904 29.3133 32.6653 28.5522 32.6653ZM28.5276 23.475C27.9139 23.475 27.3492 23.6249 26.8828 23.9495C26.4163 24.2492 26.0235 24.7237 25.778 25.2981C25.5079 25.8975 25.3606 26.6217 25.3606 27.4208V28.0701C25.3606 28.8443 25.5079 29.5436 25.778 30.1429C26.0481 30.7173 26.4163 31.1669 26.8828 31.4665C27.3492 31.7662 27.9139 31.9161 28.5276 31.9161C29.166 31.9161 29.7306 31.7662 30.1971 31.4665C30.6635 31.1669 31.0318 30.7173 31.3018 30.1429C31.5719 29.5436 31.6946 28.8193 31.6946 27.9952V27.4208C31.6946 26.5967 31.5473 25.8725 31.3018 25.2731C31.0318 24.6987 30.6635 24.2242 30.1971 23.9246C29.7306 23.6249 29.166 23.475 28.5276 23.475ZM28.5522 31.6663C27.6929 31.6663 27.0055 31.3167 26.49 30.6424C26.0235 29.9931 25.778 29.0941 25.778 27.9952V27.3459C25.8025 26.2471 26.0235 25.398 26.49 24.7487C26.981 24.0744 27.6684 23.7497 28.5031 23.7497C29.3869 23.7497 30.0743 24.0744 30.5653 24.7487C31.0318 25.373 31.2773 26.2721 31.2773 27.4208V28.0951C31.2527 29.2189 31.0318 30.093 30.5653 30.7173C30.0989 31.3417 29.4115 31.6663 28.5522 31.6663ZM28.5276 24.4989C27.9139 24.4989 27.4474 24.7237 27.0792 25.1982C26.7109 25.6977 26.5145 26.4219 26.5145 27.3459V27.9952C26.5145 28.9442 26.7109 29.6684 27.0792 30.1929C27.4229 30.6924 27.9139 30.9171 28.5276 30.9171C29.166 30.9171 29.6324 30.6924 29.9761 30.2428C30.3444 29.7434 30.5162 29.0191 30.5408 28.0701V27.4208C30.5408 26.4469 30.3444 25.6977 29.9761 25.1982C29.6324 24.7237 29.166 24.4989 28.5276 24.4989Z" fill="#018543"/>
<path d="M36.8503 32.5652H33.4377V22.8506H36.6784C37.7095 22.8506 38.5197 23.0753 39.0598 23.5498C39.6244 24.0243 39.919 24.7236 39.919 25.6226C39.919 26.1221 39.7717 26.5716 39.5017 26.9462C39.3789 27.121 39.2316 27.2709 39.0598 27.4207C39.3053 27.5706 39.5017 27.7704 39.6735 28.0201C39.9927 28.4696 40.1646 28.9941 40.1646 29.5934C40.1646 30.4925 39.8699 31.2417 39.2807 31.7661C38.6915 32.2905 37.8814 32.5652 36.8503 32.5652ZM34.1743 31.816H36.8503C37.685 31.816 38.3478 31.6163 38.7652 31.2167C39.2071 30.8171 39.4035 30.2927 39.4035 29.5934C39.4035 29.1439 39.2807 28.7693 39.0598 28.4696C38.8388 28.145 38.5197 27.9452 38.1269 27.8453L37.1203 27.5706L38.0778 27.146C38.4215 26.9962 38.6915 26.7964 38.8879 26.5217C39.0843 26.2719 39.158 25.9723 39.158 25.6226C39.158 24.9484 38.9616 24.4489 38.5688 24.1242C38.1514 23.7746 37.5131 23.5998 36.6538 23.5998H34.1497V31.816H34.1743ZM36.8748 31.5913H34.5916V27.6205H36.8993C38.2496 27.6205 38.9861 28.3198 38.9861 29.6184C38.9861 30.2177 38.7897 30.7172 38.3969 31.0668C38.0287 31.4165 37.5131 31.5913 36.8748 31.5913ZM35.3281 30.8421H36.8748C37.3167 30.8421 37.6604 30.7422 37.9059 30.5174C38.1269 30.2927 38.2496 30.018 38.2496 29.6184C38.2496 28.7443 37.8323 28.3697 36.8993 28.3697H35.3281V30.8421ZM36.7275 27.4207H34.6162V23.8246H36.7029C37.3658 23.8246 37.8568 23.9494 38.2251 24.2491C38.5933 24.5488 38.7897 24.9983 38.7897 25.6226C38.7897 26.1721 38.5933 26.6216 38.2005 26.9712C37.8077 27.2709 37.3167 27.4207 36.7275 27.4207ZM35.3281 26.6715H36.7029C37.1203 26.6715 37.4395 26.5716 37.685 26.3718C37.9059 26.1721 38.0041 25.9473 38.0041 25.5977C38.0041 25.2231 37.9059 24.9733 37.7341 24.8235C37.5131 24.6487 37.1694 24.5738 36.6784 24.5738H35.3281V26.6715Z" fill="#018543"/>
</g>
<defs>
<clipPath id="clip0_406_12912">
<rect width="86" height="94" fill="white"/>
</clipPath>
</defs>
</svg>
