<svg width="104" height="78" viewBox="0 0 104 78" fill="none" xmlns="http://www.w3.org/2000/svg">
<path fill-rule="evenodd" clip-rule="evenodd" d="M83.8956 74.1834C92.2063 74.1834 99.0079 67.3865 99.0079 59.0764C99.0079 50.7686 92.2087 43.9694 83.8956 43.9694C80.3804 43.9694 77.5054 41.0954 77.5054 37.5815C77.5054 34.0675 80.3804 31.1935 83.8956 31.1935H84.6559C88.3098 31.1935 91.2981 28.2063 91.2981 24.5538C91.2981 20.9012 88.3098 17.914 84.6559 17.914H82.324C80.9027 17.914 79.7379 16.7496 79.7379 15.3288C79.7379 13.9079 80.9027 12.7436 82.324 12.7436H84.0389C85.0211 12.7436 85.8231 11.9396 85.8231 10.96C85.8231 9.97814 85.0188 9.17647 84.0389 9.17647H72.5157C70.9742 9.17647 69.7123 7.91505 69.7123 6.37178C69.7123 4.83082 70.9742 3.5694 72.5157 3.5694H75.9615C76.9438 3.5694 77.7457 2.76542 77.7457 1.78585C77.7457 0.803981 76.9415 0.00231029 75.9615 0.00231029H25.4984C24.2181 0.00231029 23.1688 1.05118 23.1688 2.33108C23.1688 3.61098 24.2181 4.65985 25.4984 4.65985H29.0321C31.0451 4.65985 32.6906 6.30709 32.6906 8.31704C32.6906 10.3293 31.0428 11.9765 29.0321 11.9765H15.3619C14.0815 11.9765 13.0323 13.0231 13.0323 14.3053C13.0323 15.5852 14.0815 16.6341 15.3619 16.6341H17.5991C19.4549 16.6341 20.9733 18.1519 20.9733 20.0071C20.9733 21.8623 19.4549 23.3801 17.5991 23.3801H14.5553C9.7875 23.3801 5.88634 27.2799 5.88634 32.046C5.88634 36.8122 9.7875 40.7119 14.5553 40.7119H15.5468C20.132 40.7119 23.8853 44.4615 23.8853 49.0475C23.8853 53.6311 20.1343 57.383 15.5468 57.383H13.3975C8.77292 57.383 4.99194 61.1649 4.99194 65.7855C4.99194 70.4084 8.77523 74.188 13.3975 74.188C37.3198 74.1834 59.9756 74.1834 83.8956 74.1834ZM19.5381 4.65754C18.2508 4.65754 17.2085 3.6156 17.2085 2.32877C17.2085 1.04194 18.2531 0 19.5381 0C20.8254 0 21.8677 1.04194 21.8677 2.32877C21.8677 3.61329 20.8254 4.65754 19.5381 4.65754ZM89.0471 12.7436C88.0602 12.7436 87.2629 11.9442 87.2629 10.96C87.2629 9.97352 88.0625 9.17647 89.0471 9.17647C90.0339 9.17647 90.8312 9.97583 90.8312 10.96C90.8312 11.9465 90.0316 12.7436 89.0471 12.7436Z" fill="#EBF4F4"/>
<path fill-rule="evenodd" clip-rule="evenodd" d="M8.44708 72.5593V70.6394H6.54966C6.53117 70.614 6.51499 70.5886 6.4965 70.5632H8.48406H8.48637H12.7989V68.0611H8.48637H5.30859C5.30166 68.0357 5.29472 68.0103 5.28779 67.9849H8.44708V65.4828H4.9989C4.9989 65.4574 5.00121 65.432 5.00121 65.4066H8.48406H8.48637H12.7989V62.9046H8.48637H5.50272C5.51197 62.8792 5.52121 62.8537 5.53046 62.8283H8.44708V60.3263H7.01419C7.03499 60.3009 7.0581 60.2755 7.08121 60.25H8.48637H8.48868H12.8012V57.748H10.9246C11.0101 57.7203 11.0979 57.6972 11.1857 57.6718H12.8382H12.8405H17.153V57.2166C17.1785 57.212 17.2039 57.2074 17.2293 57.2028V57.6718H21.5395H21.5418H25.8544V55.1697H21.5418H21.1836C21.2113 55.1443 21.2391 55.1189 21.2645 55.0935H21.5049V54.8578C21.5303 54.8324 21.5557 54.807 21.5811 54.7793V55.0935H25.8937H25.896H30.2085V52.5914H25.896H23.0833C23.0949 52.566 23.1065 52.5406 23.118 52.5152H25.8521V50.0178H23.8252C23.8275 49.9924 23.8321 49.9669 23.8345 49.9415H25.889H25.8913H30.2039V47.4395H25.8913H23.7305C23.7258 47.4141 23.7212 47.3887 23.7166 47.3632H25.8544V44.8612H22.7529C22.739 44.8358 22.7228 44.8104 22.7089 44.785H25.8913H25.8937H30.2062V42.2829H25.8937H21.5788V43.2994C21.5534 43.274 21.528 43.2463 21.5025 43.2209V42.2829H20.414C20.3793 42.2575 20.3424 42.2321 20.3077 42.2067H21.5395H21.5418H25.8544V39.7046H21.5418H17.227V40.876C17.2016 40.8713 17.1761 40.8667 17.1507 40.8621V39.7069H12.8382H10.5294C10.4832 39.6815 10.4346 39.6561 10.3884 39.6307H12.8012V37.1287H8.48637H7.55268C7.53419 37.1033 7.5157 37.0778 7.49721 37.0524H8.44939V34.5504H6.26308C6.25615 34.525 6.2469 34.4996 6.23997 34.4741H8.48637H8.48868H12.8012V31.9744H8.48637H5.88868C5.88868 31.949 5.88868 31.9236 5.88868 31.8982H8.44708V29.3961H6.30237C6.31161 29.3707 6.31855 29.3453 6.32779 29.3199H8.48406H8.48637H12.7989V26.8178H8.48637H7.65206C7.67055 26.7924 7.69135 26.767 7.70984 26.7416H8.44708V25.9076C8.4725 25.8822 8.49792 25.8591 8.52335 25.8337V26.7416H12.8359H12.8382H17.1507V24.2396H12.8382H10.7929C10.846 24.2141 10.9015 24.1887 10.9546 24.1633H12.7989V23.5557C12.8243 23.5511 12.8497 23.5465 12.8752 23.5395V24.1633H17.1877H17.19H21.5025V21.6636H20.5342C20.5481 21.6382 20.5619 21.6128 20.5758 21.5873H21.5395H21.5418H25.8544V19.0853H21.5418H20.8485C20.8416 19.0599 20.8346 19.0345 20.8254 19.0091H21.5025V16.5093H17.19H14.6247C14.5577 16.4862 14.4929 16.4608 14.4305 16.4331H17.153V13.931H13.0647C13.0693 13.9056 13.0739 13.8802 13.0785 13.8548H17.19H17.1923H21.5049V11.9742H21.5811V13.8548H25.8937H25.896H30.2085V11.7802C30.2339 11.7709 30.2593 11.7617 30.2848 11.7524V13.8548H34.5973H34.5996H38.9121V11.3528H34.5996H31.0705C31.1075 11.3273 31.1445 11.3019 31.1792 11.2765H34.5626V8.77448H32.6698C32.6721 8.74907 32.6768 8.72365 32.6791 8.69824H34.6019H34.6042H38.9168V6.19851H34.6042H32.0227C32.0042 6.17309 31.9857 6.14768 31.9673 6.12227H34.5673V3.62022H30.2547H25.9306V4.65754H25.8544V3.62022H23.5641C23.5479 3.59481 23.5317 3.5694 23.5155 3.54398H25.8913H25.8937H30.2062V1.04194H25.8937H23.5641C23.5802 1.01653 23.5987 0.991114 23.6172 0.965701H25.8567V0H25.9329V0.965701H30.2455H30.2478H34.5603V0H34.6366V0.965701H38.9491H38.9514H43.264V0H43.3402V0.965701H47.6528H47.6551H51.9676V0H52.0439V0.965701H56.3564H56.3587H60.6713V0H60.7475V0.965701H65.0601H65.0624H69.3749V0H69.4512V0.965701H73.7637H73.766H77.5516C77.5655 0.991114 77.577 1.01653 77.5886 1.04194H73.8007V3.54398H76.2597C76.1626 3.56016 76.0656 3.5694 75.9639 3.5694H72.518C72.3354 3.5694 72.1575 3.58788 71.9841 3.62022H69.4465V6.12227H69.7239C69.7216 6.14768 69.7193 6.17309 69.7193 6.19851H69.4096H65.097V8.70055H69.4096H69.4119H70.9603C70.9996 8.72596 71.0389 8.75138 71.0805 8.77679H69.4489V11.2788H73.7614H73.7637H78.0762V9.17878H78.1525V11.2788H82.465H82.4673H85.8C85.7953 11.3042 85.7907 11.3297 85.7838 11.3551H82.5043V12.7459H82.4281V11.3551H78.1155H73.803V13.8571H78.1155H78.1178H80.2117C80.1932 13.8825 80.177 13.9079 80.1609 13.9334H78.1571V16.4354H79.9968C80.0083 16.4608 80.0222 16.4862 80.0337 16.5116H78.1201H73.8076V19.0137H78.1201H78.1225H82.435V17.9186H82.5113V19.0137H86.8238H86.8261H88.3121C88.3491 19.0391 88.3884 19.0645 88.4254 19.0899H86.8631V21.592H90.6071C90.6186 21.6174 90.6325 21.6428 90.6441 21.6682H86.8238H82.5113V24.1702H86.8238H86.8261H91.1386V23.0498C91.1687 23.1722 91.1941 23.297 91.2149 23.424V24.1702H91.3004C91.3027 24.1957 91.3027 24.2211 91.305 24.2465H91.1779H86.8654V26.7485H90.9422C90.9329 26.7739 90.9237 26.7994 90.9145 26.8248H86.8284H82.5159V29.3268H86.8284H86.8307H89.2897C89.2643 29.3522 89.2366 29.3776 89.2089 29.4031H86.8677V30.8285C86.8423 30.8377 86.8169 30.847 86.7914 30.8562V29.4054H82.4604H78.1479V31.9074H80.9929C80.9443 31.9328 80.8981 31.9582 80.8496 31.9837H78.1109H73.7984V34.4857H78.1109H78.1132H78.3235C78.3097 34.5111 78.2958 34.5365 78.2819 34.5619H78.1525V34.8161C78.1271 34.8692 78.1017 34.9223 78.0762 34.9778V34.5619H73.7637H69.4512V37.064H73.7637H73.766H77.5377C77.5354 37.0894 77.5331 37.1148 77.5308 37.1402H73.803V39.6423H77.8521C77.8613 39.6677 77.8705 39.6931 77.8798 39.7185H73.766H69.4535V42.2205H73.766H73.7683H78.0809V40.199C78.1063 40.2545 78.1317 40.3076 78.1571 40.3608V42.209H79.5114C79.5392 42.2344 79.5669 42.2598 79.5923 42.2852H78.1201H73.8076V44.7873H78.1201H78.1225H82.435V43.7985C82.4604 43.8054 82.4858 43.81 82.5113 43.817V44.7873H86.8238H86.8261H88.7952C88.8668 44.8127 88.9385 44.8381 89.0101 44.8635H86.8631V47.3656H91.1756H91.1779H93.4243C93.4544 47.391 93.4867 47.4164 93.5191 47.4418H91.2149V49.9438H95.5274H95.5297H95.9249C95.9434 49.9693 95.9642 49.9947 95.9827 50.0201H95.5667V52.5221H97.515C97.5265 52.5475 97.5381 52.5729 97.552 52.5984H95.5321H91.2195V55.1004H95.5321H95.5344H98.4903C98.4972 55.1258 98.5041 55.1512 98.5111 55.1766H95.5713V57.6787H98.9594C98.9617 57.7041 98.9641 57.7295 98.9664 57.7549H95.5344H91.2218V60.257H95.5344H95.5367H98.9825C98.9802 60.2824 98.9779 60.3078 98.9756 60.3332H95.5737V62.8353H98.5527C98.5457 62.8607 98.5388 62.8861 98.5319 62.9115H95.5344H91.2218V65.4135H95.5344H95.5367H97.6282C97.6167 65.439 97.6051 65.4644 97.5936 65.4898H95.576V67.9918H96.1029C96.0844 68.0172 96.0659 68.0426 96.0474 68.0681H95.539H91.2265V70.5701H93.7086C93.6785 70.5955 93.6485 70.6209 93.6185 70.6463H91.1895H86.8769V73.1484H89.4238C89.3568 73.1738 89.2921 73.1992 89.225 73.2246H86.84H82.5274V74.1903H82.4512V73.2246H78.1386H73.8261V74.1903H73.7498V73.2246H69.4373H65.1248V74.1903H65.0485V73.2246H60.736H56.4234V74.1903H56.3472V73.2246H52H47.6874V74.1903H47.6112V73.2246H43.2986H38.9861V74.1903H38.9098V73.2246H34.5973H30.2848V74.1903H30.2085V73.2246H25.896H21.5788V74.1903H21.5025V73.2246H17.19H12.8752V74.1742C12.8497 74.1718 12.8243 74.1719 12.7989 74.1695V73.2246H9.49863C9.45241 73.1992 9.40388 73.1738 9.35766 73.1484H12.8359H12.8382H17.1507V70.6463H12.8382H8.52335V72.6216C8.49792 72.5962 8.4725 72.5778 8.44708 72.5593ZM21.4771 3.62022C21.5141 3.56709 21.5465 3.51164 21.5788 3.45388V1.20366C21.5557 1.15977 21.5303 1.11818 21.5025 1.07659V3.54629H17.5529C17.569 3.57171 17.5852 3.59712 17.6014 3.62253H21.4771V3.62022ZM21.4794 1.04194C21.4633 1.01653 21.4448 0.991114 21.4263 0.965701H17.6499C17.6314 0.991114 17.6153 1.01653 17.5968 1.04194H21.4794ZM87.3045 11.3528H90.7873C90.792 11.3273 90.7989 11.3019 90.8035 11.2765H87.2906C87.2929 11.3019 87.2999 11.3273 87.3045 11.3528ZM86.7729 70.6394H82.4604H78.1479V73.1415H82.4604H82.4627H86.7753V70.6394H86.7729ZM78.0716 70.6394H73.7591H69.4465V73.1415H73.7591H73.7614H78.0739V70.6394H78.0716ZM69.368 70.6394H65.0554H60.7429V73.1415H65.0554H65.0577H69.3703V70.6394H69.368ZM60.6643 70.6394H56.3518H52.0393V73.1415H56.3518H56.3541H60.6666V70.6394H60.6643ZM51.9607 70.6394H47.6481H43.3356V73.1415H47.6481H47.6505H51.963V70.6394H51.9607ZM43.2593 70.6394H38.9468H34.6343V73.1415H38.9468H38.9491H43.2617V70.6394H43.2593ZM34.5557 70.6394H30.2432H25.9306V73.1415H30.2432H30.2455H34.558V70.6394H34.5557ZM25.8544 70.6394H21.5418H17.227V73.1415H21.5395H21.5418H25.8544V70.6394ZM91.1248 68.0611H86.8122H82.4997V70.5632H86.8122H86.8145H91.1271V68.0611H91.1248ZM82.4211 68.0611H78.1086H73.7961V70.5632H78.1086H78.1109H82.4234V68.0611H82.4211ZM73.7198 68.0611H69.4073H65.0947V70.5632H69.4073H69.4096H73.7221V68.0611H73.7198ZM65.0161 68.0611H60.7036H56.3911V70.5632H60.7036H60.7059H65.0185V68.0611H65.0161ZM56.3125 68.0611H52H47.6874V70.5632H52H56.3125V68.0611ZM47.6112 68.0611H43.2986H38.9861V70.5632H43.2986H43.3009H47.6135V68.0611H47.6112ZM38.9075 68.0611H34.595H30.2825V70.5632H34.595H34.5973H38.9098V68.0611H38.9075ZM30.2039 68.0611H25.8913H21.5788V70.5632H25.8913H25.8937H30.2062V68.0611H30.2039ZM21.5025 68.0611H17.19H12.8752V70.5632H17.1877H17.19H21.5025V68.0611ZM95.4766 65.4852H91.1641H86.8515V67.9872H91.1641H91.1664H95.4789V65.4852H95.4766ZM86.7729 65.4852H82.4604H78.1479V67.9872H82.4604H82.4627H86.7753V65.4852H86.7729ZM78.0716 65.4852H73.7591H69.4465V67.9872H73.7591H73.7614H78.0739V65.4852H78.0716ZM69.368 65.4852H65.0554H60.7429V67.9872H65.0554H65.0577H69.3703V65.4852H69.368ZM60.6643 65.4852H56.3518H52.0393V67.9872H56.3518H56.3541H60.6666V65.4852H60.6643ZM51.9607 65.4852H47.6481H43.3356V67.9872H47.6481H47.6505H51.963V65.4852H51.9607ZM43.2593 65.4852H38.9468H34.6343V67.9872H38.9468H38.9491H43.2617V65.4852H43.2593ZM34.5557 65.4852H30.2432H25.9306V67.9872H30.2432H30.2455H34.558V65.4852H34.5557ZM25.8544 65.4852H21.5418H17.227V67.9872H21.5395H21.5418H25.8544V65.4852ZM17.1507 65.4852H12.8382H8.52335V67.9872H12.8359H12.8382H17.1507V65.4852ZM91.1248 62.9069H86.8122H82.4997V65.4089H86.8122H86.8145H91.1271V62.9069H91.1248ZM82.4211 62.9069H78.1086H73.7961V65.4089H78.1086H78.1109H82.4234V62.9069H82.4211ZM73.7198 62.9069H69.4073H65.0947V65.4089H69.4073H69.4096H73.7221V62.9069H73.7198ZM65.0161 62.9069H60.7036H56.3911V65.4089H60.7036H60.7059H65.0185V62.9069H65.0161ZM56.3125 62.9069H52H47.6874V65.4089H52H56.3125V62.9069ZM47.6112 62.9069H43.2986H38.9861V65.4089H43.2986H43.3009H47.6135V62.9069H47.6112ZM38.9075 62.9069H34.595H30.2825V65.4089H34.595H34.5973H38.9098V62.9069H38.9075ZM30.2039 62.9069H25.8913H21.5788V65.4089H25.8913H25.8937H30.2062V62.9069H30.2039ZM21.5025 62.9069H17.19H12.8752V65.4089H17.1877H17.19H21.5025V62.9069ZM95.4766 60.3286H91.1641H86.8515V62.8306H91.1641H91.1664H95.4789V60.3286H95.4766ZM86.7729 60.3286H82.4604H78.1479V62.8306H82.4604H82.4627H86.7753V60.3286H86.7729ZM78.0716 60.3286H73.7591H69.4465V62.8306H73.7591H73.7614H78.0739V60.3286H78.0716ZM69.368 60.3286H65.0554H60.7429V62.8306H65.0554H65.0577H69.3703V60.3286H69.368ZM60.6643 60.3286H56.3518H52.0393V62.8306H56.3518H56.3541H60.6666V60.3286H60.6643ZM51.9607 60.3286H47.6481H43.3356V62.8306H47.6481H47.6505H51.963V60.3286H51.9607ZM43.2593 60.3286H38.9468H34.6343V62.8306H38.9468H38.9491H43.2617V60.3286H43.2593ZM34.5557 60.3286H30.2432H25.9306V62.8306H30.2432H30.2455H34.558V60.3286H34.5557ZM25.8544 60.3286H21.5418H17.227V62.8306H21.5395H21.5418H25.8544V60.3286ZM17.1507 60.3286H12.8382H8.52335V62.8306H12.8359H12.8382H17.1507V60.3286ZM91.1248 57.7503H86.8122H82.4997V60.2523H86.8122H86.8145H91.1271V57.7503H91.1248ZM82.4211 57.7503H78.1086H73.7961V60.2523H78.1086H78.1109H82.4234V57.7503H82.4211ZM73.7198 57.7503H69.4073H65.0947V60.2523H69.4073H69.4096H73.7221V57.7503H73.7198ZM65.0161 57.7503H60.7036H56.3911V60.2523H60.7036H60.7059H65.0185V57.7503H65.0161ZM56.3125 57.7503H52H47.6874V60.2523H52H56.3125V57.7503ZM47.6112 57.7503H43.2986H38.9861V60.2523H43.2986H43.3009H47.6135V57.7503H47.6112ZM38.9075 57.7503H34.595H30.2825V60.2523H34.595H34.5973H38.9098V57.7503H38.9075ZM30.2039 57.7503H25.8913H21.5788V60.2523H25.8913H25.8937H30.2062V57.7503H30.2039ZM21.5025 57.7503H17.19H12.8752V60.2523H17.1877H17.19H21.5025V57.7503ZM95.4766 55.1743H91.1641H86.8515V57.6764H91.1641H91.1664H95.4789V55.1743H95.4766ZM86.7729 55.1743H82.4604H78.1479V57.6764H82.4604H82.4627H86.7753V55.1743H86.7729ZM78.0716 55.1743H73.7591H69.4465V57.6764H73.7591H73.7614H78.0739V55.1743H78.0716ZM69.368 55.1743H65.0554H60.7429V57.6764H65.0554H65.0577H69.3703V55.1743H69.368ZM60.6643 55.1743H56.3518H52.0393V57.6764H56.3518H56.3541H60.6666V55.1743H60.6643ZM51.9607 55.1743H47.6481H43.3356V57.6764H47.6481H47.6505H51.963V55.1743H51.9607ZM43.2593 55.1743H38.9468H34.6343V57.6764H38.9468H38.9491H43.2617V55.1743H43.2593ZM34.5557 55.1743H30.2432H25.9306V57.6764H30.2432H30.2455H34.558V55.1743H34.5557ZM91.1248 52.5961H86.8122H82.4997V55.0981H86.8122H86.8145H91.1271V52.5961H91.1248ZM82.4211 52.5961H78.1086H73.7961V55.0981H78.1086H78.1109H82.4234V52.5961H82.4211ZM73.7198 52.5961H69.4073H65.0947V55.0981H69.4073H69.4096H73.7221V52.5961H73.7198ZM65.0161 52.5961H60.7036H56.3911V55.0981H60.7036H60.7059H65.0185V52.5961H65.0161ZM56.3125 52.5961H52H47.6874V55.0981H52H56.3125V52.5961ZM47.6112 52.5961H43.2986H38.9861V55.0981H43.2986H43.3009H47.6135V52.5961H47.6112ZM38.9075 52.5961H34.595H30.2825V55.0981H34.595H34.5973H38.9098V52.5961H38.9075ZM95.4766 50.0178H91.1641H86.8515V52.5198H91.1641H91.1664H95.4789V50.0178H95.4766ZM86.7729 50.0178H82.4604H78.1479V52.5198H82.4604H82.4627H86.7753V50.0178H86.7729ZM78.0716 50.0178H73.7591H69.4465V52.5198H73.7591H73.7614H78.0739V50.0178H78.0716ZM69.368 50.0178H65.0554H60.7429V52.5198H65.0554H65.0577H69.3703V50.0178H69.368ZM60.6643 50.0178H56.3518H52.0393V52.5198H56.3518H56.3541H60.6666V50.0178H60.6643ZM51.9607 50.0178H47.6481H43.3356V52.5198H47.6481H47.6505H51.963V50.0178H51.9607ZM43.2593 50.0178H38.9468H34.6343V52.5198H38.9468H38.9491H43.2617V50.0178H43.2593ZM34.5557 50.0178H30.2432H25.9306V52.5198H30.2432H30.2455H34.558V50.0178H34.5557ZM91.1248 47.4395H86.8122H82.4997V49.9415H86.8122H86.8145H91.1271V47.4395H91.1248ZM82.4211 47.4395H78.1086H73.7961V49.9415H78.1086H78.1109H82.4234V47.4395H82.4211ZM73.7198 47.4395H69.4073H65.0947V49.9415H69.4073H69.4096H73.7221V47.4395H73.7198ZM65.0161 47.4395H60.7036H56.3911V49.9415H60.7036H60.7059H65.0185V47.4395H65.0161ZM56.3125 47.4395H52H47.6874V49.9415H52H56.3125V47.4395ZM47.6112 47.4395H43.2986H38.9861V49.9415H43.2986H43.3009H47.6135V47.4395H47.6112ZM38.9075 47.4395H34.595H30.2825V49.9415H34.595H34.5973H38.9098V47.4395H38.9075ZM86.7729 44.8635H82.4604H78.1479V47.3656H82.4604H82.4627H86.7753V44.8635H86.7729ZM78.0716 44.8635H73.7591H69.4465V47.3656H73.7591H73.7614H78.0739V44.8635H78.0716ZM69.368 44.8635H65.0554H60.7429V47.3656H65.0554H65.0577H69.3703V44.8635H69.368ZM60.6643 44.8635H56.3518H52.0393V47.3656H56.3518H56.3541H60.6666V44.8635H60.6643ZM51.9607 44.8635H47.6481H43.3356V47.3656H47.6481H47.6505H51.963V44.8635H51.9607ZM43.2593 44.8635H38.9468H34.6343V47.3656H38.9468H38.9491H43.2617V44.8635H43.2593ZM34.5557 44.8635H30.2432H25.9306V47.3656H30.2432H30.2455H34.558V44.8635H34.5557ZM73.7198 42.2852H69.4073H65.0947V44.7873H69.4073H69.4096H73.7221V42.2852H73.7198ZM65.0161 42.2852H60.7036H56.3911V44.7873H60.7036H60.7059H65.0185V42.2852H65.0161ZM56.3125 42.2852H52H47.6874V44.7873H52H56.3125V42.2852ZM47.6112 42.2852H43.2986H38.9861V44.7873H43.2986H43.3009H47.6135V42.2852H47.6112ZM38.9075 42.2852H34.595H30.2825V44.7873H34.595H34.5973H38.9098V42.2852H38.9075ZM69.368 39.7069H65.0554H60.7429V42.209H65.0554H65.0577H69.3703V39.7069H69.368ZM60.6643 39.7069H56.3518H52.0393V42.209H56.3518H56.3541H60.6666V39.7069H60.6643ZM51.9607 39.7069H47.6481H43.3356V42.209H47.6481H47.6505H51.963V39.7069H51.9607ZM43.2593 39.7069H38.9468H34.6343V42.209H38.9468H38.9491H43.2617V39.7069H43.2593ZM34.5557 39.7069H30.2432H25.9306V42.209H30.2432H30.2455H34.558V39.7069H34.5557ZM73.7198 37.131H69.4073H65.0947V39.633H69.4073H69.4096H73.7221V37.131H73.7198ZM65.0161 37.131H60.7036H56.3911V39.633H60.7036H60.7059H65.0185V37.131H65.0161ZM56.3125 37.131H52H47.6874V39.633H52H56.3125V37.131ZM47.6112 37.131H43.2986H38.9861V39.633H43.2986H43.3009H47.6135V37.131H47.6112ZM38.9075 37.131H34.595H30.2825V39.633H34.595H34.5973H38.9098V37.131H38.9075ZM30.2039 37.131H25.8913H21.5788V39.633H25.8913H25.8937H30.2062V37.131H30.2039ZM21.5025 37.131H17.19H12.8752V39.633H17.1877H17.19H21.5025V37.131ZM69.368 34.5527H65.0554H60.7429V37.0547H65.0554H65.0577H69.3703V34.5527H69.368ZM60.6643 34.5527H56.3518H52.0393V37.0547H56.3518H56.3541H60.6666V34.5527H60.6643ZM51.9607 34.5527H47.6481H43.3356V37.0547H47.6481H47.6505H51.963V34.5527H51.9607ZM43.2593 34.5527H38.9468H34.6343V37.0547H38.9468H38.9491H43.2617V34.5527H43.2593ZM34.5557 34.5527H30.2432H25.9306V37.0547H30.2432H30.2455H34.558V34.5527H34.5557ZM25.8544 34.5527H21.5418H17.227V37.0547H21.5395H21.5418H25.8544V34.5527ZM17.1507 34.5527H12.8382H8.52335V37.0547H12.8359H12.8382H17.1507V34.5527ZM73.7198 31.9744H69.4073H65.0947V34.4765H69.4073H69.4096H73.7221V31.9744H73.7198ZM65.0161 31.9744H60.7036H56.3911V34.4765H60.7036H60.7059H65.0185V31.9744H65.0161ZM56.3125 31.9744H52H47.6874V34.4765H52H56.3125V31.9744ZM47.6112 31.9744H43.2986H38.9861V34.4765H43.2986H43.3009H47.6135V31.9744H47.6112ZM38.9075 31.9744H34.595H30.2825V34.4765H34.595H34.5973H38.9098V31.9744H38.9075ZM30.2039 31.9744H25.8913H21.5788V34.4765H25.8913H25.8937H30.2062V31.9744H30.2039ZM21.5025 31.9744H17.19H12.8752V34.4765H17.1877H17.19H21.5025V31.9744ZM78.0716 29.3961H73.7591H69.4465V31.8982H73.7591H73.7614H78.0739V29.3961H78.0716ZM69.368 29.3961H65.0554H60.7429V31.8982H65.0554H65.0577H69.3703V29.3961H69.368ZM60.6643 29.3961H56.3518H52.0393V31.8982H56.3518H56.3541H60.6666V29.3961H60.6643ZM51.9607 29.3961H47.6481H43.3356V31.8982H47.6481H47.6505H51.963V29.3961H51.9607ZM43.2593 29.3961H38.9468H34.6343V31.8982H38.9468H38.9491H43.2617V29.3961H43.2593ZM34.5557 29.3961H30.2432H25.9306V31.8982H30.2432H30.2455H34.558V29.3961H34.5557ZM25.8544 29.3961H21.5418H17.227V31.8982H21.5395H21.5418H25.8544V29.3961ZM17.1507 29.3961H12.8382H8.52335V31.8982H12.8359H12.8382H17.1507V29.3961ZM82.4211 26.8202H78.1086H73.7961V29.3222H78.1086H78.1109H82.4234V26.8202H82.4211ZM73.7198 26.8202H69.4073H65.0947V29.3222H69.4073H69.4096H73.7221V26.8202H73.7198ZM65.0161 26.8202H60.7036H56.3911V29.3222H60.7036H60.7059H65.0185V26.8202H65.0161ZM56.3125 26.8202H52H47.6874V29.3222H52H56.3125V26.8202ZM47.6112 26.8202H43.2986H38.9861V29.3222H43.2986H43.3009H47.6135V26.8202H47.6112ZM38.9075 26.8202H34.595H30.2825V29.3222H34.595H34.5973H38.9098V26.8202H38.9075ZM30.2039 26.8202H25.8913H21.5788V29.3222H25.8913H25.8937H30.2062V26.8202H30.2039ZM21.5025 26.8202H17.19H12.8752V29.3222H17.1877H17.19H21.5025V26.8202ZM86.7729 24.2419H82.4604H78.1479V26.7439H82.4604H82.4627H86.7753V24.2419H86.7729ZM78.0716 24.2419H73.7591H69.4465V26.7439H73.7591H73.7614H78.0739V24.2419H78.0716ZM69.368 24.2419H65.0554H60.7429V26.7439H65.0554H65.0577H69.3703V24.2419H69.368ZM60.6643 24.2419H56.3518H52.0393V26.7439H56.3518H56.3541H60.6666V24.2419H60.6643ZM51.9607 24.2419H47.6481H43.3356V26.7439H47.6481H47.6505H51.963V24.2419H51.9607ZM43.2593 24.2419H38.9468H34.6343V26.7439H38.9468H38.9491H43.2617V24.2419H43.2593ZM34.5557 24.2419H30.2432H25.9306V26.7439H30.2432H30.2455H34.558V24.2419H34.5557ZM25.8544 24.2419H21.5418H17.227V26.7439H21.5395H21.5418H25.8544V24.2419ZM82.4211 21.6636H78.1086H73.7961V24.1656H78.1086H78.1109H82.4234V21.6636H82.4211ZM73.7198 21.6636H69.4073H65.0947V24.1656H69.4073H69.4096H73.7221V21.6636H73.7198ZM65.0161 21.6636H60.7036H56.3911V24.1656H60.7036H60.7059H65.0185V21.6636H65.0161ZM56.3125 21.6636H52H47.6874V24.1656H52H56.3125V21.6636ZM47.6112 21.6636H43.2986H38.9861V24.1656H43.2986H43.3009H47.6135V21.6636H47.6112ZM38.9075 21.6636H34.595H30.2825V24.1656H34.595H34.5973H38.9098V21.6636H38.9075ZM30.2039 21.6636H25.8913H21.5788V24.1656H25.8913H25.8937H30.2062V21.6636H30.2039ZM86.7729 19.0853H82.4604H78.1479V21.5873H82.4604H82.4627H86.7753V19.0853H86.7729ZM78.0716 19.0853H73.7591H69.4465V21.5873H73.7591H73.7614H78.0739V19.0853H78.0716ZM69.368 19.0853H65.0554H60.7429V21.5873H65.0554H65.0577H69.3703V19.0853H69.368ZM60.6643 19.0853H56.3518H52.0393V21.5873H56.3518H56.3541H60.6666V19.0853H60.6643ZM51.9607 19.0853H47.6481H43.3356V21.5873H47.6481H47.6505H51.963V19.0853H51.9607ZM43.2593 19.0853H38.9468H34.6343V21.5873H38.9468H38.9491H43.2617V19.0853H43.2593ZM34.5557 19.0853H30.2432H25.9306V21.5873H30.2432H30.2455H34.558V19.0853H34.5557ZM73.7198 16.5093H69.4073H65.0947V19.0114H69.4073H69.4096H73.7221V16.5093H73.7198ZM65.0161 16.5093H60.7036H56.3911V19.0114H60.7036H60.7059H65.0185V16.5093H65.0161ZM56.3125 16.5093H52H47.6874V19.0114H52H56.3125V16.5093ZM47.6112 16.5093H43.2986H38.9861V19.0114H43.2986H43.3009H47.6135V16.5093H47.6112ZM38.9075 16.5093H34.595H30.2825V19.0114H34.595H34.5973H38.9098V16.5093H38.9075ZM30.2039 16.5093H25.8913H21.5788V19.0114H25.8913H25.8937H30.2062V16.5093H30.2039ZM78.0716 13.931H73.7591H69.4465V16.4331H73.7591H73.7614H78.0739V13.931H78.0716ZM69.368 13.931H65.0554H60.7429V16.4331H65.0554H65.0577H69.3703V13.931H69.368ZM60.6643 13.931H56.3518H52.0393V16.4331H56.3518H56.3541H60.6666V13.931H60.6643ZM51.9607 13.931H47.6481H43.3356V16.4331H47.6481H47.6505H51.963V13.931H51.9607ZM43.2593 13.931H38.9468H34.6343V16.4331H38.9468H38.9491H43.2617V13.931H43.2593ZM34.5557 13.931H30.2432H25.9306V16.4331H30.2432H30.2455H34.558V13.931H34.5557ZM25.8544 13.931H21.5418H17.227V16.4331H21.5395H21.5418H25.8544V13.931ZM73.7198 11.3528H69.4073H65.0947V13.8548H69.4073H69.4096H73.7221V11.3528H73.7198ZM65.0161 11.3528H60.7036H56.3911V13.8548H60.7036H60.7059H65.0185V11.3528H65.0161ZM56.3125 11.3528H52H47.6874V13.8548H52H56.3125V11.3528ZM47.6112 11.3528H43.2986H38.9861V13.8548H43.2986H43.3009H47.6135V11.3528H47.6112ZM69.368 8.77448H65.0554H60.7429V11.2765H65.0554H65.0577H69.3703V8.77448H69.368ZM60.6643 8.77448H56.3518H52.0393V11.2765H56.3518H56.3541H60.6666V8.77448H60.6643ZM51.9607 8.77448H47.6481H43.3356V11.2765H47.6481H47.6505H51.963V8.77448H51.9607ZM43.2593 8.77448H38.9468H34.6343V11.2765H38.9468H38.9491H43.2617V8.77448H43.2593ZM65.0161 6.19851H60.7036H56.3911V8.70055H60.7036H60.7059H65.0185V6.19851H65.0161ZM56.3125 6.19851H52H47.6874V8.70055H52H56.3125V6.19851ZM47.6112 6.19851H43.2986H38.9861V8.70055H43.2986H43.3009H47.6135V6.19851H47.6112ZM69.368 3.62022H65.0554H60.7429V6.12227H65.0554H65.0577H69.3703V3.62022H69.368ZM60.6643 3.62022H56.3518H52.0393V6.12227H56.3518H56.3541H60.6666V3.62022H60.6643ZM51.9607 3.62022H47.6481H43.3356V6.12227H47.6481H47.6505H51.963V3.62022H51.9607ZM43.2593 3.62022H38.9468H34.6343V6.12227H38.9468H38.9491H43.2617V3.62022H43.2593ZM73.7198 1.04194H69.4073H65.0947V3.54398H69.4073H69.4096H73.7221V1.04194H73.7198ZM65.0161 1.04194H60.7036H56.3911V3.54398H60.7036H60.7059H65.0185V1.04194H65.0161ZM56.3125 1.04194H52H47.6874V3.54398H52H56.3125V1.04194ZM47.6112 1.04194H43.2986H38.9861V3.54398H43.2986H43.3009H47.6135V1.04194H47.6112ZM38.9075 1.04194H34.595H30.2825V3.54398H34.595H34.5973H38.9098V1.04194H38.9075Z" fill="#C8DEE1"/>
<path fill-rule="evenodd" clip-rule="evenodd" d="M31.1907 24.2073C31.0844 24.2073 30.9943 24.2951 30.9943 24.4013V24.7687C30.9943 24.8749 31.0821 24.9651 31.1884 24.9651C31.2947 24.9651 31.3848 24.8773 31.3848 24.7687V24.4013C31.3848 24.2951 31.297 24.2073 31.1907 24.2073Z" fill="#ABC4C8"/>
<path fill-rule="evenodd" clip-rule="evenodd" d="M31.1907 25.0898C31.0844 25.0898 30.9943 25.1776 30.9943 25.2862V25.6536C30.9943 25.7598 31.0821 25.8476 31.1884 25.8476C31.2947 25.8476 31.3848 25.7598 31.3848 25.6536V25.2862C31.3848 25.1776 31.297 25.0898 31.1907 25.0898Z" fill="#ABC4C8"/>
<path fill-rule="evenodd" clip-rule="evenodd" d="M31.1907 25.9607C31.0844 25.9607 30.9943 26.0485 30.9943 26.1571V26.5244C30.9943 26.6307 31.0821 26.7185 31.1884 26.7185C31.2947 26.7185 31.3848 26.6307 31.3848 26.5244V26.1571C31.3848 26.0485 31.297 25.9607 31.1907 25.9607Z" fill="#ABC4C8"/>
<path fill-rule="evenodd" clip-rule="evenodd" d="M31.1907 26.8293C31.0844 26.8293 30.9943 26.9171 30.9943 27.0234V27.3907C30.9943 27.497 31.0821 27.5871 31.1884 27.5871C31.2947 27.5871 31.3848 27.4993 31.3848 27.3907V27.0234C31.3848 26.9171 31.297 26.8293 31.1907 26.8293Z" fill="#ABC4C8"/>
<path fill-rule="evenodd" clip-rule="evenodd" d="M31.1907 27.7004C31.0844 27.7004 30.9943 27.7882 30.9943 27.8968V28.2641C30.9943 28.3704 31.0821 28.4582 31.1884 28.4582C31.2947 28.4582 31.3848 28.3704 31.3848 28.2641V27.8968C31.3848 27.7882 31.297 27.7004 31.1907 27.7004Z" fill="#ABC4C8"/>
<path fill-rule="evenodd" clip-rule="evenodd" d="M31.1907 28.5715C31.0844 28.5715 30.9943 28.6593 30.9943 28.7679V29.1352C30.9943 29.2438 31.0821 29.3316 31.1884 29.3316C31.2947 29.3316 31.3848 29.2438 31.3848 29.1352V28.7679C31.3848 28.6593 31.297 28.5715 31.1907 28.5715Z" fill="#ABC4C8"/>
<path fill-rule="evenodd" clip-rule="evenodd" d="M31.1907 29.4424C31.0844 29.4424 30.9943 29.5302 30.9943 29.6364V30.0038C30.9943 30.1101 31.0821 30.1978 31.1884 30.1978C31.2947 30.1978 31.3848 30.1101 31.3848 30.0038V29.6364C31.3848 29.5302 31.297 29.4424 31.1907 29.4424Z" fill="#ABC4C8"/>
<path fill-rule="evenodd" clip-rule="evenodd" d="M31.1907 30.311C31.0844 30.311 30.9943 30.3988 30.9943 30.5074V30.8747C30.9943 30.981 31.0821 31.0688 31.1884 31.0688C31.2947 31.0688 31.3848 30.981 31.3848 30.8747V30.5074C31.3848 30.3988 31.297 30.311 31.1907 30.311Z" fill="#ABC4C8"/>
<path fill-rule="evenodd" clip-rule="evenodd" d="M31.3202 30.8333C31.3918 30.8333 31.4704 30.8933 31.4935 30.9649L31.9719 32.4736C31.995 32.5452 31.9534 32.6052 31.8818 32.6052H30.4997C30.4281 32.6052 30.3865 32.5452 30.4096 32.4736L30.888 30.9649C30.9111 30.8933 30.9897 30.8333 31.0613 30.8333H31.3202Z" fill="white"/>
<path fill-rule="evenodd" clip-rule="evenodd" d="M35.3946 25.1292H34.8792C34.7567 25.1292 34.655 25.2308 34.655 25.3532V72.1898C34.655 72.3122 34.7544 72.4139 34.8792 72.4139H35.3946C35.5171 72.4139 35.6188 72.3145 35.6188 72.1898V25.3509C35.6188 25.2285 35.5171 25.1292 35.3946 25.1292Z" fill="#7A9297"/>
<path fill-rule="evenodd" clip-rule="evenodd" d="M35.8476 21.0676H34.4263C34.0865 21.0676 33.8115 21.3449 33.8115 21.6822V25.6582C33.8115 25.9978 34.0889 26.2727 34.4263 26.2727H35.8476C36.1873 26.2727 36.4624 25.9955 36.4624 25.6582V21.6845C36.4624 21.3449 36.1873 21.0676 35.8476 21.0676Z" fill="#7A9297"/>
<path fill-rule="evenodd" clip-rule="evenodd" d="M35.8476 70.4224H34.4263C34.0865 70.4224 33.8115 70.6996 33.8115 71.0369V73.7815C33.8115 74.1211 34.0889 74.3961 34.4263 74.3961H35.8476C36.1873 74.3961 36.4624 74.1188 36.4624 73.7815V71.0369C36.4624 70.6996 36.1873 70.4224 35.8476 70.4224Z" fill="#7A9297"/>
<path fill-rule="evenodd" clip-rule="evenodd" d="M37.8397 74.7078H32.4364C32.1452 74.7078 31.9071 74.4698 31.9071 74.1787C31.9071 73.8876 32.1452 73.6497 32.4364 73.6497H37.8397C38.1309 73.6497 38.369 73.8876 38.369 74.1787C38.369 74.4698 38.1309 74.7078 37.8397 74.7078Z" fill="#7A9297"/>
<path fill-rule="evenodd" clip-rule="evenodd" d="M35.1381 15.0608H37.6364C38.02 15.0608 38.4314 15.375 38.5539 15.7562L41.0707 23.7059C41.1909 24.0894 40.9783 24.4013 40.5946 24.4013H35.1404H29.6862C29.3025 24.4013 29.0899 24.0871 29.2101 23.7059L31.7269 15.7562C31.8471 15.3727 32.2607 15.0608 32.6444 15.0608H35.1381Z" fill="white"/>
<path fill-rule="evenodd" clip-rule="evenodd" d="M39.9683 20.229L40.2549 21.1346H30.0213L30.3078 20.229H39.9683ZM40.4282 21.6845L41.0013 23.4981H29.2701L29.8433 21.6845H40.4282Z" fill="#C8DEE1"/>
<path d="M31.191 25.1359C31.251 25.1359 31.2996 25.0873 31.2996 25.0273C31.2996 24.9673 31.251 24.9187 31.191 24.9187C31.131 24.9187 31.0824 24.9673 31.0824 25.0273C31.0824 25.0873 31.131 25.1359 31.191 25.1359Z" fill="#7A9297"/>
<path fill-rule="evenodd" clip-rule="evenodd" d="M31.1907 26.007C31.2508 26.007 31.2994 25.9584 31.2994 25.8984C31.2994 25.8383 31.2508 25.7898 31.1907 25.7898C31.1306 25.7898 31.0821 25.8383 31.0821 25.8984C31.0798 25.9561 31.1283 26.007 31.1907 26.007Z" fill="#7A9297"/>
<path fill-rule="evenodd" clip-rule="evenodd" d="M31.1907 26.8756C31.2508 26.8756 31.2994 26.8271 31.2994 26.767C31.2994 26.707 31.2508 26.6584 31.1907 26.6584C31.1306 26.6584 31.0821 26.707 31.0821 26.767C31.0798 26.8271 31.1283 26.8756 31.1907 26.8756Z" fill="#7A9297"/>
<path fill-rule="evenodd" clip-rule="evenodd" d="M31.1907 27.7465C31.2508 27.7465 31.2994 27.6979 31.2994 27.6379C31.2994 27.5778 31.2508 27.5293 31.1907 27.5293C31.1306 27.5293 31.0821 27.5778 31.0821 27.6379C31.0798 27.6979 31.1283 27.7465 31.1907 27.7465Z" fill="#7A9297"/>
<path d="M31.1908 28.6176C31.2508 28.6176 31.2994 28.5689 31.2994 28.509C31.2994 28.449 31.2508 28.4004 31.1908 28.4004C31.1308 28.4004 31.0822 28.449 31.0822 28.509C31.0822 28.5689 31.1308 28.6176 31.1908 28.6176Z" fill="#7A9297"/>
<path d="M31.1908 29.4862C31.2508 29.4862 31.2994 29.4376 31.2994 29.3776C31.2994 29.3177 31.2508 29.269 31.1908 29.269C31.1308 29.269 31.0822 29.3177 31.0822 29.3776C31.0822 29.4376 31.1308 29.4862 31.1908 29.4862Z" fill="#7A9297"/>
<path d="M31.1908 30.3571C31.2508 30.3571 31.2994 30.3084 31.2994 30.2485C31.2994 30.1885 31.2508 30.1399 31.1908 30.1399C31.1308 30.1399 31.0822 30.1885 31.0822 30.2485C31.0822 30.3084 31.1308 30.3571 31.1908 30.3571Z" fill="#7A9297"/>
<path fill-rule="evenodd" clip-rule="evenodd" d="M53.8835 40.6565C53.8835 40.6565 55.3534 40.6565 56.5367 40.6565C57.72 40.6565 58.5289 40.266 59.5411 38.5125C60.5534 36.759 61.8338 34.5435 61.8338 34.5435C61.8338 34.5435 62.7074 33.1111 64.9445 33.1111C67.1817 33.1111 70.7939 33.1111 71.6583 33.1111C72.5203 33.1111 74.2167 33.2381 74.7922 34.6128C75.3676 35.9874 77.5886 41.3819 77.5886 41.3819L73.3547 41.7077L69.294 48.6108C69.294 48.6108 63.6988 49.059 62.5803 48.9296C61.4617 48.8026 57.2092 48.5461 57.2092 48.5461L53.8835 40.6565Z" fill="#018543"/>
<path fill-rule="evenodd" clip-rule="evenodd" d="M62.8738 22.7402C62.8738 22.7402 62.0533 22.9482 61.3323 23.7198C60.9255 24.1564 56.4651 32.6006 56.1184 33.1666C55.7717 33.7326 55.5891 35.2343 56.1276 36.2254C56.6661 37.2165 59.8208 42.812 59.8208 42.812L61.0226 41.0216C61.0226 41.0216 58.4942 35.4307 58.3833 35.1488C58.2723 34.8669 58.2331 34.6013 58.5474 34.1762C58.8617 33.7511 61.9909 29.9899 61.9909 29.9899C61.9909 29.9899 64.2489 24.6277 62.8738 22.7402Z" fill="#141A33"/>
<path fill-rule="evenodd" clip-rule="evenodd" d="M66.0862 73.4879V50.921C66.0862 50.7824 65.9729 50.6692 65.8343 50.6692H65.6494C65.5107 50.6692 65.3975 50.7824 65.3975 50.921V73.4879C65.3975 73.6265 65.5107 73.7397 65.6494 73.7397H65.8343C65.9729 73.7397 66.0862 73.6265 66.0862 73.4879Z" fill="#00000F"/>
<path fill-rule="evenodd" clip-rule="evenodd" d="M66.0885 50.0271H65.3952C64.8775 50.0271 64.4546 50.4499 64.4546 50.9674V51.8776C64.4546 52.3951 64.8775 52.8179 65.3952 52.8179H66.0885C66.6062 52.8179 67.0292 52.3951 67.0292 51.8776V50.9674C67.0292 50.4499 66.6039 50.0271 66.0885 50.0271Z" fill="#141A33"/>
<path fill-rule="evenodd" clip-rule="evenodd" d="M66.3126 72.3628H65.1709C64.8936 72.3628 64.6671 72.5892 64.6671 72.8664V73.2361C64.6671 73.5133 64.8936 73.7397 65.1709 73.7397H66.3126C66.59 73.7397 66.8164 73.5133 66.8164 73.2361V72.8664C66.8164 72.5892 66.5876 72.3628 66.3126 72.3628Z" fill="#141A33"/>
<path fill-rule="evenodd" clip-rule="evenodd" d="M68.7717 73.0513H62.7097C62.2844 73.0513 61.9377 73.3978 61.9377 73.8229V74.3912C61.9377 74.8163 62.2844 75.1629 62.7097 75.1629H68.7717C69.1969 75.1629 69.5436 74.8163 69.5436 74.3912V73.8229C69.5436 73.3978 69.1969 73.0513 68.7717 73.0513Z" fill="#030822"/>
<path fill-rule="evenodd" clip-rule="evenodd" d="M70.5698 50.4936C70.5698 50.1286 70.2716 49.8306 69.9065 49.8306H61.5749C61.2097 49.8306 60.9093 50.1286 60.9093 50.4936C60.9093 50.8586 61.2074 51.1567 61.5749 51.1567H69.9065C70.2716 51.1567 70.5698 50.8586 70.5698 50.4936Z" fill="#030822"/>
<path fill-rule="evenodd" clip-rule="evenodd" d="M72.3563 50.2212C72.3563 50.0156 72.1876 49.8469 71.9819 49.8469H59.5134C59.3078 49.8469 59.139 50.0156 59.139 50.2212C59.139 50.4268 59.3078 50.5955 59.5134 50.5955H71.9819C72.1876 50.5955 72.3563 50.4268 72.3563 50.2212Z" fill="#00000F"/>
<path fill-rule="evenodd" clip-rule="evenodd" d="M63.5162 48.7656H71.9656C72.3701 48.7656 72.7005 49.096 72.7005 49.5003C72.7005 49.9046 72.3701 50.235 71.9656 50.235H63.5162C63.1117 50.235 62.7812 49.9046 62.7812 49.5003C62.7812 49.096 63.1117 48.7656 63.5162 48.7656Z" fill="#C83C4A"/>
<path fill-rule="evenodd" clip-rule="evenodd" d="M58.7022 48.7656H65.906C66.3104 48.7656 66.6409 49.096 66.6409 49.5003C66.6409 49.9046 66.3104 50.235 65.906 50.235H58.7022C58.2978 50.235 57.9673 49.9046 57.9673 49.5003C57.9673 49.096 58.2978 48.7656 58.7022 48.7656Z" fill="#DA5252"/>
<path fill-rule="evenodd" clip-rule="evenodd" d="M73.7036 34.6128C74.1866 35.7679 75.8321 39.7624 76.3452 41.0077H76.9992H77.0269C77.2789 41.0077 77.4961 41.1624 77.5862 41.3819C77.5862 41.3819 75.3653 35.9874 74.7898 34.6128C74.2143 33.2381 72.5203 33.1111 71.6559 33.1111C71.441 33.1111 71.0597 33.1111 70.5697 33.1111C71.4341 33.1111 73.1281 33.2381 73.7036 34.6128Z" fill="#018543"/>
<path fill-rule="evenodd" clip-rule="evenodd" d="M50.9091 41.8625C50.5763 41.8625 50.3059 41.5922 50.3059 41.2595C50.3059 40.9268 50.5763 40.6565 50.9091 40.6565H54.1701C54.4289 40.6565 54.6485 40.8182 54.734 41.0469L58.0112 48.2943H69.0375L72.9872 41.3149C73.0981 41.1209 73.3015 41.01 73.5118 41.01V41.0077H77.0293C77.3621 41.0077 77.6325 41.278 77.6325 41.6106C77.6325 41.9433 77.3621 42.2136 77.0293 42.2136H73.8631L69.9365 49.1514C69.8394 49.357 69.6314 49.5003 69.3888 49.5003H57.6252C57.3964 49.5003 57.1768 49.3686 57.0752 49.1445L53.7841 41.8625H50.9091Z" fill="#018543"/>
<path fill-rule="evenodd" clip-rule="evenodd" d="M53.218 68.2529C53.218 68.2529 49.3954 50.1888 49.2013 48.1488C49.0164 46.192 47.9371 43.3803 60.3824 41.442C60.907 41.3611 61.3138 40.8298 61.8869 40.7512C61.8869 40.7512 71.8016 41.2318 72.8925 41.6707C73.9833 42.1097 71.1221 45.8408 61.8384 46.721C52.5547 47.6012 54.9305 50.734 54.9305 50.734C54.9305 50.734 55.2656 67.3311 55.4875 68.2044C55.7093 69.08 54.1193 69.5305 53.218 68.2529Z" fill="#00000F"/>
<path fill-rule="evenodd" clip-rule="evenodd" d="M62.3053 39.7625C61.8823 39.952 61.1566 41.5854 60.6297 41.7817C58.5474 42.5511 55.8919 43.3643 54.6324 44.2168C53.2896 45.127 52.735 46.4555 52.3259 47.5159C51.7874 48.9067 45.4711 63.4453 45.1014 64.0552C44.7339 64.6652 45.8409 65.6447 46.28 65.8665C46.7191 66.0883 47.32 65.2704 47.32 65.2704C47.32 65.2704 55.2818 51.6467 57.5906 48.2852L67.4475 48.2968C67.4475 48.2968 70.6114 47.7885 72.3309 45.5591C74.1821 43.161 72.6544 37.309 71.8409 37.2305C70.2948 37.0826 65.4992 36.3318 63.0194 37.5447C61.5172 38.277 62.9894 39.7695 62.3053 39.7625Z" fill="#030822"/>
<path fill-rule="evenodd" clip-rule="evenodd" d="M62.3051 39.7625C61.8845 39.9519 61.1565 41.5853 60.6296 41.7817C60.4609 41.844 60.2875 41.9064 60.1142 41.9688C60.1142 41.9688 65.2403 40.8298 66.7679 42.5256C68.2955 44.2213 68.1245 46.7326 63.2712 46.9013C58.4179 47.0699 57.6668 47.0699 56.9734 46.9013C56.2801 46.7326 51.0593 57.249 49.6957 58.7415C49.1711 59.3168 48.3599 59.0742 47.5649 58.5613C46.303 61.4422 45.2468 63.8126 45.1036 64.0505C44.7361 64.6605 45.8431 65.64 46.2822 65.8618C46.7213 66.0836 47.3199 65.2658 47.3199 65.2658C47.3199 65.2658 55.2817 51.642 57.5905 48.2805L67.4474 48.2921C67.4474 48.2921 70.6113 47.7838 72.3307 45.5544C74.1819 43.1563 72.6543 37.3043 71.8385 37.2258C70.2923 37.0779 65.4968 36.3271 63.017 37.5377C61.5171 38.2769 62.9892 39.7694 62.3051 39.7625Z" fill="#00000F"/>
<path fill-rule="evenodd" clip-rule="evenodd" d="M44.3525 63.7249L45.9333 64.5358C46.0627 64.6028 46.1158 64.7645 46.0488 64.8939L45.4525 66.0559C45.3855 66.1853 45.2237 66.2385 45.0943 66.1715L43.5135 65.3605C43.3841 65.2935 43.3309 65.1318 43.398 65.0024L43.9942 63.8404C44.0613 63.711 44.223 63.6579 44.3525 63.7249Z" fill="#018543"/>
<path fill-rule="evenodd" clip-rule="evenodd" d="M46.9109 67.6384C46.9109 67.6384 46.9502 67.8001 46.9757 67.844C46.9988 67.8879 46.7122 68.4124 46.6891 68.4655C46.5966 68.6781 46.4002 68.8236 46.1783 68.7104L44.8356 68.0219L45.6352 66.9823L46.4071 66.7952L46.9109 67.6384Z" fill="#F2DDDC"/>
<path fill-rule="evenodd" clip-rule="evenodd" d="M45.7692 62.2369L47.2276 62.9855C47.3916 63.0686 47.4564 63.2719 47.3732 63.436L46.0974 65.9218C46.0142 66.0859 45.8108 66.1506 45.6468 66.0674L44.1861 65.3189C44.022 65.2357 43.9573 65.0324 44.0405 64.8684L45.3163 62.3825C45.4018 62.2184 45.6052 62.1538 45.7692 62.2369Z" fill="#018543"/>
<path fill-rule="evenodd" clip-rule="evenodd" d="M45.8386 66.9315C45.9888 66.8183 46.1968 67.0608 46.4025 66.7952C47.1143 65.8757 47.9764 63.8911 47.8608 63.8334L47.1028 63.4452C47.0149 63.399 47.1305 63.5169 46.6821 63.57C46.3193 63.3852 45.5982 64.4548 44.9257 64.8892C44.5467 65.1341 44.5397 65.0971 44.3664 65.007C44.1931 64.9192 44.2925 64.97 44.1584 64.9007C44.0244 64.8337 43.6407 64.7875 44.1977 64.3809C44.7547 63.9743 45.2585 63.5608 45.3764 63.332C45.4942 63.1033 45.3995 62.6597 45.3348 62.5419C45.2701 62.4241 44.9303 62.468 44.8379 62.5026C44.7454 62.5373 44.6692 62.5951 44.5883 62.7545C44.5074 62.9116 44.2763 63.3621 44.1815 63.5469C44.0868 63.7294 42.4921 64.3347 42.261 64.7852C42.0299 65.2357 42.0645 65.1687 42.0114 65.2727C41.9582 65.3766 41.9513 65.4783 41.9605 65.5499C41.9675 65.6192 41.9536 65.7116 41.9536 65.7116L45.3463 67.4513C45.3486 67.4513 45.7069 67.2503 45.8386 66.9315Z" fill="#018543"/>
<path fill-rule="evenodd" clip-rule="evenodd" d="M46.9086 67.6383C46.9086 67.6383 47.5303 66.43 47.6459 66.2036C47.7614 65.9795 47.6181 65.7 47.7776 65.3881C47.9371 65.0762 48.2213 64.5263 48.2768 64.4155C48.3323 64.3069 48.1659 63.988 48.0804 63.9442L47.3269 63.5537C47.3269 63.5537 47.4309 64.0135 47.4309 64.062C47.4332 64.1451 47.1028 64.6996 46.9433 65.0115C46.7838 65.3211 46.9364 65.6607 46.8924 65.7462C46.8485 65.8317 46.7422 66.0373 46.6405 66.2383C46.5365 66.4393 46.1159 66.8205 45.4734 66.4462C44.8309 66.0696 45.1013 65.7855 44.2416 65.3465C43.3842 64.9052 43.2409 64.8336 42.9266 64.6719C42.774 64.5933 42.6955 64.5056 42.6724 64.4155C42.5083 64.494 42.3511 64.6049 42.261 64.7805C42.0299 65.231 42.0645 65.164 42.0114 65.2679C41.9582 65.3719 41.9605 65.4805 41.9767 65.5521C41.9929 65.626 41.986 65.7231 41.986 65.7231L45.6606 67.6083C45.6537 67.4373 45.7438 67.2363 45.7438 67.2363L45.7831 67.0561C45.7831 67.0561 45.931 66.9891 46.176 67.1139C46.421 67.2386 46.6197 67.3403 46.6844 67.3749C46.7515 67.4096 46.9017 67.6337 46.904 67.6383H46.9086Z" fill="#372B2A"/>
<path fill-rule="evenodd" clip-rule="evenodd" d="M45.7854 67.0608C45.7854 67.0608 45.9356 67.2803 45.9587 67.3242C45.9818 67.3681 45.6953 67.8902 45.6721 67.9457C45.649 68.0011 45.3833 68.1652 45.2769 68.1721C45.2769 68.1721 45.166 68.1929 45.0528 68.1328C44.9372 68.0751 42.2286 66.6843 41.9859 66.5595C41.7433 66.4348 41.6901 66.407 41.593 66.3585C41.496 66.31 41.4636 66.1945 41.5075 66.1067C41.5514 66.0189 41.704 65.7255 41.7456 65.6446C41.7872 65.5638 41.9628 65.5476 41.9628 65.5476C41.9628 65.5476 42.2147 65.8734 42.5822 65.8225C42.9497 65.7694 43.2778 65.7578 43.5783 66.0651C43.8764 66.3724 44.7916 67.516 45.7854 67.0608Z" fill="white"/>
<path fill-rule="evenodd" clip-rule="evenodd" d="M45.7854 67.0608C45.7854 67.0608 45.9333 67.2803 45.9587 67.3242C45.9818 67.3681 45.6952 67.8902 45.6721 67.9457C45.649 68.0011 45.3832 68.1652 45.2769 68.1721C45.2769 68.1721 45.166 68.1929 45.0528 68.1328L42.7879 66.9707C42.5914 66.7767 42.4158 66.6057 42.4158 66.6057C42.4158 66.6057 44.2855 67.5645 44.5651 67.71C44.8447 67.8533 45.0458 67.8348 45.0967 67.7378C45.1475 67.6407 45.2238 67.4906 45.3093 67.3242C45.3301 67.2849 45.3208 67.2295 45.2954 67.1694C45.4526 67.1694 45.619 67.1371 45.7854 67.0608Z" fill="#F2DDDC"/>
<path fill-rule="evenodd" clip-rule="evenodd" d="M43.6037 66.9824C43.8048 67.2619 44.0313 67.5391 44.2624 67.7286C43.4073 67.2896 42.1454 66.6427 41.9836 66.5596C41.7409 66.4348 41.6878 66.4071 41.5907 66.3586C41.4937 66.3101 41.4613 66.1946 41.5052 66.1068C41.5145 66.0883 41.5283 66.0629 41.5445 66.0305C41.5445 66.0305 41.8057 66.3817 42.1639 66.3054C42.5198 66.2315 43.1184 66.3054 43.6037 66.9824Z" fill="#00000F"/>
<path fill-rule="evenodd" clip-rule="evenodd" d="M44.0266 64.2077C43.9965 64.1754 44.0081 64.1315 44.052 64.1107C44.0982 64.0899 44.1606 64.0968 44.1907 64.1292L44.6714 64.6282L45.4918 64.7968C45.545 64.8084 45.575 64.8477 45.5612 64.8846C45.545 64.9216 45.4895 64.9424 45.4364 64.9331L44.847 64.813L45.1914 65.1711C45.2214 65.2034 45.2099 65.2473 45.166 65.2681C45.1197 65.2889 45.0573 65.282 45.0273 65.2496L44.5466 64.7506L43.7261 64.582C43.673 64.5704 43.6429 64.5311 43.6568 64.4942C43.673 64.4572 43.7285 64.4364 43.7816 64.4457L44.3709 64.5658L44.0266 64.2077ZM46.6289 63.6902L45.8085 63.5216L45.3277 63.0225C45.2954 62.9902 45.2353 62.9809 45.1891 63.004C45.1429 63.0248 45.1313 63.0687 45.1637 63.1011L45.508 63.4592L44.9187 63.339C44.8655 63.3275 44.8101 63.3506 44.7939 63.3876C44.7777 63.4245 44.8101 63.4638 44.8632 63.4753L45.6837 63.644L46.1644 64.143C46.1944 64.1754 46.2568 64.1846 46.303 64.1615C46.3493 64.1407 46.3608 64.0968 46.3285 64.0645L45.9841 63.7064L46.5734 63.8265C46.6266 63.8381 46.6821 63.815 46.6959 63.778C46.7121 63.741 46.6821 63.7018 46.6289 63.6902ZM46.0604 64.2424L45.2399 64.0737L44.7592 63.5747C44.7292 63.5423 44.6668 63.5331 44.6205 63.5562C44.5743 63.577 44.5628 63.6209 44.5951 63.6532L44.9395 64.0113L44.3501 63.8912C44.297 63.8796 44.2415 63.9004 44.2277 63.9397C44.2115 63.9767 44.2438 64.016 44.297 64.0275L45.1174 64.1962L45.5981 64.6952C45.6305 64.7275 45.6906 64.7368 45.7368 64.7137C45.783 64.6929 45.7946 64.649 45.7622 64.6166L45.4179 64.2585L46.0072 64.3787C46.0604 64.3902 46.1158 64.3671 46.132 64.3302C46.1436 64.2932 46.1135 64.2539 46.0604 64.2424Z" fill="white"/>
<path fill-rule="evenodd" clip-rule="evenodd" d="M68.1154 18.5747L68.1015 19.4711C68.1015 19.4711 68.1662 21.3794 68.1708 21.5873C68.1778 21.7953 68.2748 21.8622 68.5291 22.0286C68.8688 22.5553 68.0322 24.8541 67.3851 24.9534C66.7379 25.0528 63.7312 24.8633 63.5162 24.7039C63.366 24.593 64.8405 22.5807 64.7435 22.2527C64.8752 22.218 64.9931 22.1764 65.0878 22.091C65.7072 21.5434 65.5824 20.0648 65.1063 19.5473C64.7573 19.1638 68.1154 18.5747 68.1154 18.5747Z" fill="#F5AC83"/>
<path fill-rule="evenodd" clip-rule="evenodd" d="M62.786 25.5726C63.3198 25.2584 63.6411 25.5056 64.2512 26.0693C64.8614 26.6331 65.4206 26.5707 65.7511 26.6908C66.0816 26.8109 66.248 32.1107 64.138 32.9494C63.3568 33.2613 62.8553 32.9563 62.5294 32.3302C61.9447 31.2051 61.3947 26.3905 62.786 25.5726Z" fill="#F6F5F4"/>
<path fill-rule="evenodd" clip-rule="evenodd" d="M72.7098 39.848C72.4579 40.4186 71.5936 40.8923 70.5605 41.2503C69.0213 40.6497 66.4074 41.5692 64.4384 41.4768C62.2012 41.3705 61.2837 40.8599 61.2837 40.8599L61.1381 40.9616C61.0688 40.9107 61.0156 40.8599 60.9809 40.8045C60.7267 40.414 60.8515 39.8318 60.9509 39.312C61.1312 38.3787 61.9123 39.0325 61.5726 34.6221C61.2352 30.2141 60.0657 22.6941 64.7943 22.135C64.7943 22.135 64.7457 22.2436 64.6741 22.44L64.8705 22.4469C64.8705 22.4469 64.4453 23.7892 65.3351 24.2258C66.2249 24.6625 67.1909 24.041 67.6115 23.5281C67.6716 23.4542 67.7456 23.4218 67.8241 23.4218C68.1177 23.043 68.4412 22.6594 68.8018 22.269C69.8071 22.4238 71.4041 23.1631 71.4041 23.1631C72.2083 23.5166 73.0819 24.2582 73.2414 25.0621C73.4656 26.2034 72.3193 30.0778 71.5289 32.5729C70.2092 36.7499 73.4425 38.18 72.7098 39.848Z" fill="#CFC9D0"/>
<path fill-rule="evenodd" clip-rule="evenodd" d="M65.2172 25.6465C65.2172 25.6465 63.054 33.8803 62.7351 35.5206C62.7351 35.5206 62.6773 35.8672 62.9084 36.2784C63.1395 36.6919 63.886 38.0666 64.0039 38.226C64.1217 38.3854 64.2072 38.2676 64.3551 38.1289C64.5054 37.9903 65.4622 36.99 65.6239 36.7982C65.7141 36.6919 65.788 36.5487 65.7811 36.1814C65.7326 33.8919 65.5431 31.7988 65.6586 29.3221C65.721 27.9845 65.8204 26.7046 65.9475 25.8428L66.6247 25.1775L66.3311 24.586C66.3311 24.586 65.9475 24.3666 65.5061 24.4058C65.0647 24.4428 64.9098 24.7732 64.9098 24.7732L65.2172 25.6465Z" fill="#9E9BA5"/>
<path fill-rule="evenodd" clip-rule="evenodd" d="M62.3977 41.2202C61.6258 41.0469 61.286 40.8574 61.286 40.8574L61.1404 40.9591C61.0711 40.9083 61.0179 40.8574 60.9833 40.802C60.729 40.4116 60.8538 39.8294 60.9532 39.3095C61.1335 38.3762 61.9146 39.03 61.5749 34.6197C61.2722 30.6783 60.3061 24.2488 63.4862 22.5322C64.1888 23.0174 64.621 23.826 64.614 25.0897L64.5586 25.3762C64.5586 25.3762 64.3413 25.6118 64.3205 25.658C64.2997 25.7066 63.7936 31.5585 63.7936 31.5585L62.3977 41.2202Z" fill="#9E9BA5"/>
<path fill-rule="evenodd" clip-rule="evenodd" d="M65.0254 25.6465C65.0254 25.6465 62.8622 33.8804 62.5433 35.5207C62.5433 35.5207 62.4855 35.8672 62.7166 36.2785C62.9477 36.692 63.6942 38.0666 63.8121 38.226C63.9299 38.3854 64.0155 38.2676 64.1634 38.129C64.3136 37.9904 65.2727 36.99 65.4322 36.7983C65.5223 36.692 65.5963 36.5488 65.5893 36.1814C65.5408 33.8919 65.3513 31.7988 65.4668 29.3222C65.5292 27.9845 65.6286 26.7046 65.7557 25.8429L65.5755 25.1221C65.5732 25.1221 65.037 25.3785 65.0254 25.6465Z" fill="#018543"/>
<path fill-rule="evenodd" clip-rule="evenodd" d="M64.161 38.1314C64.3112 37.9928 65.2703 36.9924 65.4298 36.8006C65.5199 36.6944 65.5939 36.5511 65.587 36.1838C65.5384 33.8943 65.3489 31.8012 65.4645 29.3246C65.5269 27.9869 65.6263 26.707 65.7534 25.8453L65.6239 25.3254L65.3374 25.4687L65.2449 25.6142C65.2449 25.6142 65.3651 25.7228 65.4298 25.8545C65.4945 25.9862 65.06 30.3434 64.9653 31.3668C64.8705 32.3903 64.7411 36.3525 64.7573 36.6089C64.7735 36.863 64.161 38.1314 64.161 38.1314Z" fill="#018543"/>
<path fill-rule="evenodd" clip-rule="evenodd" d="M63.9484 29.7913C63.3545 32.1015 62.7051 34.6775 62.541 35.5208C62.541 35.5208 62.4832 35.8673 62.7143 36.2786C62.7836 36.401 62.8992 36.6112 63.0286 36.8469L63.7936 31.5633C63.7936 31.5633 63.8629 30.7847 63.9484 29.7913Z" fill="#018543"/>
<path fill-rule="evenodd" clip-rule="evenodd" d="M64.7157 24.7732L65.0254 25.6465C65.0254 25.6465 65.4506 25.4917 65.7557 25.8428L66.4329 25.1775L66.1393 24.586C66.1393 24.586 65.7557 24.3666 65.3143 24.4058C64.8705 24.4428 64.7157 24.7732 64.7157 24.7732Z" fill="#018543"/>
<path fill-rule="evenodd" clip-rule="evenodd" d="M65.4321 25.6372C65.5384 25.6672 65.654 25.7273 65.7534 25.8428L66.4305 25.1775L66.137 24.586C66.137 24.586 65.7534 24.3666 65.312 24.4058C65.2773 24.4081 65.2426 24.4128 65.2126 24.4197L65.1941 24.459C65.1941 24.459 65.5569 24.7015 65.6609 24.8055C65.7649 24.9095 65.4321 25.6372 65.4321 25.6372Z" fill="#018543"/>
<path fill-rule="evenodd" clip-rule="evenodd" d="M68.8919 22.0471C68.9705 22.0979 69.1346 22.2018 69.2663 22.3382C69.2663 22.3382 69.3542 22.4883 69.264 22.724C69.1739 22.9596 66.9344 25.762 66.9344 25.762C66.9344 25.762 66.8605 25.8613 66.7588 25.7528C66.6594 25.6419 65.7927 24.3666 65.7927 24.3666L68.6007 21.9685C68.6839 21.8761 68.8133 21.9962 68.8919 22.0471Z" fill="white"/>
<path fill-rule="evenodd" clip-rule="evenodd" d="M65.1294 22.0564C65.1294 22.0541 65.1271 22.0541 65.1201 22.0518C64.9237 21.9894 64.5331 22.061 64.4014 22.1996C64.0016 22.5808 64.3367 24.9142 64.4545 25.3116C64.4545 25.3139 64.4545 25.3162 64.4545 25.3162C64.4545 25.3162 64.5516 25.4271 64.6787 25.3509C64.8058 25.2723 65.4876 24.2881 65.4876 24.2881C65.3836 24.0964 64.5955 23.1076 65.1294 22.0564Z" fill="white"/>
<path fill-rule="evenodd" clip-rule="evenodd" d="M69.0883 22.1812C69.0883 22.1812 65.9198 28.9064 65.5685 32.0715C65.2172 35.2343 67.8287 41.8279 67.9975 42.1906C68.1685 42.5533 71.4641 44.1127 72.9918 44.1197C72.9918 44.1197 73.2344 44.1127 73.2945 44.0434C73.3523 43.9741 73.5834 43.7131 73.662 43.6114C73.7429 43.5097 73.8053 43.3295 73.7359 43.0731C73.6666 42.8167 72.132 34.8069 71.9402 33.7626C71.7484 32.7184 73.1559 27.2014 73.3685 26.178C73.5834 25.1568 73.8792 23.2832 69.0883 22.1812Z" fill="#141A33"/>
<path fill-rule="evenodd" clip-rule="evenodd" d="M68.3233 23.8816C67.3619 26.0879 65.8088 29.9091 65.5685 32.0693C65.5477 32.2564 65.5384 32.4574 65.5361 32.6653C65.9128 31.7689 66.2456 31.2191 66.8974 30.5629C67.4775 29.9784 68.328 29.2114 68.8272 28.7956C69.5944 28.1556 70.5536 27.5388 70.4264 26.8365C70.2993 26.1341 69.8302 24.0248 69.8302 24.0248L68.3233 23.8816Z" fill="#3F4154"/>
<path fill-rule="evenodd" clip-rule="evenodd" d="M67.6624 48.2944H69.8094L73.3523 41.7078L77.5701 41.881L73.4263 49.1538C73.3292 49.3594 73.1212 49.5027 72.8785 49.5027H67.6624V48.2944Z" fill="#018543"/>
<path fill-rule="evenodd" clip-rule="evenodd" d="M67.3573 48.2942H69.0375L72.9872 41.3148C73.0981 41.1208 73.3015 41.0099 73.5118 41.0099V41.0076H77.0293C77.3621 41.0076 77.6325 41.2779 77.6325 41.6106C77.6325 41.9432 77.3621 42.2135 77.0293 42.2135H73.8631L69.9365 49.1513C69.8394 49.357 69.6314 49.5002 69.3888 49.5002H67.3573V48.2942Z" fill="#018543"/>
<path fill-rule="evenodd" clip-rule="evenodd" d="M64.4013 22.2019C64.4013 22.2019 63.7681 30.4312 63.5994 31.4107C63.4284 32.3903 62.0093 40.1713 61.8892 40.7535C61.7667 41.338 60.1373 41.4928 60.1373 41.4928C60.1373 41.4928 61.0641 33.7949 61.0756 33.5824C61.0849 33.3698 61.108 27.6496 61.108 26.9449C61.108 26.2426 61.9238 23.6736 62.0556 23.3986C62.1873 23.1214 63.084 22.456 64.4013 22.2019Z" fill="#141A33"/>
<path fill-rule="evenodd" clip-rule="evenodd" d="M64.228 24.4059C64.027 26.9172 63.7104 30.7592 63.5971 31.4107C63.5648 31.5956 63.4885 32.0206 63.3845 32.5936C63.3845 32.5936 62.5155 26.0948 62.5802 25.8591C62.6449 25.6258 63.6457 23.7937 63.6457 23.7937L64.228 24.4059Z" fill="#3F4154"/>
<path fill-rule="evenodd" clip-rule="evenodd" d="M64.4014 22.2019C64.4014 22.2019 64.2974 23.5442 64.1633 25.2099C63.7081 24.6115 63.1349 23.8214 63.1996 23.7175C63.3059 23.5465 64.057 22.2828 64.0593 22.2805C64.1703 22.2504 64.2835 22.225 64.4014 22.2019Z" fill="#575A6D"/>
<path fill-rule="evenodd" clip-rule="evenodd" d="M70.0868 22.4421C70.0891 22.4536 70.5744 24.526 70.5837 24.6854C70.5929 24.8101 68.2217 26.0623 67.1979 26.596C68.1223 24.2279 69.086 22.1787 69.086 22.1787C69.4489 22.2642 69.7817 22.352 70.0868 22.4421Z" fill="#575A6D"/>
<path fill-rule="evenodd" clip-rule="evenodd" d="M72.1829 23.3479C72.1829 23.3479 72.9479 23.7106 73.5071 24.607C73.8238 25.113 77.443 34.6729 77.6741 35.2944C77.9052 35.9159 77.7943 37.4245 77.0755 38.2932C76.7843 38.6466 75.9223 39.6609 75.0001 40.7421C74.1843 41.7008 72.7283 41.6338 71.5959 41.7055C72.4071 40.5642 74.9308 37.0156 75.0671 36.8007C75.2289 36.5443 75.3214 36.2925 75.0926 35.8142C74.8661 35.336 71.7715 30.3527 71.7715 30.3527C71.7715 30.3527 70.4703 24.9351 72.1829 23.3479Z" fill="#141A33"/>
<path fill-rule="evenodd" clip-rule="evenodd" d="M77.7527 36.5488C77.6787 37.1564 77.4684 37.8195 77.0755 38.2931C76.7612 38.672 75.7859 39.8202 74.7898 40.9915C74.6511 41.1532 73.7914 41.9826 73.0149 41.9826C72.9687 41.9826 71.6975 41.6638 71.6398 41.6453C71.8223 41.3866 72.0812 41.0262 72.3724 40.6149C73.1004 40.578 74.8222 40.4833 74.9077 40.3747C75.014 40.236 76.8906 38.2238 77.2627 37.7017C77.6302 37.1865 77.748 36.565 77.7527 36.5488Z" fill="#030822"/>
<path fill-rule="evenodd" clip-rule="evenodd" d="M72.2592 31.1404L72.1274 28.71C73.1882 30.4542 74.7598 33.3975 75.088 34.0952C75.7097 35.4098 75.7605 36.1468 75.7605 36.3478C75.7605 36.5488 75.5964 36.4356 75.4947 36.4933C75.3954 36.5534 74.739 37.2719 74.739 37.2719C74.9193 37.0155 75.0371 36.8445 75.0649 36.8029C75.2266 36.5465 75.3191 36.2946 75.0903 35.8164C74.9216 35.456 73.142 32.5658 72.2592 31.1404Z" fill="#030822"/>
<path fill-rule="evenodd" clip-rule="evenodd" d="M68.469 42.5487L68.4967 42.5649C68.7047 42.6111 70.5282 43.9834 72.1159 44.0019L73.0126 41.9827C73.0126 41.9827 72.1806 40.883 73.0612 39.6424C72.5989 37.242 72.0489 34.3634 71.938 33.765C71.8386 33.2198 72.1737 31.457 72.5458 29.752L72.1229 28.7124C72.1229 28.7124 71.2331 32.5429 71.1291 32.834C71.0251 33.1251 69.5529 32.8548 69.3703 32.8455C69.1877 32.8363 70.6391 33.3884 70.9049 33.5155C71.1707 33.6426 71.6514 38.4688 71.6283 38.8731C71.6144 39.2774 68.6308 42.4032 68.469 42.5487Z" fill="#030822"/>
<path fill-rule="evenodd" clip-rule="evenodd" d="M63.1603 22.5994C62.5548 23.2578 61.5495 24.6186 61.1335 26.7486C61.1312 26.7625 61.1242 26.7741 61.115 26.781C61.1612 26.3605 61.3507 25.6212 61.5495 24.9397C61.9585 23.9509 62.4693 23.2208 62.8737 22.7426C62.9639 22.6918 63.0586 22.6456 63.1603 22.5994Z" fill="#030822"/>
<path fill-rule="evenodd" clip-rule="evenodd" d="M72.2245 29.4032C72.2245 29.4355 72.1991 29.4632 72.1667 29.4655C72.1344 29.4655 72.1067 29.4401 72.1043 29.4055C72.1043 29.3916 72.0119 25.2562 73.0011 23.967C73.0265 23.9925 73.0496 24.0179 73.075 24.0433C72.1344 25.2631 72.2245 29.3893 72.2245 29.4032Z" fill="#030822"/>
<path fill-rule="evenodd" clip-rule="evenodd" d="M70.8494 41.8462H72.3562C72.7838 41.8462 73.1351 41.4973 73.1351 41.0676C73.1351 40.6402 72.7861 40.2891 72.3562 40.2891H70.8494C70.4218 40.2891 70.0706 40.6379 70.0706 41.0676C70.0729 41.495 70.4218 41.8462 70.8494 41.8462Z" fill="#F08A71"/>
<path fill-rule="evenodd" clip-rule="evenodd" d="M62.0672 13.3836C62.0672 13.3836 61.8499 13.8179 61.8569 14.2176C61.8615 14.6173 62.705 14.7836 62.9939 14.7836C63.2828 14.7836 71.0828 15.0724 71.0828 15.0724C71.0828 15.0724 71.3255 15.0285 71.3255 14.7952C71.3255 14.5618 69.9873 11.6462 69.9873 11.6462L62.0672 13.3836Z" fill="#2A0D09"/>
<path fill-rule="evenodd" clip-rule="evenodd" d="M62.4508 15.4836C63.1372 15.4836 63.6918 16.0404 63.6918 16.7243C63.6918 17.4104 63.1349 17.9649 62.4508 17.9649C61.7644 17.9649 61.2097 17.4081 61.2097 16.7243C61.2097 16.0404 61.7644 15.4836 62.4508 15.4836Z" fill="#F5AC83"/>
<path fill-rule="evenodd" clip-rule="evenodd" d="M70.958 15.4836C71.6444 15.4836 72.199 16.0404 72.199 16.7243C72.199 17.4104 71.6421 17.9649 70.958 17.9649C70.2716 17.9649 69.7169 17.4081 69.7169 16.7243C69.7169 16.0404 70.2716 15.4836 70.958 15.4836Z" fill="#F5AC83"/>
<path fill-rule="evenodd" clip-rule="evenodd" d="M66.4213 9.20654C68.7601 9.20654 70.6737 11.1195 70.6737 13.4575V17.3203C70.6737 19.6583 68.7601 21.5712 66.4213 21.5712C64.0824 21.5712 62.1688 19.6583 62.1688 17.3203V13.4575C62.1665 11.1195 64.0801 9.20654 66.4213 9.20654Z" fill="#F5AC83"/>
<path fill-rule="evenodd" clip-rule="evenodd" d="M68.1569 9.58087L68.1662 9.58549C69.6406 10.2555 70.6737 11.7433 70.6737 13.4598V17.325C70.6737 19.663 68.7601 21.5759 66.4213 21.5759C65.8828 21.5759 65.3697 21.4742 64.8936 21.2917C69.0536 21.3241 69.5158 18.4963 69.5158 16.1305C69.5158 12.6374 65.7002 13.8942 62.5733 13.8942C62.4346 13.8942 62.2982 13.8896 62.1688 13.8849V13.4622C62.1688 13.081 62.2197 12.7113 62.3144 12.3578C63.9946 11.302 66.3196 9.92972 67.415 9.70793C67.7409 9.64094 67.9674 9.59704 68.1199 9.5647L68.1477 9.57625C68.1222 9.58087 68.1199 9.58549 68.1569 9.58087Z" fill="#EE9073"/>
<path fill-rule="evenodd" clip-rule="evenodd" d="M70.1953 13.2171C70.1953 13.2171 70.1953 14.0118 70.1953 14.5247C70.1953 15.0376 70.2878 15.1901 70.5466 15.3772C70.5466 15.3772 70.3895 15.8739 70.676 15.9895C70.676 15.9895 70.676 15.5944 71.0851 15.5482V12.1729C70.8979 12.4894 70.6067 12.762 70.1653 12.926C70.1838 13.0161 70.1953 13.1131 70.1953 13.2171Z" fill="#4F3A38"/>
<path fill-rule="evenodd" clip-rule="evenodd" d="M71.3255 14.7928C71.0666 14.4786 70.7361 14.2175 70.3548 14.0004L70.3363 13.9911C70.297 13.968 70.2577 13.9472 70.2184 13.9264C69.472 13.4967 69.2154 12.9376 69.2154 12.9376C68.8618 13.1802 67.4081 13.1432 66.8604 13.1201C66.798 13.1178 66.7356 13.1132 66.6755 13.1109H66.6663H66.6524C64.2211 13.0139 61.8707 13.603 61.8592 14.2198C59.7537 9.79333 65.0184 5.53316 69.7031 10.3686C72.176 10.4841 71.9564 13.0254 71.3255 14.7928Z" fill="#4F3A38"/>
<path fill-rule="evenodd" clip-rule="evenodd" d="M61.3831 11.9882C61.42 11.2166 61.6696 10.505 62.0787 9.91358C63.2088 10.5997 65.9406 11.7849 69.019 9.72876C69.1669 9.85352 69.3125 9.9852 69.4581 10.1261C68.4666 11.1773 65.8712 13.2081 61.3831 11.9882Z" fill="#6A514F"/>
<path fill-rule="evenodd" clip-rule="evenodd" d="M71.3254 14.7929C71.0666 14.4787 70.7361 14.2176 70.3548 14.0004L70.3363 13.9912C70.297 13.9681 70.2577 13.9473 70.2184 13.9265C69.4719 13.4968 69.2154 12.9377 69.2154 12.9377C68.8618 13.1803 67.4081 13.1433 66.8604 13.1202C66.798 13.1179 66.7356 13.1133 66.6755 13.111H66.6662H66.6524C66.4259 13.1017 66.1994 13.0994 65.9775 13.1017C69.1068 12.9816 70.5998 11.8704 71.2769 11.0571C72.0026 11.9581 71.7646 13.5615 71.3254 14.7929Z" fill="#2A0D09"/>
<path fill-rule="evenodd" clip-rule="evenodd" d="M67.63 17.311C67.311 17.3203 67.0614 17.586 67.0707 17.9048C67.0799 18.2236 67.3457 18.4731 67.6646 18.4639C67.9836 18.4546 68.2332 18.1889 68.2239 17.8701C68.2147 17.5513 67.9489 17.3018 67.63 17.311Z" fill="#E7976B"/>
<path fill-rule="evenodd" clip-rule="evenodd" d="M63.1095 17.4589C62.7905 17.4681 62.5409 17.7338 62.5502 18.0526C62.5594 18.3714 62.8252 18.621 63.1441 18.6117C63.4631 18.6025 63.7127 18.3368 63.7034 18.018C63.6919 17.6991 63.4284 17.4473 63.1095 17.4589Z" fill="#E7976B"/>
<path fill-rule="evenodd" clip-rule="evenodd" d="M62.6912 15.4189C62.6288 15.4535 62.5479 15.4327 62.5132 15.3681C62.4785 15.3057 62.4993 15.2248 62.564 15.1902C62.5664 15.1902 63.3221 14.7397 64.0385 15.1232C64.1032 15.1578 64.1264 15.2364 64.0917 15.3011C64.057 15.3657 63.9784 15.3888 63.9137 15.3542C63.3267 15.0423 62.6912 15.4189 62.6912 15.4189Z" fill="#00000F"/>
<path fill-rule="evenodd" clip-rule="evenodd" d="M67.9975 15.1393C68.0645 15.1693 68.1408 15.1393 68.1708 15.0723C68.2009 15.0053 68.1708 14.9291 68.1038 14.899C68.1015 14.899 67.3042 14.5248 66.6293 14.9753C66.5692 15.0145 66.5531 15.0977 66.5923 15.1578C66.6316 15.2179 66.7148 15.234 66.7749 15.1948C67.3273 14.8251 67.9952 15.1393 67.9975 15.1393Z" fill="#00000F"/>
<path fill-rule="evenodd" clip-rule="evenodd" d="M67.4521 15.7424C67.251 15.7424 67.0869 15.9065 67.0869 16.1075V16.5834C67.0869 16.7844 67.251 16.9484 67.4521 16.9484C67.6531 16.9484 67.8172 16.7844 67.8172 16.5834V16.1075C67.8172 15.9088 67.6531 15.7424 67.4521 15.7424Z" fill="#00000F"/>
<path fill-rule="evenodd" clip-rule="evenodd" d="M63.3776 15.9641C63.1765 15.9641 63.0125 16.1281 63.0125 16.3291V16.8051C63.0125 17.0061 63.1765 17.1701 63.3776 17.1701C63.5787 17.1701 63.7428 17.0061 63.7428 16.8051V16.3291C63.7428 16.1281 63.5787 15.9641 63.3776 15.9641Z" fill="#00000F"/>
<path fill-rule="evenodd" clip-rule="evenodd" d="M66.2295 18.3138C66.2641 18.8659 65.8412 19.3419 65.2888 19.3742C64.7365 19.4089 64.2604 18.9861 64.228 18.4339H64.2303C64.2234 18.3392 64.2974 18.256 64.3921 18.2514L66.0446 18.1521C66.1393 18.1451 66.2225 18.2191 66.2295 18.3138Z" fill="#00000F"/>
<path fill-rule="evenodd" clip-rule="evenodd" d="M65.9036 19.1154C65.7395 19.2655 65.5269 19.3603 65.2889 19.3741C65.0947 19.3857 64.9098 19.3418 64.7504 19.2563C64.8151 19.0461 65.03 18.8797 65.3004 18.852C65.5592 18.8266 65.7927 18.9375 65.9036 19.1154Z" fill="#EE9073"/>
<path fill-rule="evenodd" clip-rule="evenodd" d="M64.369 18.2537L65.9221 18.1589C65.9568 18.3299 65.8874 18.5078 65.7742 18.5517C65.6355 18.6071 64.51 18.6441 64.4268 18.5609C64.3852 18.5217 64.3736 18.3853 64.369 18.2537Z" fill="white"/>
<path fill-rule="evenodd" clip-rule="evenodd" d="M41.2811 44.0825L43.6708 74.1833H42.61L39.4021 45.501H21.424L18.2139 74.1833H17.1554L19.5428 44.0825H41.2811Z" fill="#3F4154"/>
<path fill-rule="evenodd" clip-rule="evenodd" d="M84.4572 44.0825L86.8446 74.1833H85.7861L82.576 45.501H64.5978L61.39 74.1833H60.3292L62.7189 44.0825H84.4572Z" fill="#3F4154"/>
<path fill-rule="evenodd" clip-rule="evenodd" d="M75.8646 42.4446H18.831C18.3272 42.4446 17.9158 42.8558 17.9158 43.3595C17.9158 43.8631 18.3272 44.2743 18.831 44.2743H75.8646C76.3684 44.2743 76.7798 43.8631 76.7798 43.3595C76.7798 42.8558 76.3684 42.4446 75.8646 42.4446Z" fill="#F1A272"/>
<path fill-rule="evenodd" clip-rule="evenodd" d="M85.6521 42.4446H61.5218C61.018 42.4446 60.6066 42.8558 60.6066 43.3595C60.6066 43.8631 61.018 44.2743 61.5218 44.2743H85.6521C86.1559 44.2743 86.5673 43.8631 86.5673 43.3595C86.5673 42.8558 86.1559 42.4446 85.6521 42.4446Z" fill="#C37744"/>
<path fill-rule="evenodd" clip-rule="evenodd" d="M1.56462 74.4675H4.67538C5.21618 74.4675 5.65991 74.9111 5.65991 75.4517C5.65991 75.9923 5.21618 76.4359 4.67538 76.4359H3.19627C2.7664 76.4359 2.41511 76.787 2.41511 77.2167C2.41511 77.6464 2.7664 77.9976 3.19627 77.9976H97.6722C98.102 77.9976 98.4533 77.6464 98.4533 77.2167C98.4533 76.787 98.102 76.4359 97.6722 76.4359H96.2624C95.7216 76.4359 95.2779 75.9923 95.2779 75.4517C95.2779 74.9111 95.7216 74.4675 96.2624 74.4675H102.438C103.297 74.4675 104.002 73.7652 104.002 72.9034C104.002 72.044 103.297 71.3394 102.438 71.3394H1.56462C0.704889 71.3394 0 72.0417 0 72.9034C0 73.7628 0.704889 74.4675 1.56462 74.4675ZM1.08391 77.9999C0.651733 77.9999 0.302756 77.6511 0.302756 77.219C0.302756 76.787 0.651733 76.4382 1.08391 76.4382C1.51609 76.4382 1.86507 76.787 1.86507 77.219C1.86507 77.6488 1.51609 77.9999 1.08391 77.9999Z" fill="#00000F"/>
<path fill-rule="evenodd" clip-rule="evenodd" d="M49.9686 5.58618H58.1799C58.7762 5.58618 59.2638 6.07365 59.2638 6.66971V11.1401V11.4705V14.3168C59.2638 14.3676 59.2361 14.4092 59.1899 14.4277C59.1437 14.4461 59.0928 14.4369 59.0582 14.4022L57.2093 12.554H49.9686C49.3723 12.554 48.8846 12.0665 48.8846 11.4705V6.66971C48.8846 6.07365 49.3723 5.58618 49.9686 5.58618Z" fill="#018543"/>
<path fill-rule="evenodd" clip-rule="evenodd" d="M51.7966 9.44446C52.1663 9.44446 52.4668 9.14412 52.4668 8.77448C52.4668 8.40483 52.1663 8.10449 51.7966 8.10449C51.4268 8.10449 51.1263 8.40483 51.1263 8.77448C51.1263 9.14412 51.4268 9.44446 51.7966 9.44446Z" fill="white"/>
<path fill-rule="evenodd" clip-rule="evenodd" d="M54.0754 9.44446C54.4451 9.44446 54.7456 9.14412 54.7456 8.77448C54.7456 8.40483 54.4451 8.10449 54.0754 8.10449C53.7056 8.10449 53.4052 8.40483 53.4052 8.77448C53.4052 9.14412 53.7056 9.44446 54.0754 9.44446Z" fill="white"/>
<path fill-rule="evenodd" clip-rule="evenodd" d="M56.3517 9.44446C56.7215 9.44446 57.022 9.14412 57.022 8.77448C57.022 8.40483 56.7215 8.10449 56.3517 8.10449C55.982 8.10449 55.6815 8.40483 55.6815 8.77448C55.6815 9.14412 55.9843 9.44446 56.3517 9.44446Z" fill="white"/>
<path fill-rule="evenodd" clip-rule="evenodd" d="M27.8466 32.1729C29.2448 31.5699 29.4667 33.1293 28.845 34.363C28.4243 35.1971 26.9106 37.3295 25.8914 39.1453H24.7266C25.1241 36.4007 26.4021 32.7967 27.8466 32.1729Z" fill="#DA4848"/>
<path fill-rule="evenodd" clip-rule="evenodd" d="M25.1426 39.1452C26.134 35.8184 28.4197 32.6834 28.429 32.6695C28.4475 32.6418 28.4868 32.6349 28.5145 32.6556C28.5422 32.6741 28.5492 32.7134 28.5284 32.7411C28.5191 32.7527 26.2588 35.8554 25.2674 39.1452H25.1426Z" fill="#610419"/>
<path fill-rule="evenodd" clip-rule="evenodd" d="M24.8931 27.2405C23.4833 25.859 22.5219 27.6102 22.7183 29.3706C22.9055 31.0386 24.5325 36.7635 24.3361 39.1709H24.8908C26.1526 36.0843 26.6957 29.0079 24.8931 27.2405Z" fill="#018543"/>
<path fill-rule="evenodd" clip-rule="evenodd" d="M24.6874 39.1686C25.8592 34.3054 23.9779 27.5756 23.971 27.5548C23.9594 27.5132 23.9155 27.4878 23.8739 27.497C23.8323 27.5063 23.8069 27.5501 23.8185 27.5917C23.8254 27.6148 25.709 34.3493 24.5257 39.1686H24.6874Z" fill="#018543"/>
<path fill-rule="evenodd" clip-rule="evenodd" d="M21.424 30.2948C19.9472 29.5901 19.663 31.2489 20.2916 32.5912C20.8116 33.7047 23.0303 36.9738 23.9131 39.0923L24.6457 39.0669C24.5625 36.1005 23.1666 31.1265 21.424 30.2948Z" fill="#C8DEE1"/>
<path fill-rule="evenodd" clip-rule="evenodd" d="M24.3753 39.0785C23.7051 35.084 20.7954 30.8169 20.7839 30.8007C20.7631 30.7707 20.7238 30.7614 20.6914 30.7822C20.6614 30.803 20.6544 30.8423 20.6729 30.8723C20.6822 30.8885 23.5734 35.1279 24.2436 39.0831L24.3753 39.0785Z" fill="#7A9297"/>
<path fill-rule="evenodd" clip-rule="evenodd" d="M27.1418 38.554H22.7946C22.6651 38.554 22.5588 38.6602 22.5588 38.7896V39.8616C22.5588 39.991 22.6651 40.0972 22.7946 40.0972H27.1418C27.2712 40.0972 27.3775 39.991 27.3775 39.8616V38.7896C27.3775 38.6602 27.2712 38.554 27.1418 38.554Z" fill="#2C3049"/>
<path fill-rule="evenodd" clip-rule="evenodd" d="M26.3953 39.425H23.541L22.7946 40.0973L23.4047 42.4446H24.967H26.5316L27.1418 40.0973L26.3953 39.425Z" fill="#2C3049"/>
<path fill-rule="evenodd" clip-rule="evenodd" d="M22.7946 40.0972L22.9194 40.58H27.017L27.1418 40.0972H22.7946Z" fill="#141A33"/>
<path fill-rule="evenodd" clip-rule="evenodd" d="M39.0463 40.698H33.2061C32.9658 40.698 32.7485 40.7973 32.5891 40.9544C32.4319 41.1115 32.3325 41.331 32.3325 41.5713C32.3325 41.8116 32.4296 42.0287 32.5891 42.1881C32.7462 42.3452 32.9658 42.4446 33.2061 42.4446H39.0463C39.2867 42.4446 39.5039 42.3475 39.6634 42.1881C39.8205 42.031 39.9199 41.8116 39.9199 41.5713C39.9199 41.331 39.8205 41.1139 39.6634 40.9544C39.5062 40.7973 39.2867 40.698 39.0463 40.698Z" fill="#3B3A3A"/>
<path fill-rule="evenodd" clip-rule="evenodd" d="M25.9816 40.7996H33.4511C33.874 40.7996 34.223 41.1461 34.223 41.5712C34.223 41.9963 33.8763 42.3428 33.4511 42.3428H25.9816V40.7996Z" fill="white"/>
<path fill-rule="evenodd" clip-rule="evenodd" d="M25.9816 40.698C25.9261 40.698 25.8799 40.7442 25.8799 40.7997C25.8799 40.8551 25.9261 40.9013 25.9816 40.9013H33.4511C33.636 40.9013 33.8024 40.9775 33.9249 41.0977C34.0473 41.2201 34.1213 41.3865 34.1213 41.5713C34.1213 41.7561 34.045 41.9225 33.9249 42.0449C33.8047 42.165 33.636 42.2413 33.4511 42.2413H25.9816C25.9261 42.2413 25.8799 42.2875 25.8799 42.3429C25.8799 42.3984 25.9261 42.4446 25.9816 42.4446H33.4511C33.6914 42.4446 33.9087 42.3475 34.0681 42.1881C34.2253 42.031 34.3247 41.8116 34.3247 41.5713C34.3247 41.331 34.2253 41.1139 34.0681 40.9544C33.911 40.7973 33.6914 40.698 33.4511 40.698H25.9816Z" fill="#242525"/>
<path fill-rule="evenodd" clip-rule="evenodd" d="M38.7781 41.5713C38.7781 41.331 38.6811 41.1139 38.5216 40.9544C38.3645 40.7973 38.1449 40.698 37.9045 40.698H38.6649C38.9053 40.698 39.1225 40.7973 39.282 40.9544C39.4414 41.1115 39.5385 41.331 39.5385 41.5713C39.5385 41.8116 39.4414 42.0287 39.282 42.1881C39.1248 42.3452 38.9053 42.4446 38.6649 42.4446H37.9045C38.1449 42.4446 38.3621 42.3475 38.5216 42.1881C38.6788 42.0287 38.7781 41.8116 38.7781 41.5713Z" fill="#242525"/>
<path fill-rule="evenodd" clip-rule="evenodd" d="M37.678 41.5713C37.678 41.331 37.5787 41.1139 37.4215 40.9544C37.2644 40.7973 37.0448 40.698 36.8044 40.698H37.5648C37.8052 40.698 38.0224 40.7973 38.1819 40.9544C38.339 41.1115 38.4384 41.331 38.4384 41.5713C38.4384 41.8116 38.3413 42.0287 38.1819 42.1881C38.0247 42.3452 37.8052 42.4446 37.5648 42.4446H36.8044C37.0448 42.4446 37.262 42.3475 37.4215 42.1881C37.5787 42.0287 37.678 41.8116 37.678 41.5713Z" fill="#242525"/>
<path fill-rule="evenodd" clip-rule="evenodd" d="M27.5184 39.1687H32.6329C32.8432 39.1687 33.035 39.2542 33.1737 39.3928C33.3123 39.5314 33.3979 39.7232 33.3979 39.9334C33.3979 40.1436 33.3123 40.3354 33.1737 40.474C33.035 40.6126 32.8432 40.6981 32.6329 40.6981H27.5184C27.3081 40.6981 27.1163 40.6126 26.9776 40.474C26.8389 40.3354 26.7534 40.1436 26.7534 39.9334C26.7534 39.7232 26.8389 39.5314 26.9776 39.3928C27.1163 39.2565 27.3081 39.1687 27.5184 39.1687Z" fill="#C8DEE1"/>
<path fill-rule="evenodd" clip-rule="evenodd" d="M38.9585 39.2588H32.418C32.0459 39.2588 31.7432 39.5614 31.7432 39.9334C31.7432 40.3054 32.0482 40.608 32.418 40.608H38.9585V39.2588Z" fill="white"/>
<path fill-rule="evenodd" clip-rule="evenodd" d="M38.9584 39.1687C39.0069 39.1687 39.0485 39.208 39.0485 39.2588C39.0485 39.3073 39.0092 39.3489 38.9584 39.3489H32.4179C32.2562 39.3489 32.1106 39.4159 32.0042 39.5222C31.8979 39.6285 31.8309 39.774 31.8309 39.9357C31.8309 40.0974 31.8979 40.243 32.0042 40.3493C32.1106 40.4555 32.2562 40.5225 32.4179 40.5225H38.9584C39.0069 40.5225 39.0485 40.5618 39.0485 40.6126C39.0485 40.6611 39.0092 40.7004 38.9584 40.7004H32.4179C32.2076 40.7004 32.0158 40.6149 31.8771 40.4763C31.7385 40.3377 31.653 40.146 31.653 39.9357C31.653 39.7255 31.7385 39.5337 31.8771 39.3951C32.0158 39.2565 32.2076 39.171 32.4179 39.171H38.9584V39.1687Z" fill="#7A9297"/>
<path fill-rule="evenodd" clip-rule="evenodd" d="M27.7518 39.9334C27.7518 39.7232 27.8373 39.5314 27.976 39.3928C28.1146 39.2542 28.3064 39.1687 28.5168 39.1687H27.8512C27.6408 39.1687 27.449 39.2542 27.3104 39.3928C27.1717 39.5314 27.0862 39.7232 27.0862 39.9334C27.0862 40.1436 27.1717 40.3354 27.3104 40.474C27.449 40.6126 27.6408 40.6981 27.8512 40.6981H28.5168C28.3064 40.6981 28.1146 40.6126 27.976 40.474C27.8396 40.3354 27.7518 40.1436 27.7518 39.9334Z" fill="#7A9297"/>
<path fill-rule="evenodd" clip-rule="evenodd" d="M28.7155 39.9334C28.7155 39.7232 28.801 39.5314 28.9397 39.3928C29.0784 39.2542 29.2702 39.1687 29.4805 39.1687H28.8149C28.6046 39.1687 28.4128 39.2542 28.2741 39.3928C28.1354 39.5314 28.0499 39.7232 28.0499 39.9334C28.0499 40.1436 28.1354 40.3354 28.2741 40.474C28.4128 40.6126 28.6046 40.6981 28.8149 40.6981H29.4805C29.2702 40.6981 29.0784 40.6126 28.9397 40.474C28.8033 40.3354 28.7155 40.1436 28.7155 39.9334Z" fill="#7A9297"/>
<path fill-rule="evenodd" clip-rule="evenodd" d="M40.0077 42.4447H58.3394C58.6584 42.4447 58.9218 42.1836 58.9218 41.8625C58.9218 41.5413 58.6607 41.2803 58.3394 41.2803H40.0077C39.6864 41.2803 39.4253 41.5413 39.4253 41.8625C39.4253 42.1813 39.6864 42.4447 40.0077 42.4447Z" fill="#141A33"/>
<path fill-rule="evenodd" clip-rule="evenodd" d="M40.0076 42.4446H58.3394C58.5474 42.4446 58.73 42.3337 58.834 42.1697C58.73 42.0057 58.5474 41.8948 58.3394 41.8948H40.0076C39.7996 41.8948 39.6171 42.0057 39.5131 42.1697C39.6171 42.3337 39.7996 42.4446 40.0076 42.4446Z" fill="#030822"/>
<path fill-rule="evenodd" clip-rule="evenodd" d="M39.5547 41.2802H54.2164C54.6347 41.2802 54.9351 40.9383 54.8843 40.5178L53.7149 31.0248C53.664 30.6067 53.2781 30.2625 52.8597 30.2625H38.1981C37.7797 30.2625 37.4793 30.6044 37.5301 31.0248L38.6996 40.5178C38.7504 40.936 39.1364 41.2802 39.5547 41.2802Z" fill="#030822"/>
<path fill-rule="evenodd" clip-rule="evenodd" d="M39.5547 41.2802H53.7842C54.2025 41.2802 54.5029 40.9383 54.4521 40.5178L53.2827 31.0248C53.2318 30.6067 52.8459 30.2625 52.4276 30.2625H38.1981C37.7797 30.2625 37.4793 30.6044 37.5301 31.0248L38.6996 40.5178C38.7504 40.936 39.1364 41.2802 39.5547 41.2802Z" fill="#2C3049"/>
<path fill-rule="evenodd" clip-rule="evenodd" d="M40.3289 41.2801H41.7941L53.352 31.5815L53.2827 31.0247C53.2619 30.8584 53.1902 30.7036 53.0816 30.5788L40.3289 41.2801ZM51.4199 30.2646L38.8128 40.8435C38.7527 40.7441 38.7134 40.6355 38.6995 40.52L38.517 39.0437L48.9794 30.2646H51.4199Z" fill="#3A3F57"/>
<path fill-rule="evenodd" clip-rule="evenodd" d="M55.0067 42.4447H58.337C58.656 42.4447 58.9194 42.1836 58.9194 41.8625C58.9194 41.5413 58.6583 41.2803 58.337 41.2803H55.0067C54.6855 41.2803 54.4243 41.5413 54.4243 41.8625C54.4243 42.1813 54.6855 42.4447 55.0067 42.4447Z" fill="#2C3049"/>
<path fill-rule="evenodd" clip-rule="evenodd" d="M39.7165 41.5712H54.9698C55.1293 41.5712 55.261 41.4395 55.261 41.2801C55.261 41.1207 55.1293 40.989 54.9698 40.989H39.7165C39.557 40.989 39.4253 41.1207 39.4253 41.2801C39.4253 41.4395 39.5547 41.5712 39.7165 41.5712Z" fill="#00000F"/>
<path fill-rule="evenodd" clip-rule="evenodd" d="M45.6907 34.3079C46.4996 34.3079 47.2206 34.964 47.3038 35.7703C47.387 36.5789 46.7977 37.2327 45.9911 37.2327C45.1822 37.2327 44.4612 36.5766 44.378 35.7703C44.2948 34.964 44.8818 34.3079 45.6907 34.3079Z" fill="#242942"/>
<path fill-rule="evenodd" clip-rule="evenodd" d="M82.1785 40.698H76.336C76.0956 40.698 75.8784 40.7973 75.7189 40.9544C75.5618 41.1115 75.4624 41.331 75.4624 41.5713C75.4624 41.8116 75.5618 42.0287 75.7189 42.1881C75.8761 42.3452 76.0956 42.4446 76.336 42.4446H82.1762C82.4165 42.4446 82.6338 42.3475 82.7932 42.1881C82.9504 42.031 83.0498 41.8116 83.0498 41.5713C83.0498 41.331 82.9504 41.1139 82.7932 40.9544C82.6361 40.7973 82.4188 40.698 82.1785 40.698Z" fill="#3B3A3A"/>
<path fill-rule="evenodd" clip-rule="evenodd" d="M69.1138 40.7996H76.5833C77.0062 40.7996 77.3552 41.1461 77.3552 41.5712C77.3552 41.9963 77.0085 42.3428 76.5833 42.3428H69.1138V40.7996Z" fill="white"/>
<path fill-rule="evenodd" clip-rule="evenodd" d="M69.1138 40.698C69.0583 40.698 69.0121 40.7442 69.0121 40.7997C69.0121 40.8551 69.0583 40.9013 69.1138 40.9013H76.5833C76.7682 40.9013 76.9346 40.9775 77.0571 41.0977C77.1796 41.2178 77.2535 41.3865 77.2535 41.5713C77.2535 41.7561 77.1772 41.9225 77.0571 42.0449C76.9346 42.165 76.7682 42.2413 76.5833 42.2413H69.1138C69.0583 42.2413 69.0121 42.2875 69.0121 42.3429C69.0121 42.3984 69.0583 42.4446 69.1138 42.4446H76.5833C76.8236 42.4446 77.0409 42.3475 77.2004 42.1881C77.3575 42.031 77.4569 41.8116 77.4569 41.5713C77.4569 41.331 77.3598 41.1139 77.2004 40.9544C77.0432 40.7973 76.8236 40.698 76.5833 40.698H69.1138Z" fill="#242525"/>
<path fill-rule="evenodd" clip-rule="evenodd" d="M81.9081 41.5713C81.9081 41.331 81.8111 41.1139 81.6516 40.9544C81.4945 40.7973 81.2749 40.698 81.0345 40.698H81.7949C82.0353 40.698 82.2525 40.7973 82.412 40.9544C82.5691 41.1115 82.6685 41.331 82.6685 41.5713C82.6685 41.8116 82.5691 42.0287 82.412 42.1881C82.2548 42.3452 82.0353 42.4446 81.7949 42.4446H81.0345C81.2749 42.4446 81.4921 42.3475 81.6516 42.1881C81.8111 42.0287 81.9081 41.8116 81.9081 41.5713Z" fill="#242525"/>
<path fill-rule="evenodd" clip-rule="evenodd" d="M80.808 41.5713C80.808 41.331 80.711 41.1139 80.5515 40.9544C80.3944 40.7973 80.1748 40.698 79.9344 40.698H80.6948C80.9352 40.698 81.1524 40.7973 81.3119 40.9544C81.469 41.1115 81.5684 41.331 81.5684 41.5713C81.5684 41.8116 81.4713 42.0287 81.3119 42.1881C81.1547 42.3452 80.9352 42.4446 80.6948 42.4446H79.9344C80.1748 42.4446 80.3921 42.3475 80.5515 42.1881C80.711 42.0287 80.808 41.8116 80.808 41.5713Z" fill="#242525"/>
<path fill-rule="evenodd" clip-rule="evenodd" d="M70.6484 39.1687H75.7629C75.9732 39.1687 76.165 39.2542 76.3037 39.3928C76.4424 39.5314 76.5279 39.7232 76.5279 39.9334C76.5279 40.1436 76.4424 40.3354 76.3037 40.474C76.165 40.6126 75.9732 40.6981 75.7629 40.6981H70.6484C70.4381 40.6981 70.2463 40.6126 70.1076 40.474C69.9689 40.3354 69.8834 40.1436 69.8834 39.9334C69.8834 39.7232 69.9689 39.5314 70.1076 39.3928C70.2463 39.2565 70.4381 39.1687 70.6484 39.1687Z" fill="#C8DEE1"/>
<path fill-rule="evenodd" clip-rule="evenodd" d="M82.0885 39.2588H75.548C75.1759 39.2588 74.8732 39.5614 74.8732 39.9334C74.8732 40.3054 75.1759 40.608 75.548 40.608H82.0885V39.2588Z" fill="white"/>
<path fill-rule="evenodd" clip-rule="evenodd" d="M82.0884 39.1687C82.1369 39.1687 82.1762 39.208 82.1762 39.2588C82.1762 39.3073 82.1369 39.3489 82.0884 39.3489H75.5479C75.3862 39.3489 75.2406 39.4159 75.1343 39.5222C75.0279 39.6285 74.9609 39.774 74.9609 39.9357C74.9609 40.0974 75.0279 40.243 75.1343 40.3493C75.2406 40.4555 75.3862 40.5225 75.5479 40.5225H82.0884C82.1369 40.5225 82.1762 40.5618 82.1762 40.6126C82.1762 40.6611 82.1369 40.7004 82.0884 40.7004H75.5479C75.3376 40.7004 75.1458 40.6149 75.0071 40.4763C74.8685 40.3377 74.783 40.146 74.783 39.9357C74.783 39.7255 74.8685 39.5337 75.0071 39.3951C75.1458 39.2565 75.3376 39.171 75.5479 39.171H82.0884V39.1687Z" fill="#7A9297"/>
<path fill-rule="evenodd" clip-rule="evenodd" d="M70.8841 39.9334C70.8841 39.7232 70.9696 39.5314 71.1083 39.3928C71.247 39.2542 71.4388 39.1687 71.6491 39.1687H70.9835C70.7732 39.1687 70.5814 39.2542 70.4427 39.3928C70.304 39.5314 70.2185 39.7232 70.2185 39.9334C70.2185 40.1436 70.304 40.3354 70.4427 40.474C70.5814 40.6126 70.7732 40.6981 70.9835 40.6981H71.6491C71.4388 40.6981 71.247 40.6126 71.1083 40.474C70.9696 40.3354 70.8841 40.1436 70.8841 39.9334Z" fill="#7A9297"/>
<path fill-rule="evenodd" clip-rule="evenodd" d="M71.8479 39.9334C71.8479 39.7232 71.9334 39.5314 72.072 39.3928C72.2107 39.2542 72.4025 39.1687 72.6128 39.1687H71.9472C71.7369 39.1687 71.5451 39.2542 71.4064 39.3928C71.2678 39.5314 71.1823 39.7232 71.1823 39.9334C71.1823 40.1436 71.2678 40.3354 71.4064 40.474C71.5451 40.6126 71.7369 40.6981 71.9472 40.6981H72.6128C72.4025 40.6981 72.2107 40.6126 72.072 40.474C71.9334 40.3354 71.8479 40.1436 71.8479 39.9334Z" fill="#7A9297"/>
<path fill-rule="evenodd" clip-rule="evenodd" d="M80.1031 37.6416H76.299C76.0887 37.6416 75.8969 37.7271 75.7582 37.8657C75.6196 38.0043 75.5341 38.1961 75.5341 38.4063C75.5341 38.6165 75.6196 38.8083 75.7582 38.9469C75.8969 39.0855 76.0887 39.171 76.299 39.171H80.1031C80.3134 39.171 80.5053 39.0855 80.6439 38.9469C80.7826 38.8083 80.8681 38.6165 80.8681 38.4063C80.8681 38.1961 80.7826 38.0043 80.6439 37.8657C80.503 37.7271 80.3134 37.6416 80.1031 37.6416Z" fill="#018543"/>
<path fill-rule="evenodd" clip-rule="evenodd" d="M71.9471 37.7295H76.5139C76.886 37.7295 77.1887 38.0321 77.1887 38.4041C77.1887 38.7761 76.8837 39.0787 76.5139 39.0787H71.9471V37.7295Z" fill="white"/>
<path fill-rule="evenodd" clip-rule="evenodd" d="M71.9472 37.6416C71.8987 37.6416 71.8594 37.6809 71.8594 37.7317C71.8594 37.7825 71.8987 37.8218 71.9472 37.8218H76.514C76.6757 37.8218 76.8213 37.8888 76.9276 37.9951C77.034 38.1014 77.101 38.2469 77.101 38.4086C77.101 38.5703 77.034 38.7159 76.9276 38.8222C76.8213 38.9284 76.6757 38.9954 76.514 38.9954H71.9472C71.8987 38.9954 71.8594 39.0347 71.8594 39.0855C71.8594 39.1364 71.8987 39.1756 71.9472 39.1756H76.514C76.7243 39.1756 76.9161 39.0902 77.0548 38.9515C77.1934 38.8129 77.2789 38.6212 77.2789 38.4109C77.2789 38.2007 77.1934 38.0089 77.0548 37.8703C76.9161 37.7317 76.7243 37.6462 76.514 37.6462H71.9472V37.6416Z" fill="#F08A71"/>
<path fill-rule="evenodd" clip-rule="evenodd" d="M79.8674 38.4063C79.8674 38.1961 79.7819 38.0043 79.6432 37.8657C79.5045 37.7271 79.3127 37.6416 79.1024 37.6416H79.768C79.9783 37.6416 80.1702 37.7271 80.3088 37.8657C80.4475 38.0043 80.533 38.1961 80.533 38.4063C80.533 38.6165 80.4475 38.8083 80.3088 38.9469C80.1702 39.0855 79.9783 39.171 79.768 39.171H79.1024C79.3127 39.171 79.5045 39.0855 79.6432 38.9469C79.7819 38.806 79.8674 38.6165 79.8674 38.4063Z" fill="#F08A71"/>
<path fill-rule="evenodd" clip-rule="evenodd" d="M78.9036 38.4063C78.9036 38.1961 78.8181 38.0043 78.6795 37.8657C78.5408 37.7271 78.349 37.6416 78.1387 37.6416H78.8043C79.0146 37.6416 79.2064 37.7271 79.3451 37.8657C79.4837 38.0043 79.5693 38.1961 79.5693 38.4063C79.5693 38.6165 79.4837 38.8083 79.3451 38.9469C79.2064 39.0855 79.0146 39.171 78.8043 39.171H78.1387C78.349 39.171 78.5408 39.0855 78.6795 38.9469C78.8181 38.806 78.9036 38.6165 78.9036 38.4063Z" fill="#F08A71"/>
</svg>
