<svg width="168" height="88" viewBox="0 0 168 88" fill="none" xmlns="http://www.w3.org/2000/svg">
<g clip-path="url(#clip0_406_12546)">
<g opacity="0.4">
<path d="M159.521 49.9162C156.195 62.9206 149.665 75.9675 138.061 82.7765C136.447 83.724 134.765 84.5319 133.035 85.2243H14.6375C9.17354 77.8566 5.96948 68.8427 5.56136 59.6892C5.2507 52.692 6.70654 45.306 11.2507 39.967C17.3847 32.7693 27.7522 30.7649 37.2243 31.0747C46.6964 31.3844 56.1258 33.5225 65.5674 32.6903C76.9279 31.6821 87.4111 26.4645 97.6142 21.3927C107.823 16.327 118.398 11.2249 129.777 10.496C141.155 9.77318 153.655 14.4805 158.765 24.6423C162.64 32.3441 161.653 41.5705 159.521 49.9162Z" fill="#018543" fill-opacity="0.16"/>
</g>
<g opacity="0.4">
<path d="M86.2476 13.4539C84.073 19.8924 80.1867 23.1966 75.0455 23.8344C69.9105 24.4661 64.7877 23.3181 59.6526 23.5246C56.0953 23.6704 52.3917 23.3059 50.0526 20.1535C47.5856 16.8189 45.2526 11.0851 47.5978 7.03979C49.8821 3.09777 55.0537 2.04697 58.7085 4.20324C60.0669 5.005 61.6628 6.31699 63.2953 6.22588C65.9207 6.0801 68.4486 4.54338 70.9095 3.04918C73.3704 1.55498 75.9105 0.0607731 78.5359 0.00610714C85.273 -0.133595 88.3491 7.23416 86.2476 13.4539Z" fill="#018543" fill-opacity="0.16"/>
</g>
<path d="M70.4588 60.1263C69.9349 60.1263 69.5085 59.689 69.5085 59.1545C69.5085 58.6199 69.9349 58.1826 70.4588 58.1826C70.9827 58.1826 71.4091 58.6199 71.4091 59.1545C71.403 59.689 70.9827 60.1263 70.4588 60.1263ZM70.4588 58.4438C70.0811 58.4438 69.7705 58.7596 69.7705 59.1545C69.7705 59.5493 70.0811 59.8651 70.4588 59.8651C70.8365 59.8651 71.1471 59.5493 71.1471 59.1545C71.1471 58.7596 70.8365 58.4438 70.4588 58.4438Z" fill="#018543" fill-opacity="0.43"/>
<path d="M2.4244 45.0021C1.77263 45.0021 1.24268 44.4432 1.24268 43.7569C1.24268 43.0705 1.77263 42.5117 2.4244 42.5117C3.07618 42.5117 3.60613 43.0705 3.60613 43.7569C3.61222 44.4432 3.08227 45.0021 2.4244 45.0021ZM2.4244 42.7668C1.91882 42.7668 1.5046 43.2102 1.5046 43.7508C1.5046 44.2975 1.91882 44.7348 2.4244 44.7348C2.92999 44.7348 3.3442 44.2914 3.3442 43.7508C3.35029 43.2102 2.93608 42.7668 2.4244 42.7668Z" fill="#018543" fill-opacity="0.43"/>
<path d="M51.2528 73.5437C51.7574 73.5437 52.1665 73.1385 52.1665 72.6387C52.1665 72.1388 51.7574 71.7336 51.2528 71.7336C50.7482 71.7336 50.3391 72.1388 50.3391 72.6387C50.3391 73.1385 50.7482 73.5437 51.2528 73.5437Z" fill="#018543" fill-opacity="0.43"/>
<path d="M166.824 41.631C167.474 41.631 168 41.1089 168 40.4648C168 39.8207 167.474 39.2986 166.824 39.2986C166.175 39.2986 165.649 39.8207 165.649 40.4648C165.649 41.1089 166.175 41.631 166.824 41.631Z" fill="#018543" fill-opacity="0.43"/>
<path d="M90.3715 33.8258C89.7441 33.8258 89.2324 33.2913 89.2324 32.6353C89.2324 31.9793 89.7441 31.4448 90.3715 31.4448C90.9989 31.4448 91.5106 31.9793 91.5106 32.6353C91.5106 33.2913 90.9989 33.8258 90.3715 33.8258ZM90.3715 31.706C89.8903 31.706 89.4943 32.1251 89.4943 32.6353C89.4943 33.1455 89.8903 33.5646 90.3715 33.5646C90.8527 33.5646 91.2487 33.1455 91.2487 32.6353C91.2487 32.1251 90.8527 31.706 90.3715 31.706Z" fill="#018543" fill-opacity="0.43"/>
<path d="M122.845 41.9953L121.553 40.6773L122.875 39.3289L124.166 40.6469L122.845 41.9953ZM121.919 40.6712L122.845 41.6188L123.795 40.6469L122.869 39.6994L121.919 40.6712Z" fill="#018543" fill-opacity="0.43"/>
<path d="M11.1788 27.5681L10.0159 26.4084L8.82708 27.5938L9.99003 28.7535L11.1788 27.5681Z" fill="#018543" fill-opacity="0.43"/>
<path d="M40.8548 61.1528L39.5635 59.8348L40.8853 58.4863L42.1767 59.8044L40.8548 61.1528ZM39.929 59.8348L40.8548 60.7823L41.8051 59.8105L40.8792 58.8629L39.929 59.8348Z" fill="#018543" fill-opacity="0.43"/>
<path d="M162.737 20.129L161.58 18.975L162.762 17.7966L163.919 18.9507L162.737 20.129ZM161.951 18.975L162.737 19.7585L163.547 18.9507L162.762 18.1671L161.951 18.975Z" fill="#018543" fill-opacity="0.43"/>
<path d="M79.5966 62.5497H67.1824C67.1093 62.5497 67.0483 62.489 67.0483 62.4161C67.0483 62.3432 67.1093 62.2825 67.1824 62.2825H79.5966C79.6697 62.2825 79.7306 62.3432 79.7306 62.4161C79.7306 62.489 79.6697 62.5497 79.5966 62.5497Z" fill="#018543" fill-opacity="0.43"/>
<path d="M69.527 65.2223H67.1758C67.1027 65.2223 67.0417 65.1616 67.0417 65.0887C67.0417 65.0158 67.1027 64.9551 67.1758 64.9551H69.527C69.6001 64.9551 69.661 65.0158 69.661 65.0887C69.661 65.1616 69.6001 65.2223 69.527 65.2223Z" fill="#018543" fill-opacity="0.43"/>
<path d="M76.2884 65.2223H71.4275C71.3544 65.2223 71.2935 65.1616 71.2935 65.0887C71.2935 65.0158 71.3544 64.9551 71.4275 64.9551H76.2884C76.3615 64.9551 76.4224 65.0158 76.4224 65.0887C76.4224 65.1616 76.3615 65.2223 76.2884 65.2223Z" fill="#018543" fill-opacity="0.43"/>
<path d="M79.5961 67.8949H67.1819C67.1088 67.8949 67.0479 67.8342 67.0479 67.7613C67.0479 67.6884 67.1088 67.6277 67.1819 67.6277H79.5961C79.6692 67.6277 79.7301 67.6884 79.7301 67.7613C79.7301 67.8342 79.6692 67.8949 79.5961 67.8949Z" fill="#018543" fill-opacity="0.43"/>
<path d="M109.578 85.4548C109.505 85.4548 109.45 85.394 109.45 85.3272V64.5724C109.45 64.4995 109.511 64.4448 109.578 64.4448C109.651 64.4448 109.706 64.5056 109.706 64.5724V85.3272C109.706 85.394 109.651 85.4548 109.578 85.4548Z" fill="#1B1B43"/>
<path d="M113.909 85.3211H105.247V85.2786C105.247 84.2763 106.057 83.4685 107.062 83.4685H112.094C113.099 83.4685 113.909 84.2763 113.909 85.2786V85.3211Z" fill="white"/>
<path d="M114.006 85.4183H105.149V85.2786C105.149 84.2278 106.008 83.3713 107.062 83.3713H112.094C113.147 83.3713 114.006 84.2278 114.006 85.2786V85.4183ZM105.344 85.2239H113.805C113.775 84.3067 113.019 83.5657 112.087 83.5657H107.056C106.136 83.5657 105.375 84.3067 105.344 85.2239Z" fill="#1B1B43"/>
<path d="M115.407 65.4471H103.748V63.303H113.306C114.469 63.303 115.407 64.2444 115.407 65.3985V65.4471Z" fill="#018543" fill-opacity="0.43"/>
<path d="M92.6558 80.3525L93.1065 85.3211H86.2842L89.3299 82.3387L89.2933 80.3951L92.6558 80.3525Z" fill="#018543" fill-opacity="0.43"/>
<path d="M89.7807 83.4441C89.7625 83.4441 89.7442 83.4381 89.7259 83.432L88.7147 82.94C88.6477 82.9096 88.6234 82.8307 88.6538 82.7639C88.6843 82.697 88.7635 82.6727 88.8305 82.7031L89.8417 83.1951C89.9087 83.2255 89.933 83.3044 89.9026 83.3713C89.8782 83.4138 89.8295 83.4441 89.7807 83.4441Z" fill="#1B1B43"/>
<path d="M89.1289 84.1609C89.1106 84.1609 89.0923 84.1549 89.0741 84.1488L88.0629 83.6568C87.9959 83.6264 87.9715 83.5475 88.002 83.4806C88.0324 83.4138 88.1116 83.3895 88.1786 83.4199L89.1898 83.9119C89.2568 83.9423 89.2812 84.0212 89.2507 84.088C89.2203 84.1366 89.1776 84.1609 89.1289 84.1609Z" fill="#1B1B43"/>
<path d="M91.0232 85.3696C90.9562 85.3696 90.9014 85.321 90.8953 85.2542C90.8344 84.6407 91.0597 84.1001 91.5227 83.7418C91.9613 83.4016 92.5521 83.2802 92.9907 83.4442C93.0577 83.4685 93.0943 83.5413 93.0699 83.6081C93.0455 83.675 92.9724 83.7114 92.9054 83.6871C92.546 83.5596 92.0465 83.6689 91.6872 83.9483C91.2973 84.252 91.1085 84.7075 91.1633 85.2299C91.1694 85.3028 91.1207 85.3635 91.0476 85.3696C91.0293 85.3696 91.0293 85.3696 91.0232 85.3696Z" fill="#1B1B43"/>
<path d="M102.012 58.0247L93.6487 60.0048C90.7248 60.8126 88.6659 63.4852 88.5746 66.6072L88.3857 81.3366L93.6365 81.4095L96.2984 66.1395L102.012 58.0247Z" fill="#BE443D"/>
<path d="M104.637 79.2715L108.414 83.827L102.914 87.9998L103.693 83.748L101.957 81.3609L104.637 79.2715Z" fill="#018543" fill-opacity="0.43"/>
<path d="M103.651 84.2947C103.59 84.2947 103.535 84.2521 103.523 84.1914C103.511 84.1185 103.553 84.0517 103.626 84.0395L104.729 83.8148C104.802 83.8027 104.869 83.8452 104.881 83.9181C104.893 83.9909 104.851 84.0578 104.778 84.0699L103.675 84.2947C103.669 84.2947 103.657 84.2947 103.651 84.2947Z" fill="#1B1B43"/>
<path d="M103.565 85.2605C103.504 85.2605 103.45 85.2179 103.437 85.1572C103.425 85.0843 103.468 85.0175 103.541 85.0054L104.643 84.7806C104.717 84.7685 104.784 84.811 104.796 84.8839C104.808 84.9568 104.765 85.0236 104.692 85.0357L103.59 85.2605C103.584 85.2605 103.571 85.2605 103.565 85.2605Z" fill="#1B1B43"/>
<path d="M107.208 84.8171C107.184 84.8171 107.159 84.8111 107.135 84.7928C106.66 84.477 106.501 83.7846 106.556 83.2743C106.605 82.7884 106.83 82.4361 107.165 82.3025C107.232 82.2782 107.312 82.3086 107.336 82.3754C107.36 82.4422 107.33 82.5212 107.263 82.5455C107.025 82.6426 106.855 82.922 106.818 83.2986C106.769 83.7481 106.916 84.3251 107.281 84.5742C107.342 84.6167 107.36 84.6957 107.318 84.7564C107.293 84.7928 107.251 84.8171 107.208 84.8171Z" fill="#1B1B43"/>
<path d="M112.142 59.3913L111.484 62.0699C111.442 62.2704 111.356 62.4951 111.247 62.732C110.662 63.9286 109.553 64.7061 108.335 64.864L99.7461 67.2389L107.007 80.0186L102.432 83.1467L93.9106 71.0838C91.9735 68.314 92.5766 64.293 95.2263 62.3736C96.1339 61.7177 96.8283 61.2439 96.9319 61.2682L102.938 57.9761L112.142 59.3913Z" fill="#FE5B52"/>
<path d="M95.9511 54.2165L95.7683 59.5373C100.897 58.6626 106.696 58.2617 112.136 59.3976C113.226 57.0227 112.861 55.0972 111.91 52.8923L95.9511 54.2165Z" fill="#018543"/>
<path d="M94.6902 56.1115C94.6902 56.1115 90.2253 56.5002 89.5004 53.3418C88.9583 50.9972 90.9623 47.3224 92.7532 44.6377C94.1786 42.5058 96.1095 40.8719 98.3146 39.9122L100.83 38.8188L104.418 40.1065L110.138 43.5748L111.576 55.8625C111.576 55.8685 94.605 56.1115 94.6902 56.1115Z" fill="#018543"/>
<path d="M107.385 51.6775L106.556 51.8111C105.825 51.9265 104.686 52.1634 103.943 52.3821C102.323 52.8558 101.64 54.7631 101.64 54.7631L103.127 54.8542L105.709 53.7426L107.774 53.8398L107.385 51.6775Z" fill="#FFBC96"/>
<path d="M102.81 54.7386C102.792 54.7386 102.767 54.7265 102.755 54.7083C102.737 54.6779 102.743 54.6354 102.773 54.6171L104.065 53.7546C104.095 53.7364 104.138 53.7425 104.156 53.7729C104.174 53.8032 104.168 53.8457 104.138 53.864L102.847 54.7265C102.834 54.7325 102.822 54.7386 102.81 54.7386Z" fill="#D28572"/>
<path d="M102.256 54.7023C102.237 54.7023 102.225 54.6962 102.207 54.6841C102.183 54.6598 102.183 54.6173 102.207 54.593L103.206 53.5968C103.23 53.5725 103.273 53.5725 103.297 53.5968C103.322 53.6211 103.322 53.6636 103.297 53.6879L102.298 54.6841C102.286 54.6962 102.274 54.7023 102.256 54.7023Z" fill="#D28572"/>
<path d="M102.725 38.6912L106.751 39.7237C107.829 40.0153 109.206 40.7381 109.9 41.4184C111.764 43.2467 115.176 48.0269 115.395 51.155C115.511 52.7889 114.451 54.1312 112.404 54.4228L107.909 55.0666L106.544 51.7928L110.68 50.748L106.91 44.7166L102.725 38.6912Z" fill="#018543"/>
<path d="M107.866 55.1458L106.465 51.7686L110.577 50.7117L106.599 44.3887C106.581 44.3583 106.587 44.3158 106.617 44.2976C106.648 44.2794 106.69 44.2855 106.708 44.3158L110.784 50.7907L106.648 51.8537L107.951 55L112.398 54.3622C112.434 54.3561 112.465 54.3804 112.471 54.4169C112.477 54.4533 112.453 54.4837 112.416 54.4898L107.866 55.1458Z" fill="#1B1B43"/>
<path d="M101.549 42.6212C100.702 42.6212 99.8496 42.275 99.1735 41.6433C99.1491 41.619 99.143 41.5765 99.1735 41.5522C99.1978 41.5279 99.2405 41.5218 99.2648 41.5522C99.9958 42.2324 100.934 42.5726 101.841 42.4815C102.786 42.3843 103.626 41.8559 104.266 40.9508C104.284 40.9205 104.327 40.9144 104.357 40.9326C104.388 40.9508 104.394 40.9934 104.375 41.0237C103.712 41.9591 102.84 42.5058 101.86 42.609C101.756 42.6151 101.653 42.6212 101.549 42.6212Z" fill="#1B1B43"/>
<path d="M95.4273 48.3065C95.4152 48.3065 95.4091 48.3065 95.3969 48.3004C95.3664 48.2822 95.3481 48.2457 95.3664 48.2153L97.0233 44.6924C97.0416 44.6621 97.0781 44.6438 97.1086 44.6621C97.139 44.6803 97.1573 44.7167 97.139 44.7471L95.4822 48.27C95.4761 48.2943 95.4517 48.3065 95.4273 48.3065Z" fill="#1B1B43"/>
<path d="M97.078 31.694C96.8344 31.3113 96.7552 30.8254 96.877 30.382C96.9988 29.9447 97.3095 29.562 97.7176 29.3555C98.0404 29.1915 98.4912 29.1672 98.7227 29.4466C99.2648 28.9121 100.191 28.8392 100.812 29.2765C101.001 29.4102 101.513 29.1186 101.701 29.07C102.079 28.9789 102.451 29.0275 102.749 29.3008C102.999 29.5316 103.115 29.9265 102.956 30.2302C103.139 29.8779 104.418 30.3395 104.619 30.4974C105.618 31.2749 105.557 32.9756 104.729 33.8503C104.564 34.0203 104.315 34.1418 104.248 34.3726C104.168 34.6581 104.107 34.5245 104.205 34.8039C104.54 35.7393 103.766 36.7415 102.78 36.6686L97.078 31.694Z" fill="#1B1B43"/>
<path d="M101.982 41.5582C100.891 41.795 99.8374 41.0662 99.6303 39.9303L99.5633 39.578L99.1247 37.2274L99.0881 37.0452L103.035 36.1948L103.571 39.0739C103.791 40.2158 103.078 41.3213 101.982 41.5582Z" fill="#FFBC96"/>
<path d="M102.353 37.2759C101.793 38.3692 100.891 39.1589 99.5633 39.584L99.1248 37.2334L102.353 37.2759Z" fill="#D28572"/>
<path d="M101.5 37.9199C99.8618 38.6609 98.3451 38.3269 97.9309 36.0916C97.8517 35.6725 97.8151 35.1866 97.8212 34.6217C97.8212 34.4638 97.8273 34.2998 97.8395 34.1297C97.9187 32.5991 97.4862 31.9249 97.8943 31.4086C98.6192 30.4914 99.7583 30.8802 100.727 30.8802C102.28 30.8802 103.316 31.6576 103.413 33.7106C103.492 35.3567 103.206 37.1485 101.5 37.9199Z" fill="#FFBC96"/>
<path d="M97.3217 30.789C96.1339 31.0866 96.609 32.9149 97.6933 33.006C98.1745 33.0485 99.0882 32.5444 99.1004 31.9491C99.0943 32.4411 99.4476 32.9088 99.9045 33.006C100.361 33.1032 100.861 32.8177 101.031 32.3621C101.104 32.6233 101.305 32.842 101.549 32.927C101.793 33.0121 102.079 32.9635 102.286 32.8055C102.14 33.2854 102.396 33.8199 102.774 34.1297C103.151 34.4395 103.632 34.567 104.095 34.6824L103.444 31.1048C103.444 31.1048 100.008 30.1694 99.9106 30.1694C99.8192 30.1694 97.3278 30.789 97.3217 30.789Z" fill="#1B1B43"/>
<path d="M103.511 35.7878C104.032 35.7878 104.455 35.3473 104.455 34.8038C104.455 34.2604 104.032 33.8198 103.511 33.8198C102.989 33.8198 102.566 34.2604 102.566 34.8038C102.566 35.3473 102.989 35.7878 103.511 35.7878Z" fill="#FFBC96"/>
<path d="M100.227 34.2208C100.227 34.4091 100.337 34.5609 100.471 34.5609C100.605 34.5609 100.715 34.4091 100.715 34.2208C100.715 34.0325 100.605 33.8806 100.471 33.8806C100.337 33.8806 100.227 34.0325 100.227 34.2208Z" fill="#1B1B43"/>
<path d="M98.7715 34.1541C98.7715 34.3424 98.8811 34.4943 99.0151 34.4943C99.1491 34.4943 99.2588 34.3424 99.2588 34.1541C99.2588 33.9658 99.1491 33.814 99.0151 33.814C98.8811 33.814 98.7715 33.9658 98.7715 34.1541Z" fill="#1B1B43"/>
<path d="M99.5572 35.8607C99.5511 35.8607 99.545 35.8607 99.5389 35.8546L99.5267 35.8486C99.3866 35.8 99.1856 35.7332 99.1003 35.5813C98.9907 35.3991 99.1612 35.1987 99.2282 35.1258C99.3744 34.9557 99.5511 34.7249 99.5572 34.4394C99.5572 34.403 99.5876 34.3787 99.6242 34.3787C99.6607 34.3787 99.6912 34.409 99.6851 34.4455C99.6729 34.7674 99.4841 35.0225 99.3196 35.2108C99.2039 35.3444 99.1673 35.4416 99.2039 35.5145C99.2648 35.6238 99.4292 35.6785 99.5572 35.721L99.5693 35.7271C99.6059 35.7392 99.6242 35.7757 99.612 35.8121C99.6059 35.8425 99.5815 35.8607 99.5572 35.8607Z" fill="#D28572"/>
<path d="M100.343 36.0249L99.0274 36.365C99.0213 36.359 99.7766 37.4098 100.343 36.0249Z" fill="white"/>
<path d="M101.147 33.8504C101.08 33.7532 101.007 33.6803 100.922 33.6196C100.836 33.5649 100.745 33.5285 100.648 33.5103C100.55 33.492 100.453 33.4981 100.361 33.5224C100.27 33.5467 100.185 33.6014 100.106 33.6864L100.014 33.6439C100.039 33.5103 100.142 33.3827 100.27 33.3159C100.398 33.2491 100.55 33.2309 100.69 33.2551C100.83 33.2794 100.964 33.3523 101.062 33.4495C101.159 33.5528 101.226 33.6803 101.239 33.814L101.147 33.8504Z" fill="#1B1B43"/>
<path d="M98.4729 33.6559C98.479 33.5405 98.5521 33.4312 98.6435 33.3583C98.7348 33.2854 98.8506 33.2429 98.9724 33.2368C99.0942 33.2308 99.2161 33.2611 99.3074 33.328C99.4049 33.3948 99.4719 33.4859 99.5084 33.5891L99.4293 33.6499C99.344 33.6013 99.277 33.5588 99.1978 33.5284C99.1247 33.5041 99.0516 33.492 98.9785 33.492C98.9054 33.492 98.8323 33.5102 98.7592 33.5466C98.6861 33.577 98.6252 33.6256 98.5643 33.6924L98.4729 33.6559Z" fill="#1B1B43"/>
<path opacity="0.5" d="M101.529 36.0443C101.935 35.979 102.21 35.5985 102.144 35.1945C102.079 34.7905 101.697 34.5159 101.292 34.5812C100.887 34.6465 100.612 35.027 100.677 35.431C100.743 35.835 101.124 36.1096 101.529 36.0443Z" fill="#FF9289"/>
<path opacity="0.5" d="M98.6679 35.3324C98.6801 35.7029 98.4121 36.0248 98.0405 36.0795C98.0039 36.0855 97.9674 36.0855 97.9308 36.0855C97.8517 35.6664 97.8151 35.1805 97.8212 34.6156C98.2232 34.5549 98.5948 34.8282 98.6618 35.223V35.2412C98.6618 35.2716 98.6618 35.2959 98.6679 35.3324Z" fill="#FF9289"/>
<path d="M103.218 35.2534C103.182 35.2534 103.157 35.2291 103.151 35.1926C103.115 34.7128 103.285 34.3787 103.663 34.1965C103.693 34.1783 103.736 34.1965 103.748 34.2268C103.766 34.2572 103.748 34.2997 103.718 34.3119C103.389 34.4637 103.249 34.7492 103.279 35.1744C103.285 35.223 103.261 35.2534 103.218 35.2534C103.224 35.2534 103.224 35.2534 103.218 35.2534Z" fill="#D28572"/>
<path d="M106.721 54.7085H100.404V56.1784H106.721V54.7085Z" fill="#1B1B43"/>
<path d="M102.457 56.1844H92.0102L88.2944 46.2109H98.7411L102.457 56.1844Z" fill="#018543" fill-opacity="0.43"/>
<path d="M59.397 80.1282C59.3239 80.1282 59.269 80.0675 59.269 80.0007L59.2751 45.8588C59.2751 45.7859 59.336 45.7312 59.4031 45.7312C59.4762 45.7312 59.531 45.7919 59.531 45.8588L59.5249 80.0007C59.531 80.0675 59.4701 80.1282 59.397 80.1282Z" fill="#1B1B43"/>
<path d="M69.0089 85.4187C68.9846 85.4187 68.9663 85.4126 68.948 85.4005L59.4089 80.1343L49.8698 85.4005C49.8089 85.4369 49.7297 85.4126 49.6932 85.3519C49.6566 85.2911 49.681 85.2122 49.7419 85.1757L59.4089 79.8428L69.0759 85.1757C69.1369 85.2122 69.1612 85.2911 69.1247 85.3519C69.0942 85.3944 69.0516 85.4187 69.0089 85.4187Z" fill="#1B1B43"/>
<path d="M78.475 11.0061H40.3308V49.1568H78.475V11.0061Z" fill="white"/>
<path d="M78.5725 49.2541H40.2334V10.9089H78.5725V49.2541ZM40.4283 49.0597H78.3776V11.1033H40.4283V49.0597Z" fill="#1B1B43"/>
<path d="M47.7137 39.238H44.7898V40.5682H47.7137V39.238Z" fill="#018543" fill-opacity="0.43"/>
<path d="M61.4618 39.803H48.6638V39.9973H61.4618V39.803Z" fill="#1B1B43"/>
<path d="M47.7137 41.8254H44.7898V43.1556H47.7137V41.8254Z" fill="#018543"/>
<path d="M61.4618 42.3904H48.6638V42.5847H61.4618V42.3904Z" fill="#1B1B43"/>
<path d="M47.4639 26.9929H46.1482V31.3844H47.4639V26.9929Z" fill="#018543" fill-opacity="0.43"/>
<path d="M50.1868 25.6687H48.8711V31.3843H50.1868V25.6687Z" fill="#018543" fill-opacity="0.43"/>
<path d="M52.9097 23.3242H51.594V31.3844H52.9097V23.3242Z" fill="#018543" fill-opacity="0.43"/>
<path d="M55.6324 21.1863H54.3167V31.3845H55.6324V21.1863Z" fill="#018543" fill-opacity="0.43"/>
<path d="M58.3614 18.9934H57.0457V31.3844H58.3614V18.9934Z" fill="#018543" fill-opacity="0.43"/>
<path d="M61.0843 18.0337H59.7686V31.3843H61.0843V18.0337Z" fill="#018543" fill-opacity="0.43"/>
<path d="M63.8072 19.0725H62.4915V31.3906H63.8072V19.0725Z" fill="#018543" fill-opacity="0.43"/>
<path d="M66.5298 20.269H65.2141V31.3844H66.5298V20.269Z" fill="#018543" fill-opacity="0.43"/>
<path d="M69.2527 18.0337H67.937V31.3843H69.2527V18.0337Z" fill="#018543" fill-opacity="0.43"/>
<path d="M71.9756 16.7705H70.6599V31.3845H71.9756V16.7705Z" fill="#018543" fill-opacity="0.43"/>
<path d="M74.6986 15.094H73.3828V31.3844H74.6986V15.094Z" fill="#018543" fill-opacity="0.43"/>
<path d="M75.5512 31.4876H44.272V14.3772H44.5339V31.2264H75.5512V31.4876Z" fill="#1B1B43"/>
<path d="M46.8302 29.0701L46.7876 28.815L49.4739 28.329L52.0384 26.2153L52.0445 26.2092L54.8404 24.6725L57.5876 22.4555L60.481 21.8177L62.9785 23.8525L65.6708 25.4317L68.5703 21.6416L71.3358 20.7548L74.2719 19.376L74.3815 19.6129L71.4211 21.0038L68.7287 21.8663L65.7379 25.7719L62.8201 24.059L60.414 22.0971L57.7033 22.6924L54.9866 24.8912L54.9744 24.8972L52.1846 26.4279L49.5896 28.572L46.8302 29.0701Z" fill="#018543"/>
<path d="M68.9055 33.158H49.9004V34.1116H68.9055V33.158Z" fill="#018543" fill-opacity="0.43"/>
<path d="M70.1968 41.2182L72.6943 37.3126C71.9755 36.851 71.1166 36.5837 70.1968 36.5837C67.6323 36.5837 65.5491 38.661 65.5491 41.2182C65.5491 43.7753 67.6323 45.8527 70.1968 45.8527C72.7613 45.8527 74.8445 43.7753 74.8445 41.2182C74.8445 41.1332 74.8384 41.0481 74.8323 40.9631L70.1968 41.2182Z" fill="#018543" fill-opacity="0.43"/>
<path d="M74.8323 40.9632C74.747 39.4265 73.9186 38.0902 72.6942 37.3066L70.1968 41.2122L74.8323 40.9632Z" fill="#018543"/>
<path d="M27.7341 80.0918L27.2224 85.3397H34.8549L31.4498 82.1873L31.4864 80.1343L27.7341 80.0918Z" fill="#018543" fill-opacity="0.43"/>
<path d="M30.6822 83.1531C30.6335 83.1531 30.5848 83.1227 30.5604 83.0741C30.53 83.0073 30.5604 82.9283 30.6274 82.904L31.7239 82.4303C31.7909 82.3999 31.8701 82.4303 31.8944 82.4971C31.9249 82.5639 31.8944 82.6428 31.8274 82.6671L30.731 83.1409C30.7188 83.147 30.7005 83.1531 30.6822 83.1531Z" fill="#1B1B43"/>
<path d="M31.3341 83.8879C31.2854 83.8879 31.2366 83.8576 31.2123 83.809C31.1818 83.7422 31.2123 83.6632 31.2793 83.6389L32.3757 83.1651C32.4427 83.1347 32.5219 83.1651 32.5463 83.2319C32.5767 83.2988 32.5463 83.3777 32.4793 83.402L31.3828 83.8758C31.3706 83.8879 31.3524 83.8879 31.3341 83.8879Z" fill="#1B1B43"/>
<path d="M27.4235 83.1228C27.9778 83.2078 28.526 83.3961 28.9098 83.8213C29.2631 84.2222 29.4032 84.7627 29.458 85.279C29.4763 85.443 29.7382 85.4491 29.7199 85.279C29.659 84.6959 29.5067 84.1128 29.1169 83.6634C28.7088 83.1896 28.0996 82.9648 27.4966 82.8737C27.326 82.8494 27.2529 83.0985 27.4235 83.1228Z" fill="#1B1B43"/>
<path d="M18.7798 80.1464L18.189 85.3397H11.0803L13.8945 82.5031L15.0763 80.1343L18.7798 80.1464Z" fill="#018543" fill-opacity="0.43"/>
<path d="M14.9909 83.1045C14.9726 83.1045 14.9543 83.0984 14.9421 83.0923L13.8457 82.6186C13.7787 82.5882 13.7482 82.5153 13.7787 82.4485C13.8091 82.3817 13.8822 82.3513 13.9492 82.3817L15.0457 82.8554C15.1127 82.8858 15.1431 82.9587 15.1127 83.0255C15.0944 83.0802 15.0457 83.1045 14.9909 83.1045Z" fill="#1B1B43"/>
<path d="M14.3393 83.8454C14.321 83.8454 14.3027 83.8394 14.2905 83.8333L13.1941 83.3595C13.1271 83.3292 13.0966 83.2563 13.1271 83.1895C13.1575 83.1226 13.2306 83.0923 13.2976 83.1226L14.3941 83.5964C14.4611 83.6268 14.4915 83.6997 14.4611 83.7665C14.4367 83.8151 14.388 83.8454 14.3393 83.8454Z" fill="#1B1B43"/>
<path d="M18.3351 82.8918C17.7321 82.9829 17.1229 83.2076 16.7148 83.6814C16.325 84.1369 16.1727 84.72 16.1118 85.2971C16.0935 85.4611 16.3554 85.4611 16.3737 85.2971C16.4285 84.7808 16.5625 84.2402 16.9219 83.8393C17.2996 83.4081 17.8539 83.2258 18.4082 83.1408C18.5727 83.1226 18.4996 82.8675 18.3351 82.8918Z" fill="#1B1B43"/>
<path d="M20.3027 44.8078L13.0662 81.3489H19.8763L28.325 42.0806L20.3027 44.8078Z" fill="#018543"/>
<path d="M25.6753 44.3038L26.8509 81.1426H32.8387L32.6012 42.4148L25.6753 44.3038Z" fill="#018543"/>
<path d="M31.6569 43.842L21.3076 45.1844L21.5574 27.3086L29.9695 27.0596L31.6569 43.842Z" fill="white"/>
<path d="M26.8266 22.0244V26.6285C26.8266 27.904 26.6865 28.8637 25.3769 28.9305C24.5363 28.9731 23.3728 28.4628 23.0256 27.7522C22.8611 27.4181 22.7698 27.0355 22.7698 26.6285V22.0244H26.8266Z" fill="#D28572"/>
<path d="M26.8266 23.8889V26.0573C25.6875 25.7719 24.2926 24.8851 23.6042 23.895H26.8266V23.8889Z" fill="#925D4F"/>
<path d="M26.8266 24.8791C26.7474 24.9034 26.656 24.9216 26.5646 24.9337C25.8763 25.037 24.9504 24.9277 24.0976 24.466C23.6225 24.2109 23.1717 23.8526 22.8002 23.3545C22.788 23.3424 22.7819 23.3302 22.7697 23.3181C22.6723 23.1905 22.5809 23.0447 22.4956 22.8929L22.3311 22.3037L22.0814 21.423L21.3931 18.9934L24.786 17.3291C24.786 17.3291 27.3626 17.8636 27.6184 18.0337C27.5758 18.4953 27.5697 18.963 27.588 19.4186C27.6124 20.0685 27.6855 20.7002 27.7525 21.2954C27.8134 21.8117 27.8682 22.2976 27.8865 22.735C27.9291 23.8283 27.7525 24.63 26.8266 24.8791Z" fill="#D28572"/>
<path d="M21.9778 22.4495C21.9778 22.4495 22.9281 22.1336 22.8002 21.9393C22.6113 21.6477 22.0509 20.767 22.6418 19.7587C22.7575 19.5583 23.391 19.3943 23.5981 19.3153C23.8662 19.2181 24.1342 19.1392 24.4144 19.0966C24.8164 19.0359 25.2245 19.0481 25.6266 19.1513C26.1748 19.2971 26.7108 19.6737 27.2956 19.5279C27.7159 19.4246 28.1971 19.0845 28.3068 18.6229C28.3738 18.3617 28.3129 18.0762 28.1971 17.8333C27.4844 16.3208 25.7484 16.2236 24.3535 16.3573C23.2144 16.4666 22.3129 16.9222 21.6976 17.9851C21.6733 18.0276 21.5575 18.307 21.5271 18.307C20.0408 18.5014 20.857 21.836 21.9778 22.4495Z" fill="#1B1B43"/>
<path d="M22.3432 23.482C22.8882 23.482 23.33 23.0143 23.33 22.4373C23.33 21.8603 22.8882 21.3926 22.3432 21.3926C21.7983 21.3926 21.3564 21.8603 21.3564 22.4373C21.3564 23.0143 21.7983 23.482 22.3432 23.482Z" fill="#D28572"/>
<path d="M22.6662 19.4307C22.7027 20.3053 22.7576 21.2286 22.7149 22.1032C22.7027 22.3705 22.6175 22.3401 22.5139 22.2308C22.3921 22.0911 22.3007 21.8542 22.2763 21.5809L22.1423 20.1838L22.6662 19.4307Z" fill="#1B1B43"/>
<path d="M25.2549 21.168C25.2549 21.3624 25.1452 21.5142 25.0051 21.5142C24.865 21.5142 24.7554 21.3563 24.7554 21.168C24.7554 20.9797 24.865 20.8218 25.0051 20.8218C25.1391 20.8218 25.2549 20.9736 25.2549 21.168Z" fill="#1B1B43"/>
<path d="M26.7473 21.1011C26.7473 21.2955 26.6377 21.4473 26.4975 21.4473C26.3574 21.4473 26.2478 21.2894 26.2478 21.1011C26.2478 20.9128 26.3574 20.7549 26.4975 20.7549C26.6377 20.7549 26.7473 20.9128 26.7473 21.1011Z" fill="#1B1B43"/>
<path d="M25.9431 22.8503C25.9188 22.8503 25.8883 22.8321 25.8822 22.8078C25.87 22.7714 25.8883 22.7349 25.9248 22.7228L25.9431 22.7167C26.0771 22.6681 26.2416 22.6134 26.3086 22.5041C26.3512 22.4312 26.3147 22.328 26.1929 22.1882C26.0284 21.9939 25.8335 21.7327 25.8213 21.4047C25.8213 21.3683 25.8457 21.3379 25.8822 21.3379C25.9188 21.3379 25.9492 21.3622 25.9492 21.3986C25.9614 21.6841 26.138 21.9271 26.2903 22.1032C26.3573 22.1761 26.5279 22.3826 26.4182 22.5709C26.3269 22.7228 26.1259 22.7956 25.9797 22.8442L25.9614 22.8503C25.9553 22.8503 25.9492 22.8503 25.9431 22.8503Z" fill="#925D4F"/>
<path d="M25.1392 23.0205L26.4914 23.3667C26.4914 23.3667 25.3463 24.2778 25.1392 23.0205Z" fill="white"/>
<path d="M24.189 20.7002C24.2438 20.609 24.3291 20.5362 24.4204 20.4815C24.5118 20.4268 24.6215 20.3904 24.7311 20.3722C24.9504 20.3418 25.1879 20.4086 25.3341 20.5604L25.2854 20.6516C25.1879 20.6394 25.0966 20.6273 25.0113 20.6273C24.926 20.6212 24.8407 20.6273 24.7616 20.6333C24.6763 20.6455 24.5971 20.6637 24.5118 20.688C24.4265 20.7123 24.3412 20.7487 24.2499 20.7791L24.189 20.7002Z" fill="#1B1B43"/>
<path d="M26.9056 20.5848C26.8142 20.5666 26.7411 20.5423 26.6619 20.5241C26.5888 20.5059 26.5157 20.4937 26.4487 20.4877C26.3817 20.4816 26.3147 20.4877 26.2477 20.4998C26.1746 20.5119 26.1076 20.5362 26.0162 20.5605L25.9492 20.4816C25.9979 20.3965 26.071 20.3297 26.1624 20.2872C26.2538 20.2386 26.3634 20.2204 26.467 20.2265C26.5705 20.2325 26.668 20.269 26.7472 20.3176C26.8264 20.3662 26.8995 20.4269 26.9604 20.4998L26.9056 20.5848Z" fill="#1B1B43"/>
<path opacity="0.2" d="M24.6239 22.9757C24.9335 22.692 24.954 22.2117 24.6695 21.9029C24.385 21.5942 23.9033 21.5738 23.5937 21.8575C23.284 22.1411 23.2636 22.6214 23.5481 22.9302C23.8325 23.239 24.3142 23.2594 24.6239 22.9757Z" fill="#BE443D"/>
<path opacity="0.2" d="M27.8802 22.7351C27.7888 22.7716 27.6914 22.7959 27.5817 22.7959C27.1919 22.7959 26.8751 22.5043 26.8264 22.1338C26.8264 22.1034 26.8203 22.0731 26.8203 22.0427V22.0245C26.8264 21.6114 27.1675 21.2834 27.5817 21.2834C27.6366 21.2834 27.6914 21.2895 27.7462 21.3017C27.8071 21.8119 27.8619 22.2978 27.8802 22.7351Z" fill="#BE443D"/>
<path d="M22.7698 26.6284C27.1312 32.4716 24.7921 47.0735 23.787 49.7764L17.2875 49.2723L19.3099 38.576L16.0266 34.9255L22.7698 26.6284Z" fill="#FFB147"/>
<path d="M24.1949 38.4179C24.5482 37.3246 23.7624 36.0673 22.4041 34.7371L21.5574 36.5471L24.1949 38.4179Z" fill="#1B1B43"/>
<path d="M22.4043 48.0939C22.3982 48.0939 22.3921 48.0939 22.386 48.0939C22.3495 48.0817 22.3312 48.0453 22.3434 48.0149C23.5677 43.9393 23.7809 38.2844 23.8357 34.3788C23.8357 34.3424 23.8662 34.312 23.9027 34.312C23.9393 34.312 23.9698 34.3424 23.9698 34.3788C23.854 42.5423 23.0621 46.0895 22.4713 48.0514C22.4591 48.0757 22.4347 48.0939 22.4043 48.0939Z" fill="#1B1B43"/>
<path d="M26.3087 34.6946C26.3148 34.2147 26.2539 33.7166 25.9432 33.3583C25.7726 33.1578 25.1452 33.3583 24.8041 33.5223C24.7858 33.5283 25.2183 31.5664 25.0356 31.4207C24.8163 31.2445 24.5848 31.3599 24.4813 31.5664C24.3107 31.9066 24.195 32.3135 24.061 32.6719C23.8599 33.2125 23.6163 33.6741 23.1716 34.0568C22.8183 34.3605 22.4163 34.5427 22.2457 35.0043C22.1178 35.3505 22.1605 35.7028 22.197 36.0612C22.2396 36.456 22.3188 36.8508 22.4772 37.2153C22.5503 37.3853 22.6539 37.5736 22.8366 37.6465C23.0498 37.7376 23.3178 37.6161 23.5249 37.5311C23.9879 37.3489 24.463 37.1849 24.9381 37.0391C25.328 36.9176 25.7239 36.7172 25.9919 36.4013C26.2721 36.0733 26.2599 35.7089 26.2843 35.302C26.2904 35.1137 26.3026 34.9071 26.3087 34.6946ZM22.7452 36.4864C22.7209 36.5228 22.7269 36.5228 22.7452 36.4864V36.4864Z" fill="#D28572"/>
<path d="M25.1756 34.3848C25.1329 34.3848 25.0903 34.3545 25.0781 34.312C25.0659 34.2573 25.0964 34.2087 25.1512 34.1965L26.1319 33.9536C26.1867 33.9414 26.2355 33.9718 26.2476 34.0265C26.2598 34.0811 26.2294 34.1297 26.1746 34.1419L25.1938 34.3788C25.1878 34.3848 25.1817 34.3848 25.1756 34.3848Z" fill="#925D4F"/>
<path d="M25.2366 35.1683C25.194 35.1683 25.1513 35.1379 25.1391 35.0954C25.127 35.0408 25.1574 34.9922 25.2122 34.98L26.1929 34.7431C26.2478 34.731 26.2965 34.7614 26.3087 34.816C26.3209 34.8707 26.2904 34.9193 26.2356 34.9314L25.2549 35.1683C25.2549 35.1683 25.2488 35.1683 25.2366 35.1683Z" fill="#925D4F"/>
<path d="M25.2183 35.9945C25.1757 35.9945 25.133 35.9641 25.1208 35.9216C25.1086 35.8669 25.1391 35.8183 25.1939 35.8062L26.1746 35.5693C26.2295 35.5572 26.2782 35.5875 26.2904 35.6422C26.3026 35.6969 26.2721 35.7455 26.2173 35.7576L25.2366 35.9945C25.2305 35.9945 25.2244 35.9945 25.2183 35.9945Z" fill="#925D4F"/>
<path d="M24.1706 38.3877C23.0559 39.4689 21.8132 40.4468 20.5036 41.2729C19.2427 42.0686 17.7868 42.8825 16.2579 42.9615C13.9005 43.0769 12.8833 40.5805 12.9807 38.5821C13.0843 36.3104 14.2904 34.2271 15.3746 32.2895C16.465 30.3518 18.0122 28.6086 20.0833 27.7036C20.1016 27.6975 20.1137 27.6914 20.132 27.6854L22.7696 26.5435V26.6285C22.7696 27.0355 22.8609 27.4181 23.0254 27.7522L18.8589 36.5412L22.3919 34.7373C22.7147 36.0067 23.3422 37.2155 24.1706 38.3877Z" fill="#FFB147"/>
<path d="M16.5078 37.671C16.4834 37.671 16.4591 37.6588 16.4469 37.6345C16.4286 37.6042 16.4408 37.5617 16.4773 37.5495L22.3129 34.5611C22.3433 34.5429 22.386 34.555 22.3981 34.5915C22.4164 34.6218 22.4042 34.6644 22.3677 34.6765L16.5382 37.6588C16.5261 37.6649 16.52 37.671 16.5078 37.671Z" fill="#1B1B43"/>
<path d="M18.5666 42.3965C18.5483 42.3965 18.5239 42.3844 18.5117 42.3661C18.4935 42.3358 18.4996 42.2932 18.53 42.275L24.1341 38.333C24.1645 38.3148 24.2072 38.3209 24.2255 38.3512C24.2437 38.3816 24.2376 38.4241 24.2072 38.4423L18.6031 42.3844C18.597 42.3904 18.5787 42.3965 18.5666 42.3965Z" fill="#1B1B43"/>
<path d="M18.1097 36.7902C18.1036 36.7902 18.0914 36.7902 18.0853 36.7841C18.0548 36.772 18.0366 36.7294 18.0487 36.6991L19.7178 32.757C19.73 32.7267 19.7726 32.7085 19.8031 32.7206C19.8335 32.7328 19.8518 32.7753 19.8396 32.8056L18.1706 36.7477C18.1584 36.772 18.134 36.7902 18.1097 36.7902Z" fill="#1B1B43"/>
<path d="M23.3178 33.9171C23.2995 33.9171 23.2751 33.905 23.2629 33.8867L21.064 30.6432L22.0751 27.4847C22.0873 27.4483 22.1239 27.4301 22.1543 27.4422C22.1909 27.4544 22.2091 27.4908 22.197 27.5212L21.2041 30.6189L23.3665 33.8078C23.3848 33.8381 23.3787 33.8807 23.3482 33.8989C23.3482 33.9171 23.33 33.9171 23.3178 33.9171Z" fill="#1B1B43"/>
<path d="M50.7472 27.667C50.6741 28.3655 50.0284 28.238 49.7239 28.8029C49.3523 29.4892 48.3411 30.212 47.5432 29.72C47.1168 29.4589 46.8061 29.0276 46.6416 28.5599C46.4102 27.8796 47.0741 26.9199 47.4335 26.4036C47.7807 25.9056 48.6274 25.7537 49.2 25.7476C49.5777 25.7416 50.0162 26.0513 50.2416 26.4158C50.4731 26.7863 50.7959 27.2297 50.7472 27.667Z" fill="#D28572"/>
<path d="M51.0213 27.5882C51.1371 27.8555 50.8264 28.0863 50.4061 28.2624C49.9797 28.4386 49.6021 28.5054 49.4863 28.232C49.3645 27.9405 49.6812 27.734 50.1015 27.5578C50.5279 27.3817 50.8751 27.2359 51.0213 27.5882Z" fill="#D28572"/>
<path d="M50.2098 27.6985C50.7305 27.4792 51.0867 27.1461 51.0056 26.9545C50.9244 26.7629 50.4365 26.7854 49.9159 27.0047C49.3952 27.224 49.039 27.5572 49.1201 27.7488C49.2013 27.9404 49.6892 27.9179 50.2098 27.6985Z" fill="#D28572"/>
<path d="M54.1433 19.0891L53.697 18.8157L48.8245 26.7231L49.2708 26.9966L54.1433 19.0891Z" fill="#1B1B43"/>
<path d="M47.4518 26.5616C47.7747 26.6223 48.0914 26.2518 48.4143 26.3186C48.8894 26.4158 49.2122 26.3733 49.7239 26.1789C50.0041 26.0756 50.394 25.778 50.4061 25.45C50.4061 25.3528 50.3818 25.2435 50.2965 25.1949C50.1747 25.1281 50.0346 25.2253 49.9249 25.3042C49.194 25.7962 48.195 25.3346 47.4153 26.5494L47.4518 26.5616Z" fill="#D28572"/>
<path d="M50.5584 26.3429C50.7229 26.5798 50.4914 26.8531 49.9919 27.2054C49.4924 27.5577 49.2122 27.6549 49.1269 27.3755C49.0721 27.1993 49.0599 26.9442 49.5594 26.5919C50.0528 26.2396 50.3391 26.0331 50.5584 26.3429Z" fill="#D28572"/>
<path d="M48.1827 28.0012C48.1644 28.0012 48.1461 27.9951 48.1339 27.9769C48.1096 27.9466 48.1157 27.9101 48.1461 27.8858C48.5299 27.5821 48.67 27.2055 48.5664 26.7378C48.5603 26.7014 48.5786 26.6649 48.6151 26.6589C48.6517 26.6528 48.6882 26.671 48.6943 26.7075C48.8101 27.2298 48.6578 27.6489 48.2314 27.9891C48.2131 27.9951 48.1948 28.0012 48.1827 28.0012Z" fill="#925D4F"/>
<path d="M49.3643 27.3453C49.2668 27.3453 49.1754 27.3028 49.1206 27.2299C49.0841 27.1813 49.0658 27.1145 49.078 27.0477C49.0902 26.993 49.1206 26.9444 49.1633 26.9141C49.1937 26.8958 49.2364 26.9019 49.2546 26.9323C49.2729 26.9626 49.2668 27.0052 49.2364 27.0234C49.2181 27.0355 49.212 27.0598 49.2059 27.072C49.1998 27.1024 49.2059 27.1327 49.2242 27.1509C49.2546 27.1935 49.3216 27.2178 49.3886 27.2117C49.4739 27.1995 49.7846 27.1084 49.8394 27.072C49.8699 27.0538 49.9125 27.0598 49.9308 27.0902C49.949 27.1206 49.943 27.1631 49.9125 27.1813C49.8333 27.236 49.4922 27.3332 49.4008 27.3453C49.3947 27.3453 49.3765 27.3453 49.3643 27.3453Z" fill="#925D4F"/>
<path d="M49.675 27.8069C49.6141 27.8069 49.5349 27.7947 49.4801 27.734C49.4375 27.6854 49.4192 27.6065 49.4375 27.5336C49.4497 27.485 49.608 27.1813 49.6629 27.1388C49.6933 27.1145 49.7299 27.1205 49.7542 27.1448C49.7786 27.1691 49.7725 27.2116 49.7481 27.2359C49.7177 27.2724 49.5776 27.5214 49.5654 27.57C49.5593 27.6004 49.5654 27.6308 49.5776 27.649C49.6019 27.6733 49.6507 27.6854 49.7238 27.6733C49.9065 27.649 50.0893 27.5882 50.2598 27.5214C50.2964 27.5093 50.3329 27.5275 50.3451 27.5579C50.3573 27.5943 50.339 27.6308 50.3085 27.6429C50.1258 27.7097 49.9431 27.7765 49.742 27.8008C49.7238 27.8069 49.6994 27.8069 49.675 27.8069Z" fill="#925D4F"/>
<path d="M49.9857 28.3657C49.9309 28.3657 49.8699 28.3596 49.809 28.3475C49.7359 28.3353 49.675 28.2928 49.6567 28.2321C49.5836 28.0377 49.8578 27.734 49.9735 27.655C50.004 27.6368 50.0466 27.6429 50.0649 27.6732C50.0831 27.7036 50.077 27.7461 50.0466 27.7644C49.9369 27.8372 49.742 28.0924 49.7786 28.1895C49.7847 28.2017 49.809 28.2138 49.8334 28.2199C49.9674 28.2442 50.0953 28.2381 50.2111 28.1956C50.2476 28.1835 50.2842 28.2017 50.2963 28.2381C50.3085 28.2746 50.2902 28.311 50.2537 28.3232C50.1745 28.3535 50.0831 28.3657 49.9857 28.3657Z" fill="#925D4F"/>
<path d="M32.4367 33.4799L35.5737 35.3264C38.6194 37.106 41.6346 36.8813 44.4123 34.2756L48.725 30.206L46.0753 27.3755C44.1991 29.1552 40.5869 32.6842 37.5595 30.6251L34.2336 28.1955C32.9301 27.3208 31.456 26.7195 29.9088 26.434L26.8326 25.9238C26.4671 30.7223 28.124 41.9288 30.1037 48.3915L35.7199 46.2535C34.8306 43.3562 33.2956 36.9846 32.4367 33.4799Z" fill="#FFB147"/>
<path d="M33.2164 36.9845C33.186 36.9845 33.1616 36.9663 33.1555 36.9359L31.8459 30.8741C31.8398 30.8376 31.8581 30.8012 31.8946 30.7951C31.9312 30.789 31.9677 30.8072 31.9738 30.8437L33.2834 36.9055C33.2895 36.942 33.2713 36.9784 33.2347 36.9845C33.2225 36.9845 33.2225 36.9845 33.2164 36.9845Z" fill="#1B1B43"/>
<path d="M31.0234 46.6241C30.993 46.6241 30.9625 46.5998 30.9564 46.5694L28.4407 32.9819L29.397 30.3397L27.3199 26.5374C27.3016 26.507 27.3138 26.4645 27.3442 26.4463C27.3747 26.4281 27.4173 26.4402 27.4356 26.4706L29.5432 30.3215L28.5808 32.9819L31.0904 46.5391C31.0965 46.5755 31.0721 46.6059 31.0356 46.618C31.0295 46.6241 31.0234 46.6241 31.0234 46.6241Z" fill="#1B1B43"/>
<path d="M47.4702 30.4428C47.452 30.4428 47.4337 30.4367 47.4215 30.4245L45.5454 28.4687C45.521 28.4444 45.521 28.4019 45.5454 28.3776C45.5697 28.3533 45.6124 28.3533 45.6367 28.3776L47.5129 30.3334C47.5373 30.3577 47.5373 30.4002 47.5129 30.4245C47.5068 30.4367 47.4885 30.4428 47.4702 30.4428Z" fill="#1B1B43"/>
<path d="M22.8854 38.2236C22.8732 38.2236 22.8549 38.2175 22.8428 38.2115C22.1788 37.6891 21.7402 36.8691 21.5088 35.6968C21.5027 35.6604 21.527 35.63 21.5575 35.6179C21.594 35.6118 21.6245 35.6361 21.6367 35.6665C21.8621 36.8084 22.2824 37.6041 22.9219 38.1082C22.9524 38.1325 22.9524 38.169 22.9341 38.1993C22.9219 38.2115 22.9037 38.2236 22.8854 38.2236Z" fill="#1B1B43"/>
<path d="M25.8275 53.676C25.8214 53.676 25.8214 53.676 25.8153 53.676C25.7787 53.6699 25.7544 53.6335 25.7605 53.597L26.4792 49.8129C26.4853 49.7765 26.5219 49.7522 26.5584 49.7583C26.595 49.7643 26.6193 49.8008 26.6132 49.8372L25.8884 53.6213C25.8823 53.6578 25.8579 53.676 25.8275 53.676Z" fill="#1B1B43"/>
<path d="M92.339 56.0994H91.7847V85.3092H92.339V56.0994Z" fill="#1B1B43"/>
<path d="M114.542 56.0994H113.988V85.3092H114.542V56.0994Z" fill="#1B1B43"/>
<path d="M124.1 56.0022H83.9148V57.6361H124.1V56.0022Z" fill="white"/>
<path d="M124.16 57.7333H83.8538V55.905H124.16V57.7333ZM83.9756 57.5329H124.039V56.0994H83.9756V57.5329Z" fill="#1B1B43"/>
<path d="M116.954 26.4642C116.954 23.9496 114.914 21.9148 112.392 21.9148C109.87 21.9148 107.829 23.9496 107.829 26.4642C107.829 28.584 109.285 30.3576 111.247 30.8618L110.759 32.5989L112.398 31.0076C114.908 31.0136 116.954 28.9788 116.954 26.4642Z" fill="#018543" fill-opacity="0.43"/>
<path d="M110.625 26.847C110.888 26.847 111.1 26.6348 111.1 26.3732C111.1 26.1115 110.888 25.8994 110.625 25.8994C110.363 25.8994 110.15 26.1115 110.15 26.3732C110.15 26.6348 110.363 26.847 110.625 26.847Z" fill="white"/>
<path d="M112.392 26.847C112.654 26.847 112.867 26.6348 112.867 26.3732C112.867 26.1115 112.654 25.8994 112.392 25.8994C112.129 25.8994 111.917 26.1115 111.917 26.3732C111.917 26.6348 112.129 26.847 112.392 26.847Z" fill="white"/>
<path d="M114.152 26.847C114.415 26.847 114.627 26.6348 114.627 26.3732C114.627 26.1115 114.415 25.8994 114.152 25.8994C113.89 25.8994 113.677 26.1115 113.677 26.3732C113.677 26.6348 113.89 26.847 114.152 26.847Z" fill="white"/>
<path d="M135.058 28.815L133.669 28.0011C133.858 27.5031 133.961 26.9686 133.961 26.4037C133.961 23.889 131.921 21.8542 129.399 21.8542C126.877 21.8542 124.836 23.889 124.836 26.4037C124.836 28.9183 126.877 30.9531 129.399 30.9531C130.964 30.9531 132.347 30.1635 133.169 28.9608L135.058 28.815Z" fill="#018543" fill-opacity="0.43"/>
<path d="M127.675 26.7498C127.937 26.7498 128.15 26.5377 128.15 26.276C128.15 26.0144 127.937 25.8022 127.675 25.8022C127.413 25.8022 127.2 26.0144 127.2 26.276C127.2 26.5377 127.413 26.7498 127.675 26.7498Z" fill="white"/>
<path d="M129.442 26.7498C129.704 26.7498 129.917 26.5377 129.917 26.276C129.917 26.0144 129.704 25.8022 129.442 25.8022C129.179 25.8022 128.967 26.0144 128.967 26.276C128.967 26.5377 129.179 26.7498 129.442 26.7498Z" fill="white"/>
<path d="M131.208 26.7498C131.47 26.7498 131.683 26.5377 131.683 26.276C131.683 26.0144 131.47 25.8022 131.208 25.8022C130.946 25.8022 130.733 26.0144 130.733 26.276C130.733 26.5377 130.946 26.7498 131.208 26.7498Z" fill="white"/>
<path d="M103.383 85.4246H0.0974619C0.0426396 85.4246 0 85.3821 0 85.3274C0 85.2727 0.0426396 85.2302 0.0974619 85.2302H103.383C103.438 85.2302 103.48 85.2727 103.48 85.3274C103.48 85.3821 103.438 85.4246 103.383 85.4246Z" fill="#1B1B43"/>
<path d="M167.214 85.4548H107.762C107.689 85.4548 107.635 85.3941 107.635 85.3273C107.635 85.2605 107.695 85.1997 107.762 85.1997H167.214C167.287 85.1997 167.342 85.2605 167.342 85.3273C167.342 85.3941 167.287 85.4548 167.214 85.4548Z" fill="#1B1B43"/>
</g>
<defs>
<clipPath id="clip0_406_12546">
<rect width="168" height="88" fill="white"/>
</clipPath>
</defs>
</svg>
