<svg width="16" height="16" viewBox="0 0 16 16" fill="none" xmlns="http://www.w3.org/2000/svg">
<path d="M8 16C12.4183 16 16 12.4183 16 8C16 3.58172 12.4183 0 8 0C3.58172 0 0 3.58172 0 8C0 12.4183 3.58172 16 8 16Z" fill="#F0F0F0"/>
<path d="M1.65355 3.12948C1.02514 3.94707 0.551297 4.88942 0.275391 5.91314H4.4372L1.65355 3.12948ZM15.7242 5.91314C15.4483 4.88945 14.9744 3.9471 14.346 3.12951L11.5625 5.91314H15.7242ZM0.275391 10.087C0.551328 11.1107 1.02517 12.0531 1.65355 12.8706L4.43711 10.087H0.275391ZM12.8704 1.65382C12.0528 1.02542 11.1105 0.551572 10.0867 0.275635V4.43742L12.8704 1.65382ZM3.12923 14.3463C3.94683 14.9747 4.88917 15.4485 5.91286 15.7244V11.5627L3.12923 14.3463ZM5.91283 0.275635C4.88914 0.551572 3.9468 1.02542 3.12923 1.65379L5.91283 4.43739V0.275635ZM10.0868 15.7244C11.1105 15.4485 12.0528 14.9747 12.8704 14.3463L10.0868 11.5627V15.7244ZM11.5625 10.087L14.346 12.8707C14.9744 12.0531 15.4483 11.1107 15.7242 10.087H11.5625Z" fill="#0052B4"/>
<path d="M15.9323 6.95653H9.0435V0.0677188C8.69749 0.0226377 8.34893 1.73815e-05 8 0C7.64628 0 7.29809 0.02325 6.95653 0.0677188V6.9565H0.0677188C0.0226377 7.30251 1.73815e-05 7.65107 0 8C0 8.35372 0.02325 8.70191 0.0677188 9.04347H6.9565V15.9323C7.64923 16.0226 8.35074 16.0226 9.04347 15.9323V9.0435H15.9323C15.9774 8.69749 16 8.34893 16 8C16 7.64634 15.9768 7.29809 15.9323 6.95653Z" fill="#D80027"/>
<path d="M10.0871 10.0871L13.657 13.657C13.8211 13.4927 13.978 13.3213 14.1272 13.1434L11.0709 10.0871H10.0871V10.0871ZM5.91317 10.0871H5.91311L2.34327 13.657C2.50757 13.8211 2.67893 13.978 2.85686 14.1272L5.91317 11.0708V10.0871ZM5.91317 5.9132V5.91314L2.3433 2.34323C2.17918 2.50754 2.02229 2.6789 1.87305 2.85683L4.92939 5.91317H5.91317V5.9132ZM10.0871 5.9132L13.657 2.34327C13.4927 2.17916 13.3214 2.02227 13.1434 1.87305L10.0871 4.92939V5.9132Z" fill="#D80027"/>
</svg>
