<svg width="32" height="31" viewBox="0 0 32 31" fill="none" xmlns="http://www.w3.org/2000/svg">
<path d="M13.1262 15.6587H15.0014V17.5339H13.1262V15.6587ZM1.89956 13.777H17.835C18.1687 8.68203 23.1501 5.14916 28.1274 6.61247V5.34535C28.1274 4.82753 27.7077 4.40778 27.1899 4.40778H18.7532V1.59503C18.7532 1.07722 18.3334 0.657471 17.8156 0.657471H10.3119C9.79406 0.657471 9.37431 1.07722 9.37431 1.59503V4.40778H0.937562C0.41975 4.40778 0 4.82753 0 5.34535V12.1607C0.148 13.0758 0.943312 13.777 1.89956 13.777ZM11.2494 2.5326H16.8781V4.40778H11.2494V2.5326Z" fill="#018543"/>
<path d="M21.7832 21.2459C19.7989 20.0798 18.3287 18.067 17.9273 15.6521H16.8766V18.4714C16.8766 18.9892 16.4568 19.409 15.939 19.409H12.1887C11.6709 19.409 11.2511 18.9892 11.2511 18.4714V15.6521H1.89956C1.23234 15.6527 0.576899 15.4763 0 15.1411L0 27.441C0 27.9588 0.41975 28.3786 0.937563 28.3786H21.819C21.7542 27.8851 21.7962 28.1921 21.7832 21.2459ZM30.1996 9.96131C27.799 7.56075 23.8931 7.56075 21.4926 9.96131C18.3326 13.1212 19.5043 18.495 23.6584 20.0677V22.2249H28.0338V20.0677C32.1864 18.4956 33.3598 13.1216 30.1996 9.96131ZM25.8461 18.5936C25.846 18.5936 25.8461 18.5936 25.8461 18.5936C23.4762 18.5936 21.5672 16.6854 21.5672 14.3149C21.5672 11.9449 23.4755 10.0361 25.846 10.0361C28.2159 10.0361 30.1248 11.9444 30.1248 14.3149C30.1248 16.6846 28.2166 18.5936 25.8461 18.5936ZM23.6583 27.8473C23.6583 29.0536 24.6398 30.035 25.846 30.035C27.0523 30.035 28.0337 29.0536 28.0337 27.8473V24.1001H23.6583V27.8473Z" fill="#018543"/>
</svg>
