<svg width="30" height="31" viewBox="0 0 30 31" fill="none" xmlns="http://www.w3.org/2000/svg">
<path d="M27.3279 10.9546C27.3279 10.4692 27.7215 10.0757 28.2069 10.0757H29.1211C29.6065 10.0757 30 10.4692 30 10.9546C30 11.44 29.6065 11.8335 29.1211 11.8335H28.2069C27.7215 11.8335 27.3279 11.44 27.3279 10.9546ZM26.8699 3.89943C26.0789 3.89943 25.6848 2.92378 26.2703 2.37775L26.9389 1.75419C27.294 1.4232 27.8501 1.44265 28.1811 1.79755C28.5122 2.15257 28.4927 2.70868 28.1378 3.03974C27.5975 3.48071 27.4062 3.89943 26.8699 3.89943ZM27.4692 18.1229L28.1378 18.7464C28.4928 19.0774 28.5122 19.6336 28.1812 19.9886C27.85 20.3436 27.294 20.363 26.9389 20.032L26.2703 19.4085C25.9153 19.0774 25.8959 18.5213 26.2269 18.1663C26.558 17.8113 27.1141 17.7918 27.4692 18.1229ZM0.878906 9.95269H1.79314C2.27854 9.95269 2.67205 10.3462 2.67205 10.8316C2.67205 11.317 2.27854 11.7105 1.79314 11.7105H0.878906C0.393517 11.7105 0 11.317 0 10.8316C0 10.3462 0.393517 9.95269 0.878906 9.95269ZM2.53084 18.1229C2.88586 17.7919 3.44197 17.8113 3.77309 18.1663C4.10408 18.5213 4.08469 19.0774 3.72967 19.4085L3.06105 20.032C2.70527 20.3637 2.14922 20.3428 1.81881 19.9886C1.48781 19.6335 1.50721 19.0774 1.86223 18.7464L2.53084 18.1229ZM2.53084 3.66329L1.86223 3.0398C1.50721 2.70874 1.48781 2.15257 1.81887 1.79761C2.14992 1.44265 2.70609 1.42314 3.06105 1.75425L3.72967 2.37775C4.08469 2.7088 4.10408 3.26497 3.77303 3.61993C3.44191 3.97495 2.88574 3.99429 2.53084 3.66329ZM19.9805 24.1645C19.9805 25.2578 19.311 26.1974 18.3607 26.5962H11.6393C10.689 26.1974 10.0195 25.2578 10.0195 24.1645V22.9048H19.9805V24.1645ZM18.2227 29.4673C18.2227 29.9524 17.8289 30.3462 17.3438 30.3462H12.6562C12.1711 30.3462 11.7773 29.9524 11.7773 29.4673V28.354H18.2227V29.4673ZM4.83117 10.8931C2.33033 8.34019 3.77531 4.03448 7.27494 3.47708C8.1535 0.556125 11.6835 -0.60661 14.1211 1.22726V21.4692H11.4844C9.50045 21.4692 7.80768 20.1662 7.26621 18.3076C3.78563 17.7462 2.32564 13.4507 4.83117 10.8931ZM12.3633 5.67822C12.3633 5.19282 11.9698 4.79931 11.4844 4.79931C10.999 4.79931 10.6055 5.19282 10.6055 5.67822C10.6055 6.57827 10.2643 6.74316 9.58459 7.07157C8.94111 7.38247 7.96875 7.85228 7.96875 9.19384C7.96875 9.67923 8.36227 10.0727 8.84766 10.0727C9.33305 10.0727 9.72656 9.67923 9.72656 9.19384C9.72656 9.00101 9.72656 8.95519 10.3493 8.65431C11.1025 8.29038 12.3633 7.68124 12.3633 5.67822ZM7.15014 13.9702C8.16199 15.3723 9.7251 15.9542 10.1702 15.9542C10.5526 15.9542 10.9044 15.7027 11.0148 15.3167C11.1483 14.85 10.8781 14.3635 10.4114 14.23C9.68484 14.0223 9.02812 13.5686 8.57555 12.9415C8.29148 12.5479 7.74211 12.4591 7.34854 12.7431C6.9549 13.0272 6.86607 13.5765 7.15014 13.9702ZM15.8789 21.4692V1.22726C18.3163 -0.606551 21.8464 0.556007 22.725 3.47708C26.2266 4.03484 27.6686 8.3413 25.1688 10.8931C27.6752 13.4516 26.2127 17.7465 22.7337 18.3076C22.1905 20.1723 20.4942 21.4692 18.5156 21.4692H15.8789ZM20.4154 7.07157C19.7357 6.74316 19.3945 6.57833 19.3945 5.67822C19.3945 5.19282 19.001 4.79931 18.5156 4.79931C18.0302 4.79931 17.6367 5.19282 17.6367 5.67822C17.6367 7.68124 18.8975 8.29038 19.6507 8.65431C20.2734 8.95519 20.2734 9.00101 20.2734 9.19384C20.2734 9.67923 20.667 10.0727 21.1523 10.0727C21.6377 10.0727 22.0312 9.67923 22.0312 9.19384C22.0312 7.85228 21.0589 7.38247 20.4154 7.07157ZM18.9852 15.3167C19.0955 15.7026 19.4474 15.9542 19.8298 15.9542C20.2884 15.9542 21.7494 15.3769 22.7223 14.1394C23.0224 13.7578 22.9562 13.2053 22.5746 12.9053C22.193 12.6052 21.6405 12.6714 21.3405 13.0529C20.9027 13.6097 20.286 14.0306 19.5886 14.23C19.1218 14.3635 18.8517 14.85 18.9852 15.3167Z" fill="#018543"/>
</svg>
