<svg width="30" height="31" viewBox="0 0 30 31" fill="none" xmlns="http://www.w3.org/2000/svg">
<path d="M17.6367 0.866699V5.61965H22.2863L17.6367 0.866699Z" fill="#018543"/>
<path d="M11.4551 7.43896C11.9405 7.43896 12.334 7.04547 12.334 6.56006C12.334 6.07465 11.9405 5.68115 11.4551 5.68115C10.9697 5.68115 10.5762 6.07465 10.5762 6.56006C10.5762 7.04547 10.9697 7.43896 11.4551 7.43896Z" fill="#018543"/>
<path d="M12.4189 26.769H7.08838C6.60299 26.769 6.20947 26.3755 6.20947 25.8901C6.20947 25.4047 6.60299 25.0112 7.08838 25.0112H12.4189V23.2563H7.08838C6.60299 23.2563 6.20947 22.8628 6.20947 22.3774C6.20947 21.8921 6.60299 21.4985 7.08838 21.4985H12.4189V19.7993H7.08838C6.60299 19.7993 6.20947 19.4058 6.20947 18.9204C6.20947 18.435 6.60299 18.0415 7.08838 18.0415H12.5701C12.9329 17.0185 13.9099 16.2837 15.0557 16.2837H15.8924C16.0311 14.3237 17.6689 12.771 19.6637 12.771H22.9102V7.37744H16.7578C16.2724 7.37744 15.8789 6.98393 15.8789 6.49854V0.346191H0.878906C0.393516 0.346191 0 0.739707 0 1.2251V29.4673C0 29.9527 0.393516 30.3462 0.878906 30.3462H13.3003C12.1376 28.8009 12.4802 27.2994 12.4189 26.769ZM11.4551 3.92334C12.909 3.92334 14.0918 5.10617 14.0918 6.56006C14.0918 8.01395 12.909 9.19678 11.4551 9.19678C10.0012 9.19678 8.81836 8.01395 8.81836 6.56006C8.81836 5.10617 10.0012 3.92334 11.4551 3.92334ZM11.4551 9.22461C13.8782 9.22461 15.8496 11.196 15.8496 13.6191C15.8496 14.1045 15.4561 14.498 14.9707 14.498H7.93945C7.45406 14.498 7.06055 14.1045 7.06055 13.6191C7.06055 11.196 9.03193 9.22461 11.4551 9.22461ZM4.41475 26.7661C3.93094 26.7661 3.53877 26.3739 3.53877 25.8901C3.53877 25.4063 3.93094 25.0142 4.41475 25.0142C4.89855 25.0142 5.29072 25.4063 5.29072 25.8901C5.29072 26.3739 4.8985 26.7661 4.41475 26.7661ZM4.41475 23.2534C3.93094 23.2534 3.53877 22.8612 3.53877 22.3774C3.53877 21.8936 3.93094 21.5015 4.41475 21.5015C4.89855 21.5015 5.29072 21.8936 5.29072 22.3774C5.29072 22.8612 4.8985 23.2534 4.41475 23.2534ZM4.41475 19.7378C3.93094 19.7378 3.53877 19.3456 3.53877 18.8618C3.53877 18.378 3.93094 17.9858 4.41475 17.9858C4.89855 17.9858 5.29072 18.378 5.29072 18.8618C5.29072 19.3456 4.8985 19.7378 4.41475 19.7378Z" fill="#018543"/>
<path d="M8.96875 12.7403H13.941C13.1124 10.4033 9.79809 10.4013 8.96875 12.7403ZM22.9539 25.0699C22.9539 25.5553 22.5604 25.9488 22.075 25.9488C21.5896 25.9488 21.1961 25.5553 21.1961 25.0699V24.9647L14.1766 24.0872V27.7095C14.1766 29.1634 15.3594 30.3463 16.8133 30.3463H27.3631C28.817 30.3463 29.9998 29.1634 29.9998 27.7095V24.0875L22.9539 24.969V25.0699ZM29.1209 18.0416H26.4254C26.4316 17.952 26.4267 18.1123 26.4285 16.5797C26.4285 15.4489 25.5085 14.5289 24.3777 14.5289H19.6635C18.5474 14.5289 17.6395 15.4369 17.6395 16.553C17.6413 18.1095 17.6362 17.9508 17.6426 18.0416H15.0555C14.5701 18.0416 14.1766 18.4351 14.1766 18.9205V22.3158L21.2045 23.1942C21.2609 22.7632 21.6287 22.4302 22.075 22.4302C22.5228 22.4302 22.8916 22.7654 22.9462 23.1984L29.9998 22.316V18.9205C29.9998 18.4351 29.6063 18.0416 29.1209 18.0416ZM19.3942 18.0416C19.4005 17.9508 19.3954 18.1095 19.3973 16.553C19.3973 16.4824 19.4254 16.4147 19.4753 16.3648C19.5252 16.3149 19.5929 16.2868 19.6635 16.2867H24.3777C24.5393 16.2867 24.6707 16.4181 24.6707 16.5797C24.6725 18.1092 24.6675 17.9513 24.6738 18.0416H19.3942Z" fill="#018543"/>
</svg>
