<svg width="198" height="198" viewBox="0 0 198 198" fill="none" xmlns="http://www.w3.org/2000/svg">
<g clip-path="url(#clip0_344_17516)">
<path opacity="0.5" d="M79.021 196.855C79.021 196.855 11.6593 193.926 7.83564 134.705C4.01882 75.4837 -13.6623 19.1293 29.3336 15.7675C72.3295 12.4056 173.135 5.86746 187.467 41.15C201.799 76.4393 208.965 209.278 79.021 196.855Z" fill="url(#paint0_linear_344_17516)"/>
<path d="M213.545 173.285L30.9707 171.711V176.379C30.9707 177.644 31.7685 178.723 32.8482 178.916L84.4749 188.101C85.087 188.211 85.7059 188.238 86.3249 188.19L211.558 177.713C212.679 177.617 213.538 176.537 213.538 175.238V173.285H213.545Z" fill="#BFC8D6"/>
<path d="M146.362 165.804L30.3243 174.343C28.2474 174.494 26.5625 172.872 26.5625 170.713V84.3288C26.5625 82.1701 28.2474 80.4238 30.3243 80.4238H146.362C148.075 80.4238 149.457 82.0051 149.457 83.9507V162.044C149.457 163.996 148.075 165.674 146.362 165.804Z" fill="#BFC8D6"/>
<path d="M148.212 165.804L32.1739 174.343C30.097 174.494 28.4121 172.872 28.4121 170.713V84.3288C28.4121 82.1701 30.097 80.4238 32.1739 80.4238H148.212C149.924 80.4238 151.307 82.0051 151.307 83.9507V162.044C151.307 163.996 149.924 165.674 148.212 165.804Z" fill="white"/>
<path d="M144.596 160.297L36.5213 167.716C34.8295 167.832 33.4609 166.499 33.4609 164.739V89.1068C33.4609 87.3468 34.8364 85.9168 36.5213 85.9031L144.603 85.4356C146.012 85.4287 147.154 86.7212 147.154 88.33V157.217C147.147 158.819 146.005 160.201 144.596 160.297Z" fill="#D8DEE8"/>
<path d="M94.2885 82.7885C94.2885 83.5929 93.6902 84.246 92.9543 84.246C92.2185 84.246 91.6133 83.5998 91.6133 82.7954C91.6133 81.991 92.2116 81.3379 92.9543 81.3379C93.6902 81.3379 94.2885 81.9841 94.2885 82.7885Z" fill="white"/>
<path opacity="0.48" d="M32.1739 174.343L147.628 165.846L148.212 165.804C148.996 165.749 149.711 165.358 150.255 164.773C141.947 164.319 136.789 161.37 133.461 158.324C126.776 152.206 127.938 146.176 120.724 142.154C111.736 137.136 104.666 143.495 97.837 137.225C93.7038 133.423 95.7325 130.591 90.6435 124.905C85.0042 118.614 81.3387 120.725 75.6719 115.067C68.5059 107.903 72.0889 102.334 65.9201 97.1919C58.4309 90.9563 50.364 96.7245 43.2324 90.7432C40.1583 88.1651 38.4734 84.4113 37.5931 80.4238H32.1739C30.097 80.4238 28.4121 82.1701 28.4121 84.3288V170.713C28.4053 172.872 30.097 174.494 32.1739 174.343Z" fill="white"/>
<path d="M153.681 165.33L30.9785 174.316L84.4759 183.844C85.0879 183.954 85.7069 183.982 86.3258 183.934L213.546 173.284L155.627 165.392C154.98 165.302 154.327 165.282 153.681 165.33Z" fill="url(#paint1_linear_344_17516)"/>
<path d="M48.8789 174.391L151.032 166.801L182.646 171.07L81.3734 179.19L48.8789 174.391Z" fill="#D8DEE8"/>
<path d="M161.546 31.2381C161.546 31.6369 161.56 32.0356 161.519 32.4275C161.498 32.5994 161.498 32.7644 161.471 32.9294C161.416 33.2594 161.361 33.5894 161.278 33.9125C161.237 34.0706 161.196 34.2356 161.154 34.3938C161.12 34.4969 161.092 34.6069 161.058 34.71C160.24 37.1644 158.568 39.2956 156.34 40.8838C156.292 40.9181 156.244 40.9525 156.196 40.9869C155.432 41.5231 154.6 41.9906 153.72 42.3894C153.665 42.4169 153.61 42.4375 153.555 42.465C153.17 42.6369 152.771 42.795 152.358 42.9325C152.186 42.9944 152.008 43.0494 151.829 43.1044C151.712 43.1456 151.595 43.18 151.471 43.2144C151.292 43.2694 151.114 43.3175 150.928 43.3588C150.804 43.3863 150.687 43.4206 150.563 43.4481C149.03 43.7988 147.4 43.9569 145.722 43.8813C145.598 43.8744 145.474 43.8675 145.351 43.8606C145.316 43.8606 145.275 43.8538 145.247 43.8538C145.241 43.8538 145.227 43.8538 145.22 43.8538C145.144 43.8469 145.062 43.8469 144.986 43.8331C144.945 43.8263 144.91 43.8263 144.869 43.8263C144.787 43.8194 144.697 43.8125 144.615 43.7987C144.58 43.7919 144.539 43.7919 144.505 43.785C144.415 43.7781 144.333 43.7644 144.243 43.7575C144.209 43.7506 144.181 43.7506 144.147 43.7437C144.058 43.73 143.961 43.7163 143.865 43.7025C143.844 43.6956 143.817 43.6956 143.796 43.6888C143.693 43.675 143.59 43.6613 143.494 43.6406C143.48 43.6406 143.466 43.4963 143.453 43.4963C143.336 43.4756 143.226 43.2969 143.109 43.2969C142.153 43.2969 141.231 42.9944 140.358 42.6713C140.358 42.6713 140.358 42.74 140.365 42.74C140.09 42.6369 139.821 42.5681 139.553 42.4513C139.319 42.3481 139.086 42.2587 138.859 42.1488C138.749 42.2381 138.618 42.3413 138.473 42.4375C136.644 41.6538 135.035 40.5744 133.728 39.275C133.88 39.0688 134.031 38.8556 134.161 38.6288C132.277 36.4838 131.17 33.8438 131.17 31.0319C131.17 24.2875 137.531 18.6294 145.715 18.3819C145.983 18.375 146.176 18.375 146.437 18.375C154.463 18.4781 161.202 23.8063 161.45 30.6675V30.6744C161.45 30.7638 161.45 30.8463 161.45 30.9356V30.9769C161.464 31.0594 161.546 31.1488 161.546 31.2381Z" fill="url(#paint2_linear_344_17516)"/>
<path d="M160.536 31.1908C160.536 38.3889 153.569 43.9508 145.227 43.8476C145.035 43.8476 144.842 43.8408 144.643 43.8339C144.464 43.827 144.292 43.8133 144.113 43.7995C143.935 43.7858 143.756 43.772 143.577 43.7514C143.543 43.7445 143.501 43.7445 143.467 43.7376C143.35 43.7239 143.24 43.7101 143.123 43.6964C143.013 43.6826 142.903 43.6689 142.786 43.6483C142.628 43.6276 142.463 43.6001 142.305 43.5726C142.208 43.552 142.112 43.5383 142.016 43.5176C141.06 43.332 140.138 43.0776 139.265 42.7476C138.997 42.6445 138.735 42.5414 138.474 42.4314C136.645 41.6476 135.036 40.5614 133.729 39.2689C131.446 37.007 130.084 34.0989 130.084 30.9776C130.084 24.2333 136.445 18.5751 144.629 18.3276C145.269 18.307 145.895 18.3208 146.513 18.3689C153.171 18.8501 158.72 22.9339 160.158 28.3926C160.192 28.5301 160.227 28.6676 160.261 28.8051C160.268 28.8533 160.282 28.8945 160.288 28.9426C160.309 29.0526 160.337 29.1626 160.357 29.2726C160.385 29.4376 160.412 29.6026 160.433 29.7676V29.7745C160.44 29.8364 160.447 29.8983 160.453 29.9601C160.46 30.0358 160.474 30.1183 160.481 30.1939C160.488 30.2833 160.495 30.3658 160.502 30.4551C160.502 30.4826 160.508 30.5101 160.508 30.5376C160.515 30.6408 160.515 30.737 160.522 30.8401C160.529 30.9639 160.536 31.0808 160.536 31.1908Z" fill="url(#paint3_linear_344_17516)"/>
<path d="M160.536 31.1908C160.536 38.3889 153.569 43.9508 145.227 43.8476C145.035 43.8476 144.842 43.8408 144.643 43.8339C144.464 43.827 144.292 43.8133 144.113 43.7995C143.935 43.7858 143.756 43.772 143.577 43.7514C143.543 43.7445 143.501 43.7445 143.467 43.7376C143.35 43.7239 143.24 43.7101 143.123 43.6964C143.013 43.6826 142.903 43.6689 142.786 43.6483C142.628 43.6276 142.463 43.6001 142.305 43.5726C142.208 43.552 142.112 43.5383 142.016 43.5176C141.06 43.332 140.138 43.0776 139.265 42.7476C138.997 42.6445 138.735 42.5414 138.474 42.4314C136.645 41.6476 135.036 40.5614 133.729 39.2689C131.446 37.007 130.084 34.0989 130.084 30.9776C130.084 24.2333 136.445 18.5751 144.629 18.3276C145.269 18.307 145.895 18.3208 146.513 18.3689C153.171 18.8501 158.72 22.9339 160.158 28.3926C160.192 28.5301 160.227 28.6676 160.261 28.8051C160.268 28.8533 160.282 28.8945 160.288 28.9426C160.309 29.0526 160.337 29.1626 160.357 29.2726C160.385 29.4376 160.412 29.6026 160.433 29.7676V29.7745C160.44 29.8364 160.447 29.8983 160.453 29.9601C160.46 30.0358 160.474 30.1183 160.481 30.1939C160.488 30.2833 160.495 30.3658 160.502 30.4551C160.502 30.4826 160.508 30.5101 160.508 30.5376C160.515 30.6408 160.515 30.737 160.522 30.8401C160.529 30.9639 160.536 31.0808 160.536 31.1908Z" fill="url(#paint4_linear_344_17516)"/>
<path d="M136.295 27.6705C136.914 25.9174 138.447 24.6524 140.263 24.6317C142.663 24.6042 144.63 26.7424 144.63 29.403C144.63 26.7355 146.624 24.5561 149.114 24.5217C151.046 24.5011 152.717 25.7799 153.398 27.6086C155.998 34.2292 144.63 40.0317 144.63 40.0317C144.63 40.0317 133.977 33.8924 136.295 27.6705Z" fill="white"/>
<g opacity="0.3">
<path d="M140.992 40.4587C142.794 36.7737 140.971 33.2537 143.413 30.8612C145.93 28.393 149.258 30.7237 152.91 28.6818C154.34 27.8843 155.95 26.3374 157.153 23.1543C159.264 25.3612 160.53 28.1524 160.53 31.1912C160.53 38.5612 153.233 44.2124 144.637 43.8274C142.725 43.7449 140.916 43.3668 139.266 42.7549C140.084 42.0055 140.62 41.208 140.992 40.4587Z" fill="url(#paint5_linear_344_17516)"/>
</g>
<path d="M171.03 61.2991C171.037 61.3472 171.037 61.3953 171.044 61.4434C171.044 61.4847 171.051 61.5191 171.051 61.5603C171.058 61.6153 171.058 61.6703 171.058 61.7322C171.058 61.7666 171.058 61.7941 171.064 61.8284C171.064 61.9178 171.071 62.0072 171.071 62.0966C171.071 62.4884 171.044 62.8734 170.996 63.2516C170.906 63.9184 170.748 64.5647 170.514 65.1972C170.48 65.2866 170.446 65.3759 170.411 65.4653C170.267 65.8228 170.102 66.1666 169.916 66.5103C169.496 67.2734 168.974 68.0022 168.362 68.6691C168.224 68.8203 168.087 68.9647 167.942 69.1091C167.798 69.2534 167.647 69.3978 167.495 69.5353C166.883 70.0922 166.202 70.6009 165.466 71.0547C165.377 71.1097 165.281 71.1647 165.191 71.2266C165.006 71.3366 164.813 71.4466 164.621 71.5497C163.94 71.9141 163.225 72.2372 162.475 72.5122C162.262 72.5878 162.042 72.6634 161.822 72.7322C161.602 72.8009 161.381 72.8697 161.154 72.9316C160.928 72.9934 160.701 73.0553 160.474 73.1034C159.215 73.3991 157.888 73.5641 156.519 73.5847C156.402 73.5847 156.285 73.5847 156.169 73.5847C156.134 73.5847 156.093 73.5847 156.059 73.5847C155.976 73.5847 155.9 73.5847 155.818 73.5778C155.777 73.5778 155.735 73.5778 155.687 73.5709C155.612 73.5709 155.543 73.5641 155.467 73.5641C155.426 73.5641 155.378 73.5572 155.336 73.5572C155.261 73.5503 155.192 73.5503 155.116 73.5434C155.075 73.5434 155.034 73.5366 154.993 73.5366C154.917 73.5297 154.848 73.5228 154.772 73.5228C154.731 73.5228 154.697 73.5159 154.656 73.5159C154.58 73.5091 154.504 73.5022 154.429 73.4953C154.394 73.4884 154.36 73.4884 154.319 73.4816C154.236 73.4747 154.154 73.4609 154.078 73.4541C154.05 73.4472 154.016 73.4472 153.989 73.4403C153.899 73.4266 153.81 73.4197 153.72 73.4059C153.7 73.4059 153.679 73.3991 153.658 73.3991C153.555 73.3853 153.452 73.3716 153.349 73.3509C153.342 73.3509 153.335 73.3509 153.328 73.3509C152.675 73.2409 152.042 73.1034 151.43 72.9247C146.197 71.4259 142.545 67.5484 142.545 62.9422C142.545 56.9609 148.727 51.8253 156.512 51.4747C164.029 51.1309 170.322 55.3453 171.003 61.0653C171.009 61.0997 171.009 61.1409 171.016 61.1753C171.023 61.2097 171.023 61.2509 171.03 61.2991Z" fill="url(#paint6_linear_344_17516)"/>
<path d="M141.617 62.9344C141.617 68.9157 147.662 73.68 155.282 73.5769C163.074 73.4669 169.518 68.3244 169.518 62.0888C169.518 55.8532 163.074 51.1025 155.282 51.4669C147.662 51.8175 141.617 56.9463 141.617 62.9344Z" fill="url(#paint7_linear_344_17516)"/>
<path d="M151.217 56.6995V67.2801C151.217 67.9607 151.794 68.387 152.29 68.0707L161.154 62.5089C161.704 62.1651 161.704 61.182 161.154 60.8657L152.29 55.8401C151.794 55.5582 151.217 56.0189 151.217 56.6995Z" fill="white"/>
<g opacity="0.3">
<path d="M151.913 70.8193C153.584 67.533 151.892 64.5355 154.155 62.363C156.466 60.1424 159.492 62.0468 162.779 60.1837C164.058 59.4549 165.488 58.1005 166.554 55.3574C168.411 57.1793 169.518 59.5099 169.518 62.088C169.518 68.3237 163.075 73.4662 155.283 73.5762C153.522 73.6037 151.851 73.363 150.311 72.9162C151.067 72.208 151.569 71.493 151.913 70.8193Z" fill="url(#paint8_linear_344_17516)"/>
</g>
<path d="M110.223 17.401C115.808 17.5729 120.498 20.9829 121.413 25.2935C121.413 25.3004 121.413 25.3073 121.419 25.3073C121.468 25.541 121.509 25.7817 121.536 26.0223C121.536 26.036 121.543 26.0567 121.543 26.0704C121.557 26.1804 121.564 26.2973 121.571 26.4073C121.571 26.4279 121.571 26.4485 121.571 26.4692C121.578 26.586 121.578 26.7029 121.578 26.8198C121.578 31.8317 116.461 35.6335 110.223 35.3104C110.058 35.3035 109.893 35.2898 109.728 35.276C109.715 35.276 109.694 35.276 109.68 35.2692C109.522 35.2554 109.371 35.2417 109.219 35.221C109.199 35.221 109.171 35.2142 109.151 35.2142C108.999 35.1935 108.855 35.1729 108.71 35.1523C108.683 35.1454 108.655 35.1454 108.628 35.1385C108.484 35.1179 108.339 35.0904 108.202 35.0629C108.174 35.056 108.147 35.0492 108.112 35.0423C107.968 35.0148 107.83 34.9804 107.693 34.946C107.665 34.9392 107.638 34.9323 107.61 34.9254C107.473 34.891 107.335 34.8567 107.198 34.8154C107.17 34.8085 107.149 34.8017 107.122 34.7948C106.998 34.7604 106.881 34.726 106.757 34.6848C106.73 34.6779 106.695 34.6642 106.668 34.6573C106.544 34.616 106.427 34.5748 106.303 34.5335C106.276 34.5267 106.248 34.5129 106.228 34.506C102.088 33.0142 99.1719 29.6523 99.1719 25.8917C99.165 21.0242 104.082 17.2154 110.223 17.401Z" fill="url(#paint9_linear_344_17516)"/>
<path d="M97.9824 25.9049C97.9824 30.7861 102.9 35.0005 109.041 35.3236C115.272 35.6468 120.395 31.8449 120.395 26.833C120.395 21.8211 115.278 17.593 109.041 17.4074C102.9 17.2149 97.9824 21.0236 97.9824 25.9049Z" fill="url(#paint10_linear_344_17516)"/>
<path d="M105.053 24.3724C105.053 25.8093 106.724 29.2193 107.9 31.4468C108.388 32.3749 109.688 32.4368 110.176 31.5568C111.366 29.4256 113.058 26.1324 113.058 24.6887C113.058 22.4543 111.249 20.5843 109.035 20.5087C106.834 20.4262 105.053 22.1587 105.053 24.3724ZM106.896 24.4412C106.896 23.2518 107.859 22.3168 109.041 22.3649C110.231 22.4062 111.201 23.4168 111.201 24.6131C111.201 25.8093 110.231 26.7374 109.041 26.6893C107.859 26.6412 106.896 25.6306 106.896 24.4412Z" fill="white"/>
<g opacity="0.3">
<path d="M106.331 32.9101C107.679 30.332 106.317 27.8088 108.133 26.1726C109.99 24.5088 112.41 26.2276 115.038 24.9076C116.055 24.3988 117.19 23.3813 118.036 21.2363C119.508 22.8107 120.388 24.7563 120.388 26.8257C120.388 31.8376 115.271 35.6395 109.034 35.3163C107.617 35.2407 106.269 34.9657 105.031 34.5188C105.65 33.9963 106.056 33.4395 106.331 32.9101Z" fill="url(#paint11_linear_344_17516)"/>
</g>
<path d="M110.202 57.8532L147.813 96.7382C147.222 97.4051 146.259 97.4188 145.317 97.3569L56.5327 91.4376C55.7006 91.3826 54.9303 90.9769 54.332 90.3582L103.765 56.8976C105.732 55.5776 108.359 55.9626 110.202 57.8532Z" fill="url(#paint12_linear_344_17516)"/>
<path d="M110.855 130.337L147.964 96.9314C147.386 96.2026 146.561 95.7214 145.626 95.6595L56.8073 90.2901C55.9614 90.242 55.1775 90.5445 54.5723 91.0876L104.432 130.509C106.398 132.063 109.019 131.987 110.855 130.337Z" fill="url(#paint13_linear_344_17516)"/>
<path d="M110.855 130.336C109.019 131.986 106.399 132.062 104.439 130.515L54.5795 91.0938C53.8437 91.7538 53.3691 92.7712 53.3691 93.9194V157.836C53.3691 159.988 55.0197 161.721 56.9521 161.597L145.771 155.836C147.497 155.726 148.824 154.144 148.824 152.219V99.4194C148.824 98.4706 148.501 97.5975 147.971 96.9375L110.855 130.336Z" fill="url(#paint14_linear_344_17516)"/>
<path d="M144.114 95.6252L55.2814 90.2559C53.3971 90.139 51.8359 91.7821 51.8359 93.879V157.803C51.8359 159.955 53.4865 161.687 55.4189 161.563L144.244 155.802C145.97 155.692 147.298 154.111 147.298 152.186V99.379C147.305 97.3921 145.895 95.7284 144.114 95.6252Z" fill="url(#paint15_linear_344_17516)"/>
<path d="M144.649 155.279V54.8558C144.649 51.4527 143.686 48.1802 141.905 45.2927L54.5928 37.6133L53.293 38.8508C55.1498 41.7314 56.2501 45.0727 56.2501 48.5652V157.218L144.649 155.279Z" fill="#D8DEE8"/>
<path d="M146.342 154.124V53.6183C146.342 47.637 145.207 46.9358 143.419 44.0552L54.5938 37.6133C56.4506 40.4939 57.4546 43.842 57.4546 47.3345V156.063L146.342 154.124Z" fill="url(#paint16_linear_344_17516)"/>
<path d="M148.81 99.4136V152.214C148.81 154.145 147.483 155.72 145.763 155.83L140.2 156.187L57.0207 161.584C55.0882 161.708 53.5065 159.975 53.5065 157.824V93.9136C53.5065 93.838 53.4446 93.7692 53.4446 93.7005C53.4514 93.6111 53.4239 93.5217 53.4308 93.4323C53.4377 93.3842 53.4239 93.3361 53.4377 93.288C53.4377 93.2811 53.4308 93.2742 53.4308 93.2673C53.4446 93.1986 53.4514 93.1367 53.4652 93.0749C53.4789 93.0199 53.4858 92.958 53.4996 92.903C53.5202 92.8136 53.5477 92.7242 53.5752 92.6348C53.6302 92.463 53.699 92.3049 53.7747 92.1467C53.809 92.0711 53.8503 92.0023 53.8916 91.9336C53.9191 91.8855 53.9466 91.8442 53.9741 91.7961C54.0085 91.7411 54.0429 91.693 54.0841 91.638C54.1185 91.583 54.1598 91.5348 54.201 91.4867C54.2423 91.4386 54.2836 91.3905 54.3248 91.3423C54.373 91.2873 54.4211 91.2392 54.4693 91.1842C54.5036 91.143 54.5449 91.1086 54.5862 91.0742L104.445 130.502C106.405 132.049 109.026 131.98 110.862 130.324L147.971 96.918C148.239 97.248 148.452 97.633 148.597 98.0592C148.638 98.1624 148.666 98.2723 148.693 98.3823C148.707 98.4373 148.721 98.4924 148.734 98.5405C148.748 98.5886 148.755 98.6367 148.762 98.6848C148.776 98.7398 148.782 98.8017 148.789 98.8567C148.796 98.9186 148.803 98.9736 148.803 99.0355C148.81 99.1661 148.81 99.2898 148.81 99.4136Z" fill="url(#paint17_linear_344_17516)"/>
<path opacity="0.37" d="M148.811 99.4136V152.214C148.811 154.145 147.484 155.72 145.764 155.83L140.201 156.187C139.327 153.616 137.973 151.244 135.854 149.718C128.847 144.665 120.415 153.815 112.149 148.776C106.248 145.174 108.538 139.282 101.379 134.112C94.5916 129.21 90.4996 133.019 85.7475 127.917C81.1811 123.009 83.4643 117.88 78.2514 113.294C75.5487 110.909 74.9023 112.263 68.7679 108.922C62.2002 105.347 61.4437 102.947 58.012 102.555C56.7672 102.411 54.9861 102.542 53.5006 103.346V93.9136C53.5006 93.838 53.4387 93.7692 53.4387 93.7005C53.4456 93.6111 53.4181 93.5217 53.4249 93.4323C53.4318 93.3842 53.4181 93.3361 53.4318 93.288C53.4318 93.2811 53.4249 93.2742 53.4249 93.2673C53.4387 93.1986 53.4456 93.1367 53.4593 93.0749C53.4731 93.0199 53.48 92.958 53.4937 92.903C53.5143 92.8136 53.5419 92.7242 53.5694 92.6348C53.6244 92.463 53.6932 92.3049 53.7688 92.1467C53.8032 92.0711 53.8444 92.0023 53.8857 91.9336C53.9132 91.8855 53.9407 91.8442 53.9682 91.7961C54.0026 91.7411 54.037 91.693 54.0783 91.638C54.1127 91.583 54.1539 91.5348 54.1952 91.4867C54.2364 91.4386 54.2777 91.3905 54.319 91.3423C54.3671 91.2873 54.4152 91.2392 54.4634 91.1842C54.4978 91.143 54.539 91.1086 54.5803 91.0742L104.44 130.502C106.4 132.049 109.02 131.98 110.856 130.324L147.965 96.918C148.226 97.2548 148.44 97.6399 148.591 98.0592C148.625 98.1624 148.66 98.2723 148.687 98.3823C148.701 98.4373 148.715 98.4924 148.728 98.5405C148.742 98.5886 148.749 98.6367 148.756 98.6848C148.77 98.7398 148.777 98.8017 148.783 98.8567C148.79 98.9186 148.797 98.9736 148.797 99.0355C148.811 99.1661 148.811 99.2898 148.811 99.4136Z" fill="url(#paint18_linear_344_17516)"/>
<path d="M132.636 80.1068C132.636 83.6543 132.093 86.8855 131.006 89.8005C129.913 92.7224 128.372 94.998 126.371 96.6343C124.363 98.2774 122.025 99.0749 119.356 99.0199C117.568 98.9855 115.98 98.5111 114.597 97.5968C113.208 96.6824 112.211 95.4861 111.599 94.0218L111.014 94.008C108.367 97.1843 104.983 98.738 100.85 98.6555C96.4416 98.5661 92.9411 97.143 90.369 94.3793C87.7901 91.6018 86.4972 87.848 86.4972 83.118C86.4972 77.728 88.1958 73.4518 91.5794 70.303C94.9492 67.168 99.3162 65.7311 104.674 65.9786C106.792 66.0749 109.123 66.3911 111.654 66.9136C114.178 67.443 116.248 68.0274 117.864 68.6736L117.032 86.9336C117.032 90.3986 117.953 92.1586 119.783 92.2068C121.323 92.248 122.547 91.1136 123.462 88.8174C124.37 86.5211 124.824 83.5099 124.824 79.763C124.824 75.7686 124.019 72.2143 122.417 69.0793C120.807 65.9374 118.531 63.483 115.594 61.7161C112.637 59.9424 109.247 58.9524 105.416 58.7599C100.417 58.5055 96.0427 59.3305 92.3015 61.2555C88.5397 63.1874 85.6444 66.1161 83.6157 70.028C81.5869 73.9536 80.5691 78.5599 80.5691 83.8193C80.5691 90.9005 82.4534 96.3799 86.2152 100.23C89.9495 104.059 95.3275 106.012 102.301 106.108C104.921 106.142 107.789 105.888 110.904 105.345C113.999 104.802 117.032 103.997 120.003 102.925V110.089C114.824 112.302 109.027 113.396 102.597 113.341C93.113 113.258 85.6238 110.639 80.1977 105.448C74.7235 100.216 71.9727 92.9836 71.9727 83.7849C71.9727 77.4049 73.3825 71.6643 76.1883 66.5905C78.9805 61.5374 82.9417 57.6805 88.0377 55.0199C93.0993 52.3799 98.8692 51.2524 105.341 51.6236C110.739 51.933 115.526 53.3286 119.714 55.8036C123.868 58.2649 127.059 61.5993 129.294 65.8068C131.529 69.9936 132.636 74.7649 132.636 80.1068ZM95.2793 83.5443C95.2793 88.8999 97.4319 91.6293 101.709 91.7393C103.938 91.7943 105.629 91.038 106.785 89.4705C107.94 87.9099 108.642 85.3318 108.882 81.7499L109.364 73.4449C108.112 73.1218 106.702 72.9224 105.121 72.8605C102.033 72.7368 99.6119 73.6236 97.8857 75.5349C96.1527 77.453 95.2793 80.1205 95.2793 83.5443Z" fill="url(#paint19_linear_344_17516)"/>
</g>
<defs>
<linearGradient id="paint0_linear_344_17516" x1="97.984" y1="197.672" x2="97.984" y2="12.9991" gradientUnits="userSpaceOnUse">
<stop stop-color="#018543"/>
<stop offset="1" stop-color="#018543" stop-opacity="0"/>
</linearGradient>
<linearGradient id="paint1_linear_344_17516" x1="30.977" y1="174.628" x2="213.548" y2="174.628" gradientUnits="userSpaceOnUse">
<stop offset="0.494" stop-color="#EBEFF2"/>
<stop offset="1" stop-color="white"/>
</linearGradient>
<linearGradient id="paint2_linear_344_17516" x1="168.289" y1="-23.5487" x2="122.722" y2="90.4045" gradientUnits="userSpaceOnUse">
<stop stop-color="#311944"/>
<stop offset="1" stop-color="#893976"/>
</linearGradient>
<linearGradient id="paint3_linear_344_17516" x1="139.651" y1="20.5674" x2="160.618" y2="59.4672" gradientUnits="userSpaceOnUse">
<stop stop-color="#FF9085"/>
<stop offset="1" stop-color="#FB6FBB"/>
</linearGradient>
<linearGradient id="paint4_linear_344_17516" x1="139.651" y1="20.5674" x2="160.618" y2="59.4672" gradientUnits="userSpaceOnUse">
<stop stop-color="#FF9085"/>
<stop offset="1" stop-color="#FB6FBB"/>
</linearGradient>
<linearGradient id="paint5_linear_344_17516" x1="156.59" y1="22.7886" x2="136.038" y2="64.0437" gradientUnits="userSpaceOnUse">
<stop stop-color="#FF9085"/>
<stop offset="1" stop-color="#FB6FBB"/>
</linearGradient>
<linearGradient id="paint6_linear_344_17516" x1="147.088" y1="51.3808" x2="156.691" y2="62.3748" gradientUnits="userSpaceOnUse">
<stop stop-color="#FFC444"/>
<stop offset="0.9964" stop-color="#F36F56"/>
</linearGradient>
<linearGradient id="paint7_linear_344_17516" x1="160.643" y1="53.1029" x2="141.9" y2="87.8772" gradientUnits="userSpaceOnUse">
<stop stop-color="#FFC444"/>
<stop offset="0.9964" stop-color="#F36F56"/>
</linearGradient>
<linearGradient id="paint8_linear_344_17516" x1="165.867" y1="54.9447" x2="147.386" y2="92.0446" gradientUnits="userSpaceOnUse">
<stop stop-color="#FFC444"/>
<stop offset="0.9964" stop-color="#F36F56"/>
</linearGradient>
<linearGradient id="paint9_linear_344_17516" x1="98.99" y1="23.6807" x2="115.949" y2="27.6879" gradientUnits="userSpaceOnUse">
<stop stop-color="#311944"/>
<stop offset="1" stop-color="#893976"/>
</linearGradient>
<linearGradient id="paint10_linear_344_17516" x1="113.125" y1="19.077" x2="98.5928" y2="46.0385" gradientUnits="userSpaceOnUse">
<stop offset="0.00359712" stop-color="#E38DDD"/>
<stop offset="1" stop-color="#9571F6"/>
</linearGradient>
<linearGradient id="paint11_linear_344_17516" x1="117.386" y1="20.8577" x2="103.146" y2="49.4443" gradientUnits="userSpaceOnUse">
<stop stop-color="#FF9085"/>
<stop offset="1" stop-color="#FB6FBB"/>
</linearGradient>
<linearGradient id="paint12_linear_344_17516" x1="90.4376" y1="77.048" x2="148.764" y2="167.612" gradientUnits="userSpaceOnUse">
<stop stop-color="#FFC444"/>
<stop offset="0.9964" stop-color="#F36F56"/>
</linearGradient>
<linearGradient id="paint13_linear_344_17516" x1="100.172" y1="118.087" x2="103.788" y2="39.0601" gradientUnits="userSpaceOnUse">
<stop stop-color="#FFC444"/>
<stop offset="0.9964" stop-color="#F36F56"/>
</linearGradient>
<linearGradient id="paint14_linear_344_17516" x1="91.6523" y1="107.713" x2="127.197" y2="186.46" gradientUnits="userSpaceOnUse">
<stop stop-color="#FFC444"/>
<stop offset="0.9964" stop-color="#F36F56"/>
</linearGradient>
<linearGradient id="paint15_linear_344_17516" x1="71.2554" y1="126.032" x2="31.6936" y2="130.233" gradientUnits="userSpaceOnUse">
<stop stop-color="#FFC444"/>
<stop offset="0.9964" stop-color="#F36F56"/>
</linearGradient>
<linearGradient id="paint16_linear_344_17516" x1="118.489" y1="58.6139" x2="64.4178" y2="170.47" gradientUnits="userSpaceOnUse">
<stop stop-color="white"/>
<stop offset="0.9964" stop-color="#EBEFF2"/>
</linearGradient>
<linearGradient id="paint17_linear_344_17516" x1="91.7382" y1="107.772" x2="127.234" y2="186.412" gradientUnits="userSpaceOnUse">
<stop stop-color="#FFC444"/>
<stop offset="0.9964" stop-color="#F36F56"/>
</linearGradient>
<linearGradient id="paint18_linear_344_17516" x1="102.095" y1="103.001" x2="137.638" y2="181.746" gradientUnits="userSpaceOnUse">
<stop stop-color="#FFC444"/>
<stop offset="0.9964" stop-color="#F36F56"/>
</linearGradient>
<linearGradient id="paint19_linear_344_17516" x1="71.9827" y1="82.4419" x2="132.638" y2="82.4419" gradientUnits="userSpaceOnUse">
<stop stop-color="#018543"/>
<stop offset="0.9964" stop-color="#015C2E"/>
</linearGradient>
<clipPath id="clip0_344_17516">
<rect width="198" height="198" fill="white"/>
</clipPath>
</defs>
</svg>
